%TF.GenerationSoftware,KiCad,Pcbnew,10.0.0*%
%TF.CreationDate,2026-08-10T11:42:10+05:30*%
%TF.ProjectId,USB to EtherCAT (Final proj -1),55534220-746f-4204-9574-686572434154,rev?*%
%TF.SameCoordinates,Original*%
%TF.FileFunction,Legend,Top*%
%TF.FilePolarity,Positive*%
%FSLAX46Y46*%
G04 Gerber Fmt 4.6, Leading zero omitted, Abs format (unit mm)*
G04 Created by KiCad (PCBNEW 10.0.0) date 2026-08-10 11:42:10*
%MOMM*%
%LPD*%
G01*
G04 APERTURE LIST*
%ADD10C,0.100000*%
%ADD11C,0.225000*%
%ADD12C,0.200000*%
%ADD13C,0.150000*%
%ADD14C,0.120000*%
%ADD15C,0.127000*%
%ADD16C,0.000000*%
G04 APERTURE END LIST*
D10*
X248357419Y-116763220D02*
X248357419Y-117239410D01*
X248357419Y-117239410D02*
X248833609Y-117287029D01*
X248833609Y-117287029D02*
X248785990Y-117239410D01*
X248785990Y-117239410D02*
X248738371Y-117144172D01*
X248738371Y-117144172D02*
X248738371Y-116906077D01*
X248738371Y-116906077D02*
X248785990Y-116810839D01*
X248785990Y-116810839D02*
X248833609Y-116763220D01*
X248833609Y-116763220D02*
X248928847Y-116715601D01*
X248928847Y-116715601D02*
X249166942Y-116715601D01*
X249166942Y-116715601D02*
X249262180Y-116763220D01*
X249262180Y-116763220D02*
X249309800Y-116810839D01*
X249309800Y-116810839D02*
X249357419Y-116906077D01*
X249357419Y-116906077D02*
X249357419Y-117144172D01*
X249357419Y-117144172D02*
X249309800Y-117239410D01*
X249309800Y-117239410D02*
X249262180Y-117287029D01*
X248357419Y-116096553D02*
X248357419Y-116001315D01*
X248357419Y-116001315D02*
X248405038Y-115906077D01*
X248405038Y-115906077D02*
X248452657Y-115858458D01*
X248452657Y-115858458D02*
X248547895Y-115810839D01*
X248547895Y-115810839D02*
X248738371Y-115763220D01*
X248738371Y-115763220D02*
X248976466Y-115763220D01*
X248976466Y-115763220D02*
X249166942Y-115810839D01*
X249166942Y-115810839D02*
X249262180Y-115858458D01*
X249262180Y-115858458D02*
X249309800Y-115906077D01*
X249309800Y-115906077D02*
X249357419Y-116001315D01*
X249357419Y-116001315D02*
X249357419Y-116096553D01*
X249357419Y-116096553D02*
X249309800Y-116191791D01*
X249309800Y-116191791D02*
X249262180Y-116239410D01*
X249262180Y-116239410D02*
X249166942Y-116287029D01*
X249166942Y-116287029D02*
X248976466Y-116334648D01*
X248976466Y-116334648D02*
X248738371Y-116334648D01*
X248738371Y-116334648D02*
X248547895Y-116287029D01*
X248547895Y-116287029D02*
X248452657Y-116239410D01*
X248452657Y-116239410D02*
X248405038Y-116191791D01*
X248405038Y-116191791D02*
X248357419Y-116096553D01*
X248500000Y-91525125D02*
X250586420Y-91525125D01*
X250586420Y-141525125D02*
X245200000Y-141525125D01*
X250000000Y-91525125D02*
X250000000Y-141525125D01*
X250000000Y-91525125D02*
X250586421Y-92651629D01*
X250000000Y-91525125D02*
X249413579Y-92651629D01*
X250000000Y-141525125D02*
X249413579Y-140398621D01*
X250000000Y-141525125D02*
X250586421Y-140398621D01*
D11*
X197775300Y-100345670D02*
X197818157Y-100217099D01*
X197818157Y-100217099D02*
X197818157Y-100002813D01*
X197818157Y-100002813D02*
X197775300Y-99917099D01*
X197775300Y-99917099D02*
X197732442Y-99874241D01*
X197732442Y-99874241D02*
X197646728Y-99831384D01*
X197646728Y-99831384D02*
X197561014Y-99831384D01*
X197561014Y-99831384D02*
X197475300Y-99874241D01*
X197475300Y-99874241D02*
X197432442Y-99917099D01*
X197432442Y-99917099D02*
X197389585Y-100002813D01*
X197389585Y-100002813D02*
X197346728Y-100174241D01*
X197346728Y-100174241D02*
X197303871Y-100259956D01*
X197303871Y-100259956D02*
X197261014Y-100302813D01*
X197261014Y-100302813D02*
X197175300Y-100345670D01*
X197175300Y-100345670D02*
X197089585Y-100345670D01*
X197089585Y-100345670D02*
X197003871Y-100302813D01*
X197003871Y-100302813D02*
X196961014Y-100259956D01*
X196961014Y-100259956D02*
X196918157Y-100174241D01*
X196918157Y-100174241D02*
X196918157Y-99959956D01*
X196918157Y-99959956D02*
X196961014Y-99831384D01*
X196918157Y-99531384D02*
X197818157Y-99317098D01*
X197818157Y-99317098D02*
X197175300Y-99145670D01*
X197175300Y-99145670D02*
X197818157Y-98974241D01*
X197818157Y-98974241D02*
X196918157Y-98759956D01*
X197818157Y-98417099D02*
X196918157Y-98417099D01*
X196918157Y-98417099D02*
X196918157Y-98202813D01*
X196918157Y-98202813D02*
X196961014Y-98074242D01*
X196961014Y-98074242D02*
X197046728Y-97988527D01*
X197046728Y-97988527D02*
X197132442Y-97945670D01*
X197132442Y-97945670D02*
X197303871Y-97902813D01*
X197303871Y-97902813D02*
X197432442Y-97902813D01*
X197432442Y-97902813D02*
X197603871Y-97945670D01*
X197603871Y-97945670D02*
X197689585Y-97988527D01*
X197689585Y-97988527D02*
X197775300Y-98074242D01*
X197775300Y-98074242D02*
X197818157Y-98202813D01*
X197818157Y-98202813D02*
X197818157Y-98417099D01*
X197818157Y-97517099D02*
X196918157Y-97517099D01*
X196918157Y-96917099D02*
X196918157Y-96745671D01*
X196918157Y-96745671D02*
X196961014Y-96659956D01*
X196961014Y-96659956D02*
X197046728Y-96574242D01*
X197046728Y-96574242D02*
X197218157Y-96531385D01*
X197218157Y-96531385D02*
X197518157Y-96531385D01*
X197518157Y-96531385D02*
X197689585Y-96574242D01*
X197689585Y-96574242D02*
X197775300Y-96659956D01*
X197775300Y-96659956D02*
X197818157Y-96745671D01*
X197818157Y-96745671D02*
X197818157Y-96917099D01*
X197818157Y-96917099D02*
X197775300Y-97002814D01*
X197775300Y-97002814D02*
X197689585Y-97088528D01*
X197689585Y-97088528D02*
X197518157Y-97131385D01*
X197518157Y-97131385D02*
X197218157Y-97131385D01*
X197218157Y-97131385D02*
X197046728Y-97088528D01*
X197046728Y-97088528D02*
X196961014Y-97002814D01*
X196961014Y-97002814D02*
X196918157Y-96917099D01*
D12*
X200403600Y-100121166D02*
X200441695Y-100006880D01*
X200441695Y-100006880D02*
X200441695Y-99816404D01*
X200441695Y-99816404D02*
X200403600Y-99740213D01*
X200403600Y-99740213D02*
X200365504Y-99702118D01*
X200365504Y-99702118D02*
X200289314Y-99664023D01*
X200289314Y-99664023D02*
X200213123Y-99664023D01*
X200213123Y-99664023D02*
X200136933Y-99702118D01*
X200136933Y-99702118D02*
X200098838Y-99740213D01*
X200098838Y-99740213D02*
X200060742Y-99816404D01*
X200060742Y-99816404D02*
X200022647Y-99968785D01*
X200022647Y-99968785D02*
X199984552Y-100044975D01*
X199984552Y-100044975D02*
X199946457Y-100083070D01*
X199946457Y-100083070D02*
X199870266Y-100121166D01*
X199870266Y-100121166D02*
X199794076Y-100121166D01*
X199794076Y-100121166D02*
X199717885Y-100083070D01*
X199717885Y-100083070D02*
X199679790Y-100044975D01*
X199679790Y-100044975D02*
X199641695Y-99968785D01*
X199641695Y-99968785D02*
X199641695Y-99778308D01*
X199641695Y-99778308D02*
X199679790Y-99664023D01*
X199641695Y-99397356D02*
X200441695Y-99206880D01*
X200441695Y-99206880D02*
X199870266Y-99054499D01*
X199870266Y-99054499D02*
X200441695Y-98902118D01*
X200441695Y-98902118D02*
X199641695Y-98711642D01*
X200365504Y-97949736D02*
X200403600Y-97987832D01*
X200403600Y-97987832D02*
X200441695Y-98102117D01*
X200441695Y-98102117D02*
X200441695Y-98178308D01*
X200441695Y-98178308D02*
X200403600Y-98292594D01*
X200403600Y-98292594D02*
X200327409Y-98368784D01*
X200327409Y-98368784D02*
X200251219Y-98406879D01*
X200251219Y-98406879D02*
X200098838Y-98444975D01*
X200098838Y-98444975D02*
X199984552Y-98444975D01*
X199984552Y-98444975D02*
X199832171Y-98406879D01*
X199832171Y-98406879D02*
X199755980Y-98368784D01*
X199755980Y-98368784D02*
X199679790Y-98292594D01*
X199679790Y-98292594D02*
X199641695Y-98178308D01*
X199641695Y-98178308D02*
X199641695Y-98102117D01*
X199641695Y-98102117D02*
X199679790Y-97987832D01*
X199679790Y-97987832D02*
X199717885Y-97949736D01*
X200441695Y-97225927D02*
X200441695Y-97606879D01*
X200441695Y-97606879D02*
X199641695Y-97606879D01*
X200441695Y-96959260D02*
X199641695Y-96959260D01*
X200441695Y-96502117D02*
X199984552Y-96844975D01*
X199641695Y-96502117D02*
X200098838Y-96959260D01*
D11*
X195125300Y-100262813D02*
X195125300Y-99577099D01*
X195468157Y-99919956D02*
X194782442Y-99919956D01*
X194568157Y-99234241D02*
X194568157Y-98677098D01*
X194568157Y-98677098D02*
X194911014Y-98977098D01*
X194911014Y-98977098D02*
X194911014Y-98848527D01*
X194911014Y-98848527D02*
X194953871Y-98762813D01*
X194953871Y-98762813D02*
X194996728Y-98719955D01*
X194996728Y-98719955D02*
X195082442Y-98677098D01*
X195082442Y-98677098D02*
X195296728Y-98677098D01*
X195296728Y-98677098D02*
X195382442Y-98719955D01*
X195382442Y-98719955D02*
X195425300Y-98762813D01*
X195425300Y-98762813D02*
X195468157Y-98848527D01*
X195468157Y-98848527D02*
X195468157Y-99105670D01*
X195468157Y-99105670D02*
X195425300Y-99191384D01*
X195425300Y-99191384D02*
X195382442Y-99234241D01*
X195382442Y-98291384D02*
X195425300Y-98248527D01*
X195425300Y-98248527D02*
X195468157Y-98291384D01*
X195468157Y-98291384D02*
X195425300Y-98334241D01*
X195425300Y-98334241D02*
X195382442Y-98291384D01*
X195382442Y-98291384D02*
X195468157Y-98291384D01*
X194568157Y-97948527D02*
X194568157Y-97391384D01*
X194568157Y-97391384D02*
X194911014Y-97691384D01*
X194911014Y-97691384D02*
X194911014Y-97562813D01*
X194911014Y-97562813D02*
X194953871Y-97477099D01*
X194953871Y-97477099D02*
X194996728Y-97434241D01*
X194996728Y-97434241D02*
X195082442Y-97391384D01*
X195082442Y-97391384D02*
X195296728Y-97391384D01*
X195296728Y-97391384D02*
X195382442Y-97434241D01*
X195382442Y-97434241D02*
X195425300Y-97477099D01*
X195425300Y-97477099D02*
X195468157Y-97562813D01*
X195468157Y-97562813D02*
X195468157Y-97819956D01*
X195468157Y-97819956D02*
X195425300Y-97905670D01*
X195425300Y-97905670D02*
X195382442Y-97948527D01*
X194568157Y-97134241D02*
X195468157Y-96834241D01*
X195468157Y-96834241D02*
X194568157Y-96534241D01*
X202231014Y-98351384D02*
X202188157Y-98437099D01*
X202188157Y-98437099D02*
X202188157Y-98565670D01*
X202188157Y-98565670D02*
X202231014Y-98694241D01*
X202231014Y-98694241D02*
X202316728Y-98779956D01*
X202316728Y-98779956D02*
X202402442Y-98822813D01*
X202402442Y-98822813D02*
X202573871Y-98865670D01*
X202573871Y-98865670D02*
X202702442Y-98865670D01*
X202702442Y-98865670D02*
X202873871Y-98822813D01*
X202873871Y-98822813D02*
X202959585Y-98779956D01*
X202959585Y-98779956D02*
X203045300Y-98694241D01*
X203045300Y-98694241D02*
X203088157Y-98565670D01*
X203088157Y-98565670D02*
X203088157Y-98479956D01*
X203088157Y-98479956D02*
X203045300Y-98351384D01*
X203045300Y-98351384D02*
X203002442Y-98308527D01*
X203002442Y-98308527D02*
X202702442Y-98308527D01*
X202702442Y-98308527D02*
X202702442Y-98479956D01*
X203088157Y-97922813D02*
X202188157Y-97922813D01*
X202188157Y-97922813D02*
X203088157Y-97408527D01*
X203088157Y-97408527D02*
X202188157Y-97408527D01*
X203088157Y-96979956D02*
X202188157Y-96979956D01*
X202188157Y-96979956D02*
X202188157Y-96765670D01*
X202188157Y-96765670D02*
X202231014Y-96637099D01*
X202231014Y-96637099D02*
X202316728Y-96551384D01*
X202316728Y-96551384D02*
X202402442Y-96508527D01*
X202402442Y-96508527D02*
X202573871Y-96465670D01*
X202573871Y-96465670D02*
X202702442Y-96465670D01*
X202702442Y-96465670D02*
X202873871Y-96508527D01*
X202873871Y-96508527D02*
X202959585Y-96551384D01*
X202959585Y-96551384D02*
X203045300Y-96637099D01*
X203045300Y-96637099D02*
X203088157Y-96765670D01*
X203088157Y-96765670D02*
X203088157Y-96979956D01*
D10*
X205128571Y-143785990D02*
X205033333Y-143738371D01*
X205033333Y-143738371D02*
X204985714Y-143690752D01*
X204985714Y-143690752D02*
X204938095Y-143595514D01*
X204938095Y-143595514D02*
X204938095Y-143547895D01*
X204938095Y-143547895D02*
X204985714Y-143452657D01*
X204985714Y-143452657D02*
X205033333Y-143405038D01*
X205033333Y-143405038D02*
X205128571Y-143357419D01*
X205128571Y-143357419D02*
X205319047Y-143357419D01*
X205319047Y-143357419D02*
X205414285Y-143405038D01*
X205414285Y-143405038D02*
X205461904Y-143452657D01*
X205461904Y-143452657D02*
X205509523Y-143547895D01*
X205509523Y-143547895D02*
X205509523Y-143595514D01*
X205509523Y-143595514D02*
X205461904Y-143690752D01*
X205461904Y-143690752D02*
X205414285Y-143738371D01*
X205414285Y-143738371D02*
X205319047Y-143785990D01*
X205319047Y-143785990D02*
X205128571Y-143785990D01*
X205128571Y-143785990D02*
X205033333Y-143833609D01*
X205033333Y-143833609D02*
X204985714Y-143881228D01*
X204985714Y-143881228D02*
X204938095Y-143976466D01*
X204938095Y-143976466D02*
X204938095Y-144166942D01*
X204938095Y-144166942D02*
X204985714Y-144262180D01*
X204985714Y-144262180D02*
X205033333Y-144309800D01*
X205033333Y-144309800D02*
X205128571Y-144357419D01*
X205128571Y-144357419D02*
X205319047Y-144357419D01*
X205319047Y-144357419D02*
X205414285Y-144309800D01*
X205414285Y-144309800D02*
X205461904Y-144262180D01*
X205461904Y-144262180D02*
X205509523Y-144166942D01*
X205509523Y-144166942D02*
X205509523Y-143976466D01*
X205509523Y-143976466D02*
X205461904Y-143881228D01*
X205461904Y-143881228D02*
X205414285Y-143833609D01*
X205414285Y-143833609D02*
X205319047Y-143785990D01*
X206128571Y-143357419D02*
X206223809Y-143357419D01*
X206223809Y-143357419D02*
X206319047Y-143405038D01*
X206319047Y-143405038D02*
X206366666Y-143452657D01*
X206366666Y-143452657D02*
X206414285Y-143547895D01*
X206414285Y-143547895D02*
X206461904Y-143738371D01*
X206461904Y-143738371D02*
X206461904Y-143976466D01*
X206461904Y-143976466D02*
X206414285Y-144166942D01*
X206414285Y-144166942D02*
X206366666Y-144262180D01*
X206366666Y-144262180D02*
X206319047Y-144309800D01*
X206319047Y-144309800D02*
X206223809Y-144357419D01*
X206223809Y-144357419D02*
X206128571Y-144357419D01*
X206128571Y-144357419D02*
X206033333Y-144309800D01*
X206033333Y-144309800D02*
X205985714Y-144262180D01*
X205985714Y-144262180D02*
X205938095Y-144166942D01*
X205938095Y-144166942D02*
X205890476Y-143976466D01*
X205890476Y-143976466D02*
X205890476Y-143738371D01*
X205890476Y-143738371D02*
X205938095Y-143547895D01*
X205938095Y-143547895D02*
X205985714Y-143452657D01*
X205985714Y-143452657D02*
X206033333Y-143405038D01*
X206033333Y-143405038D02*
X206128571Y-143357419D01*
X165700000Y-146500000D02*
X165700000Y-144413580D01*
X245700000Y-145586420D02*
X245700000Y-142025125D01*
X165700000Y-145000000D02*
X245700000Y-145000000D01*
X165700000Y-145000000D02*
X166826504Y-144413579D01*
X165700000Y-145000000D02*
X166826504Y-145586421D01*
X245700000Y-145000000D02*
X244573496Y-145586421D01*
X245700000Y-145000000D02*
X244573496Y-144413579D01*
D13*
X241034819Y-103681791D02*
X240558628Y-104015124D01*
X241034819Y-104253219D02*
X240034819Y-104253219D01*
X240034819Y-104253219D02*
X240034819Y-103872267D01*
X240034819Y-103872267D02*
X240082438Y-103777029D01*
X240082438Y-103777029D02*
X240130057Y-103729410D01*
X240130057Y-103729410D02*
X240225295Y-103681791D01*
X240225295Y-103681791D02*
X240368152Y-103681791D01*
X240368152Y-103681791D02*
X240463390Y-103729410D01*
X240463390Y-103729410D02*
X240511009Y-103777029D01*
X240511009Y-103777029D02*
X240558628Y-103872267D01*
X240558628Y-103872267D02*
X240558628Y-104253219D01*
X240034819Y-102824648D02*
X240034819Y-103015124D01*
X240034819Y-103015124D02*
X240082438Y-103110362D01*
X240082438Y-103110362D02*
X240130057Y-103157981D01*
X240130057Y-103157981D02*
X240272914Y-103253219D01*
X240272914Y-103253219D02*
X240463390Y-103300838D01*
X240463390Y-103300838D02*
X240844342Y-103300838D01*
X240844342Y-103300838D02*
X240939580Y-103253219D01*
X240939580Y-103253219D02*
X240987200Y-103205600D01*
X240987200Y-103205600D02*
X241034819Y-103110362D01*
X241034819Y-103110362D02*
X241034819Y-102919886D01*
X241034819Y-102919886D02*
X240987200Y-102824648D01*
X240987200Y-102824648D02*
X240939580Y-102777029D01*
X240939580Y-102777029D02*
X240844342Y-102729410D01*
X240844342Y-102729410D02*
X240606247Y-102729410D01*
X240606247Y-102729410D02*
X240511009Y-102777029D01*
X240511009Y-102777029D02*
X240463390Y-102824648D01*
X240463390Y-102824648D02*
X240415771Y-102919886D01*
X240415771Y-102919886D02*
X240415771Y-103110362D01*
X240415771Y-103110362D02*
X240463390Y-103205600D01*
X240463390Y-103205600D02*
X240511009Y-103253219D01*
X240511009Y-103253219D02*
X240606247Y-103300838D01*
X187167142Y-123884944D02*
X186833809Y-123408753D01*
X186595714Y-123884944D02*
X186595714Y-122884944D01*
X186595714Y-122884944D02*
X186976666Y-122884944D01*
X186976666Y-122884944D02*
X187071904Y-122932563D01*
X187071904Y-122932563D02*
X187119523Y-122980182D01*
X187119523Y-122980182D02*
X187167142Y-123075420D01*
X187167142Y-123075420D02*
X187167142Y-123218277D01*
X187167142Y-123218277D02*
X187119523Y-123313515D01*
X187119523Y-123313515D02*
X187071904Y-123361134D01*
X187071904Y-123361134D02*
X186976666Y-123408753D01*
X186976666Y-123408753D02*
X186595714Y-123408753D01*
X188119523Y-123884944D02*
X187548095Y-123884944D01*
X187833809Y-123884944D02*
X187833809Y-122884944D01*
X187833809Y-122884944D02*
X187738571Y-123027801D01*
X187738571Y-123027801D02*
X187643333Y-123123039D01*
X187643333Y-123123039D02*
X187548095Y-123170658D01*
X189024285Y-122884944D02*
X188548095Y-122884944D01*
X188548095Y-122884944D02*
X188500476Y-123361134D01*
X188500476Y-123361134D02*
X188548095Y-123313515D01*
X188548095Y-123313515D02*
X188643333Y-123265896D01*
X188643333Y-123265896D02*
X188881428Y-123265896D01*
X188881428Y-123265896D02*
X188976666Y-123313515D01*
X188976666Y-123313515D02*
X189024285Y-123361134D01*
X189024285Y-123361134D02*
X189071904Y-123456372D01*
X189071904Y-123456372D02*
X189071904Y-123694467D01*
X189071904Y-123694467D02*
X189024285Y-123789705D01*
X189024285Y-123789705D02*
X188976666Y-123837325D01*
X188976666Y-123837325D02*
X188881428Y-123884944D01*
X188881428Y-123884944D02*
X188643333Y-123884944D01*
X188643333Y-123884944D02*
X188548095Y-123837325D01*
X188548095Y-123837325D02*
X188500476Y-123789705D01*
X187397142Y-109849944D02*
X187063809Y-109373753D01*
X186825714Y-109849944D02*
X186825714Y-108849944D01*
X186825714Y-108849944D02*
X187206666Y-108849944D01*
X187206666Y-108849944D02*
X187301904Y-108897563D01*
X187301904Y-108897563D02*
X187349523Y-108945182D01*
X187349523Y-108945182D02*
X187397142Y-109040420D01*
X187397142Y-109040420D02*
X187397142Y-109183277D01*
X187397142Y-109183277D02*
X187349523Y-109278515D01*
X187349523Y-109278515D02*
X187301904Y-109326134D01*
X187301904Y-109326134D02*
X187206666Y-109373753D01*
X187206666Y-109373753D02*
X186825714Y-109373753D01*
X188349523Y-109849944D02*
X187778095Y-109849944D01*
X188063809Y-109849944D02*
X188063809Y-108849944D01*
X188063809Y-108849944D02*
X187968571Y-108992801D01*
X187968571Y-108992801D02*
X187873333Y-109088039D01*
X187873333Y-109088039D02*
X187778095Y-109135658D01*
X188730476Y-108945182D02*
X188778095Y-108897563D01*
X188778095Y-108897563D02*
X188873333Y-108849944D01*
X188873333Y-108849944D02*
X189111428Y-108849944D01*
X189111428Y-108849944D02*
X189206666Y-108897563D01*
X189206666Y-108897563D02*
X189254285Y-108945182D01*
X189254285Y-108945182D02*
X189301904Y-109040420D01*
X189301904Y-109040420D02*
X189301904Y-109135658D01*
X189301904Y-109135658D02*
X189254285Y-109278515D01*
X189254285Y-109278515D02*
X188682857Y-109849944D01*
X188682857Y-109849944D02*
X189301904Y-109849944D01*
X221571905Y-125459944D02*
X221571905Y-124459944D01*
X221571905Y-124459944D02*
X221810000Y-124459944D01*
X221810000Y-124459944D02*
X221952857Y-124507563D01*
X221952857Y-124507563D02*
X222048095Y-124602801D01*
X222048095Y-124602801D02*
X222095714Y-124698039D01*
X222095714Y-124698039D02*
X222143333Y-124888515D01*
X222143333Y-124888515D02*
X222143333Y-125031372D01*
X222143333Y-125031372D02*
X222095714Y-125221848D01*
X222095714Y-125221848D02*
X222048095Y-125317086D01*
X222048095Y-125317086D02*
X221952857Y-125412325D01*
X221952857Y-125412325D02*
X221810000Y-125459944D01*
X221810000Y-125459944D02*
X221571905Y-125459944D01*
X222524286Y-124555182D02*
X222571905Y-124507563D01*
X222571905Y-124507563D02*
X222667143Y-124459944D01*
X222667143Y-124459944D02*
X222905238Y-124459944D01*
X222905238Y-124459944D02*
X223000476Y-124507563D01*
X223000476Y-124507563D02*
X223048095Y-124555182D01*
X223048095Y-124555182D02*
X223095714Y-124650420D01*
X223095714Y-124650420D02*
X223095714Y-124745658D01*
X223095714Y-124745658D02*
X223048095Y-124888515D01*
X223048095Y-124888515D02*
X222476667Y-125459944D01*
X222476667Y-125459944D02*
X223095714Y-125459944D01*
X191964819Y-94858458D02*
X192679104Y-94858458D01*
X192679104Y-94858458D02*
X192821961Y-94906077D01*
X192821961Y-94906077D02*
X192917200Y-95001315D01*
X192917200Y-95001315D02*
X192964819Y-95144172D01*
X192964819Y-95144172D02*
X192964819Y-95239410D01*
X192964819Y-93858458D02*
X192964819Y-94429886D01*
X192964819Y-94144172D02*
X191964819Y-94144172D01*
X191964819Y-94144172D02*
X192107676Y-94239410D01*
X192107676Y-94239410D02*
X192202914Y-94334648D01*
X192202914Y-94334648D02*
X192250533Y-94429886D01*
X182254819Y-116178458D02*
X182969104Y-116178458D01*
X182969104Y-116178458D02*
X183111961Y-116226077D01*
X183111961Y-116226077D02*
X183207200Y-116321315D01*
X183207200Y-116321315D02*
X183254819Y-116464172D01*
X183254819Y-116464172D02*
X183254819Y-116559410D01*
X182350057Y-115749886D02*
X182302438Y-115702267D01*
X182302438Y-115702267D02*
X182254819Y-115607029D01*
X182254819Y-115607029D02*
X182254819Y-115368934D01*
X182254819Y-115368934D02*
X182302438Y-115273696D01*
X182302438Y-115273696D02*
X182350057Y-115226077D01*
X182350057Y-115226077D02*
X182445295Y-115178458D01*
X182445295Y-115178458D02*
X182540533Y-115178458D01*
X182540533Y-115178458D02*
X182683390Y-115226077D01*
X182683390Y-115226077D02*
X183254819Y-115797505D01*
X183254819Y-115797505D02*
X183254819Y-115178458D01*
X241539642Y-111184705D02*
X241492023Y-111232325D01*
X241492023Y-111232325D02*
X241349166Y-111279944D01*
X241349166Y-111279944D02*
X241253928Y-111279944D01*
X241253928Y-111279944D02*
X241111071Y-111232325D01*
X241111071Y-111232325D02*
X241015833Y-111137086D01*
X241015833Y-111137086D02*
X240968214Y-111041848D01*
X240968214Y-111041848D02*
X240920595Y-110851372D01*
X240920595Y-110851372D02*
X240920595Y-110708515D01*
X240920595Y-110708515D02*
X240968214Y-110518039D01*
X240968214Y-110518039D02*
X241015833Y-110422801D01*
X241015833Y-110422801D02*
X241111071Y-110327563D01*
X241111071Y-110327563D02*
X241253928Y-110279944D01*
X241253928Y-110279944D02*
X241349166Y-110279944D01*
X241349166Y-110279944D02*
X241492023Y-110327563D01*
X241492023Y-110327563D02*
X241539642Y-110375182D01*
X242492023Y-111279944D02*
X241920595Y-111279944D01*
X242206309Y-111279944D02*
X242206309Y-110279944D01*
X242206309Y-110279944D02*
X242111071Y-110422801D01*
X242111071Y-110422801D02*
X242015833Y-110518039D01*
X242015833Y-110518039D02*
X241920595Y-110565658D01*
X243396785Y-110279944D02*
X242920595Y-110279944D01*
X242920595Y-110279944D02*
X242872976Y-110756134D01*
X242872976Y-110756134D02*
X242920595Y-110708515D01*
X242920595Y-110708515D02*
X243015833Y-110660896D01*
X243015833Y-110660896D02*
X243253928Y-110660896D01*
X243253928Y-110660896D02*
X243349166Y-110708515D01*
X243349166Y-110708515D02*
X243396785Y-110756134D01*
X243396785Y-110756134D02*
X243444404Y-110851372D01*
X243444404Y-110851372D02*
X243444404Y-111089467D01*
X243444404Y-111089467D02*
X243396785Y-111184705D01*
X243396785Y-111184705D02*
X243349166Y-111232325D01*
X243349166Y-111232325D02*
X243253928Y-111279944D01*
X243253928Y-111279944D02*
X243015833Y-111279944D01*
X243015833Y-111279944D02*
X242920595Y-111232325D01*
X242920595Y-111232325D02*
X242872976Y-111184705D01*
X187437142Y-103269944D02*
X187103809Y-102793753D01*
X186865714Y-103269944D02*
X186865714Y-102269944D01*
X186865714Y-102269944D02*
X187246666Y-102269944D01*
X187246666Y-102269944D02*
X187341904Y-102317563D01*
X187341904Y-102317563D02*
X187389523Y-102365182D01*
X187389523Y-102365182D02*
X187437142Y-102460420D01*
X187437142Y-102460420D02*
X187437142Y-102603277D01*
X187437142Y-102603277D02*
X187389523Y-102698515D01*
X187389523Y-102698515D02*
X187341904Y-102746134D01*
X187341904Y-102746134D02*
X187246666Y-102793753D01*
X187246666Y-102793753D02*
X186865714Y-102793753D01*
X188389523Y-103269944D02*
X187818095Y-103269944D01*
X188103809Y-103269944D02*
X188103809Y-102269944D01*
X188103809Y-102269944D02*
X188008571Y-102412801D01*
X188008571Y-102412801D02*
X187913333Y-102508039D01*
X187913333Y-102508039D02*
X187818095Y-102555658D01*
X189008571Y-102269944D02*
X189103809Y-102269944D01*
X189103809Y-102269944D02*
X189199047Y-102317563D01*
X189199047Y-102317563D02*
X189246666Y-102365182D01*
X189246666Y-102365182D02*
X189294285Y-102460420D01*
X189294285Y-102460420D02*
X189341904Y-102650896D01*
X189341904Y-102650896D02*
X189341904Y-102888991D01*
X189341904Y-102888991D02*
X189294285Y-103079467D01*
X189294285Y-103079467D02*
X189246666Y-103174705D01*
X189246666Y-103174705D02*
X189199047Y-103222325D01*
X189199047Y-103222325D02*
X189103809Y-103269944D01*
X189103809Y-103269944D02*
X189008571Y-103269944D01*
X189008571Y-103269944D02*
X188913333Y-103222325D01*
X188913333Y-103222325D02*
X188865714Y-103174705D01*
X188865714Y-103174705D02*
X188818095Y-103079467D01*
X188818095Y-103079467D02*
X188770476Y-102888991D01*
X188770476Y-102888991D02*
X188770476Y-102650896D01*
X188770476Y-102650896D02*
X188818095Y-102460420D01*
X188818095Y-102460420D02*
X188865714Y-102365182D01*
X188865714Y-102365182D02*
X188913333Y-102317563D01*
X188913333Y-102317563D02*
X189008571Y-102269944D01*
X222348095Y-138549944D02*
X222348095Y-139359467D01*
X222348095Y-139359467D02*
X222395714Y-139454705D01*
X222395714Y-139454705D02*
X222443333Y-139502325D01*
X222443333Y-139502325D02*
X222538571Y-139549944D01*
X222538571Y-139549944D02*
X222729047Y-139549944D01*
X222729047Y-139549944D02*
X222824285Y-139502325D01*
X222824285Y-139502325D02*
X222871904Y-139454705D01*
X222871904Y-139454705D02*
X222919523Y-139359467D01*
X222919523Y-139359467D02*
X222919523Y-138549944D01*
X223824285Y-138883277D02*
X223824285Y-139549944D01*
X223586190Y-138502325D02*
X223348095Y-139216610D01*
X223348095Y-139216610D02*
X223967142Y-139216610D01*
X201624819Y-119917029D02*
X202434342Y-119917029D01*
X202434342Y-119917029D02*
X202529580Y-119869410D01*
X202529580Y-119869410D02*
X202577200Y-119821791D01*
X202577200Y-119821791D02*
X202624819Y-119726553D01*
X202624819Y-119726553D02*
X202624819Y-119536077D01*
X202624819Y-119536077D02*
X202577200Y-119440839D01*
X202577200Y-119440839D02*
X202529580Y-119393220D01*
X202529580Y-119393220D02*
X202434342Y-119345601D01*
X202434342Y-119345601D02*
X201624819Y-119345601D01*
X202624819Y-118345601D02*
X202624819Y-118917029D01*
X202624819Y-118631315D02*
X201624819Y-118631315D01*
X201624819Y-118631315D02*
X201767676Y-118726553D01*
X201767676Y-118726553D02*
X201862914Y-118821791D01*
X201862914Y-118821791D02*
X201910533Y-118917029D01*
X244817200Y-133718457D02*
X244864819Y-133575600D01*
X244864819Y-133575600D02*
X244864819Y-133337505D01*
X244864819Y-133337505D02*
X244817200Y-133242267D01*
X244817200Y-133242267D02*
X244769580Y-133194648D01*
X244769580Y-133194648D02*
X244674342Y-133147029D01*
X244674342Y-133147029D02*
X244579104Y-133147029D01*
X244579104Y-133147029D02*
X244483866Y-133194648D01*
X244483866Y-133194648D02*
X244436247Y-133242267D01*
X244436247Y-133242267D02*
X244388628Y-133337505D01*
X244388628Y-133337505D02*
X244341009Y-133527981D01*
X244341009Y-133527981D02*
X244293390Y-133623219D01*
X244293390Y-133623219D02*
X244245771Y-133670838D01*
X244245771Y-133670838D02*
X244150533Y-133718457D01*
X244150533Y-133718457D02*
X244055295Y-133718457D01*
X244055295Y-133718457D02*
X243960057Y-133670838D01*
X243960057Y-133670838D02*
X243912438Y-133623219D01*
X243912438Y-133623219D02*
X243864819Y-133527981D01*
X243864819Y-133527981D02*
X243864819Y-133289886D01*
X243864819Y-133289886D02*
X243912438Y-133147029D01*
X243864819Y-132813695D02*
X244864819Y-132575600D01*
X244864819Y-132575600D02*
X244150533Y-132385124D01*
X244150533Y-132385124D02*
X244864819Y-132194648D01*
X244864819Y-132194648D02*
X243864819Y-131956553D01*
X244864819Y-131051791D02*
X244864819Y-131623219D01*
X244864819Y-131337505D02*
X243864819Y-131337505D01*
X243864819Y-131337505D02*
X244007676Y-131432743D01*
X244007676Y-131432743D02*
X244102914Y-131527981D01*
X244102914Y-131527981D02*
X244150533Y-131623219D01*
X194446666Y-116526134D02*
X194113333Y-116526134D01*
X194113333Y-117049944D02*
X194113333Y-116049944D01*
X194113333Y-116049944D02*
X194589523Y-116049944D01*
X195303809Y-116526134D02*
X195446666Y-116573753D01*
X195446666Y-116573753D02*
X195494285Y-116621372D01*
X195494285Y-116621372D02*
X195541904Y-116716610D01*
X195541904Y-116716610D02*
X195541904Y-116859467D01*
X195541904Y-116859467D02*
X195494285Y-116954705D01*
X195494285Y-116954705D02*
X195446666Y-117002325D01*
X195446666Y-117002325D02*
X195351428Y-117049944D01*
X195351428Y-117049944D02*
X194970476Y-117049944D01*
X194970476Y-117049944D02*
X194970476Y-116049944D01*
X194970476Y-116049944D02*
X195303809Y-116049944D01*
X195303809Y-116049944D02*
X195399047Y-116097563D01*
X195399047Y-116097563D02*
X195446666Y-116145182D01*
X195446666Y-116145182D02*
X195494285Y-116240420D01*
X195494285Y-116240420D02*
X195494285Y-116335658D01*
X195494285Y-116335658D02*
X195446666Y-116430896D01*
X195446666Y-116430896D02*
X195399047Y-116478515D01*
X195399047Y-116478515D02*
X195303809Y-116526134D01*
X195303809Y-116526134D02*
X194970476Y-116526134D01*
X196399047Y-116383277D02*
X196399047Y-117049944D01*
X196160952Y-116002325D02*
X195922857Y-116716610D01*
X195922857Y-116716610D02*
X196541904Y-116716610D01*
X188283333Y-100989944D02*
X187950000Y-100513753D01*
X187711905Y-100989944D02*
X187711905Y-99989944D01*
X187711905Y-99989944D02*
X188092857Y-99989944D01*
X188092857Y-99989944D02*
X188188095Y-100037563D01*
X188188095Y-100037563D02*
X188235714Y-100085182D01*
X188235714Y-100085182D02*
X188283333Y-100180420D01*
X188283333Y-100180420D02*
X188283333Y-100323277D01*
X188283333Y-100323277D02*
X188235714Y-100418515D01*
X188235714Y-100418515D02*
X188188095Y-100466134D01*
X188188095Y-100466134D02*
X188092857Y-100513753D01*
X188092857Y-100513753D02*
X187711905Y-100513753D01*
X188759524Y-100989944D02*
X188950000Y-100989944D01*
X188950000Y-100989944D02*
X189045238Y-100942325D01*
X189045238Y-100942325D02*
X189092857Y-100894705D01*
X189092857Y-100894705D02*
X189188095Y-100751848D01*
X189188095Y-100751848D02*
X189235714Y-100561372D01*
X189235714Y-100561372D02*
X189235714Y-100180420D01*
X189235714Y-100180420D02*
X189188095Y-100085182D01*
X189188095Y-100085182D02*
X189140476Y-100037563D01*
X189140476Y-100037563D02*
X189045238Y-99989944D01*
X189045238Y-99989944D02*
X188854762Y-99989944D01*
X188854762Y-99989944D02*
X188759524Y-100037563D01*
X188759524Y-100037563D02*
X188711905Y-100085182D01*
X188711905Y-100085182D02*
X188664286Y-100180420D01*
X188664286Y-100180420D02*
X188664286Y-100418515D01*
X188664286Y-100418515D02*
X188711905Y-100513753D01*
X188711905Y-100513753D02*
X188759524Y-100561372D01*
X188759524Y-100561372D02*
X188854762Y-100608991D01*
X188854762Y-100608991D02*
X189045238Y-100608991D01*
X189045238Y-100608991D02*
X189140476Y-100561372D01*
X189140476Y-100561372D02*
X189188095Y-100513753D01*
X189188095Y-100513753D02*
X189235714Y-100418515D01*
X187087142Y-130554944D02*
X186753809Y-130078753D01*
X186515714Y-130554944D02*
X186515714Y-129554944D01*
X186515714Y-129554944D02*
X186896666Y-129554944D01*
X186896666Y-129554944D02*
X186991904Y-129602563D01*
X186991904Y-129602563D02*
X187039523Y-129650182D01*
X187039523Y-129650182D02*
X187087142Y-129745420D01*
X187087142Y-129745420D02*
X187087142Y-129888277D01*
X187087142Y-129888277D02*
X187039523Y-129983515D01*
X187039523Y-129983515D02*
X186991904Y-130031134D01*
X186991904Y-130031134D02*
X186896666Y-130078753D01*
X186896666Y-130078753D02*
X186515714Y-130078753D01*
X188039523Y-130554944D02*
X187468095Y-130554944D01*
X187753809Y-130554944D02*
X187753809Y-129554944D01*
X187753809Y-129554944D02*
X187658571Y-129697801D01*
X187658571Y-129697801D02*
X187563333Y-129793039D01*
X187563333Y-129793039D02*
X187468095Y-129840658D01*
X188372857Y-129554944D02*
X189039523Y-129554944D01*
X189039523Y-129554944D02*
X188610952Y-130554944D01*
X205751009Y-101948458D02*
X205751009Y-102281791D01*
X206274819Y-102281791D02*
X205274819Y-102281791D01*
X205274819Y-102281791D02*
X205274819Y-101805601D01*
X205751009Y-101091315D02*
X205798628Y-100948458D01*
X205798628Y-100948458D02*
X205846247Y-100900839D01*
X205846247Y-100900839D02*
X205941485Y-100853220D01*
X205941485Y-100853220D02*
X206084342Y-100853220D01*
X206084342Y-100853220D02*
X206179580Y-100900839D01*
X206179580Y-100900839D02*
X206227200Y-100948458D01*
X206227200Y-100948458D02*
X206274819Y-101043696D01*
X206274819Y-101043696D02*
X206274819Y-101424648D01*
X206274819Y-101424648D02*
X205274819Y-101424648D01*
X205274819Y-101424648D02*
X205274819Y-101091315D01*
X205274819Y-101091315D02*
X205322438Y-100996077D01*
X205322438Y-100996077D02*
X205370057Y-100948458D01*
X205370057Y-100948458D02*
X205465295Y-100900839D01*
X205465295Y-100900839D02*
X205560533Y-100900839D01*
X205560533Y-100900839D02*
X205655771Y-100948458D01*
X205655771Y-100948458D02*
X205703390Y-100996077D01*
X205703390Y-100996077D02*
X205751009Y-101091315D01*
X205751009Y-101091315D02*
X205751009Y-101424648D01*
X205370057Y-100472267D02*
X205322438Y-100424648D01*
X205322438Y-100424648D02*
X205274819Y-100329410D01*
X205274819Y-100329410D02*
X205274819Y-100091315D01*
X205274819Y-100091315D02*
X205322438Y-99996077D01*
X205322438Y-99996077D02*
X205370057Y-99948458D01*
X205370057Y-99948458D02*
X205465295Y-99900839D01*
X205465295Y-99900839D02*
X205560533Y-99900839D01*
X205560533Y-99900839D02*
X205703390Y-99948458D01*
X205703390Y-99948458D02*
X206274819Y-100519886D01*
X206274819Y-100519886D02*
X206274819Y-99900839D01*
X167647142Y-117414944D02*
X167313809Y-116938753D01*
X167075714Y-117414944D02*
X167075714Y-116414944D01*
X167075714Y-116414944D02*
X167456666Y-116414944D01*
X167456666Y-116414944D02*
X167551904Y-116462563D01*
X167551904Y-116462563D02*
X167599523Y-116510182D01*
X167599523Y-116510182D02*
X167647142Y-116605420D01*
X167647142Y-116605420D02*
X167647142Y-116748277D01*
X167647142Y-116748277D02*
X167599523Y-116843515D01*
X167599523Y-116843515D02*
X167551904Y-116891134D01*
X167551904Y-116891134D02*
X167456666Y-116938753D01*
X167456666Y-116938753D02*
X167075714Y-116938753D01*
X168599523Y-117414944D02*
X168028095Y-117414944D01*
X168313809Y-117414944D02*
X168313809Y-116414944D01*
X168313809Y-116414944D02*
X168218571Y-116557801D01*
X168218571Y-116557801D02*
X168123333Y-116653039D01*
X168123333Y-116653039D02*
X168028095Y-116700658D01*
X169075714Y-117414944D02*
X169266190Y-117414944D01*
X169266190Y-117414944D02*
X169361428Y-117367325D01*
X169361428Y-117367325D02*
X169409047Y-117319705D01*
X169409047Y-117319705D02*
X169504285Y-117176848D01*
X169504285Y-117176848D02*
X169551904Y-116986372D01*
X169551904Y-116986372D02*
X169551904Y-116605420D01*
X169551904Y-116605420D02*
X169504285Y-116510182D01*
X169504285Y-116510182D02*
X169456666Y-116462563D01*
X169456666Y-116462563D02*
X169361428Y-116414944D01*
X169361428Y-116414944D02*
X169170952Y-116414944D01*
X169170952Y-116414944D02*
X169075714Y-116462563D01*
X169075714Y-116462563D02*
X169028095Y-116510182D01*
X169028095Y-116510182D02*
X168980476Y-116605420D01*
X168980476Y-116605420D02*
X168980476Y-116843515D01*
X168980476Y-116843515D02*
X169028095Y-116938753D01*
X169028095Y-116938753D02*
X169075714Y-116986372D01*
X169075714Y-116986372D02*
X169170952Y-117033991D01*
X169170952Y-117033991D02*
X169361428Y-117033991D01*
X169361428Y-117033991D02*
X169456666Y-116986372D01*
X169456666Y-116986372D02*
X169504285Y-116938753D01*
X169504285Y-116938753D02*
X169551904Y-116843515D01*
X230069580Y-132260482D02*
X230117200Y-132308101D01*
X230117200Y-132308101D02*
X230164819Y-132450958D01*
X230164819Y-132450958D02*
X230164819Y-132546196D01*
X230164819Y-132546196D02*
X230117200Y-132689053D01*
X230117200Y-132689053D02*
X230021961Y-132784291D01*
X230021961Y-132784291D02*
X229926723Y-132831910D01*
X229926723Y-132831910D02*
X229736247Y-132879529D01*
X229736247Y-132879529D02*
X229593390Y-132879529D01*
X229593390Y-132879529D02*
X229402914Y-132831910D01*
X229402914Y-132831910D02*
X229307676Y-132784291D01*
X229307676Y-132784291D02*
X229212438Y-132689053D01*
X229212438Y-132689053D02*
X229164819Y-132546196D01*
X229164819Y-132546196D02*
X229164819Y-132450958D01*
X229164819Y-132450958D02*
X229212438Y-132308101D01*
X229212438Y-132308101D02*
X229260057Y-132260482D01*
X229260057Y-131879529D02*
X229212438Y-131831910D01*
X229212438Y-131831910D02*
X229164819Y-131736672D01*
X229164819Y-131736672D02*
X229164819Y-131498577D01*
X229164819Y-131498577D02*
X229212438Y-131403339D01*
X229212438Y-131403339D02*
X229260057Y-131355720D01*
X229260057Y-131355720D02*
X229355295Y-131308101D01*
X229355295Y-131308101D02*
X229450533Y-131308101D01*
X229450533Y-131308101D02*
X229593390Y-131355720D01*
X229593390Y-131355720D02*
X230164819Y-131927148D01*
X230164819Y-131927148D02*
X230164819Y-131308101D01*
X230164819Y-130831910D02*
X230164819Y-130641434D01*
X230164819Y-130641434D02*
X230117200Y-130546196D01*
X230117200Y-130546196D02*
X230069580Y-130498577D01*
X230069580Y-130498577D02*
X229926723Y-130403339D01*
X229926723Y-130403339D02*
X229736247Y-130355720D01*
X229736247Y-130355720D02*
X229355295Y-130355720D01*
X229355295Y-130355720D02*
X229260057Y-130403339D01*
X229260057Y-130403339D02*
X229212438Y-130450958D01*
X229212438Y-130450958D02*
X229164819Y-130546196D01*
X229164819Y-130546196D02*
X229164819Y-130736672D01*
X229164819Y-130736672D02*
X229212438Y-130831910D01*
X229212438Y-130831910D02*
X229260057Y-130879529D01*
X229260057Y-130879529D02*
X229355295Y-130927148D01*
X229355295Y-130927148D02*
X229593390Y-130927148D01*
X229593390Y-130927148D02*
X229688628Y-130879529D01*
X229688628Y-130879529D02*
X229736247Y-130831910D01*
X229736247Y-130831910D02*
X229783866Y-130736672D01*
X229783866Y-130736672D02*
X229783866Y-130546196D01*
X229783866Y-130546196D02*
X229736247Y-130450958D01*
X229736247Y-130450958D02*
X229688628Y-130403339D01*
X229688628Y-130403339D02*
X229593390Y-130355720D01*
X201349819Y-102288219D02*
X200349819Y-102288219D01*
X200349819Y-102288219D02*
X200349819Y-102050124D01*
X200349819Y-102050124D02*
X200397438Y-101907267D01*
X200397438Y-101907267D02*
X200492676Y-101812029D01*
X200492676Y-101812029D02*
X200587914Y-101764410D01*
X200587914Y-101764410D02*
X200778390Y-101716791D01*
X200778390Y-101716791D02*
X200921247Y-101716791D01*
X200921247Y-101716791D02*
X201111723Y-101764410D01*
X201111723Y-101764410D02*
X201206961Y-101812029D01*
X201206961Y-101812029D02*
X201302200Y-101907267D01*
X201302200Y-101907267D02*
X201349819Y-102050124D01*
X201349819Y-102050124D02*
X201349819Y-102288219D01*
X201349819Y-100764410D02*
X201349819Y-101335838D01*
X201349819Y-101050124D02*
X200349819Y-101050124D01*
X200349819Y-101050124D02*
X200492676Y-101145362D01*
X200492676Y-101145362D02*
X200587914Y-101240600D01*
X200587914Y-101240600D02*
X200635533Y-101335838D01*
X209903333Y-128764705D02*
X209855714Y-128812325D01*
X209855714Y-128812325D02*
X209712857Y-128859944D01*
X209712857Y-128859944D02*
X209617619Y-128859944D01*
X209617619Y-128859944D02*
X209474762Y-128812325D01*
X209474762Y-128812325D02*
X209379524Y-128717086D01*
X209379524Y-128717086D02*
X209331905Y-128621848D01*
X209331905Y-128621848D02*
X209284286Y-128431372D01*
X209284286Y-128431372D02*
X209284286Y-128288515D01*
X209284286Y-128288515D02*
X209331905Y-128098039D01*
X209331905Y-128098039D02*
X209379524Y-128002801D01*
X209379524Y-128002801D02*
X209474762Y-127907563D01*
X209474762Y-127907563D02*
X209617619Y-127859944D01*
X209617619Y-127859944D02*
X209712857Y-127859944D01*
X209712857Y-127859944D02*
X209855714Y-127907563D01*
X209855714Y-127907563D02*
X209903333Y-127955182D01*
X210284286Y-127955182D02*
X210331905Y-127907563D01*
X210331905Y-127907563D02*
X210427143Y-127859944D01*
X210427143Y-127859944D02*
X210665238Y-127859944D01*
X210665238Y-127859944D02*
X210760476Y-127907563D01*
X210760476Y-127907563D02*
X210808095Y-127955182D01*
X210808095Y-127955182D02*
X210855714Y-128050420D01*
X210855714Y-128050420D02*
X210855714Y-128145658D01*
X210855714Y-128145658D02*
X210808095Y-128288515D01*
X210808095Y-128288515D02*
X210236667Y-128859944D01*
X210236667Y-128859944D02*
X210855714Y-128859944D01*
X226723809Y-96813753D02*
X226723809Y-97289944D01*
X226390476Y-96289944D02*
X226723809Y-96813753D01*
X226723809Y-96813753D02*
X227057142Y-96289944D01*
X227819047Y-96623277D02*
X227819047Y-97289944D01*
X227580952Y-96242325D02*
X227342857Y-96956610D01*
X227342857Y-96956610D02*
X227961904Y-96956610D01*
X244474819Y-109291791D02*
X243998628Y-109625124D01*
X244474819Y-109863219D02*
X243474819Y-109863219D01*
X243474819Y-109863219D02*
X243474819Y-109482267D01*
X243474819Y-109482267D02*
X243522438Y-109387029D01*
X243522438Y-109387029D02*
X243570057Y-109339410D01*
X243570057Y-109339410D02*
X243665295Y-109291791D01*
X243665295Y-109291791D02*
X243808152Y-109291791D01*
X243808152Y-109291791D02*
X243903390Y-109339410D01*
X243903390Y-109339410D02*
X243951009Y-109387029D01*
X243951009Y-109387029D02*
X243998628Y-109482267D01*
X243998628Y-109482267D02*
X243998628Y-109863219D01*
X243474819Y-108958457D02*
X243474819Y-108291791D01*
X243474819Y-108291791D02*
X244474819Y-108720362D01*
X195773333Y-115069944D02*
X195440000Y-114593753D01*
X195201905Y-115069944D02*
X195201905Y-114069944D01*
X195201905Y-114069944D02*
X195582857Y-114069944D01*
X195582857Y-114069944D02*
X195678095Y-114117563D01*
X195678095Y-114117563D02*
X195725714Y-114165182D01*
X195725714Y-114165182D02*
X195773333Y-114260420D01*
X195773333Y-114260420D02*
X195773333Y-114403277D01*
X195773333Y-114403277D02*
X195725714Y-114498515D01*
X195725714Y-114498515D02*
X195678095Y-114546134D01*
X195678095Y-114546134D02*
X195582857Y-114593753D01*
X195582857Y-114593753D02*
X195201905Y-114593753D01*
X196106667Y-114069944D02*
X196725714Y-114069944D01*
X196725714Y-114069944D02*
X196392381Y-114450896D01*
X196392381Y-114450896D02*
X196535238Y-114450896D01*
X196535238Y-114450896D02*
X196630476Y-114498515D01*
X196630476Y-114498515D02*
X196678095Y-114546134D01*
X196678095Y-114546134D02*
X196725714Y-114641372D01*
X196725714Y-114641372D02*
X196725714Y-114879467D01*
X196725714Y-114879467D02*
X196678095Y-114974705D01*
X196678095Y-114974705D02*
X196630476Y-115022325D01*
X196630476Y-115022325D02*
X196535238Y-115069944D01*
X196535238Y-115069944D02*
X196249524Y-115069944D01*
X196249524Y-115069944D02*
X196154286Y-115022325D01*
X196154286Y-115022325D02*
X196106667Y-114974705D01*
X229694819Y-105047029D02*
X230504342Y-105047029D01*
X230504342Y-105047029D02*
X230599580Y-104999410D01*
X230599580Y-104999410D02*
X230647200Y-104951791D01*
X230647200Y-104951791D02*
X230694819Y-104856553D01*
X230694819Y-104856553D02*
X230694819Y-104666077D01*
X230694819Y-104666077D02*
X230647200Y-104570839D01*
X230647200Y-104570839D02*
X230599580Y-104523220D01*
X230599580Y-104523220D02*
X230504342Y-104475601D01*
X230504342Y-104475601D02*
X229694819Y-104475601D01*
X229790057Y-104047029D02*
X229742438Y-103999410D01*
X229742438Y-103999410D02*
X229694819Y-103904172D01*
X229694819Y-103904172D02*
X229694819Y-103666077D01*
X229694819Y-103666077D02*
X229742438Y-103570839D01*
X229742438Y-103570839D02*
X229790057Y-103523220D01*
X229790057Y-103523220D02*
X229885295Y-103475601D01*
X229885295Y-103475601D02*
X229980533Y-103475601D01*
X229980533Y-103475601D02*
X230123390Y-103523220D01*
X230123390Y-103523220D02*
X230694819Y-104094648D01*
X230694819Y-104094648D02*
X230694819Y-103475601D01*
X211209580Y-125674291D02*
X211257200Y-125721910D01*
X211257200Y-125721910D02*
X211304819Y-125864767D01*
X211304819Y-125864767D02*
X211304819Y-125960005D01*
X211304819Y-125960005D02*
X211257200Y-126102862D01*
X211257200Y-126102862D02*
X211161961Y-126198100D01*
X211161961Y-126198100D02*
X211066723Y-126245719D01*
X211066723Y-126245719D02*
X210876247Y-126293338D01*
X210876247Y-126293338D02*
X210733390Y-126293338D01*
X210733390Y-126293338D02*
X210542914Y-126245719D01*
X210542914Y-126245719D02*
X210447676Y-126198100D01*
X210447676Y-126198100D02*
X210352438Y-126102862D01*
X210352438Y-126102862D02*
X210304819Y-125960005D01*
X210304819Y-125960005D02*
X210304819Y-125864767D01*
X210304819Y-125864767D02*
X210352438Y-125721910D01*
X210352438Y-125721910D02*
X210400057Y-125674291D01*
X210733390Y-125102862D02*
X210685771Y-125198100D01*
X210685771Y-125198100D02*
X210638152Y-125245719D01*
X210638152Y-125245719D02*
X210542914Y-125293338D01*
X210542914Y-125293338D02*
X210495295Y-125293338D01*
X210495295Y-125293338D02*
X210400057Y-125245719D01*
X210400057Y-125245719D02*
X210352438Y-125198100D01*
X210352438Y-125198100D02*
X210304819Y-125102862D01*
X210304819Y-125102862D02*
X210304819Y-124912386D01*
X210304819Y-124912386D02*
X210352438Y-124817148D01*
X210352438Y-124817148D02*
X210400057Y-124769529D01*
X210400057Y-124769529D02*
X210495295Y-124721910D01*
X210495295Y-124721910D02*
X210542914Y-124721910D01*
X210542914Y-124721910D02*
X210638152Y-124769529D01*
X210638152Y-124769529D02*
X210685771Y-124817148D01*
X210685771Y-124817148D02*
X210733390Y-124912386D01*
X210733390Y-124912386D02*
X210733390Y-125102862D01*
X210733390Y-125102862D02*
X210781009Y-125198100D01*
X210781009Y-125198100D02*
X210828628Y-125245719D01*
X210828628Y-125245719D02*
X210923866Y-125293338D01*
X210923866Y-125293338D02*
X211114342Y-125293338D01*
X211114342Y-125293338D02*
X211209580Y-125245719D01*
X211209580Y-125245719D02*
X211257200Y-125198100D01*
X211257200Y-125198100D02*
X211304819Y-125102862D01*
X211304819Y-125102862D02*
X211304819Y-124912386D01*
X211304819Y-124912386D02*
X211257200Y-124817148D01*
X211257200Y-124817148D02*
X211209580Y-124769529D01*
X211209580Y-124769529D02*
X211114342Y-124721910D01*
X211114342Y-124721910D02*
X210923866Y-124721910D01*
X210923866Y-124721910D02*
X210828628Y-124769529D01*
X210828628Y-124769529D02*
X210781009Y-124817148D01*
X210781009Y-124817148D02*
X210733390Y-124912386D01*
X233879580Y-95537982D02*
X233927200Y-95585601D01*
X233927200Y-95585601D02*
X233974819Y-95728458D01*
X233974819Y-95728458D02*
X233974819Y-95823696D01*
X233974819Y-95823696D02*
X233927200Y-95966553D01*
X233927200Y-95966553D02*
X233831961Y-96061791D01*
X233831961Y-96061791D02*
X233736723Y-96109410D01*
X233736723Y-96109410D02*
X233546247Y-96157029D01*
X233546247Y-96157029D02*
X233403390Y-96157029D01*
X233403390Y-96157029D02*
X233212914Y-96109410D01*
X233212914Y-96109410D02*
X233117676Y-96061791D01*
X233117676Y-96061791D02*
X233022438Y-95966553D01*
X233022438Y-95966553D02*
X232974819Y-95823696D01*
X232974819Y-95823696D02*
X232974819Y-95728458D01*
X232974819Y-95728458D02*
X233022438Y-95585601D01*
X233022438Y-95585601D02*
X233070057Y-95537982D01*
X233974819Y-94585601D02*
X233974819Y-95157029D01*
X233974819Y-94871315D02*
X232974819Y-94871315D01*
X232974819Y-94871315D02*
X233117676Y-94966553D01*
X233117676Y-94966553D02*
X233212914Y-95061791D01*
X233212914Y-95061791D02*
X233260533Y-95157029D01*
X232974819Y-94252267D02*
X232974819Y-93585601D01*
X232974819Y-93585601D02*
X233974819Y-94014172D01*
X195717142Y-102834705D02*
X195669523Y-102882325D01*
X195669523Y-102882325D02*
X195526666Y-102929944D01*
X195526666Y-102929944D02*
X195431428Y-102929944D01*
X195431428Y-102929944D02*
X195288571Y-102882325D01*
X195288571Y-102882325D02*
X195193333Y-102787086D01*
X195193333Y-102787086D02*
X195145714Y-102691848D01*
X195145714Y-102691848D02*
X195098095Y-102501372D01*
X195098095Y-102501372D02*
X195098095Y-102358515D01*
X195098095Y-102358515D02*
X195145714Y-102168039D01*
X195145714Y-102168039D02*
X195193333Y-102072801D01*
X195193333Y-102072801D02*
X195288571Y-101977563D01*
X195288571Y-101977563D02*
X195431428Y-101929944D01*
X195431428Y-101929944D02*
X195526666Y-101929944D01*
X195526666Y-101929944D02*
X195669523Y-101977563D01*
X195669523Y-101977563D02*
X195717142Y-102025182D01*
X196098095Y-102025182D02*
X196145714Y-101977563D01*
X196145714Y-101977563D02*
X196240952Y-101929944D01*
X196240952Y-101929944D02*
X196479047Y-101929944D01*
X196479047Y-101929944D02*
X196574285Y-101977563D01*
X196574285Y-101977563D02*
X196621904Y-102025182D01*
X196621904Y-102025182D02*
X196669523Y-102120420D01*
X196669523Y-102120420D02*
X196669523Y-102215658D01*
X196669523Y-102215658D02*
X196621904Y-102358515D01*
X196621904Y-102358515D02*
X196050476Y-102929944D01*
X196050476Y-102929944D02*
X196669523Y-102929944D01*
X197574285Y-101929944D02*
X197098095Y-101929944D01*
X197098095Y-101929944D02*
X197050476Y-102406134D01*
X197050476Y-102406134D02*
X197098095Y-102358515D01*
X197098095Y-102358515D02*
X197193333Y-102310896D01*
X197193333Y-102310896D02*
X197431428Y-102310896D01*
X197431428Y-102310896D02*
X197526666Y-102358515D01*
X197526666Y-102358515D02*
X197574285Y-102406134D01*
X197574285Y-102406134D02*
X197621904Y-102501372D01*
X197621904Y-102501372D02*
X197621904Y-102739467D01*
X197621904Y-102739467D02*
X197574285Y-102834705D01*
X197574285Y-102834705D02*
X197526666Y-102882325D01*
X197526666Y-102882325D02*
X197431428Y-102929944D01*
X197431428Y-102929944D02*
X197193333Y-102929944D01*
X197193333Y-102929944D02*
X197098095Y-102882325D01*
X197098095Y-102882325D02*
X197050476Y-102834705D01*
X199017142Y-107954705D02*
X198969523Y-108002325D01*
X198969523Y-108002325D02*
X198826666Y-108049944D01*
X198826666Y-108049944D02*
X198731428Y-108049944D01*
X198731428Y-108049944D02*
X198588571Y-108002325D01*
X198588571Y-108002325D02*
X198493333Y-107907086D01*
X198493333Y-107907086D02*
X198445714Y-107811848D01*
X198445714Y-107811848D02*
X198398095Y-107621372D01*
X198398095Y-107621372D02*
X198398095Y-107478515D01*
X198398095Y-107478515D02*
X198445714Y-107288039D01*
X198445714Y-107288039D02*
X198493333Y-107192801D01*
X198493333Y-107192801D02*
X198588571Y-107097563D01*
X198588571Y-107097563D02*
X198731428Y-107049944D01*
X198731428Y-107049944D02*
X198826666Y-107049944D01*
X198826666Y-107049944D02*
X198969523Y-107097563D01*
X198969523Y-107097563D02*
X199017142Y-107145182D01*
X199398095Y-107145182D02*
X199445714Y-107097563D01*
X199445714Y-107097563D02*
X199540952Y-107049944D01*
X199540952Y-107049944D02*
X199779047Y-107049944D01*
X199779047Y-107049944D02*
X199874285Y-107097563D01*
X199874285Y-107097563D02*
X199921904Y-107145182D01*
X199921904Y-107145182D02*
X199969523Y-107240420D01*
X199969523Y-107240420D02*
X199969523Y-107335658D01*
X199969523Y-107335658D02*
X199921904Y-107478515D01*
X199921904Y-107478515D02*
X199350476Y-108049944D01*
X199350476Y-108049944D02*
X199969523Y-108049944D01*
X200826666Y-107049944D02*
X200636190Y-107049944D01*
X200636190Y-107049944D02*
X200540952Y-107097563D01*
X200540952Y-107097563D02*
X200493333Y-107145182D01*
X200493333Y-107145182D02*
X200398095Y-107288039D01*
X200398095Y-107288039D02*
X200350476Y-107478515D01*
X200350476Y-107478515D02*
X200350476Y-107859467D01*
X200350476Y-107859467D02*
X200398095Y-107954705D01*
X200398095Y-107954705D02*
X200445714Y-108002325D01*
X200445714Y-108002325D02*
X200540952Y-108049944D01*
X200540952Y-108049944D02*
X200731428Y-108049944D01*
X200731428Y-108049944D02*
X200826666Y-108002325D01*
X200826666Y-108002325D02*
X200874285Y-107954705D01*
X200874285Y-107954705D02*
X200921904Y-107859467D01*
X200921904Y-107859467D02*
X200921904Y-107621372D01*
X200921904Y-107621372D02*
X200874285Y-107526134D01*
X200874285Y-107526134D02*
X200826666Y-107478515D01*
X200826666Y-107478515D02*
X200731428Y-107430896D01*
X200731428Y-107430896D02*
X200540952Y-107430896D01*
X200540952Y-107430896D02*
X200445714Y-107478515D01*
X200445714Y-107478515D02*
X200398095Y-107526134D01*
X200398095Y-107526134D02*
X200350476Y-107621372D01*
X223337142Y-95044705D02*
X223289523Y-95092325D01*
X223289523Y-95092325D02*
X223146666Y-95139944D01*
X223146666Y-95139944D02*
X223051428Y-95139944D01*
X223051428Y-95139944D02*
X222908571Y-95092325D01*
X222908571Y-95092325D02*
X222813333Y-94997086D01*
X222813333Y-94997086D02*
X222765714Y-94901848D01*
X222765714Y-94901848D02*
X222718095Y-94711372D01*
X222718095Y-94711372D02*
X222718095Y-94568515D01*
X222718095Y-94568515D02*
X222765714Y-94378039D01*
X222765714Y-94378039D02*
X222813333Y-94282801D01*
X222813333Y-94282801D02*
X222908571Y-94187563D01*
X222908571Y-94187563D02*
X223051428Y-94139944D01*
X223051428Y-94139944D02*
X223146666Y-94139944D01*
X223146666Y-94139944D02*
X223289523Y-94187563D01*
X223289523Y-94187563D02*
X223337142Y-94235182D01*
X223718095Y-94235182D02*
X223765714Y-94187563D01*
X223765714Y-94187563D02*
X223860952Y-94139944D01*
X223860952Y-94139944D02*
X224099047Y-94139944D01*
X224099047Y-94139944D02*
X224194285Y-94187563D01*
X224194285Y-94187563D02*
X224241904Y-94235182D01*
X224241904Y-94235182D02*
X224289523Y-94330420D01*
X224289523Y-94330420D02*
X224289523Y-94425658D01*
X224289523Y-94425658D02*
X224241904Y-94568515D01*
X224241904Y-94568515D02*
X223670476Y-95139944D01*
X223670476Y-95139944D02*
X224289523Y-95139944D01*
X224670476Y-94235182D02*
X224718095Y-94187563D01*
X224718095Y-94187563D02*
X224813333Y-94139944D01*
X224813333Y-94139944D02*
X225051428Y-94139944D01*
X225051428Y-94139944D02*
X225146666Y-94187563D01*
X225146666Y-94187563D02*
X225194285Y-94235182D01*
X225194285Y-94235182D02*
X225241904Y-94330420D01*
X225241904Y-94330420D02*
X225241904Y-94425658D01*
X225241904Y-94425658D02*
X225194285Y-94568515D01*
X225194285Y-94568515D02*
X224622857Y-95139944D01*
X224622857Y-95139944D02*
X225241904Y-95139944D01*
X202823809Y-127153753D02*
X202823809Y-127629944D01*
X202490476Y-126629944D02*
X202823809Y-127153753D01*
X202823809Y-127153753D02*
X203157142Y-126629944D01*
X204014285Y-127629944D02*
X203442857Y-127629944D01*
X203728571Y-127629944D02*
X203728571Y-126629944D01*
X203728571Y-126629944D02*
X203633333Y-126772801D01*
X203633333Y-126772801D02*
X203538095Y-126868039D01*
X203538095Y-126868039D02*
X203442857Y-126915658D01*
X216923333Y-109164705D02*
X216875714Y-109212325D01*
X216875714Y-109212325D02*
X216732857Y-109259944D01*
X216732857Y-109259944D02*
X216637619Y-109259944D01*
X216637619Y-109259944D02*
X216494762Y-109212325D01*
X216494762Y-109212325D02*
X216399524Y-109117086D01*
X216399524Y-109117086D02*
X216351905Y-109021848D01*
X216351905Y-109021848D02*
X216304286Y-108831372D01*
X216304286Y-108831372D02*
X216304286Y-108688515D01*
X216304286Y-108688515D02*
X216351905Y-108498039D01*
X216351905Y-108498039D02*
X216399524Y-108402801D01*
X216399524Y-108402801D02*
X216494762Y-108307563D01*
X216494762Y-108307563D02*
X216637619Y-108259944D01*
X216637619Y-108259944D02*
X216732857Y-108259944D01*
X216732857Y-108259944D02*
X216875714Y-108307563D01*
X216875714Y-108307563D02*
X216923333Y-108355182D01*
X217780476Y-108593277D02*
X217780476Y-109259944D01*
X217542381Y-108212325D02*
X217304286Y-108926610D01*
X217304286Y-108926610D02*
X217923333Y-108926610D01*
X212342080Y-101641791D02*
X212389700Y-101689410D01*
X212389700Y-101689410D02*
X212437319Y-101832267D01*
X212437319Y-101832267D02*
X212437319Y-101927505D01*
X212437319Y-101927505D02*
X212389700Y-102070362D01*
X212389700Y-102070362D02*
X212294461Y-102165600D01*
X212294461Y-102165600D02*
X212199223Y-102213219D01*
X212199223Y-102213219D02*
X212008747Y-102260838D01*
X212008747Y-102260838D02*
X211865890Y-102260838D01*
X211865890Y-102260838D02*
X211675414Y-102213219D01*
X211675414Y-102213219D02*
X211580176Y-102165600D01*
X211580176Y-102165600D02*
X211484938Y-102070362D01*
X211484938Y-102070362D02*
X211437319Y-101927505D01*
X211437319Y-101927505D02*
X211437319Y-101832267D01*
X211437319Y-101832267D02*
X211484938Y-101689410D01*
X211484938Y-101689410D02*
X211532557Y-101641791D01*
X211437319Y-100784648D02*
X211437319Y-100975124D01*
X211437319Y-100975124D02*
X211484938Y-101070362D01*
X211484938Y-101070362D02*
X211532557Y-101117981D01*
X211532557Y-101117981D02*
X211675414Y-101213219D01*
X211675414Y-101213219D02*
X211865890Y-101260838D01*
X211865890Y-101260838D02*
X212246842Y-101260838D01*
X212246842Y-101260838D02*
X212342080Y-101213219D01*
X212342080Y-101213219D02*
X212389700Y-101165600D01*
X212389700Y-101165600D02*
X212437319Y-101070362D01*
X212437319Y-101070362D02*
X212437319Y-100879886D01*
X212437319Y-100879886D02*
X212389700Y-100784648D01*
X212389700Y-100784648D02*
X212342080Y-100737029D01*
X212342080Y-100737029D02*
X212246842Y-100689410D01*
X212246842Y-100689410D02*
X212008747Y-100689410D01*
X212008747Y-100689410D02*
X211913509Y-100737029D01*
X211913509Y-100737029D02*
X211865890Y-100784648D01*
X211865890Y-100784648D02*
X211818271Y-100879886D01*
X211818271Y-100879886D02*
X211818271Y-101070362D01*
X211818271Y-101070362D02*
X211865890Y-101165600D01*
X211865890Y-101165600D02*
X211913509Y-101213219D01*
X211913509Y-101213219D02*
X212008747Y-101260838D01*
X227299580Y-123277982D02*
X227347200Y-123325601D01*
X227347200Y-123325601D02*
X227394819Y-123468458D01*
X227394819Y-123468458D02*
X227394819Y-123563696D01*
X227394819Y-123563696D02*
X227347200Y-123706553D01*
X227347200Y-123706553D02*
X227251961Y-123801791D01*
X227251961Y-123801791D02*
X227156723Y-123849410D01*
X227156723Y-123849410D02*
X226966247Y-123897029D01*
X226966247Y-123897029D02*
X226823390Y-123897029D01*
X226823390Y-123897029D02*
X226632914Y-123849410D01*
X226632914Y-123849410D02*
X226537676Y-123801791D01*
X226537676Y-123801791D02*
X226442438Y-123706553D01*
X226442438Y-123706553D02*
X226394819Y-123563696D01*
X226394819Y-123563696D02*
X226394819Y-123468458D01*
X226394819Y-123468458D02*
X226442438Y-123325601D01*
X226442438Y-123325601D02*
X226490057Y-123277982D01*
X226490057Y-122897029D02*
X226442438Y-122849410D01*
X226442438Y-122849410D02*
X226394819Y-122754172D01*
X226394819Y-122754172D02*
X226394819Y-122516077D01*
X226394819Y-122516077D02*
X226442438Y-122420839D01*
X226442438Y-122420839D02*
X226490057Y-122373220D01*
X226490057Y-122373220D02*
X226585295Y-122325601D01*
X226585295Y-122325601D02*
X226680533Y-122325601D01*
X226680533Y-122325601D02*
X226823390Y-122373220D01*
X226823390Y-122373220D02*
X227394819Y-122944648D01*
X227394819Y-122944648D02*
X227394819Y-122325601D01*
X226823390Y-121754172D02*
X226775771Y-121849410D01*
X226775771Y-121849410D02*
X226728152Y-121897029D01*
X226728152Y-121897029D02*
X226632914Y-121944648D01*
X226632914Y-121944648D02*
X226585295Y-121944648D01*
X226585295Y-121944648D02*
X226490057Y-121897029D01*
X226490057Y-121897029D02*
X226442438Y-121849410D01*
X226442438Y-121849410D02*
X226394819Y-121754172D01*
X226394819Y-121754172D02*
X226394819Y-121563696D01*
X226394819Y-121563696D02*
X226442438Y-121468458D01*
X226442438Y-121468458D02*
X226490057Y-121420839D01*
X226490057Y-121420839D02*
X226585295Y-121373220D01*
X226585295Y-121373220D02*
X226632914Y-121373220D01*
X226632914Y-121373220D02*
X226728152Y-121420839D01*
X226728152Y-121420839D02*
X226775771Y-121468458D01*
X226775771Y-121468458D02*
X226823390Y-121563696D01*
X226823390Y-121563696D02*
X226823390Y-121754172D01*
X226823390Y-121754172D02*
X226871009Y-121849410D01*
X226871009Y-121849410D02*
X226918628Y-121897029D01*
X226918628Y-121897029D02*
X227013866Y-121944648D01*
X227013866Y-121944648D02*
X227204342Y-121944648D01*
X227204342Y-121944648D02*
X227299580Y-121897029D01*
X227299580Y-121897029D02*
X227347200Y-121849410D01*
X227347200Y-121849410D02*
X227394819Y-121754172D01*
X227394819Y-121754172D02*
X227394819Y-121563696D01*
X227394819Y-121563696D02*
X227347200Y-121468458D01*
X227347200Y-121468458D02*
X227299580Y-121420839D01*
X227299580Y-121420839D02*
X227204342Y-121373220D01*
X227204342Y-121373220D02*
X227013866Y-121373220D01*
X227013866Y-121373220D02*
X226918628Y-121420839D01*
X226918628Y-121420839D02*
X226871009Y-121468458D01*
X226871009Y-121468458D02*
X226823390Y-121563696D01*
X208364819Y-101811791D02*
X207888628Y-102145124D01*
X208364819Y-102383219D02*
X207364819Y-102383219D01*
X207364819Y-102383219D02*
X207364819Y-102002267D01*
X207364819Y-102002267D02*
X207412438Y-101907029D01*
X207412438Y-101907029D02*
X207460057Y-101859410D01*
X207460057Y-101859410D02*
X207555295Y-101811791D01*
X207555295Y-101811791D02*
X207698152Y-101811791D01*
X207698152Y-101811791D02*
X207793390Y-101859410D01*
X207793390Y-101859410D02*
X207841009Y-101907029D01*
X207841009Y-101907029D02*
X207888628Y-102002267D01*
X207888628Y-102002267D02*
X207888628Y-102383219D01*
X207460057Y-101430838D02*
X207412438Y-101383219D01*
X207412438Y-101383219D02*
X207364819Y-101287981D01*
X207364819Y-101287981D02*
X207364819Y-101049886D01*
X207364819Y-101049886D02*
X207412438Y-100954648D01*
X207412438Y-100954648D02*
X207460057Y-100907029D01*
X207460057Y-100907029D02*
X207555295Y-100859410D01*
X207555295Y-100859410D02*
X207650533Y-100859410D01*
X207650533Y-100859410D02*
X207793390Y-100907029D01*
X207793390Y-100907029D02*
X208364819Y-101478457D01*
X208364819Y-101478457D02*
X208364819Y-100859410D01*
X217403333Y-116244705D02*
X217355714Y-116292325D01*
X217355714Y-116292325D02*
X217212857Y-116339944D01*
X217212857Y-116339944D02*
X217117619Y-116339944D01*
X217117619Y-116339944D02*
X216974762Y-116292325D01*
X216974762Y-116292325D02*
X216879524Y-116197086D01*
X216879524Y-116197086D02*
X216831905Y-116101848D01*
X216831905Y-116101848D02*
X216784286Y-115911372D01*
X216784286Y-115911372D02*
X216784286Y-115768515D01*
X216784286Y-115768515D02*
X216831905Y-115578039D01*
X216831905Y-115578039D02*
X216879524Y-115482801D01*
X216879524Y-115482801D02*
X216974762Y-115387563D01*
X216974762Y-115387563D02*
X217117619Y-115339944D01*
X217117619Y-115339944D02*
X217212857Y-115339944D01*
X217212857Y-115339944D02*
X217355714Y-115387563D01*
X217355714Y-115387563D02*
X217403333Y-115435182D01*
X218308095Y-115339944D02*
X217831905Y-115339944D01*
X217831905Y-115339944D02*
X217784286Y-115816134D01*
X217784286Y-115816134D02*
X217831905Y-115768515D01*
X217831905Y-115768515D02*
X217927143Y-115720896D01*
X217927143Y-115720896D02*
X218165238Y-115720896D01*
X218165238Y-115720896D02*
X218260476Y-115768515D01*
X218260476Y-115768515D02*
X218308095Y-115816134D01*
X218308095Y-115816134D02*
X218355714Y-115911372D01*
X218355714Y-115911372D02*
X218355714Y-116149467D01*
X218355714Y-116149467D02*
X218308095Y-116244705D01*
X218308095Y-116244705D02*
X218260476Y-116292325D01*
X218260476Y-116292325D02*
X218165238Y-116339944D01*
X218165238Y-116339944D02*
X217927143Y-116339944D01*
X217927143Y-116339944D02*
X217831905Y-116292325D01*
X217831905Y-116292325D02*
X217784286Y-116244705D01*
X230447142Y-111404705D02*
X230399523Y-111452325D01*
X230399523Y-111452325D02*
X230256666Y-111499944D01*
X230256666Y-111499944D02*
X230161428Y-111499944D01*
X230161428Y-111499944D02*
X230018571Y-111452325D01*
X230018571Y-111452325D02*
X229923333Y-111357086D01*
X229923333Y-111357086D02*
X229875714Y-111261848D01*
X229875714Y-111261848D02*
X229828095Y-111071372D01*
X229828095Y-111071372D02*
X229828095Y-110928515D01*
X229828095Y-110928515D02*
X229875714Y-110738039D01*
X229875714Y-110738039D02*
X229923333Y-110642801D01*
X229923333Y-110642801D02*
X230018571Y-110547563D01*
X230018571Y-110547563D02*
X230161428Y-110499944D01*
X230161428Y-110499944D02*
X230256666Y-110499944D01*
X230256666Y-110499944D02*
X230399523Y-110547563D01*
X230399523Y-110547563D02*
X230447142Y-110595182D01*
X230828095Y-110595182D02*
X230875714Y-110547563D01*
X230875714Y-110547563D02*
X230970952Y-110499944D01*
X230970952Y-110499944D02*
X231209047Y-110499944D01*
X231209047Y-110499944D02*
X231304285Y-110547563D01*
X231304285Y-110547563D02*
X231351904Y-110595182D01*
X231351904Y-110595182D02*
X231399523Y-110690420D01*
X231399523Y-110690420D02*
X231399523Y-110785658D01*
X231399523Y-110785658D02*
X231351904Y-110928515D01*
X231351904Y-110928515D02*
X230780476Y-111499944D01*
X230780476Y-111499944D02*
X231399523Y-111499944D01*
X231732857Y-110499944D02*
X232351904Y-110499944D01*
X232351904Y-110499944D02*
X232018571Y-110880896D01*
X232018571Y-110880896D02*
X232161428Y-110880896D01*
X232161428Y-110880896D02*
X232256666Y-110928515D01*
X232256666Y-110928515D02*
X232304285Y-110976134D01*
X232304285Y-110976134D02*
X232351904Y-111071372D01*
X232351904Y-111071372D02*
X232351904Y-111309467D01*
X232351904Y-111309467D02*
X232304285Y-111404705D01*
X232304285Y-111404705D02*
X232256666Y-111452325D01*
X232256666Y-111452325D02*
X232161428Y-111499944D01*
X232161428Y-111499944D02*
X231875714Y-111499944D01*
X231875714Y-111499944D02*
X231780476Y-111452325D01*
X231780476Y-111452325D02*
X231732857Y-111404705D01*
X229198628Y-108281315D02*
X229674819Y-108281315D01*
X228674819Y-108614648D02*
X229198628Y-108281315D01*
X229198628Y-108281315D02*
X228674819Y-107947982D01*
X228674819Y-107709886D02*
X228674819Y-107090839D01*
X228674819Y-107090839D02*
X229055771Y-107424172D01*
X229055771Y-107424172D02*
X229055771Y-107281315D01*
X229055771Y-107281315D02*
X229103390Y-107186077D01*
X229103390Y-107186077D02*
X229151009Y-107138458D01*
X229151009Y-107138458D02*
X229246247Y-107090839D01*
X229246247Y-107090839D02*
X229484342Y-107090839D01*
X229484342Y-107090839D02*
X229579580Y-107138458D01*
X229579580Y-107138458D02*
X229627200Y-107186077D01*
X229627200Y-107186077D02*
X229674819Y-107281315D01*
X229674819Y-107281315D02*
X229674819Y-107567029D01*
X229674819Y-107567029D02*
X229627200Y-107662267D01*
X229627200Y-107662267D02*
X229579580Y-107709886D01*
X236634819Y-95611791D02*
X236158628Y-95945124D01*
X236634819Y-96183219D02*
X235634819Y-96183219D01*
X235634819Y-96183219D02*
X235634819Y-95802267D01*
X235634819Y-95802267D02*
X235682438Y-95707029D01*
X235682438Y-95707029D02*
X235730057Y-95659410D01*
X235730057Y-95659410D02*
X235825295Y-95611791D01*
X235825295Y-95611791D02*
X235968152Y-95611791D01*
X235968152Y-95611791D02*
X236063390Y-95659410D01*
X236063390Y-95659410D02*
X236111009Y-95707029D01*
X236111009Y-95707029D02*
X236158628Y-95802267D01*
X236158628Y-95802267D02*
X236158628Y-96183219D01*
X235968152Y-94754648D02*
X236634819Y-94754648D01*
X235587200Y-94992743D02*
X236301485Y-95230838D01*
X236301485Y-95230838D02*
X236301485Y-94611791D01*
X218957142Y-103184705D02*
X218909523Y-103232325D01*
X218909523Y-103232325D02*
X218766666Y-103279944D01*
X218766666Y-103279944D02*
X218671428Y-103279944D01*
X218671428Y-103279944D02*
X218528571Y-103232325D01*
X218528571Y-103232325D02*
X218433333Y-103137086D01*
X218433333Y-103137086D02*
X218385714Y-103041848D01*
X218385714Y-103041848D02*
X218338095Y-102851372D01*
X218338095Y-102851372D02*
X218338095Y-102708515D01*
X218338095Y-102708515D02*
X218385714Y-102518039D01*
X218385714Y-102518039D02*
X218433333Y-102422801D01*
X218433333Y-102422801D02*
X218528571Y-102327563D01*
X218528571Y-102327563D02*
X218671428Y-102279944D01*
X218671428Y-102279944D02*
X218766666Y-102279944D01*
X218766666Y-102279944D02*
X218909523Y-102327563D01*
X218909523Y-102327563D02*
X218957142Y-102375182D01*
X219338095Y-102375182D02*
X219385714Y-102327563D01*
X219385714Y-102327563D02*
X219480952Y-102279944D01*
X219480952Y-102279944D02*
X219719047Y-102279944D01*
X219719047Y-102279944D02*
X219814285Y-102327563D01*
X219814285Y-102327563D02*
X219861904Y-102375182D01*
X219861904Y-102375182D02*
X219909523Y-102470420D01*
X219909523Y-102470420D02*
X219909523Y-102565658D01*
X219909523Y-102565658D02*
X219861904Y-102708515D01*
X219861904Y-102708515D02*
X219290476Y-103279944D01*
X219290476Y-103279944D02*
X219909523Y-103279944D01*
X220861904Y-103279944D02*
X220290476Y-103279944D01*
X220576190Y-103279944D02*
X220576190Y-102279944D01*
X220576190Y-102279944D02*
X220480952Y-102422801D01*
X220480952Y-102422801D02*
X220385714Y-102518039D01*
X220385714Y-102518039D02*
X220290476Y-102565658D01*
X212374642Y-132674705D02*
X212327023Y-132722325D01*
X212327023Y-132722325D02*
X212184166Y-132769944D01*
X212184166Y-132769944D02*
X212088928Y-132769944D01*
X212088928Y-132769944D02*
X211946071Y-132722325D01*
X211946071Y-132722325D02*
X211850833Y-132627086D01*
X211850833Y-132627086D02*
X211803214Y-132531848D01*
X211803214Y-132531848D02*
X211755595Y-132341372D01*
X211755595Y-132341372D02*
X211755595Y-132198515D01*
X211755595Y-132198515D02*
X211803214Y-132008039D01*
X211803214Y-132008039D02*
X211850833Y-131912801D01*
X211850833Y-131912801D02*
X211946071Y-131817563D01*
X211946071Y-131817563D02*
X212088928Y-131769944D01*
X212088928Y-131769944D02*
X212184166Y-131769944D01*
X212184166Y-131769944D02*
X212327023Y-131817563D01*
X212327023Y-131817563D02*
X212374642Y-131865182D01*
X212707976Y-131769944D02*
X213327023Y-131769944D01*
X213327023Y-131769944D02*
X212993690Y-132150896D01*
X212993690Y-132150896D02*
X213136547Y-132150896D01*
X213136547Y-132150896D02*
X213231785Y-132198515D01*
X213231785Y-132198515D02*
X213279404Y-132246134D01*
X213279404Y-132246134D02*
X213327023Y-132341372D01*
X213327023Y-132341372D02*
X213327023Y-132579467D01*
X213327023Y-132579467D02*
X213279404Y-132674705D01*
X213279404Y-132674705D02*
X213231785Y-132722325D01*
X213231785Y-132722325D02*
X213136547Y-132769944D01*
X213136547Y-132769944D02*
X212850833Y-132769944D01*
X212850833Y-132769944D02*
X212755595Y-132722325D01*
X212755595Y-132722325D02*
X212707976Y-132674705D01*
X214279404Y-132769944D02*
X213707976Y-132769944D01*
X213993690Y-132769944D02*
X213993690Y-131769944D01*
X213993690Y-131769944D02*
X213898452Y-131912801D01*
X213898452Y-131912801D02*
X213803214Y-132008039D01*
X213803214Y-132008039D02*
X213707976Y-132055658D01*
X212462142Y-134984705D02*
X212414523Y-135032325D01*
X212414523Y-135032325D02*
X212271666Y-135079944D01*
X212271666Y-135079944D02*
X212176428Y-135079944D01*
X212176428Y-135079944D02*
X212033571Y-135032325D01*
X212033571Y-135032325D02*
X211938333Y-134937086D01*
X211938333Y-134937086D02*
X211890714Y-134841848D01*
X211890714Y-134841848D02*
X211843095Y-134651372D01*
X211843095Y-134651372D02*
X211843095Y-134508515D01*
X211843095Y-134508515D02*
X211890714Y-134318039D01*
X211890714Y-134318039D02*
X211938333Y-134222801D01*
X211938333Y-134222801D02*
X212033571Y-134127563D01*
X212033571Y-134127563D02*
X212176428Y-134079944D01*
X212176428Y-134079944D02*
X212271666Y-134079944D01*
X212271666Y-134079944D02*
X212414523Y-134127563D01*
X212414523Y-134127563D02*
X212462142Y-134175182D01*
X212795476Y-134079944D02*
X213414523Y-134079944D01*
X213414523Y-134079944D02*
X213081190Y-134460896D01*
X213081190Y-134460896D02*
X213224047Y-134460896D01*
X213224047Y-134460896D02*
X213319285Y-134508515D01*
X213319285Y-134508515D02*
X213366904Y-134556134D01*
X213366904Y-134556134D02*
X213414523Y-134651372D01*
X213414523Y-134651372D02*
X213414523Y-134889467D01*
X213414523Y-134889467D02*
X213366904Y-134984705D01*
X213366904Y-134984705D02*
X213319285Y-135032325D01*
X213319285Y-135032325D02*
X213224047Y-135079944D01*
X213224047Y-135079944D02*
X212938333Y-135079944D01*
X212938333Y-135079944D02*
X212843095Y-135032325D01*
X212843095Y-135032325D02*
X212795476Y-134984705D01*
X214033571Y-134079944D02*
X214128809Y-134079944D01*
X214128809Y-134079944D02*
X214224047Y-134127563D01*
X214224047Y-134127563D02*
X214271666Y-134175182D01*
X214271666Y-134175182D02*
X214319285Y-134270420D01*
X214319285Y-134270420D02*
X214366904Y-134460896D01*
X214366904Y-134460896D02*
X214366904Y-134698991D01*
X214366904Y-134698991D02*
X214319285Y-134889467D01*
X214319285Y-134889467D02*
X214271666Y-134984705D01*
X214271666Y-134984705D02*
X214224047Y-135032325D01*
X214224047Y-135032325D02*
X214128809Y-135079944D01*
X214128809Y-135079944D02*
X214033571Y-135079944D01*
X214033571Y-135079944D02*
X213938333Y-135032325D01*
X213938333Y-135032325D02*
X213890714Y-134984705D01*
X213890714Y-134984705D02*
X213843095Y-134889467D01*
X213843095Y-134889467D02*
X213795476Y-134698991D01*
X213795476Y-134698991D02*
X213795476Y-134460896D01*
X213795476Y-134460896D02*
X213843095Y-134270420D01*
X213843095Y-134270420D02*
X213890714Y-134175182D01*
X213890714Y-134175182D02*
X213938333Y-134127563D01*
X213938333Y-134127563D02*
X214033571Y-134079944D01*
X187207142Y-126104944D02*
X186873809Y-125628753D01*
X186635714Y-126104944D02*
X186635714Y-125104944D01*
X186635714Y-125104944D02*
X187016666Y-125104944D01*
X187016666Y-125104944D02*
X187111904Y-125152563D01*
X187111904Y-125152563D02*
X187159523Y-125200182D01*
X187159523Y-125200182D02*
X187207142Y-125295420D01*
X187207142Y-125295420D02*
X187207142Y-125438277D01*
X187207142Y-125438277D02*
X187159523Y-125533515D01*
X187159523Y-125533515D02*
X187111904Y-125581134D01*
X187111904Y-125581134D02*
X187016666Y-125628753D01*
X187016666Y-125628753D02*
X186635714Y-125628753D01*
X188159523Y-126104944D02*
X187588095Y-126104944D01*
X187873809Y-126104944D02*
X187873809Y-125104944D01*
X187873809Y-125104944D02*
X187778571Y-125247801D01*
X187778571Y-125247801D02*
X187683333Y-125343039D01*
X187683333Y-125343039D02*
X187588095Y-125390658D01*
X189016666Y-125104944D02*
X188826190Y-125104944D01*
X188826190Y-125104944D02*
X188730952Y-125152563D01*
X188730952Y-125152563D02*
X188683333Y-125200182D01*
X188683333Y-125200182D02*
X188588095Y-125343039D01*
X188588095Y-125343039D02*
X188540476Y-125533515D01*
X188540476Y-125533515D02*
X188540476Y-125914467D01*
X188540476Y-125914467D02*
X188588095Y-126009705D01*
X188588095Y-126009705D02*
X188635714Y-126057325D01*
X188635714Y-126057325D02*
X188730952Y-126104944D01*
X188730952Y-126104944D02*
X188921428Y-126104944D01*
X188921428Y-126104944D02*
X189016666Y-126057325D01*
X189016666Y-126057325D02*
X189064285Y-126009705D01*
X189064285Y-126009705D02*
X189111904Y-125914467D01*
X189111904Y-125914467D02*
X189111904Y-125676372D01*
X189111904Y-125676372D02*
X189064285Y-125581134D01*
X189064285Y-125581134D02*
X189016666Y-125533515D01*
X189016666Y-125533515D02*
X188921428Y-125485896D01*
X188921428Y-125485896D02*
X188730952Y-125485896D01*
X188730952Y-125485896D02*
X188635714Y-125533515D01*
X188635714Y-125533515D02*
X188588095Y-125581134D01*
X188588095Y-125581134D02*
X188540476Y-125676372D01*
X187187142Y-128274944D02*
X186853809Y-127798753D01*
X186615714Y-128274944D02*
X186615714Y-127274944D01*
X186615714Y-127274944D02*
X186996666Y-127274944D01*
X186996666Y-127274944D02*
X187091904Y-127322563D01*
X187091904Y-127322563D02*
X187139523Y-127370182D01*
X187139523Y-127370182D02*
X187187142Y-127465420D01*
X187187142Y-127465420D02*
X187187142Y-127608277D01*
X187187142Y-127608277D02*
X187139523Y-127703515D01*
X187139523Y-127703515D02*
X187091904Y-127751134D01*
X187091904Y-127751134D02*
X186996666Y-127798753D01*
X186996666Y-127798753D02*
X186615714Y-127798753D01*
X188139523Y-128274944D02*
X187568095Y-128274944D01*
X187853809Y-128274944D02*
X187853809Y-127274944D01*
X187853809Y-127274944D02*
X187758571Y-127417801D01*
X187758571Y-127417801D02*
X187663333Y-127513039D01*
X187663333Y-127513039D02*
X187568095Y-127560658D01*
X188710952Y-127703515D02*
X188615714Y-127655896D01*
X188615714Y-127655896D02*
X188568095Y-127608277D01*
X188568095Y-127608277D02*
X188520476Y-127513039D01*
X188520476Y-127513039D02*
X188520476Y-127465420D01*
X188520476Y-127465420D02*
X188568095Y-127370182D01*
X188568095Y-127370182D02*
X188615714Y-127322563D01*
X188615714Y-127322563D02*
X188710952Y-127274944D01*
X188710952Y-127274944D02*
X188901428Y-127274944D01*
X188901428Y-127274944D02*
X188996666Y-127322563D01*
X188996666Y-127322563D02*
X189044285Y-127370182D01*
X189044285Y-127370182D02*
X189091904Y-127465420D01*
X189091904Y-127465420D02*
X189091904Y-127513039D01*
X189091904Y-127513039D02*
X189044285Y-127608277D01*
X189044285Y-127608277D02*
X188996666Y-127655896D01*
X188996666Y-127655896D02*
X188901428Y-127703515D01*
X188901428Y-127703515D02*
X188710952Y-127703515D01*
X188710952Y-127703515D02*
X188615714Y-127751134D01*
X188615714Y-127751134D02*
X188568095Y-127798753D01*
X188568095Y-127798753D02*
X188520476Y-127893991D01*
X188520476Y-127893991D02*
X188520476Y-128084467D01*
X188520476Y-128084467D02*
X188568095Y-128179705D01*
X188568095Y-128179705D02*
X188615714Y-128227325D01*
X188615714Y-128227325D02*
X188710952Y-128274944D01*
X188710952Y-128274944D02*
X188901428Y-128274944D01*
X188901428Y-128274944D02*
X188996666Y-128227325D01*
X188996666Y-128227325D02*
X189044285Y-128179705D01*
X189044285Y-128179705D02*
X189091904Y-128084467D01*
X189091904Y-128084467D02*
X189091904Y-127893991D01*
X189091904Y-127893991D02*
X189044285Y-127798753D01*
X189044285Y-127798753D02*
X188996666Y-127751134D01*
X188996666Y-127751134D02*
X188901428Y-127703515D01*
X231689580Y-95667982D02*
X231737200Y-95715601D01*
X231737200Y-95715601D02*
X231784819Y-95858458D01*
X231784819Y-95858458D02*
X231784819Y-95953696D01*
X231784819Y-95953696D02*
X231737200Y-96096553D01*
X231737200Y-96096553D02*
X231641961Y-96191791D01*
X231641961Y-96191791D02*
X231546723Y-96239410D01*
X231546723Y-96239410D02*
X231356247Y-96287029D01*
X231356247Y-96287029D02*
X231213390Y-96287029D01*
X231213390Y-96287029D02*
X231022914Y-96239410D01*
X231022914Y-96239410D02*
X230927676Y-96191791D01*
X230927676Y-96191791D02*
X230832438Y-96096553D01*
X230832438Y-96096553D02*
X230784819Y-95953696D01*
X230784819Y-95953696D02*
X230784819Y-95858458D01*
X230784819Y-95858458D02*
X230832438Y-95715601D01*
X230832438Y-95715601D02*
X230880057Y-95667982D01*
X231784819Y-94715601D02*
X231784819Y-95287029D01*
X231784819Y-95001315D02*
X230784819Y-95001315D01*
X230784819Y-95001315D02*
X230927676Y-95096553D01*
X230927676Y-95096553D02*
X231022914Y-95191791D01*
X231022914Y-95191791D02*
X231070533Y-95287029D01*
X231213390Y-94144172D02*
X231165771Y-94239410D01*
X231165771Y-94239410D02*
X231118152Y-94287029D01*
X231118152Y-94287029D02*
X231022914Y-94334648D01*
X231022914Y-94334648D02*
X230975295Y-94334648D01*
X230975295Y-94334648D02*
X230880057Y-94287029D01*
X230880057Y-94287029D02*
X230832438Y-94239410D01*
X230832438Y-94239410D02*
X230784819Y-94144172D01*
X230784819Y-94144172D02*
X230784819Y-93953696D01*
X230784819Y-93953696D02*
X230832438Y-93858458D01*
X230832438Y-93858458D02*
X230880057Y-93810839D01*
X230880057Y-93810839D02*
X230975295Y-93763220D01*
X230975295Y-93763220D02*
X231022914Y-93763220D01*
X231022914Y-93763220D02*
X231118152Y-93810839D01*
X231118152Y-93810839D02*
X231165771Y-93858458D01*
X231165771Y-93858458D02*
X231213390Y-93953696D01*
X231213390Y-93953696D02*
X231213390Y-94144172D01*
X231213390Y-94144172D02*
X231261009Y-94239410D01*
X231261009Y-94239410D02*
X231308628Y-94287029D01*
X231308628Y-94287029D02*
X231403866Y-94334648D01*
X231403866Y-94334648D02*
X231594342Y-94334648D01*
X231594342Y-94334648D02*
X231689580Y-94287029D01*
X231689580Y-94287029D02*
X231737200Y-94239410D01*
X231737200Y-94239410D02*
X231784819Y-94144172D01*
X231784819Y-94144172D02*
X231784819Y-93953696D01*
X231784819Y-93953696D02*
X231737200Y-93858458D01*
X231737200Y-93858458D02*
X231689580Y-93810839D01*
X231689580Y-93810839D02*
X231594342Y-93763220D01*
X231594342Y-93763220D02*
X231403866Y-93763220D01*
X231403866Y-93763220D02*
X231308628Y-93810839D01*
X231308628Y-93810839D02*
X231261009Y-93858458D01*
X231261009Y-93858458D02*
X231213390Y-93953696D01*
X187477142Y-107649944D02*
X187143809Y-107173753D01*
X186905714Y-107649944D02*
X186905714Y-106649944D01*
X186905714Y-106649944D02*
X187286666Y-106649944D01*
X187286666Y-106649944D02*
X187381904Y-106697563D01*
X187381904Y-106697563D02*
X187429523Y-106745182D01*
X187429523Y-106745182D02*
X187477142Y-106840420D01*
X187477142Y-106840420D02*
X187477142Y-106983277D01*
X187477142Y-106983277D02*
X187429523Y-107078515D01*
X187429523Y-107078515D02*
X187381904Y-107126134D01*
X187381904Y-107126134D02*
X187286666Y-107173753D01*
X187286666Y-107173753D02*
X186905714Y-107173753D01*
X188429523Y-107649944D02*
X187858095Y-107649944D01*
X188143809Y-107649944D02*
X188143809Y-106649944D01*
X188143809Y-106649944D02*
X188048571Y-106792801D01*
X188048571Y-106792801D02*
X187953333Y-106888039D01*
X187953333Y-106888039D02*
X187858095Y-106935658D01*
X188762857Y-106649944D02*
X189381904Y-106649944D01*
X189381904Y-106649944D02*
X189048571Y-107030896D01*
X189048571Y-107030896D02*
X189191428Y-107030896D01*
X189191428Y-107030896D02*
X189286666Y-107078515D01*
X189286666Y-107078515D02*
X189334285Y-107126134D01*
X189334285Y-107126134D02*
X189381904Y-107221372D01*
X189381904Y-107221372D02*
X189381904Y-107459467D01*
X189381904Y-107459467D02*
X189334285Y-107554705D01*
X189334285Y-107554705D02*
X189286666Y-107602325D01*
X189286666Y-107602325D02*
X189191428Y-107649944D01*
X189191428Y-107649944D02*
X188905714Y-107649944D01*
X188905714Y-107649944D02*
X188810476Y-107602325D01*
X188810476Y-107602325D02*
X188762857Y-107554705D01*
X228334819Y-120828458D02*
X229049104Y-120828458D01*
X229049104Y-120828458D02*
X229191961Y-120876077D01*
X229191961Y-120876077D02*
X229287200Y-120971315D01*
X229287200Y-120971315D02*
X229334819Y-121114172D01*
X229334819Y-121114172D02*
X229334819Y-121209410D01*
X228668152Y-119923696D02*
X229334819Y-119923696D01*
X228287200Y-120161791D02*
X229001485Y-120399886D01*
X229001485Y-120399886D02*
X229001485Y-119780839D01*
X209691009Y-101708458D02*
X209691009Y-102041791D01*
X210214819Y-102041791D02*
X209214819Y-102041791D01*
X209214819Y-102041791D02*
X209214819Y-101565601D01*
X209691009Y-100851315D02*
X209738628Y-100708458D01*
X209738628Y-100708458D02*
X209786247Y-100660839D01*
X209786247Y-100660839D02*
X209881485Y-100613220D01*
X209881485Y-100613220D02*
X210024342Y-100613220D01*
X210024342Y-100613220D02*
X210119580Y-100660839D01*
X210119580Y-100660839D02*
X210167200Y-100708458D01*
X210167200Y-100708458D02*
X210214819Y-100803696D01*
X210214819Y-100803696D02*
X210214819Y-101184648D01*
X210214819Y-101184648D02*
X209214819Y-101184648D01*
X209214819Y-101184648D02*
X209214819Y-100851315D01*
X209214819Y-100851315D02*
X209262438Y-100756077D01*
X209262438Y-100756077D02*
X209310057Y-100708458D01*
X209310057Y-100708458D02*
X209405295Y-100660839D01*
X209405295Y-100660839D02*
X209500533Y-100660839D01*
X209500533Y-100660839D02*
X209595771Y-100708458D01*
X209595771Y-100708458D02*
X209643390Y-100756077D01*
X209643390Y-100756077D02*
X209691009Y-100851315D01*
X209691009Y-100851315D02*
X209691009Y-101184648D01*
X210214819Y-99660839D02*
X210214819Y-100232267D01*
X210214819Y-99946553D02*
X209214819Y-99946553D01*
X209214819Y-99946553D02*
X209357676Y-100041791D01*
X209357676Y-100041791D02*
X209452914Y-100137029D01*
X209452914Y-100137029D02*
X209500533Y-100232267D01*
X210274819Y-133495482D02*
X209798628Y-133828815D01*
X210274819Y-134066910D02*
X209274819Y-134066910D01*
X209274819Y-134066910D02*
X209274819Y-133685958D01*
X209274819Y-133685958D02*
X209322438Y-133590720D01*
X209322438Y-133590720D02*
X209370057Y-133543101D01*
X209370057Y-133543101D02*
X209465295Y-133495482D01*
X209465295Y-133495482D02*
X209608152Y-133495482D01*
X209608152Y-133495482D02*
X209703390Y-133543101D01*
X209703390Y-133543101D02*
X209751009Y-133590720D01*
X209751009Y-133590720D02*
X209798628Y-133685958D01*
X209798628Y-133685958D02*
X209798628Y-134066910D01*
X209370057Y-133114529D02*
X209322438Y-133066910D01*
X209322438Y-133066910D02*
X209274819Y-132971672D01*
X209274819Y-132971672D02*
X209274819Y-132733577D01*
X209274819Y-132733577D02*
X209322438Y-132638339D01*
X209322438Y-132638339D02*
X209370057Y-132590720D01*
X209370057Y-132590720D02*
X209465295Y-132543101D01*
X209465295Y-132543101D02*
X209560533Y-132543101D01*
X209560533Y-132543101D02*
X209703390Y-132590720D01*
X209703390Y-132590720D02*
X210274819Y-133162148D01*
X210274819Y-133162148D02*
X210274819Y-132543101D01*
X209274819Y-132209767D02*
X209274819Y-131590720D01*
X209274819Y-131590720D02*
X209655771Y-131924053D01*
X209655771Y-131924053D02*
X209655771Y-131781196D01*
X209655771Y-131781196D02*
X209703390Y-131685958D01*
X209703390Y-131685958D02*
X209751009Y-131638339D01*
X209751009Y-131638339D02*
X209846247Y-131590720D01*
X209846247Y-131590720D02*
X210084342Y-131590720D01*
X210084342Y-131590720D02*
X210179580Y-131638339D01*
X210179580Y-131638339D02*
X210227200Y-131685958D01*
X210227200Y-131685958D02*
X210274819Y-131781196D01*
X210274819Y-131781196D02*
X210274819Y-132066910D01*
X210274819Y-132066910D02*
X210227200Y-132162148D01*
X210227200Y-132162148D02*
X210179580Y-132209767D01*
X239249580Y-95557982D02*
X239297200Y-95605601D01*
X239297200Y-95605601D02*
X239344819Y-95748458D01*
X239344819Y-95748458D02*
X239344819Y-95843696D01*
X239344819Y-95843696D02*
X239297200Y-95986553D01*
X239297200Y-95986553D02*
X239201961Y-96081791D01*
X239201961Y-96081791D02*
X239106723Y-96129410D01*
X239106723Y-96129410D02*
X238916247Y-96177029D01*
X238916247Y-96177029D02*
X238773390Y-96177029D01*
X238773390Y-96177029D02*
X238582914Y-96129410D01*
X238582914Y-96129410D02*
X238487676Y-96081791D01*
X238487676Y-96081791D02*
X238392438Y-95986553D01*
X238392438Y-95986553D02*
X238344819Y-95843696D01*
X238344819Y-95843696D02*
X238344819Y-95748458D01*
X238344819Y-95748458D02*
X238392438Y-95605601D01*
X238392438Y-95605601D02*
X238440057Y-95557982D01*
X239344819Y-94605601D02*
X239344819Y-95177029D01*
X239344819Y-94891315D02*
X238344819Y-94891315D01*
X238344819Y-94891315D02*
X238487676Y-94986553D01*
X238487676Y-94986553D02*
X238582914Y-95081791D01*
X238582914Y-95081791D02*
X238630533Y-95177029D01*
X238344819Y-93748458D02*
X238344819Y-93938934D01*
X238344819Y-93938934D02*
X238392438Y-94034172D01*
X238392438Y-94034172D02*
X238440057Y-94081791D01*
X238440057Y-94081791D02*
X238582914Y-94177029D01*
X238582914Y-94177029D02*
X238773390Y-94224648D01*
X238773390Y-94224648D02*
X239154342Y-94224648D01*
X239154342Y-94224648D02*
X239249580Y-94177029D01*
X239249580Y-94177029D02*
X239297200Y-94129410D01*
X239297200Y-94129410D02*
X239344819Y-94034172D01*
X239344819Y-94034172D02*
X239344819Y-93843696D01*
X239344819Y-93843696D02*
X239297200Y-93748458D01*
X239297200Y-93748458D02*
X239249580Y-93700839D01*
X239249580Y-93700839D02*
X239154342Y-93653220D01*
X239154342Y-93653220D02*
X238916247Y-93653220D01*
X238916247Y-93653220D02*
X238821009Y-93700839D01*
X238821009Y-93700839D02*
X238773390Y-93748458D01*
X238773390Y-93748458D02*
X238725771Y-93843696D01*
X238725771Y-93843696D02*
X238725771Y-94034172D01*
X238725771Y-94034172D02*
X238773390Y-94129410D01*
X238773390Y-94129410D02*
X238821009Y-94177029D01*
X238821009Y-94177029D02*
X238916247Y-94224648D01*
X187387142Y-105289944D02*
X187053809Y-104813753D01*
X186815714Y-105289944D02*
X186815714Y-104289944D01*
X186815714Y-104289944D02*
X187196666Y-104289944D01*
X187196666Y-104289944D02*
X187291904Y-104337563D01*
X187291904Y-104337563D02*
X187339523Y-104385182D01*
X187339523Y-104385182D02*
X187387142Y-104480420D01*
X187387142Y-104480420D02*
X187387142Y-104623277D01*
X187387142Y-104623277D02*
X187339523Y-104718515D01*
X187339523Y-104718515D02*
X187291904Y-104766134D01*
X187291904Y-104766134D02*
X187196666Y-104813753D01*
X187196666Y-104813753D02*
X186815714Y-104813753D01*
X188339523Y-105289944D02*
X187768095Y-105289944D01*
X188053809Y-105289944D02*
X188053809Y-104289944D01*
X188053809Y-104289944D02*
X187958571Y-104432801D01*
X187958571Y-104432801D02*
X187863333Y-104528039D01*
X187863333Y-104528039D02*
X187768095Y-104575658D01*
X189291904Y-105289944D02*
X188720476Y-105289944D01*
X189006190Y-105289944D02*
X189006190Y-104289944D01*
X189006190Y-104289944D02*
X188910952Y-104432801D01*
X188910952Y-104432801D02*
X188815714Y-104528039D01*
X188815714Y-104528039D02*
X188720476Y-104575658D01*
X182354819Y-136958458D02*
X183069104Y-136958458D01*
X183069104Y-136958458D02*
X183211961Y-137006077D01*
X183211961Y-137006077D02*
X183307200Y-137101315D01*
X183307200Y-137101315D02*
X183354819Y-137244172D01*
X183354819Y-137244172D02*
X183354819Y-137339410D01*
X182354819Y-136577505D02*
X182354819Y-135958458D01*
X182354819Y-135958458D02*
X182735771Y-136291791D01*
X182735771Y-136291791D02*
X182735771Y-136148934D01*
X182735771Y-136148934D02*
X182783390Y-136053696D01*
X182783390Y-136053696D02*
X182831009Y-136006077D01*
X182831009Y-136006077D02*
X182926247Y-135958458D01*
X182926247Y-135958458D02*
X183164342Y-135958458D01*
X183164342Y-135958458D02*
X183259580Y-136006077D01*
X183259580Y-136006077D02*
X183307200Y-136053696D01*
X183307200Y-136053696D02*
X183354819Y-136148934D01*
X183354819Y-136148934D02*
X183354819Y-136434648D01*
X183354819Y-136434648D02*
X183307200Y-136529886D01*
X183307200Y-136529886D02*
X183259580Y-136577505D01*
X195736666Y-110766134D02*
X195403333Y-110766134D01*
X195403333Y-111289944D02*
X195403333Y-110289944D01*
X195403333Y-110289944D02*
X195879523Y-110289944D01*
X196593809Y-110766134D02*
X196736666Y-110813753D01*
X196736666Y-110813753D02*
X196784285Y-110861372D01*
X196784285Y-110861372D02*
X196831904Y-110956610D01*
X196831904Y-110956610D02*
X196831904Y-111099467D01*
X196831904Y-111099467D02*
X196784285Y-111194705D01*
X196784285Y-111194705D02*
X196736666Y-111242325D01*
X196736666Y-111242325D02*
X196641428Y-111289944D01*
X196641428Y-111289944D02*
X196260476Y-111289944D01*
X196260476Y-111289944D02*
X196260476Y-110289944D01*
X196260476Y-110289944D02*
X196593809Y-110289944D01*
X196593809Y-110289944D02*
X196689047Y-110337563D01*
X196689047Y-110337563D02*
X196736666Y-110385182D01*
X196736666Y-110385182D02*
X196784285Y-110480420D01*
X196784285Y-110480420D02*
X196784285Y-110575658D01*
X196784285Y-110575658D02*
X196736666Y-110670896D01*
X196736666Y-110670896D02*
X196689047Y-110718515D01*
X196689047Y-110718515D02*
X196593809Y-110766134D01*
X196593809Y-110766134D02*
X196260476Y-110766134D01*
X197165238Y-110289944D02*
X197784285Y-110289944D01*
X197784285Y-110289944D02*
X197450952Y-110670896D01*
X197450952Y-110670896D02*
X197593809Y-110670896D01*
X197593809Y-110670896D02*
X197689047Y-110718515D01*
X197689047Y-110718515D02*
X197736666Y-110766134D01*
X197736666Y-110766134D02*
X197784285Y-110861372D01*
X197784285Y-110861372D02*
X197784285Y-111099467D01*
X197784285Y-111099467D02*
X197736666Y-111194705D01*
X197736666Y-111194705D02*
X197689047Y-111242325D01*
X197689047Y-111242325D02*
X197593809Y-111289944D01*
X197593809Y-111289944D02*
X197308095Y-111289944D01*
X197308095Y-111289944D02*
X197212857Y-111242325D01*
X197212857Y-111242325D02*
X197165238Y-111194705D01*
X219669580Y-123257982D02*
X219717200Y-123305601D01*
X219717200Y-123305601D02*
X219764819Y-123448458D01*
X219764819Y-123448458D02*
X219764819Y-123543696D01*
X219764819Y-123543696D02*
X219717200Y-123686553D01*
X219717200Y-123686553D02*
X219621961Y-123781791D01*
X219621961Y-123781791D02*
X219526723Y-123829410D01*
X219526723Y-123829410D02*
X219336247Y-123877029D01*
X219336247Y-123877029D02*
X219193390Y-123877029D01*
X219193390Y-123877029D02*
X219002914Y-123829410D01*
X219002914Y-123829410D02*
X218907676Y-123781791D01*
X218907676Y-123781791D02*
X218812438Y-123686553D01*
X218812438Y-123686553D02*
X218764819Y-123543696D01*
X218764819Y-123543696D02*
X218764819Y-123448458D01*
X218764819Y-123448458D02*
X218812438Y-123305601D01*
X218812438Y-123305601D02*
X218860057Y-123257982D01*
X218860057Y-122877029D02*
X218812438Y-122829410D01*
X218812438Y-122829410D02*
X218764819Y-122734172D01*
X218764819Y-122734172D02*
X218764819Y-122496077D01*
X218764819Y-122496077D02*
X218812438Y-122400839D01*
X218812438Y-122400839D02*
X218860057Y-122353220D01*
X218860057Y-122353220D02*
X218955295Y-122305601D01*
X218955295Y-122305601D02*
X219050533Y-122305601D01*
X219050533Y-122305601D02*
X219193390Y-122353220D01*
X219193390Y-122353220D02*
X219764819Y-122924648D01*
X219764819Y-122924648D02*
X219764819Y-122305601D01*
X218764819Y-121972267D02*
X218764819Y-121305601D01*
X218764819Y-121305601D02*
X219764819Y-121734172D01*
X204274819Y-101801791D02*
X203798628Y-102135124D01*
X204274819Y-102373219D02*
X203274819Y-102373219D01*
X203274819Y-102373219D02*
X203274819Y-101992267D01*
X203274819Y-101992267D02*
X203322438Y-101897029D01*
X203322438Y-101897029D02*
X203370057Y-101849410D01*
X203370057Y-101849410D02*
X203465295Y-101801791D01*
X203465295Y-101801791D02*
X203608152Y-101801791D01*
X203608152Y-101801791D02*
X203703390Y-101849410D01*
X203703390Y-101849410D02*
X203751009Y-101897029D01*
X203751009Y-101897029D02*
X203798628Y-101992267D01*
X203798628Y-101992267D02*
X203798628Y-102373219D01*
X204274819Y-100849410D02*
X204274819Y-101420838D01*
X204274819Y-101135124D02*
X203274819Y-101135124D01*
X203274819Y-101135124D02*
X203417676Y-101230362D01*
X203417676Y-101230362D02*
X203512914Y-101325600D01*
X203512914Y-101325600D02*
X203560533Y-101420838D01*
X214249580Y-125691791D02*
X214297200Y-125739410D01*
X214297200Y-125739410D02*
X214344819Y-125882267D01*
X214344819Y-125882267D02*
X214344819Y-125977505D01*
X214344819Y-125977505D02*
X214297200Y-126120362D01*
X214297200Y-126120362D02*
X214201961Y-126215600D01*
X214201961Y-126215600D02*
X214106723Y-126263219D01*
X214106723Y-126263219D02*
X213916247Y-126310838D01*
X213916247Y-126310838D02*
X213773390Y-126310838D01*
X213773390Y-126310838D02*
X213582914Y-126263219D01*
X213582914Y-126263219D02*
X213487676Y-126215600D01*
X213487676Y-126215600D02*
X213392438Y-126120362D01*
X213392438Y-126120362D02*
X213344819Y-125977505D01*
X213344819Y-125977505D02*
X213344819Y-125882267D01*
X213344819Y-125882267D02*
X213392438Y-125739410D01*
X213392438Y-125739410D02*
X213440057Y-125691791D01*
X213344819Y-125358457D02*
X213344819Y-124691791D01*
X213344819Y-124691791D02*
X214344819Y-125120362D01*
X221533333Y-130279944D02*
X221200000Y-129803753D01*
X220961905Y-130279944D02*
X220961905Y-129279944D01*
X220961905Y-129279944D02*
X221342857Y-129279944D01*
X221342857Y-129279944D02*
X221438095Y-129327563D01*
X221438095Y-129327563D02*
X221485714Y-129375182D01*
X221485714Y-129375182D02*
X221533333Y-129470420D01*
X221533333Y-129470420D02*
X221533333Y-129613277D01*
X221533333Y-129613277D02*
X221485714Y-129708515D01*
X221485714Y-129708515D02*
X221438095Y-129756134D01*
X221438095Y-129756134D02*
X221342857Y-129803753D01*
X221342857Y-129803753D02*
X220961905Y-129803753D01*
X222438095Y-129279944D02*
X221961905Y-129279944D01*
X221961905Y-129279944D02*
X221914286Y-129756134D01*
X221914286Y-129756134D02*
X221961905Y-129708515D01*
X221961905Y-129708515D02*
X222057143Y-129660896D01*
X222057143Y-129660896D02*
X222295238Y-129660896D01*
X222295238Y-129660896D02*
X222390476Y-129708515D01*
X222390476Y-129708515D02*
X222438095Y-129756134D01*
X222438095Y-129756134D02*
X222485714Y-129851372D01*
X222485714Y-129851372D02*
X222485714Y-130089467D01*
X222485714Y-130089467D02*
X222438095Y-130184705D01*
X222438095Y-130184705D02*
X222390476Y-130232325D01*
X222390476Y-130232325D02*
X222295238Y-130279944D01*
X222295238Y-130279944D02*
X222057143Y-130279944D01*
X222057143Y-130279944D02*
X221961905Y-130232325D01*
X221961905Y-130232325D02*
X221914286Y-130184705D01*
X212819405Y-137419944D02*
X212819405Y-136419944D01*
X212819405Y-136419944D02*
X213057500Y-136419944D01*
X213057500Y-136419944D02*
X213200357Y-136467563D01*
X213200357Y-136467563D02*
X213295595Y-136562801D01*
X213295595Y-136562801D02*
X213343214Y-136658039D01*
X213343214Y-136658039D02*
X213390833Y-136848515D01*
X213390833Y-136848515D02*
X213390833Y-136991372D01*
X213390833Y-136991372D02*
X213343214Y-137181848D01*
X213343214Y-137181848D02*
X213295595Y-137277086D01*
X213295595Y-137277086D02*
X213200357Y-137372325D01*
X213200357Y-137372325D02*
X213057500Y-137419944D01*
X213057500Y-137419944D02*
X212819405Y-137419944D01*
X213724167Y-136419944D02*
X214343214Y-136419944D01*
X214343214Y-136419944D02*
X214009881Y-136800896D01*
X214009881Y-136800896D02*
X214152738Y-136800896D01*
X214152738Y-136800896D02*
X214247976Y-136848515D01*
X214247976Y-136848515D02*
X214295595Y-136896134D01*
X214295595Y-136896134D02*
X214343214Y-136991372D01*
X214343214Y-136991372D02*
X214343214Y-137229467D01*
X214343214Y-137229467D02*
X214295595Y-137324705D01*
X214295595Y-137324705D02*
X214247976Y-137372325D01*
X214247976Y-137372325D02*
X214152738Y-137419944D01*
X214152738Y-137419944D02*
X213867024Y-137419944D01*
X213867024Y-137419944D02*
X213771786Y-137372325D01*
X213771786Y-137372325D02*
X213724167Y-137324705D01*
X187157142Y-121704944D02*
X186823809Y-121228753D01*
X186585714Y-121704944D02*
X186585714Y-120704944D01*
X186585714Y-120704944D02*
X186966666Y-120704944D01*
X186966666Y-120704944D02*
X187061904Y-120752563D01*
X187061904Y-120752563D02*
X187109523Y-120800182D01*
X187109523Y-120800182D02*
X187157142Y-120895420D01*
X187157142Y-120895420D02*
X187157142Y-121038277D01*
X187157142Y-121038277D02*
X187109523Y-121133515D01*
X187109523Y-121133515D02*
X187061904Y-121181134D01*
X187061904Y-121181134D02*
X186966666Y-121228753D01*
X186966666Y-121228753D02*
X186585714Y-121228753D01*
X188109523Y-121704944D02*
X187538095Y-121704944D01*
X187823809Y-121704944D02*
X187823809Y-120704944D01*
X187823809Y-120704944D02*
X187728571Y-120847801D01*
X187728571Y-120847801D02*
X187633333Y-120943039D01*
X187633333Y-120943039D02*
X187538095Y-120990658D01*
X188966666Y-121038277D02*
X188966666Y-121704944D01*
X188728571Y-120657325D02*
X188490476Y-121371610D01*
X188490476Y-121371610D02*
X189109523Y-121371610D01*
X197033333Y-128624705D02*
X196985714Y-128672325D01*
X196985714Y-128672325D02*
X196842857Y-128719944D01*
X196842857Y-128719944D02*
X196747619Y-128719944D01*
X196747619Y-128719944D02*
X196604762Y-128672325D01*
X196604762Y-128672325D02*
X196509524Y-128577086D01*
X196509524Y-128577086D02*
X196461905Y-128481848D01*
X196461905Y-128481848D02*
X196414286Y-128291372D01*
X196414286Y-128291372D02*
X196414286Y-128148515D01*
X196414286Y-128148515D02*
X196461905Y-127958039D01*
X196461905Y-127958039D02*
X196509524Y-127862801D01*
X196509524Y-127862801D02*
X196604762Y-127767563D01*
X196604762Y-127767563D02*
X196747619Y-127719944D01*
X196747619Y-127719944D02*
X196842857Y-127719944D01*
X196842857Y-127719944D02*
X196985714Y-127767563D01*
X196985714Y-127767563D02*
X197033333Y-127815182D01*
X197985714Y-128719944D02*
X197414286Y-128719944D01*
X197700000Y-128719944D02*
X197700000Y-127719944D01*
X197700000Y-127719944D02*
X197604762Y-127862801D01*
X197604762Y-127862801D02*
X197509524Y-127958039D01*
X197509524Y-127958039D02*
X197414286Y-128005658D01*
%TO.C,R6*%
D14*
X241245000Y-106058061D02*
X241245000Y-106512189D01*
X239775000Y-106058061D02*
X239775000Y-106512189D01*
%TO.C,R15*%
X190892936Y-124225125D02*
X191347064Y-124225125D01*
X190892936Y-122755125D02*
X191347064Y-122755125D01*
%TO.C,R12*%
X191132936Y-110220125D02*
X191587064Y-110220125D01*
X191132936Y-108750125D02*
X191587064Y-108750125D01*
%TO.C,D2*%
X224750000Y-125375125D02*
X223390000Y-125375125D01*
X224750000Y-124575125D02*
X223390000Y-124575125D01*
X223390000Y-124575125D02*
X223390000Y-125375125D01*
%TO.C,J1*%
X193510000Y-95905125D02*
X193510000Y-94525125D01*
X194890000Y-95905125D02*
X193510000Y-95905125D01*
X196160000Y-93145125D02*
X203890000Y-93145125D01*
X196160000Y-95905125D02*
X196160000Y-93145125D01*
X196160000Y-95905125D02*
X203890000Y-95905125D01*
X203890000Y-95905125D02*
X203890000Y-93145125D01*
%TO.C,J2*%
X176960000Y-97895125D02*
X169940000Y-97895125D01*
X176960000Y-114155125D02*
X169940000Y-114155125D01*
X182790000Y-97665125D02*
X180990000Y-97665125D01*
X186040000Y-97895125D02*
X180240000Y-97895125D01*
X186040000Y-97895125D02*
X186040000Y-114155125D01*
X186040000Y-114155125D02*
X180240000Y-114155125D01*
%TO.C,C15*%
X239091252Y-111520125D02*
X238568748Y-111520125D01*
X239091252Y-110050125D02*
X238568748Y-110050125D01*
%TO.C,R10*%
X191132936Y-103510125D02*
X191587064Y-103510125D01*
X191132936Y-102040125D02*
X191587064Y-102040125D01*
%TO.C,U4*%
X226480000Y-138235125D02*
X226000000Y-138235125D01*
X226240000Y-137905125D01*
X226480000Y-138235125D01*
G36*
X226480000Y-138235125D02*
G01*
X226000000Y-138235125D01*
X226240000Y-137905125D01*
X226480000Y-138235125D01*
G37*
X224960000Y-138005125D02*
X221200000Y-138005125D01*
X224960000Y-131185125D02*
X221200000Y-131185125D01*
X221200000Y-138005125D02*
X221200000Y-136745125D01*
X221200000Y-131185125D02*
X221200000Y-132445125D01*
%TO.C,U1*%
D12*
X205850000Y-120435125D02*
G75*
G02*
X205650000Y-120435125I-100000J0D01*
G01*
X205650000Y-120435125D02*
G75*
G02*
X205850000Y-120435125I100000J0D01*
G01*
D15*
X214500000Y-118435125D02*
X214500000Y-117645125D01*
X214500000Y-118435125D02*
X213710000Y-118435125D01*
X214500000Y-108435125D02*
X214500000Y-109225125D01*
X214500000Y-108435125D02*
X213710000Y-108435125D01*
X204500000Y-118435125D02*
X205290000Y-118435125D01*
X204500000Y-118435125D02*
X204500000Y-117645125D01*
X204500000Y-108435125D02*
X205290000Y-108435125D01*
X204500000Y-108435125D02*
X204500000Y-109225125D01*
%TO.C,SW1*%
D14*
X240690000Y-135685125D02*
X240690000Y-135585125D01*
X240690000Y-131085125D02*
X240690000Y-134085125D01*
X240690000Y-129585125D02*
X240690000Y-129485125D01*
X234490000Y-135685125D02*
X240690000Y-135685125D01*
X234490000Y-135685125D02*
X234490000Y-135585125D01*
X234490000Y-131085125D02*
X234490000Y-134085125D01*
X234490000Y-129485125D02*
X240690000Y-129485125D01*
X234490000Y-129485125D02*
X234490000Y-129585125D01*
%TO.C,FB4*%
X198199758Y-117175125D02*
X199020242Y-117175125D01*
X198199758Y-116055125D02*
X199020242Y-116055125D01*
%TO.C,R9*%
X191092936Y-101270125D02*
X191547064Y-101270125D01*
X191092936Y-99800125D02*
X191547064Y-99800125D01*
%TO.C,R17*%
X190862936Y-130775125D02*
X191317064Y-130775125D01*
X190862936Y-129305125D02*
X191317064Y-129305125D01*
%TO.C,FB2*%
X206340000Y-104004883D02*
X206340000Y-104825367D01*
X205220000Y-104004883D02*
X205220000Y-104825367D01*
%TO.C,R19*%
X171352936Y-117665125D02*
X171807064Y-117665125D01*
X171352936Y-116195125D02*
X171807064Y-116195125D01*
%TO.C,C29*%
X230375000Y-134636373D02*
X230375000Y-135158877D01*
X228905000Y-134636373D02*
X228905000Y-135158877D01*
%TO.C,D1*%
X201830000Y-106230125D02*
X201830000Y-103370125D01*
X199910000Y-106230125D02*
X201830000Y-106230125D01*
X199910000Y-103370125D02*
X199910000Y-106230125D01*
%TO.C,C2*%
X206798748Y-129050125D02*
X207321252Y-129050125D01*
X206798748Y-127580125D02*
X207321252Y-127580125D01*
%TO.C,Y4*%
X225140000Y-100995125D02*
X229260000Y-100995125D01*
X225140000Y-97575125D02*
X225140000Y-100995125D01*
%TO.C,R7*%
X244835000Y-105998061D02*
X244835000Y-106452189D01*
X243365000Y-105998061D02*
X243365000Y-106452189D01*
%TO.C,R3*%
X198572936Y-115400125D02*
X199027064Y-115400125D01*
X198572936Y-113930125D02*
X199027064Y-113930125D01*
%TO.C,U2*%
X230960000Y-101775125D02*
X230630000Y-102015125D01*
X230630000Y-101535125D01*
X230960000Y-101775125D01*
G36*
X230960000Y-101775125D02*
G01*
X230630000Y-102015125D01*
X230630000Y-101535125D01*
X230960000Y-101775125D01*
G37*
X238710000Y-108135125D02*
X238235000Y-108135125D01*
X238710000Y-107660125D02*
X238710000Y-108135125D01*
X238710000Y-100915125D02*
X238710000Y-101390125D01*
X238235000Y-100915125D02*
X238710000Y-100915125D01*
X231965000Y-108135125D02*
X231490000Y-108135125D01*
X231490000Y-108135125D02*
X231490000Y-107660125D01*
X231490000Y-101390125D02*
X231490000Y-100915125D01*
X231490000Y-100915125D02*
X231965000Y-100915125D01*
%TO.C,C8*%
X211675000Y-122393873D02*
X211675000Y-122916377D01*
X210205000Y-122393873D02*
X210205000Y-122916377D01*
%TO.C,C17*%
X234325000Y-97913873D02*
X234325000Y-98436377D01*
X232855000Y-97913873D02*
X232855000Y-98436377D01*
%TO.C,C25*%
X196098748Y-104890125D02*
X196621252Y-104890125D01*
X196098748Y-103420125D02*
X196621252Y-103420125D01*
%TO.C,C26*%
X196098748Y-107900125D02*
X196621252Y-107900125D01*
X196098748Y-106430125D02*
X196621252Y-106430125D01*
%TO.C,C22*%
X227561252Y-95460125D02*
X227038748Y-95460125D01*
X227561252Y-93990125D02*
X227038748Y-93990125D01*
%TO.C,Y1*%
X200480000Y-121060125D02*
X206880000Y-121060125D01*
X206880000Y-125930125D02*
X200480000Y-125930125D01*
X200480000Y-125930125D02*
G75*
G02*
X200480000Y-121060125I0J2435000D01*
G01*
X206880000Y-121060125D02*
G75*
G02*
X206880000Y-125930125I0J-2435000D01*
G01*
%TO.C,C4*%
X219706248Y-109520125D02*
X220228752Y-109520125D01*
X219706248Y-108050125D02*
X220228752Y-108050125D01*
%TO.C,C6*%
X212695000Y-104536377D02*
X212695000Y-104013873D01*
X211225000Y-104536377D02*
X211225000Y-104013873D01*
%TO.C,C28*%
X227605000Y-125673873D02*
X227605000Y-126196377D01*
X226135000Y-125673873D02*
X226135000Y-126196377D01*
%TO.C,R2*%
X208545000Y-104228061D02*
X208545000Y-104682189D01*
X207075000Y-104228061D02*
X207075000Y-104682189D01*
D16*
%TO.C,G\u002A\u002A\u002A*%
G36*
X192073645Y-135289664D02*
G01*
X192073645Y-137178178D01*
X191977323Y-137109590D01*
X191916008Y-137060932D01*
X191868634Y-137020459D01*
X191948798Y-137020459D01*
X191956711Y-137038634D01*
X191989457Y-137073548D01*
X192008283Y-137066386D01*
X192008600Y-137061840D01*
X191985500Y-137034332D01*
X191971053Y-137024292D01*
X191948798Y-137020459D01*
X191868634Y-137020459D01*
X191820348Y-136979206D01*
X191703454Y-136875831D01*
X191578923Y-136762671D01*
X191276846Y-136484339D01*
X191260585Y-135791505D01*
X191244323Y-135098671D01*
X190970004Y-135689027D01*
X190871197Y-135901476D01*
X190767891Y-136123266D01*
X190668416Y-136336536D01*
X190581103Y-136523425D01*
X190524048Y-136645260D01*
X190352412Y-137011137D01*
X190806498Y-137011137D01*
X191260585Y-137011137D01*
X191260585Y-136873634D01*
X191260585Y-136736132D01*
X191538169Y-137011855D01*
X191654406Y-137127885D01*
X191729400Y-137206049D01*
X191768137Y-137254239D01*
X191775605Y-137280343D01*
X191756790Y-137292253D01*
X191718803Y-137297637D01*
X191649141Y-137316964D01*
X191637833Y-137349341D01*
X191629727Y-137402721D01*
X191608099Y-137428924D01*
X191571413Y-137493825D01*
X191584362Y-137568062D01*
X191639053Y-137630612D01*
X191692949Y-137654966D01*
X191792486Y-137680758D01*
X191557456Y-137874437D01*
X191451614Y-137960175D01*
X191363282Y-138028994D01*
X191305315Y-138071007D01*
X191291505Y-138078956D01*
X191273363Y-138056638D01*
X191262239Y-137987692D01*
X191260585Y-137940048D01*
X191260585Y-137790299D01*
X190623384Y-137799118D01*
X189986183Y-137807936D01*
X189664268Y-138555655D01*
X189576493Y-138763109D01*
X189499187Y-138952732D01*
X189435668Y-139115809D01*
X189389251Y-139243627D01*
X189363256Y-139327472D01*
X189359288Y-139356734D01*
X189357779Y-139417454D01*
X189334316Y-139508900D01*
X189318340Y-139552164D01*
X189260457Y-139694235D01*
X188715447Y-139685317D01*
X188170437Y-139676399D01*
X188240110Y-139538966D01*
X188286877Y-139453845D01*
X188325453Y-139395804D01*
X188337086Y-139383879D01*
X188350556Y-139369102D01*
X188372127Y-139335020D01*
X188403873Y-139277391D01*
X188447866Y-139191973D01*
X188506180Y-139074525D01*
X188580890Y-138920804D01*
X188674068Y-138726570D01*
X188787788Y-138487581D01*
X188924124Y-138199594D01*
X189085148Y-137858369D01*
X189147228Y-137726630D01*
X189205347Y-137603577D01*
X190190844Y-137603577D01*
X190203661Y-137625293D01*
X190239926Y-137623316D01*
X190280261Y-137589325D01*
X190281165Y-137587903D01*
X190442647Y-137587903D01*
X190443828Y-137619071D01*
X190465900Y-137628513D01*
X190482878Y-137629062D01*
X190544995Y-137599746D01*
X190577614Y-137547756D01*
X190611973Y-137487428D01*
X190642998Y-137466450D01*
X190660961Y-137485603D01*
X190643803Y-137529357D01*
X190614123Y-137595867D01*
X190624675Y-137623945D01*
X190667051Y-137629017D01*
X190695936Y-137620011D01*
X190710890Y-137603935D01*
X190805271Y-137603935D01*
X190832619Y-137621957D01*
X190898670Y-137625326D01*
X190979433Y-137616721D01*
X191050916Y-137598819D01*
X191089129Y-137574299D01*
X191090024Y-137572148D01*
X191074886Y-137539321D01*
X191035638Y-137531495D01*
X190978054Y-137517717D01*
X190974708Y-137488852D01*
X191024258Y-137463600D01*
X191040726Y-137460582D01*
X191103599Y-137427868D01*
X191125331Y-137388530D01*
X191121819Y-137344249D01*
X191085010Y-137346856D01*
X191040562Y-137344855D01*
X191032928Y-137321239D01*
X191061062Y-137284321D01*
X191119856Y-137265346D01*
X191189256Y-137243423D01*
X191220812Y-137212366D01*
X191212245Y-137185531D01*
X191155690Y-137177254D01*
X191098186Y-137179844D01*
X191022888Y-137188349D01*
X190974599Y-137209633D01*
X190937823Y-137258321D01*
X190897062Y-137349037D01*
X190883402Y-137382538D01*
X190842790Y-137486848D01*
X190814538Y-137567502D01*
X190805271Y-137603935D01*
X190710890Y-137603935D01*
X190726506Y-137587147D01*
X190763594Y-137521584D01*
X190812031Y-137414480D01*
X190876648Y-137256994D01*
X190893637Y-137214402D01*
X190881586Y-137181372D01*
X190841892Y-137173749D01*
X190778513Y-137201767D01*
X190753581Y-137255055D01*
X190728257Y-137315943D01*
X190703558Y-137336361D01*
X190688705Y-137309634D01*
X190695157Y-137251835D01*
X190703180Y-137191622D01*
X190678037Y-137176000D01*
X190657672Y-137178660D01*
X190609476Y-137217654D01*
X190551625Y-137314457D01*
X190509014Y-137409536D01*
X190463871Y-137522296D01*
X190442647Y-137587903D01*
X190281165Y-137587903D01*
X190328927Y-137512753D01*
X190361885Y-137442090D01*
X190419418Y-137326374D01*
X190472187Y-137274572D01*
X190488177Y-137271347D01*
X190536293Y-137248513D01*
X190545092Y-137222532D01*
X190525699Y-137190187D01*
X190459926Y-137175598D01*
X190400660Y-137173749D01*
X190299820Y-137183592D01*
X190238321Y-137208960D01*
X190225484Y-137243612D01*
X190253717Y-137272136D01*
X190275684Y-137300785D01*
X190270654Y-137354809D01*
X190241623Y-137440330D01*
X190203462Y-137545890D01*
X190190844Y-137603577D01*
X189205347Y-137603577D01*
X189421660Y-137145590D01*
X189688910Y-136582717D01*
X189945970Y-136044263D01*
X190189829Y-135536485D01*
X190417478Y-135065637D01*
X190625908Y-134637974D01*
X190812110Y-134259752D01*
X190905840Y-134071297D01*
X191240621Y-133401149D01*
X191657133Y-133401149D01*
X192073645Y-133401149D01*
X192073645Y-135289664D01*
G37*
G36*
X199456231Y-133791418D02*
G01*
X199456231Y-134376822D01*
X198025245Y-134376822D01*
X196594259Y-134376822D01*
X196594259Y-134279254D01*
X196659304Y-134279254D01*
X196756871Y-134279254D01*
X196813694Y-134275816D01*
X196843112Y-134254581D01*
X196854853Y-134199174D01*
X196858302Y-134108512D01*
X196862166Y-133937769D01*
X196893600Y-134110362D01*
X196917205Y-134213589D01*
X196943487Y-134263742D01*
X196978706Y-134272692D01*
X196979173Y-134272605D01*
X197024605Y-134233390D01*
X197053422Y-134148796D01*
X197073533Y-134035336D01*
X197077814Y-134157295D01*
X197082095Y-134279254D01*
X197258777Y-134279254D01*
X197364702Y-134275375D01*
X197423113Y-134259944D01*
X197451273Y-134227268D01*
X197456103Y-134214210D01*
X197499224Y-134161346D01*
X197539601Y-134149165D01*
X197592388Y-134173218D01*
X197602454Y-134214210D01*
X197610218Y-134251799D01*
X197643786Y-134271381D01*
X197718574Y-134278561D01*
X197781327Y-134279254D01*
X197960200Y-134279254D01*
X197960698Y-134108512D01*
X197967094Y-134013735D01*
X197983163Y-133980545D01*
X198005329Y-134006844D01*
X198030019Y-134090538D01*
X198042768Y-134156630D01*
X198062222Y-134237284D01*
X198095607Y-134271879D01*
X198161191Y-134279254D01*
X198161673Y-134279254D01*
X198230134Y-134270594D01*
X198244583Y-134241060D01*
X198241922Y-134232505D01*
X198187779Y-134061152D01*
X198174235Y-133930616D01*
X198199949Y-133832395D01*
X198246924Y-133742740D01*
X198267373Y-133856516D01*
X198286114Y-133963915D01*
X198307017Y-134087964D01*
X198311735Y-134116642D01*
X198330684Y-134207386D01*
X198358621Y-134252163D01*
X198410988Y-134269730D01*
X198440626Y-134273184D01*
X198512806Y-134277380D01*
X198547220Y-134273880D01*
X198547625Y-134273184D01*
X198553945Y-134238970D01*
X198569388Y-134154770D01*
X198591388Y-134034587D01*
X198609091Y-133937769D01*
X198668535Y-133612545D01*
X198672114Y-133945900D01*
X198675693Y-134279254D01*
X199033440Y-134279254D01*
X199391186Y-134279254D01*
X199391186Y-134197948D01*
X199377754Y-134136058D01*
X199324864Y-134116986D01*
X199309880Y-134116642D01*
X199228574Y-134116642D01*
X199228574Y-133710112D01*
X199228574Y-133303582D01*
X198874129Y-133303582D01*
X198519683Y-133303582D01*
X198496820Y-133531239D01*
X198482182Y-133643323D01*
X198465119Y-133724605D01*
X198449141Y-133758698D01*
X198448037Y-133758896D01*
X198432292Y-133729196D01*
X198415187Y-133651022D01*
X198400232Y-133540762D01*
X198399253Y-133531239D01*
X198386153Y-133412543D01*
X198371889Y-133344511D01*
X198349209Y-133313047D01*
X198310862Y-133304056D01*
X198282124Y-133303582D01*
X198207346Y-133318293D01*
X198187857Y-133354210D01*
X198181978Y-133386657D01*
X198152830Y-133379020D01*
X198115576Y-133354210D01*
X198036897Y-133321812D01*
X197931660Y-133304488D01*
X197904180Y-133303582D01*
X197765066Y-133303582D01*
X197760957Y-133636937D01*
X197756848Y-133970292D01*
X197707722Y-133636937D01*
X197658596Y-133303582D01*
X197535896Y-133303582D01*
X197413196Y-133303582D01*
X197378011Y-133523108D01*
X197345208Y-133726110D01*
X197321099Y-133867235D01*
X197304265Y-133948858D01*
X197293286Y-133973357D01*
X197286742Y-133943107D01*
X197283213Y-133860485D01*
X197281281Y-133727867D01*
X197280867Y-133685721D01*
X197277230Y-133303582D01*
X197165394Y-133303582D01*
X197097562Y-133307427D01*
X197061341Y-133330300D01*
X197041912Y-133389208D01*
X197030798Y-133458064D01*
X197007128Y-133597316D01*
X196986298Y-133672029D01*
X196967702Y-133682620D01*
X196950733Y-133629503D01*
X196935860Y-133523108D01*
X196911906Y-133303582D01*
X196785605Y-133303582D01*
X196659304Y-133303582D01*
X196659304Y-133791418D01*
X196659304Y-134279254D01*
X196594259Y-134279254D01*
X196594259Y-133791418D01*
X196594259Y-133206015D01*
X198025245Y-133206015D01*
X199456231Y-133206015D01*
X199456231Y-133791418D01*
G37*
G36*
X205586400Y-134832742D02*
G01*
X205779230Y-134835778D01*
X205923697Y-134843069D01*
X206028140Y-134856439D01*
X206100899Y-134877715D01*
X206150312Y-134908720D01*
X206184720Y-134951279D01*
X206212462Y-135007219D01*
X206220131Y-135025433D01*
X206238683Y-135104699D01*
X206241951Y-135198413D01*
X206231805Y-135284669D01*
X206210113Y-135341563D01*
X206192228Y-135352494D01*
X206177552Y-135364951D01*
X206158129Y-135407424D01*
X206131497Y-135487562D01*
X206095192Y-135613014D01*
X206046751Y-135791431D01*
X206027289Y-135864722D01*
X205990728Y-136002942D01*
X205647017Y-136002942D01*
X205493684Y-136001857D01*
X205395060Y-135997508D01*
X205340829Y-135988248D01*
X205320675Y-135972435D01*
X205323116Y-135951315D01*
X205341080Y-135886281D01*
X205360024Y-135791966D01*
X205363275Y-135772442D01*
X205383623Y-135645196D01*
X205171127Y-135645196D01*
X204958632Y-135645196D01*
X204905745Y-135799677D01*
X204852857Y-135954158D01*
X205073430Y-136163912D01*
X205207859Y-136291768D01*
X205359133Y-136435677D01*
X205497306Y-136567152D01*
X205513530Y-136582592D01*
X205626297Y-136695232D01*
X205695118Y-136778777D01*
X205727685Y-136843680D01*
X205733056Y-136880975D01*
X205723190Y-136950803D01*
X205696223Y-137068061D01*
X205656104Y-137219771D01*
X205606779Y-137392955D01*
X205552195Y-137574633D01*
X205496300Y-137751829D01*
X205443042Y-137911562D01*
X205396367Y-138040855D01*
X205360222Y-138126729D01*
X205347265Y-138149421D01*
X205280579Y-138217592D01*
X205187872Y-138286932D01*
X205160856Y-138303367D01*
X205113534Y-138328359D01*
X205064601Y-138346877D01*
X205003799Y-138359895D01*
X204920868Y-138368391D01*
X204805551Y-138373339D01*
X204647589Y-138375715D01*
X204436723Y-138376496D01*
X204391506Y-138376543D01*
X204170505Y-138376327D01*
X204005211Y-138374693D01*
X203886288Y-138370788D01*
X203804402Y-138363762D01*
X203750216Y-138352764D01*
X203714395Y-138336941D01*
X203687604Y-138315443D01*
X203684144Y-138312033D01*
X203651315Y-138273609D01*
X203631636Y-138229912D01*
X203626029Y-138171009D01*
X203635417Y-138086969D01*
X203660720Y-137967861D01*
X203702861Y-137803753D01*
X203746027Y-137645324D01*
X203871472Y-137190010D01*
X204216860Y-137180779D01*
X204357875Y-137178174D01*
X204471096Y-137178296D01*
X204543174Y-137180991D01*
X204562249Y-137184821D01*
X204552555Y-137221002D01*
X204528330Y-137295300D01*
X204518422Y-137324141D01*
X204483687Y-137430903D01*
X204455455Y-137528948D01*
X204452395Y-137541070D01*
X204430195Y-137631952D01*
X204665135Y-137622376D01*
X204900075Y-137612801D01*
X204957961Y-137417667D01*
X204988610Y-137310500D01*
X204999692Y-137246249D01*
X204990141Y-137205470D01*
X204958893Y-137168722D01*
X204943529Y-137154062D01*
X204894246Y-137108317D01*
X204807375Y-137028590D01*
X204693524Y-136924582D01*
X204563299Y-136805992D01*
X204505335Y-136753317D01*
X204363495Y-136623201D01*
X204263562Y-136527099D01*
X204198365Y-136456340D01*
X204160730Y-136402251D01*
X204143486Y-136356163D01*
X204139458Y-136310967D01*
X204147288Y-136246884D01*
X204168650Y-136133421D01*
X204200348Y-135984056D01*
X204239187Y-135812266D01*
X204281974Y-135631529D01*
X204325512Y-135455323D01*
X204366608Y-135297125D01*
X204402067Y-135170412D01*
X204428694Y-135088664D01*
X204429950Y-135085460D01*
X204472721Y-135011208D01*
X204537472Y-134929397D01*
X204544775Y-134921572D01*
X204629926Y-134832135D01*
X205336867Y-134832135D01*
X205586400Y-134832742D01*
G37*
G36*
X199876063Y-134901187D02*
G01*
X200028603Y-134906155D01*
X200139606Y-134917039D01*
X200216899Y-134935205D01*
X200268310Y-134962018D01*
X200301666Y-134998846D01*
X200324795Y-135047055D01*
X200330709Y-135063367D01*
X200340899Y-135116403D01*
X200337936Y-135190099D01*
X200320087Y-135295652D01*
X200285621Y-135444259D01*
X200250959Y-135578837D01*
X200209913Y-135735594D01*
X200175647Y-135868665D01*
X200151224Y-135965988D01*
X200139706Y-136015501D01*
X200139202Y-136018978D01*
X200108869Y-136025603D01*
X200026622Y-136030957D01*
X199905588Y-136034435D01*
X199781455Y-136035464D01*
X199637742Y-136034775D01*
X199521659Y-136032906D01*
X199446315Y-136030156D01*
X199424095Y-136027334D01*
X199432016Y-135994194D01*
X199452095Y-135916959D01*
X199472492Y-135840330D01*
X199498572Y-135742094D01*
X199516167Y-135673759D01*
X199520890Y-135653326D01*
X199491432Y-135649175D01*
X199414018Y-135646245D01*
X199311134Y-135645196D01*
X199100992Y-135645196D01*
X199067760Y-135767155D01*
X199050374Y-135830459D01*
X199018271Y-135946864D01*
X198974097Y-136106788D01*
X198920502Y-136300648D01*
X198860134Y-136518861D01*
X198795885Y-136750957D01*
X198557242Y-137612801D01*
X198750328Y-137622582D01*
X198855575Y-137625532D01*
X198931501Y-137623203D01*
X198958020Y-137617756D01*
X198971310Y-137583078D01*
X198998758Y-137496465D01*
X199037121Y-137368653D01*
X199083157Y-137210382D01*
X199118099Y-137087617D01*
X199180611Y-136856460D01*
X199222189Y-136676370D01*
X199244043Y-136537253D01*
X199247386Y-136429017D01*
X199233428Y-136341568D01*
X199214097Y-136287513D01*
X199208623Y-136264790D01*
X199221873Y-136249056D01*
X199263244Y-136239040D01*
X199342131Y-136233473D01*
X199467931Y-136231083D01*
X199635104Y-136230599D01*
X199820999Y-136231973D01*
X199949355Y-136236565D01*
X200027632Y-136245077D01*
X200063286Y-136258211D01*
X200066640Y-136271252D01*
X200054644Y-136311182D01*
X200027121Y-136406204D01*
X199986216Y-136548814D01*
X199934070Y-136731504D01*
X199872828Y-136946768D01*
X199804633Y-137187101D01*
X199747388Y-137389274D01*
X199442610Y-138466643D01*
X199018499Y-138585358D01*
X198860895Y-138628889D01*
X198725758Y-138665113D01*
X198625433Y-138690803D01*
X198572264Y-138702733D01*
X198567804Y-138703187D01*
X198552847Y-138676979D01*
X198557245Y-138645388D01*
X198574987Y-138573380D01*
X198594543Y-138482776D01*
X198615817Y-138377078D01*
X198243611Y-138377078D01*
X198076897Y-138375666D01*
X197961446Y-138370130D01*
X197883514Y-138358517D01*
X197829357Y-138338874D01*
X197789368Y-138312547D01*
X197756358Y-138286914D01*
X197729190Y-138262604D01*
X197708789Y-138234439D01*
X197696077Y-138197240D01*
X197691979Y-138145827D01*
X197697416Y-138075023D01*
X197713314Y-137979647D01*
X197740595Y-137854522D01*
X197780183Y-137694468D01*
X197833001Y-137494307D01*
X197899973Y-137248859D01*
X197982023Y-136952945D01*
X198080073Y-136601387D01*
X198120010Y-136458256D01*
X198211817Y-136129413D01*
X198288097Y-135857404D01*
X198350736Y-135636389D01*
X198401619Y-135460530D01*
X198442634Y-135323990D01*
X198475665Y-135220930D01*
X198502598Y-135145512D01*
X198525319Y-135091899D01*
X198545715Y-135054251D01*
X198565670Y-135026731D01*
X198587071Y-135003501D01*
X198591303Y-134999245D01*
X198677040Y-134913441D01*
X199415062Y-134903530D01*
X199674158Y-134900767D01*
X199876063Y-134901187D01*
G37*
G36*
X203448577Y-134866404D02*
G01*
X203689520Y-134873661D01*
X203875719Y-134891717D01*
X204012300Y-134924635D01*
X204104385Y-134976474D01*
X204157098Y-135051298D01*
X204175563Y-135153168D01*
X204164902Y-135286146D01*
X204130241Y-135454293D01*
X204089786Y-135612673D01*
X204017677Y-135875847D01*
X203955226Y-136083197D01*
X203899284Y-136242671D01*
X203846703Y-136362216D01*
X203794333Y-136449780D01*
X203739027Y-136513310D01*
X203729607Y-136521853D01*
X203655171Y-136581246D01*
X203597765Y-136616584D01*
X203583085Y-136620868D01*
X203577721Y-136642433D01*
X203608282Y-136695447D01*
X203616739Y-136706560D01*
X203649735Y-136757256D01*
X203670029Y-136815575D01*
X203676598Y-136889623D01*
X203668419Y-136987507D01*
X203644469Y-137117335D01*
X203603723Y-137287213D01*
X203545160Y-137505249D01*
X203492096Y-137694107D01*
X203302756Y-138360817D01*
X202911768Y-138369918D01*
X202520780Y-138379020D01*
X202723008Y-137719470D01*
X202784597Y-137518822D01*
X202840934Y-137335696D01*
X202888801Y-137180520D01*
X202924980Y-137063719D01*
X202946254Y-136995722D01*
X202949135Y-136986745D01*
X202958565Y-136945018D01*
X202942582Y-136923199D01*
X202887514Y-136914861D01*
X202793506Y-136913569D01*
X202613978Y-136913569D01*
X202553209Y-137116834D01*
X202523558Y-137219143D01*
X202481619Y-137368051D01*
X202431909Y-137547322D01*
X202378943Y-137740718D01*
X202349692Y-137848589D01*
X202206943Y-138377078D01*
X201823521Y-138377078D01*
X201674285Y-138375808D01*
X201552183Y-138372352D01*
X201469895Y-138367240D01*
X201440098Y-138361069D01*
X201448675Y-138326892D01*
X201472915Y-138238157D01*
X201510585Y-138102839D01*
X201559451Y-137928914D01*
X201617278Y-137724359D01*
X201681833Y-137497148D01*
X201697458Y-137442311D01*
X201776318Y-137165006D01*
X201860784Y-136866798D01*
X201945859Y-136565409D01*
X202026548Y-136278558D01*
X202060024Y-136159034D01*
X202820929Y-136159034D01*
X202828871Y-136183140D01*
X202880520Y-136193435D01*
X202985961Y-136191844D01*
X202991507Y-136191557D01*
X203176171Y-136181815D01*
X203234280Y-135954158D01*
X203269755Y-135812575D01*
X203286189Y-135722566D01*
X203279746Y-135672460D01*
X203246585Y-135650589D01*
X203182867Y-135645282D01*
X203132640Y-135645196D01*
X202971406Y-135645196D01*
X202903210Y-135880983D01*
X202868315Y-136000818D01*
X202839366Y-136098757D01*
X202822016Y-136155705D01*
X202820929Y-136159034D01*
X202060024Y-136159034D01*
X202097854Y-136023965D01*
X202139950Y-135872852D01*
X202198335Y-135662627D01*
X202253850Y-135462802D01*
X202303042Y-135285806D01*
X202342455Y-135144063D01*
X202368636Y-135050002D01*
X202372079Y-135037652D01*
X202419077Y-134869160D01*
X203147769Y-134865884D01*
X203448577Y-134866404D01*
G37*
G36*
X195856150Y-134897546D02*
G01*
X196018374Y-134899140D01*
X196131843Y-134902706D01*
X196204700Y-134908987D01*
X196245089Y-134918727D01*
X196261153Y-134932669D01*
X196261036Y-134951557D01*
X196260349Y-134954094D01*
X196244899Y-135008564D01*
X196216477Y-135109133D01*
X196179747Y-135239291D01*
X196154709Y-135328102D01*
X196065341Y-135645196D01*
X195729442Y-135645196D01*
X195393544Y-135645196D01*
X195326270Y-135864722D01*
X195290015Y-135982992D01*
X195259669Y-136081926D01*
X195241821Y-136140043D01*
X195240348Y-136165089D01*
X195261345Y-136182001D01*
X195315399Y-136192883D01*
X195413100Y-136199843D01*
X195565036Y-136204985D01*
X195568855Y-136205088D01*
X195913065Y-136214338D01*
X195692651Y-136563803D01*
X195472236Y-136913269D01*
X195254087Y-136913419D01*
X195035938Y-136913569D01*
X194967760Y-137149357D01*
X194929773Y-137279117D01*
X194894597Y-137396530D01*
X194869589Y-137477054D01*
X194868815Y-137479434D01*
X194846821Y-137555210D01*
X194838049Y-137601393D01*
X194868272Y-137613008D01*
X194949762Y-137622221D01*
X195068755Y-137627863D01*
X195163273Y-137629062D01*
X195299795Y-137630864D01*
X195408097Y-137635722D01*
X195474411Y-137642816D01*
X195488498Y-137648449D01*
X195480445Y-137688096D01*
X195459681Y-137769943D01*
X195439714Y-137843583D01*
X195400542Y-137984675D01*
X195357943Y-138138066D01*
X195341238Y-138198205D01*
X195291546Y-138377078D01*
X194695176Y-138377078D01*
X194481976Y-138376548D01*
X194323784Y-138374323D01*
X194210566Y-138369453D01*
X194132291Y-138360985D01*
X194078925Y-138347968D01*
X194040436Y-138329451D01*
X194017045Y-138312765D01*
X193961713Y-138257285D01*
X193930358Y-138189671D01*
X193922838Y-138099182D01*
X193939009Y-137975080D01*
X193978731Y-137806626D01*
X194008885Y-137697092D01*
X194047721Y-137559427D01*
X194100081Y-137372731D01*
X194162148Y-137150666D01*
X194230110Y-136906894D01*
X194300150Y-136655076D01*
X194350262Y-136474517D01*
X194444115Y-136135656D01*
X194522271Y-135853846D01*
X194586745Y-135623550D01*
X194639551Y-135439231D01*
X194682705Y-135295354D01*
X194718221Y-135186381D01*
X194748113Y-135106776D01*
X194774396Y-135051003D01*
X194799085Y-135013524D01*
X194824193Y-134988804D01*
X194851737Y-134971306D01*
X194883729Y-134955493D01*
X194907241Y-134943819D01*
X194956685Y-134926556D01*
X195034330Y-134913812D01*
X195148426Y-134905059D01*
X195307221Y-134899771D01*
X195518963Y-134897420D01*
X195637026Y-134897180D01*
X195856150Y-134897546D01*
G37*
G36*
X202133727Y-135043531D02*
G01*
X202099201Y-135163968D01*
X202056619Y-135310901D01*
X202023073Y-135425669D01*
X201958584Y-135645196D01*
X201624551Y-135645196D01*
X201290517Y-135645196D01*
X201218957Y-135888428D01*
X201184906Y-136008193D01*
X201159644Y-136104718D01*
X201147763Y-136160262D01*
X201147396Y-136164868D01*
X201178555Y-136180729D01*
X201266811Y-136191885D01*
X201404333Y-136197536D01*
X201472620Y-136198076D01*
X201609144Y-136199640D01*
X201717446Y-136203855D01*
X201783759Y-136210010D01*
X201797845Y-136214898D01*
X201781526Y-136247318D01*
X201737010Y-136323525D01*
X201670954Y-136432388D01*
X201590018Y-136562778D01*
X201583829Y-136572644D01*
X201369813Y-136913569D01*
X201149215Y-136913569D01*
X200928618Y-136913569D01*
X200838680Y-137230663D01*
X200799175Y-137368609D01*
X200765148Y-137484974D01*
X200741177Y-137564237D01*
X200733194Y-137588409D01*
X200741967Y-137607738D01*
X200791334Y-137620256D01*
X200889379Y-137627014D01*
X201044187Y-137629062D01*
X201046350Y-137629062D01*
X201202044Y-137630116D01*
X201302125Y-137637121D01*
X201356024Y-137655842D01*
X201373171Y-137692047D01*
X201362997Y-137751500D01*
X201344287Y-137811213D01*
X201319915Y-137889482D01*
X201285041Y-138005754D01*
X201247023Y-138135485D01*
X201245343Y-138141290D01*
X201177164Y-138377078D01*
X200601269Y-138376089D01*
X200376642Y-138373625D01*
X200192583Y-138367342D01*
X200056330Y-138357653D01*
X199975121Y-138344971D01*
X199960329Y-138339523D01*
X199859235Y-138255888D01*
X199816104Y-138145071D01*
X199813978Y-138108456D01*
X199822637Y-138054068D01*
X199847121Y-137945908D01*
X199885194Y-137792687D01*
X199934616Y-137603118D01*
X199993149Y-137385916D01*
X200058556Y-137149791D01*
X200077623Y-137082085D01*
X200152554Y-136815906D01*
X200228941Y-136542624D01*
X200302903Y-136276265D01*
X200370558Y-136030854D01*
X200428026Y-135820416D01*
X200470243Y-135663426D01*
X200518206Y-135487905D01*
X200564211Y-135328818D01*
X200604188Y-135199582D01*
X200634071Y-135113619D01*
X200643506Y-135091915D01*
X200674687Y-135035485D01*
X200708173Y-134992293D01*
X200752731Y-134960322D01*
X200817129Y-134937554D01*
X200910135Y-134921972D01*
X201040517Y-134911556D01*
X201217043Y-134904290D01*
X201448482Y-134898156D01*
X201489665Y-134897180D01*
X202179891Y-134880919D01*
X202133727Y-135043531D01*
G37*
G36*
X197031029Y-134899440D02*
G01*
X197137933Y-134907007D01*
X197198698Y-134921066D01*
X197222348Y-134941801D01*
X197227800Y-134986879D01*
X197232934Y-135086303D01*
X197237424Y-135229373D01*
X197240944Y-135405392D01*
X197243168Y-135603659D01*
X197243351Y-135631453D01*
X197244913Y-135828908D01*
X197247002Y-136002726D01*
X197249440Y-136142972D01*
X197252048Y-136239709D01*
X197254648Y-136283001D01*
X197255071Y-136284325D01*
X197264984Y-136256627D01*
X197288406Y-136174699D01*
X197322956Y-136047386D01*
X197366251Y-135883531D01*
X197415909Y-135691980D01*
X197440813Y-135594724D01*
X197618715Y-134897284D01*
X197952070Y-134897232D01*
X198090433Y-134899207D01*
X198200745Y-134904581D01*
X198269409Y-134912458D01*
X198285425Y-134919179D01*
X198276844Y-134954018D01*
X198252269Y-135045157D01*
X198213447Y-135186315D01*
X198162125Y-135371212D01*
X198100052Y-135593570D01*
X198028975Y-135847109D01*
X197950642Y-136125550D01*
X197875789Y-136390818D01*
X197789316Y-136696837D01*
X197705813Y-136992351D01*
X197627463Y-137269641D01*
X197556444Y-137520988D01*
X197494940Y-137738674D01*
X197445129Y-137914980D01*
X197409194Y-138042188D01*
X197392686Y-138100637D01*
X197319219Y-138360817D01*
X196989262Y-138370085D01*
X196659304Y-138379353D01*
X196656994Y-137589547D01*
X196654684Y-136799741D01*
X196594883Y-137011137D01*
X196566562Y-137113126D01*
X196525705Y-137262750D01*
X196476442Y-137444766D01*
X196422899Y-137643935D01*
X196381243Y-137799805D01*
X196227404Y-138377078D01*
X195890473Y-138377078D01*
X195751303Y-138375925D01*
X195640113Y-138372809D01*
X195570431Y-138368247D01*
X195553542Y-138364242D01*
X195562178Y-138328926D01*
X195584785Y-138248906D01*
X195615514Y-138144716D01*
X195644736Y-138045120D01*
X195687162Y-137897704D01*
X195738559Y-137717309D01*
X195794695Y-137518780D01*
X195841363Y-137352622D01*
X195919990Y-137071608D01*
X196000223Y-136784606D01*
X196079256Y-136501670D01*
X196154283Y-136232855D01*
X196222500Y-135988216D01*
X196281100Y-135777808D01*
X196327279Y-135611685D01*
X196354036Y-135515106D01*
X196390667Y-135384555D01*
X196434789Y-135230170D01*
X196467707Y-135116706D01*
X196531969Y-134897180D01*
X196868597Y-134897180D01*
X197031029Y-134899440D01*
G37*
G36*
X192870444Y-138735000D02*
G01*
X192724093Y-138865192D01*
X192625602Y-138946412D01*
X192496832Y-139044017D01*
X192362391Y-139139487D01*
X192335330Y-139157806D01*
X192213850Y-139241988D01*
X192146324Y-139294938D01*
X192132820Y-139315617D01*
X192173407Y-139302989D01*
X192268155Y-139256017D01*
X192331035Y-139221992D01*
X192424478Y-139172935D01*
X192492300Y-139141932D01*
X192517797Y-139135613D01*
X192498918Y-139156876D01*
X192434183Y-139199463D01*
X192336329Y-139256456D01*
X192218095Y-139320941D01*
X192092218Y-139386000D01*
X191971436Y-139444717D01*
X191868488Y-139490175D01*
X191854506Y-139495762D01*
X191715450Y-139545192D01*
X191568772Y-139589622D01*
X191481679Y-139611415D01*
X191344864Y-139632718D01*
X191166801Y-139649085D01*
X190967887Y-139659803D01*
X190768516Y-139664161D01*
X190589087Y-139661445D01*
X190449996Y-139650944D01*
X190430501Y-139648121D01*
X190127260Y-139580008D01*
X189819557Y-139476258D01*
X189721585Y-139435248D01*
X189626504Y-139390257D01*
X189560546Y-139353705D01*
X189531373Y-139331140D01*
X189546645Y-139328111D01*
X189593811Y-139342691D01*
X189630296Y-139348787D01*
X189627877Y-139337794D01*
X189627967Y-139336489D01*
X192041122Y-139336489D01*
X192057384Y-139352750D01*
X192073645Y-139336489D01*
X192057384Y-139320228D01*
X192041122Y-139336489D01*
X189627967Y-139336489D01*
X189630573Y-139298752D01*
X189658456Y-139218417D01*
X189705795Y-139112724D01*
X189716701Y-139090723D01*
X189828373Y-138868972D01*
X190015989Y-138945105D01*
X190246318Y-139023669D01*
X190480625Y-139070525D01*
X190739146Y-139088605D01*
X190977280Y-139084305D01*
X191335119Y-139044067D01*
X191656408Y-138957100D01*
X191952973Y-138820157D01*
X191965608Y-138812950D01*
X192030730Y-138778998D01*
X192095620Y-138756540D01*
X192175737Y-138743258D01*
X192286539Y-138736834D01*
X192443487Y-138734948D01*
X192485966Y-138734912D01*
X192870444Y-138735000D01*
G37*
G36*
X190610136Y-134136991D02*
G01*
X190595675Y-134169251D01*
X190556821Y-134245431D01*
X190500370Y-134352373D01*
X190462956Y-134421992D01*
X190315775Y-134694201D01*
X190065420Y-134783079D01*
X189720681Y-134938917D01*
X189412231Y-135146543D01*
X189144543Y-135401007D01*
X188922093Y-135697363D01*
X188749354Y-136030664D01*
X188639769Y-136359397D01*
X188605698Y-136563969D01*
X188593319Y-136805642D01*
X188601505Y-137062114D01*
X188629128Y-137311083D01*
X188675059Y-137530247D01*
X188703478Y-137618851D01*
X188790408Y-137852559D01*
X188668685Y-138098557D01*
X188610879Y-138210486D01*
X188562224Y-138295767D01*
X188530659Y-138340808D01*
X188524985Y-138344555D01*
X188502111Y-138317286D01*
X188458904Y-138244106D01*
X188402730Y-138137956D01*
X188369786Y-138071867D01*
X188226657Y-137708327D01*
X188136294Y-137319221D01*
X188099636Y-136917851D01*
X188117623Y-136517516D01*
X188191196Y-136131518D01*
X188224670Y-136019203D01*
X188368202Y-135673176D01*
X188566197Y-135338202D01*
X188808165Y-135028800D01*
X189083617Y-134759488D01*
X189203874Y-134663970D01*
X189349530Y-134566721D01*
X189525327Y-134465738D01*
X189710430Y-134371632D01*
X189884004Y-134295019D01*
X190021349Y-134247537D01*
X190130553Y-134220563D01*
X190256156Y-134193046D01*
X190382519Y-134167922D01*
X190494005Y-134148125D01*
X190574976Y-134136593D01*
X190609794Y-134136262D01*
X190610136Y-134136991D01*
G37*
G36*
X193201589Y-135653326D02*
G01*
X193181238Y-136409472D01*
X193255640Y-136246860D01*
X193291365Y-136164987D01*
X193345811Y-136035443D01*
X193413698Y-135871012D01*
X193489748Y-135684479D01*
X193567847Y-135490714D01*
X193805651Y-134897180D01*
X194191761Y-134897180D01*
X194341558Y-134898518D01*
X194464266Y-134902162D01*
X194547249Y-134907556D01*
X194577870Y-134914143D01*
X194577870Y-134914167D01*
X194565471Y-134946633D01*
X194529974Y-135032836D01*
X194473931Y-135166737D01*
X194399893Y-135342300D01*
X194310412Y-135553487D01*
X194208040Y-135794261D01*
X194095328Y-136058584D01*
X193997162Y-136288239D01*
X193871224Y-136583265D01*
X193748109Y-136873028D01*
X193631286Y-137149264D01*
X193524228Y-137403710D01*
X193430406Y-137628100D01*
X193353290Y-137814170D01*
X193296353Y-137953656D01*
X193273538Y-138010994D01*
X193130623Y-138376665D01*
X192802229Y-138376871D01*
X192473835Y-138377078D01*
X192452405Y-137295708D01*
X192446231Y-136997303D01*
X192439304Y-136684913D01*
X192431992Y-136373645D01*
X192424661Y-136078607D01*
X192417679Y-135814907D01*
X192411414Y-135597652D01*
X192410110Y-135555759D01*
X192389245Y-134897180D01*
X192805592Y-134897180D01*
X193221940Y-134897180D01*
X193201589Y-135653326D01*
G37*
G36*
X192070368Y-137828417D02*
G01*
X192090971Y-137849613D01*
X192101654Y-137900587D01*
X192105638Y-137994140D01*
X192106167Y-138100637D01*
X192106167Y-138377078D01*
X191691506Y-138375756D01*
X191276846Y-138374434D01*
X191390674Y-138276805D01*
X191548600Y-138145948D01*
X191700017Y-138028859D01*
X191835337Y-137932256D01*
X191944971Y-137862859D01*
X192019330Y-137827386D01*
X192036625Y-137824197D01*
X192070368Y-137828417D01*
G37*
G36*
X199010241Y-133509218D02*
G01*
X199031498Y-133553856D01*
X199033440Y-133596284D01*
X199024689Y-133666012D01*
X198987491Y-133691521D01*
X198952134Y-133693851D01*
X198894027Y-133683350D01*
X198872770Y-133638712D01*
X198870828Y-133596284D01*
X198879579Y-133526555D01*
X198916777Y-133501047D01*
X198952134Y-133498717D01*
X199010241Y-133509218D01*
G37*
G36*
X199007118Y-133897490D02*
G01*
X199029627Y-133935761D01*
X199033440Y-134002814D01*
X199027365Y-134079791D01*
X199000029Y-134111305D01*
X198952134Y-134116642D01*
X198897150Y-134108138D01*
X198874641Y-134069867D01*
X198870828Y-134002814D01*
X198876903Y-133925837D01*
X198904239Y-133894323D01*
X198952134Y-133888986D01*
X199007118Y-133897490D01*
G37*
G36*
X198036844Y-133548025D02*
G01*
X198050957Y-133622719D01*
X198042087Y-133702399D01*
X198010645Y-133757518D01*
X197980265Y-133775176D01*
X197965247Y-133754541D01*
X197960431Y-133684243D01*
X197960200Y-133646340D01*
X197966262Y-133547833D01*
X197985641Y-133507193D01*
X198000853Y-133506642D01*
X198036844Y-133548025D01*
G37*
G36*
X197532749Y-133712599D02*
G01*
X197537409Y-133726374D01*
X197559796Y-133824381D01*
X197565511Y-133913206D01*
X197554552Y-133972856D01*
X197537409Y-133986553D01*
X197519731Y-133957214D01*
X197509385Y-133881673D01*
X197508129Y-133815810D01*
X197511820Y-133723826D01*
X197519418Y-133691279D01*
X197532749Y-133712599D01*
G37*
G36*
X192648845Y-139048534D02*
G01*
X192642787Y-139060048D01*
X192612144Y-139091107D01*
X192606426Y-139092571D01*
X192604207Y-139071563D01*
X192610264Y-139060048D01*
X192640908Y-139028989D01*
X192646626Y-139027526D01*
X192648845Y-139048534D01*
G37*
G36*
X189438334Y-139238922D02*
G01*
X189422141Y-139292368D01*
X189406807Y-139320228D01*
X189381038Y-139346259D01*
X189375281Y-139336489D01*
X189391474Y-139283042D01*
X189406807Y-139255183D01*
X189432577Y-139229151D01*
X189438334Y-139238922D01*
G37*
G36*
X206665365Y-134973066D02*
G01*
X206660900Y-134992400D01*
X206643683Y-134994747D01*
X206616914Y-134982848D01*
X206622002Y-134973066D01*
X206660598Y-134969174D01*
X206665365Y-134973066D01*
G37*
G36*
X206611161Y-135076053D02*
G01*
X206594900Y-135092315D01*
X206578638Y-135076053D01*
X206594900Y-135059792D01*
X206611161Y-135076053D01*
G37*
G36*
X190740226Y-136441995D02*
G01*
X190723965Y-136458256D01*
X190707704Y-136441995D01*
X190723965Y-136425733D01*
X190740226Y-136441995D01*
G37*
G36*
X190675181Y-134132904D02*
G01*
X190658920Y-134149165D01*
X190642659Y-134132904D01*
X190658920Y-134116642D01*
X190675181Y-134132904D01*
G37*
G36*
X190610136Y-134328038D02*
G01*
X190593875Y-134344299D01*
X190577614Y-134328038D01*
X190593875Y-134311777D01*
X190610136Y-134328038D01*
G37*
G36*
X190577614Y-134393083D02*
G01*
X190561353Y-134409344D01*
X190545092Y-134393083D01*
X190561353Y-134376822D01*
X190577614Y-134393083D01*
G37*
G36*
X190545092Y-134458128D02*
G01*
X190528830Y-134474389D01*
X190512569Y-134458128D01*
X190528830Y-134441866D01*
X190545092Y-134458128D01*
G37*
G36*
X190512569Y-134523173D02*
G01*
X190496308Y-134539434D01*
X190480047Y-134523173D01*
X190496308Y-134506911D01*
X190512569Y-134523173D01*
G37*
G36*
X190480047Y-134588217D02*
G01*
X190463786Y-134604479D01*
X190447524Y-134588217D01*
X190463786Y-134571956D01*
X190480047Y-134588217D01*
G37*
G36*
X190447524Y-134653262D02*
G01*
X190431263Y-134669523D01*
X190415002Y-134653262D01*
X190431263Y-134637001D01*
X190447524Y-134653262D01*
G37*
G36*
X189959688Y-134913441D02*
G01*
X189943427Y-134929703D01*
X189927166Y-134913441D01*
X189943427Y-134897180D01*
X189959688Y-134913441D01*
G37*
G36*
X188918971Y-135921636D02*
G01*
X188902710Y-135937897D01*
X188886449Y-135921636D01*
X188902710Y-135905375D01*
X188918971Y-135921636D01*
G37*
%TO.C,C5*%
D14*
X220148748Y-116680125D02*
X220671252Y-116680125D01*
X220148748Y-115210125D02*
X220671252Y-115210125D01*
%TO.C,C23*%
X234801252Y-111570125D02*
X234278748Y-111570125D01*
X234801252Y-110100125D02*
X234278748Y-110100125D01*
%TO.C,Y3*%
X223265000Y-111005125D02*
X223265000Y-104605125D01*
X228135000Y-104605125D02*
X228135000Y-111005125D01*
X223265000Y-104605125D02*
G75*
G02*
X228135000Y-104605125I2435000J0D01*
G01*
X228135000Y-111005125D02*
G75*
G02*
X223265000Y-111005125I-2435000J0D01*
G01*
%TO.C,R4*%
X236935000Y-97998061D02*
X236935000Y-98452189D01*
X235465000Y-97998061D02*
X235465000Y-98452189D01*
%TO.C,C21*%
X216461252Y-103560125D02*
X215938748Y-103560125D01*
X216461252Y-102090125D02*
X215938748Y-102090125D01*
%TO.C,C31*%
X216638752Y-133020125D02*
X216116248Y-133020125D01*
X216638752Y-131550125D02*
X216116248Y-131550125D01*
%TO.C,C30*%
X216738752Y-135360125D02*
X216216248Y-135360125D01*
X216738752Y-133890125D02*
X216216248Y-133890125D01*
%TO.C,R16*%
X190892936Y-126365125D02*
X191347064Y-126365125D01*
X190892936Y-124895125D02*
X191347064Y-124895125D01*
%TO.C,R18*%
X190882936Y-128595125D02*
X191337064Y-128595125D01*
X190882936Y-127125125D02*
X191337064Y-127125125D01*
%TO.C,C18*%
X232165000Y-98053873D02*
X232165000Y-98576377D01*
X230695000Y-98053873D02*
X230695000Y-98576377D01*
%TO.C,R13*%
X191162936Y-107930125D02*
X191617064Y-107930125D01*
X191162936Y-106460125D02*
X191617064Y-106460125D01*
%TO.C,J4*%
X229470000Y-124895125D02*
X229470000Y-123095125D01*
X229690000Y-113835125D02*
X233020000Y-113835125D01*
X229690000Y-127155125D02*
X229690000Y-113835125D01*
X229690000Y-127155125D02*
X233020000Y-127155125D01*
X236540000Y-113835125D02*
X244650000Y-113835125D01*
X244650000Y-113185125D02*
X244650000Y-113835125D01*
X244650000Y-127155125D02*
X236540000Y-127155125D01*
X244650000Y-127155125D02*
X244650000Y-127805125D01*
X244650000Y-127805125D02*
X245170000Y-127805125D01*
X245170000Y-113185125D02*
X244650000Y-113185125D01*
X245170000Y-127805125D02*
X245170000Y-113185125D01*
%TO.C,FB1*%
X210420000Y-104645367D02*
X210420000Y-103824883D01*
X209300000Y-104645367D02*
X209300000Y-103824883D01*
%TO.C,R23*%
X210695000Y-136399689D02*
X210695000Y-135945561D01*
X209225000Y-136399689D02*
X209225000Y-135945561D01*
%TO.C,C16*%
X239685000Y-97973873D02*
X239685000Y-98496377D01*
X238215000Y-97973873D02*
X238215000Y-98496377D01*
%TO.C,R11*%
X191162936Y-105670125D02*
X191617064Y-105670125D01*
X191162936Y-104200125D02*
X191617064Y-104200125D01*
%TO.C,J3*%
X176780000Y-118835125D02*
X169760000Y-118835125D01*
X176780000Y-135095125D02*
X169760000Y-135095125D01*
X182610000Y-118605125D02*
X180810000Y-118605125D01*
X185860000Y-118835125D02*
X180060000Y-118835125D01*
X185860000Y-118835125D02*
X185860000Y-135095125D01*
X185860000Y-135095125D02*
X180060000Y-135095125D01*
%TO.C,FB3*%
X199479758Y-111345125D02*
X200300242Y-111345125D01*
X199479758Y-110225125D02*
X200300242Y-110225125D01*
%TO.C,C27*%
X220065000Y-118893873D02*
X220065000Y-119416377D01*
X218595000Y-118893873D02*
X218595000Y-119416377D01*
%TO.C,R1*%
X204445000Y-104682189D02*
X204445000Y-104228061D01*
X202975000Y-104682189D02*
X202975000Y-104228061D01*
%TO.C,C7*%
X214485000Y-122413873D02*
X214485000Y-122936377D01*
X213015000Y-122413873D02*
X213015000Y-122936377D01*
%TO.C,R5*%
X224392936Y-130540125D02*
X224847064Y-130540125D01*
X224392936Y-129070125D02*
X224847064Y-129070125D01*
%TO.C,D3*%
X217407500Y-136045125D02*
X214547500Y-136045125D01*
X214547500Y-137965125D02*
X217407500Y-137965125D01*
X214547500Y-136045125D02*
X214547500Y-137965125D01*
%TO.C,R14*%
X190902936Y-121965125D02*
X191357064Y-121965125D01*
X190902936Y-120495125D02*
X191357064Y-120495125D01*
%TO.C,C1*%
X199838748Y-129050125D02*
X200361252Y-129050125D01*
X199838748Y-127580125D02*
X200361252Y-127580125D01*
%TD*%
M02*
