M48
; DRILL file KiCad 10.0.0 date 2026-08-10T11:42:01
; FORMAT={-:-/ absolute / metric / decimal}
; #@! TF.CreationDate,2026-08-10T11:42:01+05:30
; #@! TF.GenerationSoftware,Kicad,Pcbnew,10.0.0
; #@! TF.FileFunction,Plated,1,2,PTH
FMAT,2
METRIC
; #@! TA.AperFunction,Plated,PTH,ViaDrill
T1C0.300
; #@! TA.AperFunction,Plated,PTH,ComponentDrill
T2C0.800
; #@! TA.AperFunction,Plated,PTH,ComponentDrill
T3C0.890
; #@! TA.AperFunction,Plated,PTH,ComponentDrill
T4C0.950
; #@! TA.AperFunction,Plated,PTH,ComponentDrill
T5C1.000
; #@! TA.AperFunction,Plated,PTH,ComponentDrill
T6C1.020
; #@! TA.AperFunction,Plated,PTH,ComponentDrill
T7C1.630
; #@! TA.AperFunction,Plated,PTH,ComponentDrill
T8C2.300
%
G90
G05
T1
X172.7Y-94.525
X173.7Y-93.525
X173.7Y-95.525
X173.7Y-138.525
X174.7Y-94.525
X174.7Y-137.525
X174.7Y-139.525
X175.7Y-93.525
X175.7Y-95.525
X175.7Y-138.525
X175.8Y-107.745
X176.7Y-94.525
X176.7Y-137.525
X176.7Y-139.525
X177.7Y-93.525
X177.7Y-95.525
X177.7Y-138.525
X178.7Y-94.525
X178.7Y-137.525
X178.7Y-139.525
X179.7Y-93.525
X179.7Y-95.525
X179.7Y-138.525
X180.7Y-94.525
X180.7Y-137.525
X180.7Y-139.525
X181.7Y-93.525
X181.7Y-95.525
X181.7Y-138.525
X182.7Y-94.525
X183.7Y-93.525
X183.7Y-95.525
X184.7Y-94.525
X185.7Y-93.525
X185.7Y-95.525
X186.7Y-94.525
X187.7Y-93.525
X187.7Y-95.525
X187.7Y-112.525
X188.02Y-124.535
X188.23Y-116.255
X188.49Y-104.935
X188.7Y-94.525
X188.7Y-113.525
X189.7Y-112.525
X190.12Y-123.49
X190.36Y-109.485
X190.39Y-107.195
X190.7Y-116.525
X191.7Y-117.525
X192.36Y-109.485
X192.7Y-116.525
X193.7Y-124.065
X194.09Y-105.485
X195.98Y-112.265
X196.03Y-114.565
X196.46Y-105.575
X196.47Y-113.145
X197.33Y-109.735
X198.64Y-109.535
X199.35Y-106.385
X200.19Y-106.665
X201.0Y-115.725
X201.0Y-116.525
X201.332Y-119.668
X201.519Y-108.205
X201.823Y-113.328
X202.29Y-107.015
X202.33Y-105.645
X202.34Y-111.53
X202.36Y-109.535
X203.6Y-117.925
X204.1Y-101.825
X204.73Y-119.545
X205.256Y-117.216
X205.931Y-109.535
X206.3Y-101.395
X207.16Y-117.045
X207.77Y-99.185
X207.81Y-105.455
X207.822Y-109.465
X208.6Y-109.281
X208.94Y-101.185
X209.27Y-97.995
X209.5Y-113.435
X209.611Y-120.594
X209.7Y-94.525
X209.77Y-117.765
X210.7Y-93.525
X210.7Y-95.525
X210.77Y-109.515
X211.7Y-94.525
X212.11Y-101.955
X212.7Y-93.525
X212.7Y-95.525
X213.0Y-98.465
X213.49Y-117.555
X213.58Y-110.435
X213.7Y-94.525
X213.75Y-105.975
X214.7Y-93.525
X214.7Y-95.525
X214.7Y-99.525
X215.7Y-94.525
X215.7Y-98.525
X215.7Y-120.625
X216.7Y-93.525
X216.7Y-95.525
X216.8Y-117.125
X217.18Y-109.975
X217.7Y-94.525
X217.75Y-117.475
X218.7Y-93.525
X218.7Y-95.525
X218.7Y-98.525
X219.373Y-115.945
X219.7Y-94.525
X219.7Y-99.525
X219.7Y-126.525
X220.7Y-98.525
X220.7Y-127.525
X221.7Y-111.525
X221.7Y-126.525
X228.04Y-101.755
X229.11Y-103.075
X229.15Y-109.145
X230.055Y-101.571
X230.26Y-106.485
X230.504Y-105.299
X230.7Y-138.525
X230.88Y-100.695
X230.9Y-132.205
X231.7Y-137.525
X231.7Y-139.525
X231.851Y-110.086
X232.36Y-95.755
X232.7Y-138.525
X233.7Y-137.525
X233.7Y-139.525
X233.81Y-109.375
X234.7Y-138.525
X235.022Y-109.36
X235.1Y-104.525
X235.7Y-137.525
X235.7Y-139.525
X236.7Y-138.525
X237.11Y-112.245
X237.59Y-99.865
X237.7Y-137.525
X237.7Y-139.525
X237.85Y-109.295
X238.14Y-112.965
X238.7Y-138.525
X239.92Y-102.055
X240.04Y-109.185
X241.6Y-102.165
X241.7Y-98.525
X241.7Y-128.235
X242.16Y-107.715
X242.326Y-112.308
X242.7Y-99.525
X243.7Y-98.525
T2
X201.24Y-123.495
X206.12Y-123.495
X225.7Y-105.365
X225.7Y-110.245
T3
X181.71Y-122.525
X181.71Y-125.065
X181.71Y-127.605
X181.71Y-130.145
X181.89Y-101.585
X181.89Y-104.125
X181.89Y-106.665
X181.89Y-109.205
X184.25Y-123.785
X184.25Y-126.325
X184.25Y-128.865
X184.25Y-131.405
X184.43Y-102.845
X184.43Y-105.385
X184.43Y-107.925
X184.43Y-110.465
T4
X232.07Y-116.995
X232.07Y-119.495
X232.07Y-121.495
X232.07Y-123.995
T5
X194.89Y-94.525
X197.43Y-94.525
X199.97Y-94.525
X202.51Y-94.525
T6
X170.45Y-120.34
X170.45Y-122.88
X170.45Y-131.05
X170.45Y-133.59
X170.63Y-99.4
X170.63Y-101.94
X170.63Y-110.11
X170.63Y-112.65
T7
X178.4Y-119.22
X178.4Y-134.71
X178.58Y-98.28
X178.58Y-113.77
T8
X234.78Y-113.925
X234.78Y-127.065
M30
