%TF.GenerationSoftware,KiCad,Pcbnew,10.0.0*%
%TF.CreationDate,2026-08-10T11:42:10+05:30*%
%TF.ProjectId,USB to EtherCAT (Final proj -1),55534220-746f-4204-9574-686572434154,rev?*%
%TF.SameCoordinates,Original*%
%TF.FileFunction,Legend,Bot*%
%TF.FilePolarity,Positive*%
%FSLAX46Y46*%
G04 Gerber Fmt 4.6, Leading zero omitted, Abs format (unit mm)*
G04 Created by KiCad (PCBNEW 10.0.0) date 2026-08-10 11:42:10*
%MOMM*%
%LPD*%
G01*
G04 APERTURE LIST*
%ADD10C,0.150000*%
%ADD11C,0.120000*%
%ADD12C,0.127000*%
%ADD13C,0.200000*%
G04 APERTURE END LIST*
D10*
X220195357Y-103354705D02*
X220242976Y-103402325D01*
X220242976Y-103402325D02*
X220385833Y-103449944D01*
X220385833Y-103449944D02*
X220481071Y-103449944D01*
X220481071Y-103449944D02*
X220623928Y-103402325D01*
X220623928Y-103402325D02*
X220719166Y-103307086D01*
X220719166Y-103307086D02*
X220766785Y-103211848D01*
X220766785Y-103211848D02*
X220814404Y-103021372D01*
X220814404Y-103021372D02*
X220814404Y-102878515D01*
X220814404Y-102878515D02*
X220766785Y-102688039D01*
X220766785Y-102688039D02*
X220719166Y-102592801D01*
X220719166Y-102592801D02*
X220623928Y-102497563D01*
X220623928Y-102497563D02*
X220481071Y-102449944D01*
X220481071Y-102449944D02*
X220385833Y-102449944D01*
X220385833Y-102449944D02*
X220242976Y-102497563D01*
X220242976Y-102497563D02*
X220195357Y-102545182D01*
X219242976Y-103449944D02*
X219814404Y-103449944D01*
X219528690Y-103449944D02*
X219528690Y-102449944D01*
X219528690Y-102449944D02*
X219623928Y-102592801D01*
X219623928Y-102592801D02*
X219719166Y-102688039D01*
X219719166Y-102688039D02*
X219814404Y-102735658D01*
X218623928Y-102449944D02*
X218528690Y-102449944D01*
X218528690Y-102449944D02*
X218433452Y-102497563D01*
X218433452Y-102497563D02*
X218385833Y-102545182D01*
X218385833Y-102545182D02*
X218338214Y-102640420D01*
X218338214Y-102640420D02*
X218290595Y-102830896D01*
X218290595Y-102830896D02*
X218290595Y-103068991D01*
X218290595Y-103068991D02*
X218338214Y-103259467D01*
X218338214Y-103259467D02*
X218385833Y-103354705D01*
X218385833Y-103354705D02*
X218433452Y-103402325D01*
X218433452Y-103402325D02*
X218528690Y-103449944D01*
X218528690Y-103449944D02*
X218623928Y-103449944D01*
X218623928Y-103449944D02*
X218719166Y-103402325D01*
X218719166Y-103402325D02*
X218766785Y-103354705D01*
X218766785Y-103354705D02*
X218814404Y-103259467D01*
X218814404Y-103259467D02*
X218862023Y-103068991D01*
X218862023Y-103068991D02*
X218862023Y-102830896D01*
X218862023Y-102830896D02*
X218814404Y-102640420D01*
X218814404Y-102640420D02*
X218766785Y-102545182D01*
X218766785Y-102545182D02*
X218719166Y-102497563D01*
X218719166Y-102497563D02*
X218623928Y-102449944D01*
X174156666Y-108219944D02*
X174489999Y-107743753D01*
X174728094Y-108219944D02*
X174728094Y-107219944D01*
X174728094Y-107219944D02*
X174347142Y-107219944D01*
X174347142Y-107219944D02*
X174251904Y-107267563D01*
X174251904Y-107267563D02*
X174204285Y-107315182D01*
X174204285Y-107315182D02*
X174156666Y-107410420D01*
X174156666Y-107410420D02*
X174156666Y-107553277D01*
X174156666Y-107553277D02*
X174204285Y-107648515D01*
X174204285Y-107648515D02*
X174251904Y-107696134D01*
X174251904Y-107696134D02*
X174347142Y-107743753D01*
X174347142Y-107743753D02*
X174728094Y-107743753D01*
X173585237Y-107648515D02*
X173680475Y-107600896D01*
X173680475Y-107600896D02*
X173728094Y-107553277D01*
X173728094Y-107553277D02*
X173775713Y-107458039D01*
X173775713Y-107458039D02*
X173775713Y-107410420D01*
X173775713Y-107410420D02*
X173728094Y-107315182D01*
X173728094Y-107315182D02*
X173680475Y-107267563D01*
X173680475Y-107267563D02*
X173585237Y-107219944D01*
X173585237Y-107219944D02*
X173394761Y-107219944D01*
X173394761Y-107219944D02*
X173299523Y-107267563D01*
X173299523Y-107267563D02*
X173251904Y-107315182D01*
X173251904Y-107315182D02*
X173204285Y-107410420D01*
X173204285Y-107410420D02*
X173204285Y-107458039D01*
X173204285Y-107458039D02*
X173251904Y-107553277D01*
X173251904Y-107553277D02*
X173299523Y-107600896D01*
X173299523Y-107600896D02*
X173394761Y-107648515D01*
X173394761Y-107648515D02*
X173585237Y-107648515D01*
X173585237Y-107648515D02*
X173680475Y-107696134D01*
X173680475Y-107696134D02*
X173728094Y-107743753D01*
X173728094Y-107743753D02*
X173775713Y-107838991D01*
X173775713Y-107838991D02*
X173775713Y-108029467D01*
X173775713Y-108029467D02*
X173728094Y-108124705D01*
X173728094Y-108124705D02*
X173680475Y-108172325D01*
X173680475Y-108172325D02*
X173585237Y-108219944D01*
X173585237Y-108219944D02*
X173394761Y-108219944D01*
X173394761Y-108219944D02*
X173299523Y-108172325D01*
X173299523Y-108172325D02*
X173251904Y-108124705D01*
X173251904Y-108124705D02*
X173204285Y-108029467D01*
X173204285Y-108029467D02*
X173204285Y-107838991D01*
X173204285Y-107838991D02*
X173251904Y-107743753D01*
X173251904Y-107743753D02*
X173299523Y-107696134D01*
X173299523Y-107696134D02*
X173394761Y-107648515D01*
X220115357Y-110364705D02*
X220162976Y-110412325D01*
X220162976Y-110412325D02*
X220305833Y-110459944D01*
X220305833Y-110459944D02*
X220401071Y-110459944D01*
X220401071Y-110459944D02*
X220543928Y-110412325D01*
X220543928Y-110412325D02*
X220639166Y-110317086D01*
X220639166Y-110317086D02*
X220686785Y-110221848D01*
X220686785Y-110221848D02*
X220734404Y-110031372D01*
X220734404Y-110031372D02*
X220734404Y-109888515D01*
X220734404Y-109888515D02*
X220686785Y-109698039D01*
X220686785Y-109698039D02*
X220639166Y-109602801D01*
X220639166Y-109602801D02*
X220543928Y-109507563D01*
X220543928Y-109507563D02*
X220401071Y-109459944D01*
X220401071Y-109459944D02*
X220305833Y-109459944D01*
X220305833Y-109459944D02*
X220162976Y-109507563D01*
X220162976Y-109507563D02*
X220115357Y-109555182D01*
X219162976Y-110459944D02*
X219734404Y-110459944D01*
X219448690Y-110459944D02*
X219448690Y-109459944D01*
X219448690Y-109459944D02*
X219543928Y-109602801D01*
X219543928Y-109602801D02*
X219639166Y-109698039D01*
X219639166Y-109698039D02*
X219734404Y-109745658D01*
X218782023Y-109555182D02*
X218734404Y-109507563D01*
X218734404Y-109507563D02*
X218639166Y-109459944D01*
X218639166Y-109459944D02*
X218401071Y-109459944D01*
X218401071Y-109459944D02*
X218305833Y-109507563D01*
X218305833Y-109507563D02*
X218258214Y-109555182D01*
X218258214Y-109555182D02*
X218210595Y-109650420D01*
X218210595Y-109650420D02*
X218210595Y-109745658D01*
X218210595Y-109745658D02*
X218258214Y-109888515D01*
X218258214Y-109888515D02*
X218829642Y-110459944D01*
X218829642Y-110459944D02*
X218210595Y-110459944D01*
X209901904Y-113204944D02*
X209901904Y-114014467D01*
X209901904Y-114014467D02*
X209854285Y-114109705D01*
X209854285Y-114109705D02*
X209806666Y-114157325D01*
X209806666Y-114157325D02*
X209711428Y-114204944D01*
X209711428Y-114204944D02*
X209520952Y-114204944D01*
X209520952Y-114204944D02*
X209425714Y-114157325D01*
X209425714Y-114157325D02*
X209378095Y-114109705D01*
X209378095Y-114109705D02*
X209330476Y-114014467D01*
X209330476Y-114014467D02*
X209330476Y-113204944D01*
X208949523Y-113204944D02*
X208330476Y-113204944D01*
X208330476Y-113204944D02*
X208663809Y-113585896D01*
X208663809Y-113585896D02*
X208520952Y-113585896D01*
X208520952Y-113585896D02*
X208425714Y-113633515D01*
X208425714Y-113633515D02*
X208378095Y-113681134D01*
X208378095Y-113681134D02*
X208330476Y-113776372D01*
X208330476Y-113776372D02*
X208330476Y-114014467D01*
X208330476Y-114014467D02*
X208378095Y-114109705D01*
X208378095Y-114109705D02*
X208425714Y-114157325D01*
X208425714Y-114157325D02*
X208520952Y-114204944D01*
X208520952Y-114204944D02*
X208806666Y-114204944D01*
X208806666Y-114204944D02*
X208901904Y-114157325D01*
X208901904Y-114157325D02*
X208949523Y-114109705D01*
X195502857Y-119054705D02*
X195550476Y-119102325D01*
X195550476Y-119102325D02*
X195693333Y-119149944D01*
X195693333Y-119149944D02*
X195788571Y-119149944D01*
X195788571Y-119149944D02*
X195931428Y-119102325D01*
X195931428Y-119102325D02*
X196026666Y-119007086D01*
X196026666Y-119007086D02*
X196074285Y-118911848D01*
X196074285Y-118911848D02*
X196121904Y-118721372D01*
X196121904Y-118721372D02*
X196121904Y-118578515D01*
X196121904Y-118578515D02*
X196074285Y-118388039D01*
X196074285Y-118388039D02*
X196026666Y-118292801D01*
X196026666Y-118292801D02*
X195931428Y-118197563D01*
X195931428Y-118197563D02*
X195788571Y-118149944D01*
X195788571Y-118149944D02*
X195693333Y-118149944D01*
X195693333Y-118149944D02*
X195550476Y-118197563D01*
X195550476Y-118197563D02*
X195502857Y-118245182D01*
X194550476Y-119149944D02*
X195121904Y-119149944D01*
X194836190Y-119149944D02*
X194836190Y-118149944D01*
X194836190Y-118149944D02*
X194931428Y-118292801D01*
X194931428Y-118292801D02*
X195026666Y-118388039D01*
X195026666Y-118388039D02*
X195121904Y-118435658D01*
X193693333Y-118483277D02*
X193693333Y-119149944D01*
X193931428Y-118102325D02*
X194169523Y-118816610D01*
X194169523Y-118816610D02*
X193550476Y-118816610D01*
X223719580Y-98862267D02*
X223767200Y-98814648D01*
X223767200Y-98814648D02*
X223814819Y-98671791D01*
X223814819Y-98671791D02*
X223814819Y-98576553D01*
X223814819Y-98576553D02*
X223767200Y-98433696D01*
X223767200Y-98433696D02*
X223671961Y-98338458D01*
X223671961Y-98338458D02*
X223576723Y-98290839D01*
X223576723Y-98290839D02*
X223386247Y-98243220D01*
X223386247Y-98243220D02*
X223243390Y-98243220D01*
X223243390Y-98243220D02*
X223052914Y-98290839D01*
X223052914Y-98290839D02*
X222957676Y-98338458D01*
X222957676Y-98338458D02*
X222862438Y-98433696D01*
X222862438Y-98433696D02*
X222814819Y-98576553D01*
X222814819Y-98576553D02*
X222814819Y-98671791D01*
X222814819Y-98671791D02*
X222862438Y-98814648D01*
X222862438Y-98814648D02*
X222910057Y-98862267D01*
X223814819Y-99814648D02*
X223814819Y-99243220D01*
X223814819Y-99528934D02*
X222814819Y-99528934D01*
X222814819Y-99528934D02*
X222957676Y-99433696D01*
X222957676Y-99433696D02*
X223052914Y-99338458D01*
X223052914Y-99338458D02*
X223100533Y-99243220D01*
X223814819Y-100290839D02*
X223814819Y-100481315D01*
X223814819Y-100481315D02*
X223767200Y-100576553D01*
X223767200Y-100576553D02*
X223719580Y-100624172D01*
X223719580Y-100624172D02*
X223576723Y-100719410D01*
X223576723Y-100719410D02*
X223386247Y-100767029D01*
X223386247Y-100767029D02*
X223005295Y-100767029D01*
X223005295Y-100767029D02*
X222910057Y-100719410D01*
X222910057Y-100719410D02*
X222862438Y-100671791D01*
X222862438Y-100671791D02*
X222814819Y-100576553D01*
X222814819Y-100576553D02*
X222814819Y-100386077D01*
X222814819Y-100386077D02*
X222862438Y-100290839D01*
X222862438Y-100290839D02*
X222910057Y-100243220D01*
X222910057Y-100243220D02*
X223005295Y-100195601D01*
X223005295Y-100195601D02*
X223243390Y-100195601D01*
X223243390Y-100195601D02*
X223338628Y-100243220D01*
X223338628Y-100243220D02*
X223386247Y-100290839D01*
X223386247Y-100290839D02*
X223433866Y-100386077D01*
X223433866Y-100386077D02*
X223433866Y-100576553D01*
X223433866Y-100576553D02*
X223386247Y-100671791D01*
X223386247Y-100671791D02*
X223338628Y-100719410D01*
X223338628Y-100719410D02*
X223243390Y-100767029D01*
X229121009Y-106711791D02*
X229121009Y-106378458D01*
X229644819Y-106378458D02*
X228644819Y-106378458D01*
X228644819Y-106378458D02*
X228644819Y-106854648D01*
X229121009Y-107568934D02*
X229168628Y-107711791D01*
X229168628Y-107711791D02*
X229216247Y-107759410D01*
X229216247Y-107759410D02*
X229311485Y-107807029D01*
X229311485Y-107807029D02*
X229454342Y-107807029D01*
X229454342Y-107807029D02*
X229549580Y-107759410D01*
X229549580Y-107759410D02*
X229597200Y-107711791D01*
X229597200Y-107711791D02*
X229644819Y-107616553D01*
X229644819Y-107616553D02*
X229644819Y-107235601D01*
X229644819Y-107235601D02*
X228644819Y-107235601D01*
X228644819Y-107235601D02*
X228644819Y-107568934D01*
X228644819Y-107568934D02*
X228692438Y-107664172D01*
X228692438Y-107664172D02*
X228740057Y-107711791D01*
X228740057Y-107711791D02*
X228835295Y-107759410D01*
X228835295Y-107759410D02*
X228930533Y-107759410D01*
X228930533Y-107759410D02*
X229025771Y-107711791D01*
X229025771Y-107711791D02*
X229073390Y-107664172D01*
X229073390Y-107664172D02*
X229121009Y-107568934D01*
X229121009Y-107568934D02*
X229121009Y-107235601D01*
X228644819Y-108711791D02*
X228644819Y-108235601D01*
X228644819Y-108235601D02*
X229121009Y-108187982D01*
X229121009Y-108187982D02*
X229073390Y-108235601D01*
X229073390Y-108235601D02*
X229025771Y-108330839D01*
X229025771Y-108330839D02*
X229025771Y-108568934D01*
X229025771Y-108568934D02*
X229073390Y-108664172D01*
X229073390Y-108664172D02*
X229121009Y-108711791D01*
X229121009Y-108711791D02*
X229216247Y-108759410D01*
X229216247Y-108759410D02*
X229454342Y-108759410D01*
X229454342Y-108759410D02*
X229549580Y-108711791D01*
X229549580Y-108711791D02*
X229597200Y-108664172D01*
X229597200Y-108664172D02*
X229644819Y-108568934D01*
X229644819Y-108568934D02*
X229644819Y-108330839D01*
X229644819Y-108330839D02*
X229597200Y-108235601D01*
X229597200Y-108235601D02*
X229549580Y-108187982D01*
X206709580Y-97298458D02*
X206757200Y-97250839D01*
X206757200Y-97250839D02*
X206804819Y-97107982D01*
X206804819Y-97107982D02*
X206804819Y-97012744D01*
X206804819Y-97012744D02*
X206757200Y-96869887D01*
X206757200Y-96869887D02*
X206661961Y-96774649D01*
X206661961Y-96774649D02*
X206566723Y-96727030D01*
X206566723Y-96727030D02*
X206376247Y-96679411D01*
X206376247Y-96679411D02*
X206233390Y-96679411D01*
X206233390Y-96679411D02*
X206042914Y-96727030D01*
X206042914Y-96727030D02*
X205947676Y-96774649D01*
X205947676Y-96774649D02*
X205852438Y-96869887D01*
X205852438Y-96869887D02*
X205804819Y-97012744D01*
X205804819Y-97012744D02*
X205804819Y-97107982D01*
X205804819Y-97107982D02*
X205852438Y-97250839D01*
X205852438Y-97250839D02*
X205900057Y-97298458D01*
X205804819Y-97631792D02*
X205804819Y-98250839D01*
X205804819Y-98250839D02*
X206185771Y-97917506D01*
X206185771Y-97917506D02*
X206185771Y-98060363D01*
X206185771Y-98060363D02*
X206233390Y-98155601D01*
X206233390Y-98155601D02*
X206281009Y-98203220D01*
X206281009Y-98203220D02*
X206376247Y-98250839D01*
X206376247Y-98250839D02*
X206614342Y-98250839D01*
X206614342Y-98250839D02*
X206709580Y-98203220D01*
X206709580Y-98203220D02*
X206757200Y-98155601D01*
X206757200Y-98155601D02*
X206804819Y-98060363D01*
X206804819Y-98060363D02*
X206804819Y-97774649D01*
X206804819Y-97774649D02*
X206757200Y-97679411D01*
X206757200Y-97679411D02*
X206709580Y-97631792D01*
X196022857Y-113064705D02*
X196070476Y-113112325D01*
X196070476Y-113112325D02*
X196213333Y-113159944D01*
X196213333Y-113159944D02*
X196308571Y-113159944D01*
X196308571Y-113159944D02*
X196451428Y-113112325D01*
X196451428Y-113112325D02*
X196546666Y-113017086D01*
X196546666Y-113017086D02*
X196594285Y-112921848D01*
X196594285Y-112921848D02*
X196641904Y-112731372D01*
X196641904Y-112731372D02*
X196641904Y-112588515D01*
X196641904Y-112588515D02*
X196594285Y-112398039D01*
X196594285Y-112398039D02*
X196546666Y-112302801D01*
X196546666Y-112302801D02*
X196451428Y-112207563D01*
X196451428Y-112207563D02*
X196308571Y-112159944D01*
X196308571Y-112159944D02*
X196213333Y-112159944D01*
X196213333Y-112159944D02*
X196070476Y-112207563D01*
X196070476Y-112207563D02*
X196022857Y-112255182D01*
X195070476Y-113159944D02*
X195641904Y-113159944D01*
X195356190Y-113159944D02*
X195356190Y-112159944D01*
X195356190Y-112159944D02*
X195451428Y-112302801D01*
X195451428Y-112302801D02*
X195546666Y-112398039D01*
X195546666Y-112398039D02*
X195641904Y-112445658D01*
X194737142Y-112159944D02*
X194118095Y-112159944D01*
X194118095Y-112159944D02*
X194451428Y-112540896D01*
X194451428Y-112540896D02*
X194308571Y-112540896D01*
X194308571Y-112540896D02*
X194213333Y-112588515D01*
X194213333Y-112588515D02*
X194165714Y-112636134D01*
X194165714Y-112636134D02*
X194118095Y-112731372D01*
X194118095Y-112731372D02*
X194118095Y-112969467D01*
X194118095Y-112969467D02*
X194165714Y-113064705D01*
X194165714Y-113064705D02*
X194213333Y-113112325D01*
X194213333Y-113112325D02*
X194308571Y-113159944D01*
X194308571Y-113159944D02*
X194594285Y-113159944D01*
X194594285Y-113159944D02*
X194689523Y-113112325D01*
X194689523Y-113112325D02*
X194737142Y-113064705D01*
X225209580Y-117554767D02*
X225257200Y-117507148D01*
X225257200Y-117507148D02*
X225304819Y-117364291D01*
X225304819Y-117364291D02*
X225304819Y-117269053D01*
X225304819Y-117269053D02*
X225257200Y-117126196D01*
X225257200Y-117126196D02*
X225161961Y-117030958D01*
X225161961Y-117030958D02*
X225066723Y-116983339D01*
X225066723Y-116983339D02*
X224876247Y-116935720D01*
X224876247Y-116935720D02*
X224733390Y-116935720D01*
X224733390Y-116935720D02*
X224542914Y-116983339D01*
X224542914Y-116983339D02*
X224447676Y-117030958D01*
X224447676Y-117030958D02*
X224352438Y-117126196D01*
X224352438Y-117126196D02*
X224304819Y-117269053D01*
X224304819Y-117269053D02*
X224304819Y-117364291D01*
X224304819Y-117364291D02*
X224352438Y-117507148D01*
X224352438Y-117507148D02*
X224400057Y-117554767D01*
X224400057Y-117935720D02*
X224352438Y-117983339D01*
X224352438Y-117983339D02*
X224304819Y-118078577D01*
X224304819Y-118078577D02*
X224304819Y-118316672D01*
X224304819Y-118316672D02*
X224352438Y-118411910D01*
X224352438Y-118411910D02*
X224400057Y-118459529D01*
X224400057Y-118459529D02*
X224495295Y-118507148D01*
X224495295Y-118507148D02*
X224590533Y-118507148D01*
X224590533Y-118507148D02*
X224733390Y-118459529D01*
X224733390Y-118459529D02*
X225304819Y-117888101D01*
X225304819Y-117888101D02*
X225304819Y-118507148D01*
X224304819Y-119126196D02*
X224304819Y-119221434D01*
X224304819Y-119221434D02*
X224352438Y-119316672D01*
X224352438Y-119316672D02*
X224400057Y-119364291D01*
X224400057Y-119364291D02*
X224495295Y-119411910D01*
X224495295Y-119411910D02*
X224685771Y-119459529D01*
X224685771Y-119459529D02*
X224923866Y-119459529D01*
X224923866Y-119459529D02*
X225114342Y-119411910D01*
X225114342Y-119411910D02*
X225209580Y-119364291D01*
X225209580Y-119364291D02*
X225257200Y-119316672D01*
X225257200Y-119316672D02*
X225304819Y-119221434D01*
X225304819Y-119221434D02*
X225304819Y-119126196D01*
X225304819Y-119126196D02*
X225257200Y-119030958D01*
X225257200Y-119030958D02*
X225209580Y-118983339D01*
X225209580Y-118983339D02*
X225114342Y-118935720D01*
X225114342Y-118935720D02*
X224923866Y-118888101D01*
X224923866Y-118888101D02*
X224685771Y-118888101D01*
X224685771Y-118888101D02*
X224495295Y-118935720D01*
X224495295Y-118935720D02*
X224400057Y-118983339D01*
X224400057Y-118983339D02*
X224352438Y-119030958D01*
X224352438Y-119030958D02*
X224304819Y-119126196D01*
X211119580Y-96244767D02*
X211167200Y-96197148D01*
X211167200Y-96197148D02*
X211214819Y-96054291D01*
X211214819Y-96054291D02*
X211214819Y-95959053D01*
X211214819Y-95959053D02*
X211167200Y-95816196D01*
X211167200Y-95816196D02*
X211071961Y-95720958D01*
X211071961Y-95720958D02*
X210976723Y-95673339D01*
X210976723Y-95673339D02*
X210786247Y-95625720D01*
X210786247Y-95625720D02*
X210643390Y-95625720D01*
X210643390Y-95625720D02*
X210452914Y-95673339D01*
X210452914Y-95673339D02*
X210357676Y-95720958D01*
X210357676Y-95720958D02*
X210262438Y-95816196D01*
X210262438Y-95816196D02*
X210214819Y-95959053D01*
X210214819Y-95959053D02*
X210214819Y-96054291D01*
X210214819Y-96054291D02*
X210262438Y-96197148D01*
X210262438Y-96197148D02*
X210310057Y-96244767D01*
X210214819Y-96578101D02*
X210214819Y-97197148D01*
X210214819Y-97197148D02*
X210595771Y-96863815D01*
X210595771Y-96863815D02*
X210595771Y-97006672D01*
X210595771Y-97006672D02*
X210643390Y-97101910D01*
X210643390Y-97101910D02*
X210691009Y-97149529D01*
X210691009Y-97149529D02*
X210786247Y-97197148D01*
X210786247Y-97197148D02*
X211024342Y-97197148D01*
X211024342Y-97197148D02*
X211119580Y-97149529D01*
X211119580Y-97149529D02*
X211167200Y-97101910D01*
X211167200Y-97101910D02*
X211214819Y-97006672D01*
X211214819Y-97006672D02*
X211214819Y-96720958D01*
X211214819Y-96720958D02*
X211167200Y-96625720D01*
X211167200Y-96625720D02*
X211119580Y-96578101D01*
X210310057Y-97578101D02*
X210262438Y-97625720D01*
X210262438Y-97625720D02*
X210214819Y-97720958D01*
X210214819Y-97720958D02*
X210214819Y-97959053D01*
X210214819Y-97959053D02*
X210262438Y-98054291D01*
X210262438Y-98054291D02*
X210310057Y-98101910D01*
X210310057Y-98101910D02*
X210405295Y-98149529D01*
X210405295Y-98149529D02*
X210500533Y-98149529D01*
X210500533Y-98149529D02*
X210643390Y-98101910D01*
X210643390Y-98101910D02*
X211214819Y-97530482D01*
X211214819Y-97530482D02*
X211214819Y-98149529D01*
X241902857Y-121484705D02*
X241950476Y-121532325D01*
X241950476Y-121532325D02*
X242093333Y-121579944D01*
X242093333Y-121579944D02*
X242188571Y-121579944D01*
X242188571Y-121579944D02*
X242331428Y-121532325D01*
X242331428Y-121532325D02*
X242426666Y-121437086D01*
X242426666Y-121437086D02*
X242474285Y-121341848D01*
X242474285Y-121341848D02*
X242521904Y-121151372D01*
X242521904Y-121151372D02*
X242521904Y-121008515D01*
X242521904Y-121008515D02*
X242474285Y-120818039D01*
X242474285Y-120818039D02*
X242426666Y-120722801D01*
X242426666Y-120722801D02*
X242331428Y-120627563D01*
X242331428Y-120627563D02*
X242188571Y-120579944D01*
X242188571Y-120579944D02*
X242093333Y-120579944D01*
X242093333Y-120579944D02*
X241950476Y-120627563D01*
X241950476Y-120627563D02*
X241902857Y-120675182D01*
X241521904Y-120675182D02*
X241474285Y-120627563D01*
X241474285Y-120627563D02*
X241379047Y-120579944D01*
X241379047Y-120579944D02*
X241140952Y-120579944D01*
X241140952Y-120579944D02*
X241045714Y-120627563D01*
X241045714Y-120627563D02*
X240998095Y-120675182D01*
X240998095Y-120675182D02*
X240950476Y-120770420D01*
X240950476Y-120770420D02*
X240950476Y-120865658D01*
X240950476Y-120865658D02*
X240998095Y-121008515D01*
X240998095Y-121008515D02*
X241569523Y-121579944D01*
X241569523Y-121579944D02*
X240950476Y-121579944D01*
X240093333Y-120913277D02*
X240093333Y-121579944D01*
X240331428Y-120532325D02*
X240569523Y-121246610D01*
X240569523Y-121246610D02*
X239950476Y-121246610D01*
X220062857Y-114759944D02*
X220396190Y-114283753D01*
X220634285Y-114759944D02*
X220634285Y-113759944D01*
X220634285Y-113759944D02*
X220253333Y-113759944D01*
X220253333Y-113759944D02*
X220158095Y-113807563D01*
X220158095Y-113807563D02*
X220110476Y-113855182D01*
X220110476Y-113855182D02*
X220062857Y-113950420D01*
X220062857Y-113950420D02*
X220062857Y-114093277D01*
X220062857Y-114093277D02*
X220110476Y-114188515D01*
X220110476Y-114188515D02*
X220158095Y-114236134D01*
X220158095Y-114236134D02*
X220253333Y-114283753D01*
X220253333Y-114283753D02*
X220634285Y-114283753D01*
X219681904Y-113855182D02*
X219634285Y-113807563D01*
X219634285Y-113807563D02*
X219539047Y-113759944D01*
X219539047Y-113759944D02*
X219300952Y-113759944D01*
X219300952Y-113759944D02*
X219205714Y-113807563D01*
X219205714Y-113807563D02*
X219158095Y-113855182D01*
X219158095Y-113855182D02*
X219110476Y-113950420D01*
X219110476Y-113950420D02*
X219110476Y-114045658D01*
X219110476Y-114045658D02*
X219158095Y-114188515D01*
X219158095Y-114188515D02*
X219729523Y-114759944D01*
X219729523Y-114759944D02*
X219110476Y-114759944D01*
X218729523Y-113855182D02*
X218681904Y-113807563D01*
X218681904Y-113807563D02*
X218586666Y-113759944D01*
X218586666Y-113759944D02*
X218348571Y-113759944D01*
X218348571Y-113759944D02*
X218253333Y-113807563D01*
X218253333Y-113807563D02*
X218205714Y-113855182D01*
X218205714Y-113855182D02*
X218158095Y-113950420D01*
X218158095Y-113950420D02*
X218158095Y-114045658D01*
X218158095Y-114045658D02*
X218205714Y-114188515D01*
X218205714Y-114188515D02*
X218777142Y-114759944D01*
X218777142Y-114759944D02*
X218158095Y-114759944D01*
X220022857Y-112529944D02*
X220356190Y-112053753D01*
X220594285Y-112529944D02*
X220594285Y-111529944D01*
X220594285Y-111529944D02*
X220213333Y-111529944D01*
X220213333Y-111529944D02*
X220118095Y-111577563D01*
X220118095Y-111577563D02*
X220070476Y-111625182D01*
X220070476Y-111625182D02*
X220022857Y-111720420D01*
X220022857Y-111720420D02*
X220022857Y-111863277D01*
X220022857Y-111863277D02*
X220070476Y-111958515D01*
X220070476Y-111958515D02*
X220118095Y-112006134D01*
X220118095Y-112006134D02*
X220213333Y-112053753D01*
X220213333Y-112053753D02*
X220594285Y-112053753D01*
X219641904Y-111625182D02*
X219594285Y-111577563D01*
X219594285Y-111577563D02*
X219499047Y-111529944D01*
X219499047Y-111529944D02*
X219260952Y-111529944D01*
X219260952Y-111529944D02*
X219165714Y-111577563D01*
X219165714Y-111577563D02*
X219118095Y-111625182D01*
X219118095Y-111625182D02*
X219070476Y-111720420D01*
X219070476Y-111720420D02*
X219070476Y-111815658D01*
X219070476Y-111815658D02*
X219118095Y-111958515D01*
X219118095Y-111958515D02*
X219689523Y-112529944D01*
X219689523Y-112529944D02*
X219070476Y-112529944D01*
X218118095Y-112529944D02*
X218689523Y-112529944D01*
X218403809Y-112529944D02*
X218403809Y-111529944D01*
X218403809Y-111529944D02*
X218499047Y-111672801D01*
X218499047Y-111672801D02*
X218594285Y-111768039D01*
X218594285Y-111768039D02*
X218689523Y-111815658D01*
X220200357Y-105254705D02*
X220247976Y-105302325D01*
X220247976Y-105302325D02*
X220390833Y-105349944D01*
X220390833Y-105349944D02*
X220486071Y-105349944D01*
X220486071Y-105349944D02*
X220628928Y-105302325D01*
X220628928Y-105302325D02*
X220724166Y-105207086D01*
X220724166Y-105207086D02*
X220771785Y-105111848D01*
X220771785Y-105111848D02*
X220819404Y-104921372D01*
X220819404Y-104921372D02*
X220819404Y-104778515D01*
X220819404Y-104778515D02*
X220771785Y-104588039D01*
X220771785Y-104588039D02*
X220724166Y-104492801D01*
X220724166Y-104492801D02*
X220628928Y-104397563D01*
X220628928Y-104397563D02*
X220486071Y-104349944D01*
X220486071Y-104349944D02*
X220390833Y-104349944D01*
X220390833Y-104349944D02*
X220247976Y-104397563D01*
X220247976Y-104397563D02*
X220200357Y-104445182D01*
X219247976Y-105349944D02*
X219819404Y-105349944D01*
X219533690Y-105349944D02*
X219533690Y-104349944D01*
X219533690Y-104349944D02*
X219628928Y-104492801D01*
X219628928Y-104492801D02*
X219724166Y-104588039D01*
X219724166Y-104588039D02*
X219819404Y-104635658D01*
X218295595Y-105349944D02*
X218867023Y-105349944D01*
X218581309Y-105349944D02*
X218581309Y-104349944D01*
X218581309Y-104349944D02*
X218676547Y-104492801D01*
X218676547Y-104492801D02*
X218771785Y-104588039D01*
X218771785Y-104588039D02*
X218867023Y-104635658D01*
X219246666Y-107904705D02*
X219294285Y-107952325D01*
X219294285Y-107952325D02*
X219437142Y-107999944D01*
X219437142Y-107999944D02*
X219532380Y-107999944D01*
X219532380Y-107999944D02*
X219675237Y-107952325D01*
X219675237Y-107952325D02*
X219770475Y-107857086D01*
X219770475Y-107857086D02*
X219818094Y-107761848D01*
X219818094Y-107761848D02*
X219865713Y-107571372D01*
X219865713Y-107571372D02*
X219865713Y-107428515D01*
X219865713Y-107428515D02*
X219818094Y-107238039D01*
X219818094Y-107238039D02*
X219770475Y-107142801D01*
X219770475Y-107142801D02*
X219675237Y-107047563D01*
X219675237Y-107047563D02*
X219532380Y-106999944D01*
X219532380Y-106999944D02*
X219437142Y-106999944D01*
X219437142Y-106999944D02*
X219294285Y-107047563D01*
X219294285Y-107047563D02*
X219246666Y-107095182D01*
X218770475Y-107999944D02*
X218579999Y-107999944D01*
X218579999Y-107999944D02*
X218484761Y-107952325D01*
X218484761Y-107952325D02*
X218437142Y-107904705D01*
X218437142Y-107904705D02*
X218341904Y-107761848D01*
X218341904Y-107761848D02*
X218294285Y-107571372D01*
X218294285Y-107571372D02*
X218294285Y-107190420D01*
X218294285Y-107190420D02*
X218341904Y-107095182D01*
X218341904Y-107095182D02*
X218389523Y-107047563D01*
X218389523Y-107047563D02*
X218484761Y-106999944D01*
X218484761Y-106999944D02*
X218675237Y-106999944D01*
X218675237Y-106999944D02*
X218770475Y-107047563D01*
X218770475Y-107047563D02*
X218818094Y-107095182D01*
X218818094Y-107095182D02*
X218865713Y-107190420D01*
X218865713Y-107190420D02*
X218865713Y-107428515D01*
X218865713Y-107428515D02*
X218818094Y-107523753D01*
X218818094Y-107523753D02*
X218770475Y-107571372D01*
X218770475Y-107571372D02*
X218675237Y-107618991D01*
X218675237Y-107618991D02*
X218484761Y-107618991D01*
X218484761Y-107618991D02*
X218389523Y-107571372D01*
X218389523Y-107571372D02*
X218341904Y-107523753D01*
X218341904Y-107523753D02*
X218294285Y-107428515D01*
%TO.C,C10*%
D11*
X216481252Y-102110125D02*
X215958748Y-102110125D01*
X216481252Y-103580125D02*
X215958748Y-103580125D01*
%TO.C,R8*%
X176572936Y-107010125D02*
X177027064Y-107010125D01*
X176572936Y-108480125D02*
X177027064Y-108480125D01*
%TO.C,C12*%
X216403752Y-109240125D02*
X215881248Y-109240125D01*
X216403752Y-110710125D02*
X215881248Y-110710125D01*
%TO.C,U3*%
D12*
X206515000Y-111120125D02*
X206515000Y-111220125D01*
X206515000Y-111120125D02*
X211765000Y-111120125D01*
X206515000Y-116380125D02*
X206515000Y-116280125D01*
X206515000Y-116380125D02*
X211765000Y-116380125D01*
X211765000Y-111120125D02*
X211765000Y-111220125D01*
X211765000Y-116380125D02*
X211765000Y-116280125D01*
D13*
X203865000Y-115655125D02*
G75*
G02*
X203665000Y-115655125I-100000J0D01*
G01*
X203665000Y-115655125D02*
G75*
G02*
X203865000Y-115655125I100000J0D01*
G01*
%TO.C,C14*%
D11*
X198401252Y-117970125D02*
X197878748Y-117970125D01*
X198401252Y-119440125D02*
X197878748Y-119440125D01*
%TO.C,C19*%
X222595000Y-103056377D02*
X222595000Y-102533873D01*
X224065000Y-103056377D02*
X224065000Y-102533873D01*
%TO.C,FB5*%
X228550000Y-104675367D02*
X228550000Y-103854883D01*
X229670000Y-104675367D02*
X229670000Y-103854883D01*
%TO.C,C3*%
X205565000Y-100618877D02*
X205565000Y-100096373D01*
X207035000Y-100618877D02*
X207035000Y-100096373D01*
%TO.C,C13*%
X199101252Y-111850125D02*
X198578748Y-111850125D01*
X199101252Y-113320125D02*
X198578748Y-113320125D01*
%TO.C,C20*%
X224125000Y-114616373D02*
X224125000Y-115138877D01*
X225595000Y-114616373D02*
X225595000Y-115138877D01*
%TO.C,C32*%
X209965000Y-100536377D02*
X209965000Y-100013873D01*
X211435000Y-100536377D02*
X211435000Y-100013873D01*
%TO.C,C24*%
X238161252Y-120440125D02*
X237638748Y-120440125D01*
X238161252Y-121910125D02*
X237638748Y-121910125D01*
%TO.C,R22*%
X216317064Y-113540125D02*
X215862936Y-113540125D01*
X216317064Y-115010125D02*
X215862936Y-115010125D01*
%TO.C,R21*%
X215872936Y-111470125D02*
X216327064Y-111470125D01*
X215872936Y-112940125D02*
X216327064Y-112940125D01*
%TO.C,C11*%
X216491252Y-104350125D02*
X215968748Y-104350125D01*
X216491252Y-105820125D02*
X215968748Y-105820125D01*
%TO.C,C9*%
X216491252Y-106760125D02*
X215968748Y-106760125D01*
X216491252Y-108230125D02*
X215968748Y-108230125D01*
%TD*%
M02*
