%TF.GenerationSoftware,KiCad,Pcbnew,10.0.0*%
%TF.CreationDate,2026-08-10T11:42:10+05:30*%
%TF.ProjectId,USB to EtherCAT (Final proj -1),55534220-746f-4204-9574-686572434154,rev?*%
%TF.SameCoordinates,Original*%
%TF.FileFunction,Copper,L2,Bot*%
%TF.FilePolarity,Positive*%
%FSLAX46Y46*%
G04 Gerber Fmt 4.6, Leading zero omitted, Abs format (unit mm)*
G04 Created by KiCad (PCBNEW 10.0.0) date 2026-08-10 11:42:10*
%MOMM*%
%LPD*%
G01*
G04 APERTURE LIST*
G04 Aperture macros list*
%AMRoundRect*
0 Rectangle with rounded corners*
0 $1 Rounding radius*
0 $2 $3 $4 $5 $6 $7 $8 $9 X,Y pos of 4 corners*
0 Add a 4 corners polygon primitive as box body*
4,1,4,$2,$3,$4,$5,$6,$7,$8,$9,$2,$3,0*
0 Add four circle primitives for the rounded corners*
1,1,$1+$1,$2,$3*
1,1,$1+$1,$4,$5*
1,1,$1+$1,$6,$7*
1,1,$1+$1,$8,$9*
0 Add four rect primitives between the rounded corners*
20,1,$1+$1,$2,$3,$4,$5,0*
20,1,$1+$1,$4,$5,$6,$7,0*
20,1,$1+$1,$6,$7,$8,$9,0*
20,1,$1+$1,$8,$9,$2,$3,0*%
G04 Aperture macros list end*
%TA.AperFunction,ComponentPad*%
%ADD10R,1.700000X1.700000*%
%TD*%
%TA.AperFunction,ComponentPad*%
%ADD11C,1.700000*%
%TD*%
%TA.AperFunction,ComponentPad*%
%ADD12RoundRect,0.250500X-0.499500X0.499500X-0.499500X-0.499500X0.499500X-0.499500X0.499500X0.499500X0*%
%TD*%
%TA.AperFunction,ComponentPad*%
%ADD13C,1.500000*%
%TD*%
%TA.AperFunction,ComponentPad*%
%ADD14C,2.500000*%
%TD*%
%TA.AperFunction,ComponentPad*%
%ADD15RoundRect,0.250000X0.500000X-0.550000X0.500000X0.550000X-0.500000X0.550000X-0.500000X-0.550000X0*%
%TD*%
%TA.AperFunction,ComponentPad*%
%ADD16C,1.600000*%
%TD*%
%TA.AperFunction,ComponentPad*%
%ADD17C,3.000000*%
%TD*%
%TA.AperFunction,SMDPad,CuDef*%
%ADD18RoundRect,0.250000X0.337500X0.475000X-0.337500X0.475000X-0.337500X-0.475000X0.337500X-0.475000X0*%
%TD*%
%TA.AperFunction,SMDPad,CuDef*%
%ADD19RoundRect,0.250000X-0.350000X-0.450000X0.350000X-0.450000X0.350000X0.450000X-0.350000X0.450000X0*%
%TD*%
%TA.AperFunction,SMDPad,CuDef*%
%ADD20RoundRect,0.076250X-0.668750X-0.228750X0.668750X-0.228750X0.668750X0.228750X-0.668750X0.228750X0*%
%TD*%
%TA.AperFunction,SMDPad,CuDef*%
%ADD21RoundRect,0.250000X0.475000X-0.337500X0.475000X0.337500X-0.475000X0.337500X-0.475000X-0.337500X0*%
%TD*%
%TA.AperFunction,SMDPad,CuDef*%
%ADD22RoundRect,0.250000X0.350000X-0.275000X0.350000X0.275000X-0.350000X0.275000X-0.350000X-0.275000X0*%
%TD*%
%TA.AperFunction,SMDPad,CuDef*%
%ADD23RoundRect,0.250000X-0.475000X0.337500X-0.475000X-0.337500X0.475000X-0.337500X0.475000X0.337500X0*%
%TD*%
%TA.AperFunction,SMDPad,CuDef*%
%ADD24RoundRect,0.250000X0.350000X0.450000X-0.350000X0.450000X-0.350000X-0.450000X0.350000X-0.450000X0*%
%TD*%
%TA.AperFunction,ViaPad*%
%ADD25C,0.600000*%
%TD*%
%TA.AperFunction,Conductor*%
%ADD26C,0.300000*%
%TD*%
%TA.AperFunction,Conductor*%
%ADD27C,0.700000*%
%TD*%
%TA.AperFunction,Conductor*%
%ADD28C,0.500000*%
%TD*%
G04 APERTURE END LIST*
D10*
%TO.P,J1,1,Pin_1_1*%
%TO.N,+3.3V*%
X194890000Y-94525125D03*
D11*
%TO.P,J1,2,Pin_2_2*%
%TO.N,SWDIO*%
X197430000Y-94525125D03*
%TO.P,J1,3,Pin_3_3*%
%TO.N,SWCLK*%
X199970000Y-94525125D03*
%TO.P,J1,4,Pin_4_4*%
%TO.N,GND*%
X202510000Y-94525125D03*
%TD*%
D12*
%TO.P,J2,1,TD+_1*%
%TO.N,TXPA*%
X181890000Y-101585125D03*
D13*
%TO.P,J2,2,TD-_2*%
%TO.N,TXNA*%
X184430000Y-102845125D03*
%TO.P,J2,3,RD+_3*%
%TO.N,RXPA*%
X181890000Y-104125125D03*
%TO.P,J2,4,TCT_4*%
%TO.N,Net-(J2-RCT)*%
X184430000Y-105385125D03*
%TO.P,J2,5,RCT_5*%
X181890000Y-106665125D03*
%TO.P,J2,6,RD-_6*%
%TO.N,RXNA*%
X184430000Y-107925125D03*
%TO.P,J2,7,NC_7*%
%TO.N,unconnected-(J2-NC-Pad7)*%
X181890000Y-109205125D03*
%TO.P,J2,8*%
%TO.N,GND*%
X184430000Y-110465125D03*
%TO.P,J2,9*%
%TO.N,Net-(J2-Pad9)*%
X170630000Y-99400125D03*
%TO.P,J2,10*%
%TO.N,GND*%
X170630000Y-101940125D03*
%TO.P,J2,11*%
%TO.N,unconnected-(J2-Pad11)*%
X170630000Y-110110125D03*
%TO.P,J2,12*%
%TO.N,unconnected-(J2-Pad12)*%
X170630000Y-112650125D03*
D14*
%TO.P,J2,SH*%
%TO.N,GND*%
X178580000Y-98280125D03*
X178580000Y-113770125D03*
%TD*%
D13*
%TO.P,Y1,1,1_1*%
%TO.N,Net-(U1-OSCO)*%
X206120000Y-123495125D03*
%TO.P,Y1,2,2_2*%
%TO.N,Net-(U1-OSCI)*%
X201240000Y-123495125D03*
%TD*%
%TO.P,Y3,1,1_1*%
%TO.N,Net-(U2-PH0)*%
X225700000Y-105365125D03*
%TO.P,Y3,2,2_2*%
%TO.N,Net-(U2-PH1)*%
X225700000Y-110245125D03*
%TD*%
D15*
%TO.P,J4,1,VBUS_1*%
%TO.N,+5V*%
X232070000Y-123995125D03*
D16*
%TO.P,J4,2,D-_2*%
%TO.N,USB_DN*%
X232070000Y-121495125D03*
%TO.P,J4,3,D+_3*%
%TO.N,USB_DP*%
X232070000Y-119495125D03*
%TO.P,J4,4,GND_4*%
%TO.N,GND*%
X232070000Y-116995125D03*
D17*
%TO.P,J4,SH,Shield_SH*%
X234780000Y-127065125D03*
X234780000Y-113925125D03*
%TD*%
D12*
%TO.P,J3,1,TD+_1*%
%TO.N,TXPB*%
X181710000Y-122525125D03*
D13*
%TO.P,J3,2,TD-_2*%
%TO.N,TXNB*%
X184250000Y-123785125D03*
%TO.P,J3,3,RD+_3*%
%TO.N,RXPB*%
X181710000Y-125065125D03*
%TO.P,J3,4,TCT_4*%
%TO.N,Net-(J3-RCT)*%
X184250000Y-126325125D03*
%TO.P,J3,5,RCT_5*%
X181710000Y-127605125D03*
%TO.P,J3,6,RD-_6*%
%TO.N,RXNB*%
X184250000Y-128865125D03*
%TO.P,J3,7,NC_7*%
%TO.N,unconnected-(J3-NC-Pad7)*%
X181710000Y-130145125D03*
%TO.P,J3,8*%
%TO.N,GND*%
X184250000Y-131405125D03*
%TO.P,J3,9*%
%TO.N,Net-(J3-Pad9)*%
X170450000Y-120340125D03*
%TO.P,J3,10*%
%TO.N,GND*%
X170450000Y-122880125D03*
%TO.P,J3,11*%
%TO.N,unconnected-(J3-Pad11)*%
X170450000Y-131050125D03*
%TO.P,J3,12*%
%TO.N,unconnected-(J3-Pad12)*%
X170450000Y-133590125D03*
D14*
%TO.P,J3,SH*%
%TO.N,GND*%
X178400000Y-119220125D03*
X178400000Y-134710125D03*
%TD*%
D18*
%TO.P,C10,1*%
%TO.N,VDDCR*%
X217257500Y-102845125D03*
%TO.P,C10,2*%
%TO.N,GND*%
X215182500Y-102845125D03*
%TD*%
D19*
%TO.P,R8,1*%
%TO.N,Net-(J2-Pad9)*%
X175800000Y-107745125D03*
%TO.P,R8,2*%
%TO.N,GPIO0*%
X177800000Y-107745125D03*
%TD*%
D18*
%TO.P,C12,1*%
%TO.N,VDDCR*%
X217180000Y-109975125D03*
%TO.P,C12,2*%
%TO.N,GND*%
X215105000Y-109975125D03*
%TD*%
D20*
%TO.P,U3,1,A0_1*%
%TO.N,GND*%
X205510000Y-115655125D03*
%TO.P,U3,2,A1_2*%
X205510000Y-114385125D03*
%TO.P,U3,3,A2_3*%
X205510000Y-113115125D03*
%TO.P,U3,4,VSS_4*%
X205510000Y-111845125D03*
%TO.P,U3,5,SDA_5*%
%TO.N,I2C_SDA*%
X212770000Y-111845125D03*
%TO.P,U3,6,SCL_6*%
%TO.N,I2C_SCL*%
X212770000Y-113115125D03*
%TO.P,U3,7,WP_7*%
%TO.N,GND*%
X212770000Y-114385125D03*
%TO.P,U3,8,VCC_8*%
%TO.N,+3.3V*%
X212770000Y-115655125D03*
%TD*%
D18*
%TO.P,C14,1*%
%TO.N,VDD33TXRX2*%
X199177500Y-118705125D03*
%TO.P,C14,2*%
%TO.N,GND*%
X197102500Y-118705125D03*
%TD*%
D21*
%TO.P,C19,1*%
%TO.N,Net-(U2-PH0)*%
X223330000Y-103832625D03*
%TO.P,C19,2*%
%TO.N,GND*%
X223330000Y-101757625D03*
%TD*%
D22*
%TO.P,FB5,1*%
%TO.N,Net-(U2-VDDA)*%
X229110000Y-105415125D03*
%TO.P,FB5,2*%
%TO.N,+3.3V*%
X229110000Y-103115125D03*
%TD*%
D21*
%TO.P,C3,1*%
%TO.N,Net-(U1-VDD33BIAS)*%
X206300000Y-101395125D03*
%TO.P,C3,2*%
%TO.N,GND*%
X206300000Y-99320125D03*
%TD*%
D18*
%TO.P,C13,1*%
%TO.N,VDD33TXRX1*%
X199877500Y-112585125D03*
%TO.P,C13,2*%
%TO.N,GND*%
X197802500Y-112585125D03*
%TD*%
D23*
%TO.P,C20,1*%
%TO.N,Net-(U2-PH1)*%
X224860000Y-113840125D03*
%TO.P,C20,2*%
%TO.N,GND*%
X224860000Y-115915125D03*
%TD*%
D21*
%TO.P,C32,1*%
%TO.N,VDD12TX*%
X210700000Y-101312625D03*
%TO.P,C32,2*%
%TO.N,GND*%
X210700000Y-99237625D03*
%TD*%
D18*
%TO.P,C24,1*%
%TO.N,RST*%
X238937500Y-121175125D03*
%TO.P,C24,2*%
%TO.N,GND*%
X236862500Y-121175125D03*
%TD*%
D24*
%TO.P,R22,1*%
%TO.N,+3.3V*%
X217090000Y-114275125D03*
%TO.P,R22,2*%
%TO.N,I2C_SCL*%
X215090000Y-114275125D03*
%TD*%
D19*
%TO.P,R21,1*%
%TO.N,I2C_SDA*%
X215100000Y-112205125D03*
%TO.P,R21,2*%
%TO.N,+3.3V*%
X217100000Y-112205125D03*
%TD*%
D18*
%TO.P,C11,1*%
%TO.N,VDDCR*%
X217267500Y-105085125D03*
%TO.P,C11,2*%
%TO.N,GND*%
X215192500Y-105085125D03*
%TD*%
%TO.P,C9,1*%
%TO.N,VDDCR*%
X217267500Y-107495125D03*
%TO.P,C9,2*%
%TO.N,GND*%
X215192500Y-107495125D03*
%TD*%
D25*
%TO.N,USB_DP*%
X237110000Y-112245125D03*
%TO.N,Net-(J2-Pad9)*%
X175800000Y-107745125D03*
%TO.N,RST*%
X230504290Y-105299415D03*
X241700000Y-128235125D03*
%TO.N,GND*%
X240040000Y-109185125D03*
X183700000Y-93525125D03*
X209700000Y-94525125D03*
X172700000Y-94525125D03*
X210700000Y-95525125D03*
X218700000Y-95525125D03*
X232360000Y-95755125D03*
X207770000Y-99185125D03*
X191700000Y-117525125D03*
X221700000Y-111525125D03*
X216700000Y-93525125D03*
X213700000Y-94525125D03*
%TO.N,USB_DN*%
X242160000Y-107715125D03*
%TO.N,GND*%
X185700000Y-93525125D03*
X237700000Y-139525125D03*
X236700000Y-138525125D03*
X175700000Y-95525125D03*
X218700000Y-98525125D03*
%TO.N,USB_DN*%
X238140000Y-112965125D03*
X242325870Y-112308495D03*
%TO.N,GND*%
X237700000Y-137525125D03*
X179700000Y-95525125D03*
X241700000Y-98525125D03*
X176700000Y-137525125D03*
X214700000Y-99525125D03*
X238700000Y-138525125D03*
X212700000Y-93525125D03*
X180700000Y-94525125D03*
X235700000Y-137525125D03*
X174700000Y-94525125D03*
X233700000Y-139525125D03*
X213490000Y-117555125D03*
X215700000Y-94525125D03*
X210700000Y-93525125D03*
X187700000Y-93525125D03*
X186700000Y-94525125D03*
X211700000Y-94525125D03*
X192700000Y-116525125D03*
X209611250Y-120594018D03*
X196460000Y-105575125D03*
X188700000Y-113525125D03*
X189700000Y-112525125D03*
X232700000Y-138525125D03*
X213580000Y-110435125D03*
X174700000Y-139525125D03*
X180700000Y-139525125D03*
X173700000Y-138525125D03*
X213750000Y-105975125D03*
X182700000Y-94525125D03*
X176700000Y-139525125D03*
X243700000Y-98525125D03*
X187700000Y-95525125D03*
X177700000Y-95525125D03*
X173700000Y-95525125D03*
X180700000Y-137525125D03*
X178700000Y-137525125D03*
X204730000Y-119545125D03*
X179700000Y-138525125D03*
X181700000Y-93525125D03*
X173700000Y-93525125D03*
X183700000Y-95525125D03*
X231700000Y-137525125D03*
X196030000Y-114565125D03*
X235100000Y-104525125D03*
X184700000Y-94525125D03*
X219700000Y-126525125D03*
X177700000Y-138525125D03*
X181700000Y-138525125D03*
X209500000Y-113435125D03*
X219700000Y-94525125D03*
X233700000Y-137525125D03*
X190700000Y-116525125D03*
X221700000Y-126525125D03*
X179700000Y-93525125D03*
X218700000Y-93525125D03*
X176700000Y-94525125D03*
X213000000Y-98465125D03*
X231700000Y-139525125D03*
X214700000Y-93525125D03*
X209270000Y-97995125D03*
X219700000Y-99525125D03*
X178700000Y-94525125D03*
X217700000Y-94525125D03*
X175700000Y-93525125D03*
X174700000Y-137525125D03*
X235700000Y-139525125D03*
X214700000Y-95525125D03*
X220700000Y-127525125D03*
X185700000Y-95525125D03*
X181700000Y-95525125D03*
X230700000Y-138525125D03*
X216700000Y-95525125D03*
X212700000Y-95525125D03*
X175700000Y-138525125D03*
X220700000Y-98525125D03*
X178700000Y-139525125D03*
X187700000Y-112525125D03*
X188700000Y-94525125D03*
X177700000Y-93525125D03*
X242700000Y-99525125D03*
X234700000Y-138525125D03*
X215700000Y-98525125D03*
%TO.N,RXNA*%
X190360000Y-109485125D03*
%TO.N,SI*%
X216800000Y-117125125D03*
%TO.N,GND*%
X212110000Y-101955125D03*
%TO.N,+3.3V*%
X219372500Y-115945125D03*
X230880000Y-100695125D03*
%TO.N,TXNB*%
X190120000Y-123490125D03*
%TO.N,VDD33TXRX2*%
X201000000Y-116525125D03*
%TO.N,+3.3V*%
X197330000Y-109735125D03*
X239920000Y-102055125D03*
%TO.N,VDD33TXRX2*%
X203600000Y-117925125D03*
%TO.N,TESTMODE*%
X209770000Y-117765125D03*
%TO.N,+3.3V*%
X229110000Y-103075125D03*
%TO.N,VDD33TXRX1*%
X198640000Y-109535125D03*
%TO.N,SO*%
X215700000Y-120625125D03*
%TO.N,VDDCR*%
X217180000Y-109975125D03*
%TO.N,SO*%
X233810000Y-109375125D03*
%TO.N,SI*%
X235022500Y-109360125D03*
%TO.N,TXNB*%
X201332438Y-119667562D03*
%TO.N,RXNA*%
X195980000Y-112265125D03*
%TO.N,+3.3V*%
X237850000Y-109295125D03*
%TO.N,VDDCR*%
X210770000Y-109515125D03*
%TO.N,+5V*%
X230900000Y-132205125D03*
%TO.N,+3.3V*%
X199350000Y-106385125D03*
%TO.N,VDD33TXRX1*%
X192360000Y-109485125D03*
%TO.N,TESTMODE*%
X207160000Y-117045125D03*
%TO.N,SCK*%
X231851067Y-110086192D03*
%TO.N,I2C_SDA*%
X208600000Y-109280650D03*
%TO.N,I2C_SCL*%
X207821559Y-109465125D03*
%TO.N,SCK*%
X217750000Y-117475125D03*
%TO.N,GPIO2*%
X204100000Y-101825125D03*
%TO.N,SCS*%
X202360000Y-109535125D03*
X229150000Y-109145125D03*
%TO.N,GPIO2*%
X207810000Y-105455125D03*
%TO.N,GPIO0*%
X200190000Y-106665125D03*
%TO.N,TXPA*%
X201519238Y-108205125D03*
X202340349Y-111529581D03*
%TO.N,RXPA*%
X196470000Y-113145125D03*
X188490000Y-104935125D03*
%TO.N,RXPB*%
X193700000Y-124065125D03*
%TO.N,TXPB*%
X205255967Y-117215679D03*
%TO.N,Net-(J2-RCT)*%
X194090000Y-105485125D03*
%TO.N,Net-(U1-VDD33BIAS)*%
X201000000Y-115725122D03*
%TO.N,Net-(U1-VDD12TX1)*%
X202290000Y-107015125D03*
%TO.N,SWDIO*%
X241600000Y-102165125D03*
%TO.N,Net-(U2-VDDA)*%
X230260000Y-106485125D03*
%TO.N,Net-(U1-VDD12TX1)*%
X201823173Y-113328298D03*
%TO.N,RXPB*%
X188020000Y-124535125D03*
%TO.N,Net-(U2-PC14)*%
X230054620Y-101570505D03*
%TO.N,VDD12TX*%
X205930762Y-109535125D03*
%TO.N,Net-(J2-RCT)*%
X190390000Y-107195125D03*
%TO.N,Net-(U1-VDD12TX1)*%
X208940000Y-101185125D03*
X202330000Y-105645125D03*
%TO.N,Net-(U1-VDD33BIAS)*%
X206300000Y-101395125D03*
%TO.N,SWCLK*%
X237590000Y-99865125D03*
%TO.N,Net-(J3-RCT)*%
X188230000Y-116255125D03*
%TO.N,Net-(U2-PC14)*%
X228040000Y-101755125D03*
%TD*%
%TO.N,USB_DP*%
D26*
X237110000Y-112245125D02*
X237080000Y-112275125D01*
X237080000Y-112275125D02*
X237080000Y-114955125D01*
X237080000Y-114955125D02*
X232540000Y-119495125D01*
X232540000Y-119495125D02*
X232070000Y-119495125D01*
%TO.N,RST*%
X230504290Y-105299415D02*
X232310000Y-107105125D01*
X232310000Y-107105125D02*
X234570000Y-107105125D01*
X234570000Y-107105125D02*
X238937500Y-111472625D01*
X238937500Y-111472625D02*
X238937500Y-121175125D01*
D27*
X241720000Y-123957625D02*
X238937500Y-121175125D01*
X241720000Y-126605125D02*
X241720000Y-123957625D01*
X241700000Y-128235125D02*
X241700000Y-126625125D01*
X241700000Y-126625125D02*
X241720000Y-126605125D01*
%TO.N,USB_DN*%
D26*
X243074620Y-108629745D02*
X242160000Y-107715125D01*
X243074620Y-111559745D02*
X243074620Y-108629745D01*
X242325870Y-112308495D02*
X243074620Y-111559745D01*
%TO.N,Net-(J3-RCT)*%
X179290000Y-125185125D02*
X181710000Y-127605125D01*
X179290000Y-122295125D02*
X179290000Y-125185125D01*
X185330000Y-116255125D02*
X179290000Y-122295125D01*
X188230000Y-116255125D02*
X185330000Y-116255125D01*
%TO.N,USB_DN*%
X238190000Y-113015125D02*
X238140000Y-112965125D01*
X232070000Y-121495125D02*
X238190000Y-115375125D01*
X238190000Y-115375125D02*
X238190000Y-113015125D01*
%TO.N,VDD33TXRX1*%
X198640000Y-109535125D02*
X199500000Y-109535125D01*
D28*
X199877500Y-112585125D02*
X198150000Y-110857625D01*
%TO.N,+3.3V*%
D27*
X217702500Y-114275125D02*
X219372500Y-115945125D01*
X217090000Y-114275125D02*
X217090000Y-112215125D01*
D26*
X229110000Y-103115125D02*
X229710000Y-103115125D01*
X238049620Y-103925505D02*
X239920000Y-102055125D01*
X238049620Y-109095505D02*
X238049620Y-103925505D01*
D27*
X217090000Y-114275125D02*
X215710000Y-115655125D01*
X215710000Y-115655125D02*
X212770000Y-115655125D01*
D26*
X229710000Y-103115125D02*
X230880000Y-101945125D01*
D27*
X197330000Y-108405125D02*
X197330000Y-109735125D01*
X217090000Y-112215125D02*
X217100000Y-112205125D01*
X217090000Y-114275125D02*
X217702500Y-114275125D01*
D26*
X237850000Y-109295125D02*
X238049620Y-109095505D01*
%TO.N,VDD33TXRX1*%
X199650000Y-109685125D02*
X199650000Y-111340125D01*
%TO.N,+3.3V*%
D27*
X199350000Y-106385125D02*
X197330000Y-108405125D01*
D26*
X230880000Y-101945125D02*
X230880000Y-100695125D01*
%TO.N,TXNB*%
X193610125Y-120000000D02*
X190120000Y-123490125D01*
%TO.N,VDD33TXRX1*%
D28*
X198150000Y-110857625D02*
X198150000Y-110835125D01*
D26*
X199500000Y-109535125D02*
X199650000Y-109685125D01*
%TO.N,+5V*%
D27*
X232070000Y-131035125D02*
X232070000Y-123995125D01*
%TO.N,VDD33TXRX1*%
D28*
X198150000Y-110835125D02*
X197940000Y-110625125D01*
%TO.N,RXNA*%
D26*
X193140000Y-112265125D02*
X190360000Y-109485125D01*
%TO.N,VDD33TXRX2*%
X201000000Y-116525125D02*
X201000000Y-116975125D01*
X199177500Y-118705125D02*
X199177500Y-118347625D01*
X203590000Y-117935125D02*
X203600000Y-117925125D01*
%TO.N,TXNB*%
X201332438Y-119667562D02*
X201000000Y-120000000D01*
%TO.N,VDD33TXRX2*%
X201960000Y-117935125D02*
X203590000Y-117935125D01*
X199177500Y-118347625D02*
X201000000Y-116525125D01*
%TO.N,VDD33TXRX1*%
D28*
X193500000Y-110625125D02*
X192360000Y-109485125D01*
%TO.N,+5V*%
D27*
X230900000Y-132205125D02*
X232070000Y-131035125D01*
%TO.N,TXNB*%
D26*
X201000000Y-120000000D02*
X193610125Y-120000000D01*
%TO.N,VDD33TXRX1*%
X199650000Y-111340125D02*
X199877500Y-111567625D01*
%TO.N,VDD33TXRX2*%
X201000000Y-116975125D02*
X201960000Y-117935125D01*
%TO.N,VDD33TXRX1*%
X199877500Y-111567625D02*
X199877500Y-112585125D01*
D28*
X197940000Y-110625125D02*
X193500000Y-110625125D01*
%TO.N,RXNA*%
D26*
X195980000Y-112265125D02*
X193140000Y-112265125D01*
%TO.N,VDDCR*%
X217010000Y-108715125D02*
X217180000Y-108545125D01*
D27*
X217180000Y-108545125D02*
X217180000Y-107582625D01*
%TO.N,SO*%
D26*
X233810000Y-109515125D02*
X233800000Y-109525125D01*
X233810000Y-109375125D02*
X233810000Y-109515125D01*
%TO.N,VDDCR*%
D27*
X217267500Y-105085125D02*
X217267500Y-102855125D01*
%TO.N,SI*%
D26*
X225592894Y-117325125D02*
X218500000Y-117325125D01*
%TO.N,SO*%
X233800000Y-109525125D02*
X233800000Y-110625125D01*
%TO.N,VDDCR*%
X213940000Y-108715125D02*
X217010000Y-108715125D01*
D27*
X217180000Y-107582625D02*
X217267500Y-107495125D01*
%TO.N,TESTMODE*%
D26*
X207530000Y-117415125D02*
X209420000Y-117415125D01*
%TO.N,SO*%
X233800000Y-110625125D02*
X223800000Y-120625125D01*
X223800000Y-120625125D02*
X215700000Y-120625125D01*
%TO.N,VDDCR*%
D27*
X217267500Y-102855125D02*
X217257500Y-102845125D01*
D26*
X213140000Y-109515125D02*
X213940000Y-108715125D01*
%TO.N,TESTMODE*%
X207160000Y-117045125D02*
X207530000Y-117415125D01*
%TO.N,VDDCR*%
D27*
X217267500Y-107495125D02*
X217267500Y-105085125D01*
X217180000Y-109975125D02*
X217180000Y-108545125D01*
D26*
X210770000Y-109515125D02*
X213140000Y-109515125D01*
%TO.N,TESTMODE*%
X209420000Y-117415125D02*
X209770000Y-117765125D01*
%TO.N,SCK*%
X231638933Y-110086192D02*
X228200000Y-113525125D01*
%TO.N,SI*%
X234670000Y-108995125D02*
X234400000Y-108725125D01*
%TO.N,I2C_SCL*%
X207821559Y-109465125D02*
X207821559Y-109706684D01*
%TO.N,GPIO0*%
X181400000Y-99125125D02*
X180000000Y-100525125D01*
%TO.N,SI*%
X234400000Y-108725125D02*
X232292893Y-108725125D01*
X234670000Y-109007625D02*
X234670000Y-108995125D01*
%TO.N,SCK*%
X218100000Y-117825125D02*
X217750000Y-117475125D01*
X228200000Y-113525125D02*
X228200000Y-115425125D01*
%TO.N,I2C_SDA*%
X212770000Y-111845125D02*
X214740000Y-111845125D01*
%TO.N,GPIO2*%
X207730000Y-105455125D02*
X207810000Y-105455125D01*
%TO.N,SI*%
X226596447Y-116321572D02*
X225592894Y-117325125D01*
%TO.N,I2C_SDA*%
X212770000Y-111845125D02*
X211164475Y-111845125D01*
%TO.N,SCK*%
X225800000Y-117825125D02*
X218100000Y-117825125D01*
%TO.N,I2C_SCL*%
X212770000Y-113115125D02*
X213930000Y-113115125D01*
%TO.N,SI*%
X217100000Y-116825125D02*
X216800000Y-117125125D01*
X218400000Y-117225125D02*
X218400000Y-117205886D01*
%TO.N,SCK*%
X228200000Y-115425125D02*
X225800000Y-117825125D01*
%TO.N,SI*%
X226596447Y-114421572D02*
X226596447Y-116321572D01*
X218400000Y-117205886D02*
X218019239Y-116825125D01*
%TO.N,I2C_SDA*%
X214740000Y-111845125D02*
X215100000Y-112205125D01*
%TO.N,I2C_SCL*%
X211230000Y-113115125D02*
X212770000Y-113115125D01*
%TO.N,SCK*%
X231851067Y-110086192D02*
X231638933Y-110086192D01*
%TO.N,SI*%
X232292893Y-108725125D02*
X226596447Y-114421572D01*
%TO.N,I2C_SCL*%
X213930000Y-113115125D02*
X215090000Y-114275125D01*
%TO.N,GPIO2*%
X204100000Y-101825125D02*
X207730000Y-105455125D01*
%TO.N,SI*%
X218019239Y-116825125D02*
X217100000Y-116825125D01*
%TO.N,GPIO0*%
X177800000Y-103625125D02*
X177800000Y-107745125D01*
X200190000Y-106665125D02*
X200190000Y-105915125D01*
X180000000Y-101425125D02*
X177800000Y-103625125D01*
%TO.N,I2C_SCL*%
X207821559Y-109706684D02*
X211230000Y-113115125D01*
%TO.N,GPIO0*%
X200190000Y-105915125D02*
X193400000Y-99125125D01*
%TO.N,I2C_SDA*%
X211164475Y-111845125D02*
X208600000Y-109280650D01*
%TO.N,SI*%
X218500000Y-117325125D02*
X218400000Y-117225125D01*
X235022500Y-109360125D02*
X234670000Y-109007625D01*
%TO.N,GPIO0*%
X193400000Y-99125125D02*
X181400000Y-99125125D01*
X180000000Y-100525125D02*
X180000000Y-101425125D01*
%TO.N,SCS*%
X213200000Y-103185125D02*
X213200000Y-101505125D01*
X219620000Y-105485125D02*
X221230000Y-107095125D01*
%TO.N,TXPA*%
X201678553Y-110083678D02*
X202390000Y-110795125D01*
X201678553Y-108513678D02*
X201678553Y-110083678D01*
%TO.N,SCS*%
X202360000Y-109595125D02*
X202390000Y-109625125D01*
X202360000Y-109535125D02*
X202360000Y-109595125D01*
X207552320Y-108815125D02*
X207570000Y-108815125D01*
X207570000Y-108815125D02*
X213200000Y-103185125D01*
X206630000Y-110275125D02*
X207171559Y-109733566D01*
X202410000Y-109485125D02*
X204690000Y-109485125D01*
%TO.N,RXPA*%
X196470000Y-113145125D02*
X191520000Y-113145125D01*
%TO.N,SCS*%
X221230000Y-107095125D02*
X227100000Y-107095125D01*
X205470000Y-110275125D02*
X205482535Y-110275125D01*
X205482535Y-110275125D02*
X205486648Y-110279238D01*
X205486648Y-110279238D02*
X206025126Y-110279238D01*
X205180000Y-109975125D02*
X205180000Y-109985125D01*
%TO.N,TXPA*%
X201560762Y-108395887D02*
X201678553Y-108513678D01*
%TO.N,SCS*%
X206025126Y-110279238D02*
X206029239Y-110275125D01*
X227100000Y-107095125D02*
X229150000Y-109145125D01*
X207171559Y-109733566D02*
X207171559Y-109195886D01*
%TO.N,TXPA*%
X201519238Y-108205125D02*
X201560762Y-108246649D01*
%TO.N,SCS*%
X202360000Y-109535125D02*
X202490000Y-109535125D01*
X207171559Y-109195886D02*
X207552320Y-108815125D01*
X219620000Y-102095125D02*
X219620000Y-105485125D01*
X218590000Y-101065125D02*
X219620000Y-102095125D01*
X206029239Y-110275125D02*
X206630000Y-110275125D01*
%TO.N,TXPA*%
X202390000Y-110795125D02*
X202390000Y-111479930D01*
X201560762Y-108246649D02*
X201560762Y-108395887D01*
X202390000Y-111479930D02*
X202340349Y-111529581D01*
%TO.N,SCS*%
X205180000Y-109985125D02*
X205470000Y-110275125D01*
X213640000Y-101065125D02*
X218590000Y-101065125D01*
X213200000Y-101505125D02*
X213640000Y-101065125D01*
X202360000Y-109535125D02*
X202410000Y-109485125D01*
X204690000Y-109485125D02*
X205180000Y-109975125D01*
%TO.N,Net-(U1-VDD33BIAS)*%
X201040000Y-115685122D02*
X201040000Y-111505125D01*
%TO.N,VDD12TX*%
X205930762Y-109454363D02*
X210700000Y-104685125D01*
%TO.N,Net-(U1-VDD12TX1)*%
X201560000Y-111835125D02*
X201560000Y-111275125D01*
X201810000Y-113315125D02*
X201810000Y-112085125D01*
X200710000Y-108095125D02*
X201650000Y-107155125D01*
X201560000Y-111275125D02*
X200710000Y-110425125D01*
X201810000Y-112085125D02*
X201560000Y-111835125D01*
X202150000Y-107155125D02*
X202290000Y-107015125D01*
X202330000Y-105645125D02*
X202330000Y-104885125D01*
X201650000Y-107155125D02*
X202150000Y-107155125D01*
X207600000Y-97815125D02*
X208940000Y-99155125D01*
X200710000Y-110425125D02*
X200710000Y-108095125D01*
%TO.N,Net-(U1-VDD33BIAS)*%
X201000000Y-115725122D02*
X201040000Y-115685122D01*
%TO.N,Net-(U1-VDD12TX1)*%
X202330000Y-104885125D02*
X202820000Y-104395125D01*
%TO.N,Net-(U1-VDD33BIAS)*%
X207910000Y-101395125D02*
X206300000Y-101395125D01*
X200210000Y-110675125D02*
X200210000Y-107815125D01*
X208720000Y-105815125D02*
X208720000Y-103965125D01*
%TO.N,RXPA*%
X191520000Y-113145125D02*
X188500000Y-110125125D01*
%TO.N,Net-(U1-VDD12TX1)*%
X202820000Y-104395125D02*
X202820000Y-99525125D01*
X202330000Y-105645125D02*
X202330000Y-105795125D01*
%TO.N,Net-(U1-VDD33BIAS)*%
X200210000Y-107815125D02*
X201730000Y-106295125D01*
%TO.N,RXPA*%
X188500000Y-104945125D02*
X188490000Y-104935125D01*
%TO.N,Net-(U1-VDD33BIAS)*%
X208240000Y-106295125D02*
X208720000Y-105815125D01*
X208720000Y-102205125D02*
X207910000Y-101395125D01*
X208720000Y-104145125D02*
X208720000Y-102205125D01*
X201040000Y-111505125D02*
X200210000Y-110675125D01*
%TO.N,RXPA*%
X188500000Y-110125125D02*
X188500000Y-104945125D01*
%TO.N,Net-(U1-VDD33BIAS)*%
X201730000Y-106295125D02*
X208240000Y-106295125D01*
%TO.N,VDD12TX*%
X205930762Y-109535125D02*
X205930762Y-109454363D01*
%TO.N,Net-(U1-VDD12TX1)*%
X204530000Y-97815125D02*
X207600000Y-97815125D01*
%TO.N,VDD12TX*%
X210700000Y-104685125D02*
X210700000Y-101312625D01*
%TO.N,Net-(U1-VDD12TX1)*%
X202820000Y-99525125D02*
X204530000Y-97815125D01*
X208940000Y-99155125D02*
X208940000Y-101185125D01*
X201823173Y-113328298D02*
X201810000Y-113315125D01*
%TO.N,SWDIO*%
X197430000Y-94525125D02*
X199840000Y-96935125D01*
%TO.N,Net-(J2-RCT)*%
X194090000Y-105485125D02*
X192100000Y-105485125D01*
%TO.N,SWDIO*%
X241010000Y-101315125D02*
X241600000Y-101905125D01*
%TO.N,Net-(J2-RCT)*%
X192100000Y-105485125D02*
X190390000Y-107195125D01*
%TO.N,TXPB*%
X205255967Y-117215679D02*
X200376521Y-122095125D01*
%TO.N,SWDIO*%
X238120761Y-101315125D02*
X241010000Y-101315125D01*
%TO.N,TXPB*%
X187720000Y-125225125D02*
X185020000Y-122525125D01*
X200376521Y-122095125D02*
X197040000Y-122095125D01*
%TO.N,SWCLK*%
X229900000Y-92175125D02*
X202320000Y-92175125D01*
%TO.N,RXPB*%
X188020000Y-124535125D02*
X188120001Y-124435124D01*
%TO.N,TXPB*%
X193910000Y-125225125D02*
X187720000Y-125225125D01*
X197040000Y-122095125D02*
X193910000Y-125225125D01*
%TO.N,RXPB*%
X188120001Y-124435124D02*
X193330001Y-124435124D01*
%TO.N,TXPB*%
X185020000Y-122525125D02*
X181710000Y-122525125D01*
%TO.N,SWDIO*%
X233740761Y-96935125D02*
X238120761Y-101315125D01*
X199840000Y-96935125D02*
X233740761Y-96935125D01*
%TO.N,SWCLK*%
X202320000Y-92175125D02*
X199970000Y-94525125D01*
X237590000Y-99865125D02*
X229900000Y-92175125D01*
%TO.N,SWDIO*%
X241600000Y-101905125D02*
X241600000Y-102165125D01*
%TO.N,RXPB*%
X193330001Y-124435124D02*
X193700000Y-124065125D01*
%TO.N,Net-(U2-PC14)*%
X229870000Y-101755125D02*
X230054620Y-101570505D01*
%TO.N,Net-(U2-PH0)*%
X223330000Y-103832625D02*
X224167500Y-103832625D01*
X224167500Y-103832625D02*
X225700000Y-105365125D01*
%TO.N,Net-(U2-VDDA)*%
X229190000Y-105415125D02*
X230260000Y-106485125D01*
X229110000Y-105415125D02*
X229190000Y-105415125D01*
%TO.N,Net-(U2-PC14)*%
X228040000Y-101755125D02*
X229870000Y-101755125D01*
%TO.N,Net-(U2-PH1)*%
X224860000Y-111085125D02*
X225700000Y-110245125D01*
X224860000Y-113840125D02*
X224860000Y-111085125D01*
%TD*%
%TA.AperFunction,Conductor*%
%TO.N,GND*%
G36*
X201317231Y-92045310D02*
G01*
X201362986Y-92098114D01*
X201372930Y-92167272D01*
X201343905Y-92230828D01*
X201337873Y-92237306D01*
X200400710Y-93174467D01*
X200339387Y-93207952D01*
X200291245Y-93207440D01*
X200291055Y-93208641D01*
X200186111Y-93192019D01*
X200076287Y-93174625D01*
X199863713Y-93174625D01*
X199815042Y-93182333D01*
X199653760Y-93207878D01*
X199451585Y-93273569D01*
X199262179Y-93370076D01*
X199090213Y-93495015D01*
X198939890Y-93645338D01*
X198814949Y-93817307D01*
X198810484Y-93826071D01*
X198762509Y-93876867D01*
X198694688Y-93893661D01*
X198628553Y-93871123D01*
X198589516Y-93826071D01*
X198585050Y-93817307D01*
X198460109Y-93645338D01*
X198309786Y-93495015D01*
X198137820Y-93370076D01*
X197948414Y-93273569D01*
X197948413Y-93273568D01*
X197948412Y-93273568D01*
X197746243Y-93207879D01*
X197746241Y-93207878D01*
X197746240Y-93207878D01*
X197584957Y-93182333D01*
X197536287Y-93174625D01*
X197323713Y-93174625D01*
X197275042Y-93182333D01*
X197113760Y-93207878D01*
X196911585Y-93273569D01*
X196722179Y-93370076D01*
X196550215Y-93495014D01*
X196436673Y-93608556D01*
X196375350Y-93642040D01*
X196305658Y-93637056D01*
X196249725Y-93595184D01*
X196232810Y-93564207D01*
X196183797Y-93432796D01*
X196183793Y-93432789D01*
X196097547Y-93317580D01*
X196097544Y-93317577D01*
X195982335Y-93231331D01*
X195982328Y-93231327D01*
X195847482Y-93181033D01*
X195847483Y-93181033D01*
X195787883Y-93174626D01*
X195787881Y-93174625D01*
X195787873Y-93174625D01*
X195787864Y-93174625D01*
X193992129Y-93174625D01*
X193992123Y-93174626D01*
X193932516Y-93181033D01*
X193797671Y-93231327D01*
X193797664Y-93231331D01*
X193682455Y-93317577D01*
X193682452Y-93317580D01*
X193596206Y-93432789D01*
X193596202Y-93432796D01*
X193545908Y-93567642D01*
X193539501Y-93627241D01*
X193539500Y-93627260D01*
X193539500Y-95422995D01*
X193539501Y-95423001D01*
X193545908Y-95482608D01*
X193596202Y-95617453D01*
X193596206Y-95617460D01*
X193682452Y-95732669D01*
X193682455Y-95732672D01*
X193797664Y-95818918D01*
X193797671Y-95818922D01*
X193932517Y-95869216D01*
X193932516Y-95869216D01*
X193939444Y-95869960D01*
X193992127Y-95875625D01*
X195787872Y-95875624D01*
X195847483Y-95869216D01*
X195982331Y-95818921D01*
X196097546Y-95732671D01*
X196183796Y-95617456D01*
X196232810Y-95486041D01*
X196274681Y-95430109D01*
X196340145Y-95405691D01*
X196408418Y-95420542D01*
X196436673Y-95441694D01*
X196550213Y-95555234D01*
X196722179Y-95680173D01*
X196722181Y-95680174D01*
X196722184Y-95680176D01*
X196911588Y-95776682D01*
X197113757Y-95842371D01*
X197323713Y-95875625D01*
X197323714Y-95875625D01*
X197536286Y-95875625D01*
X197536287Y-95875625D01*
X197646111Y-95858230D01*
X197751055Y-95841609D01*
X197751315Y-95843253D01*
X197813852Y-95846375D01*
X197860711Y-95875782D01*
X199425325Y-97440397D01*
X199425326Y-97440398D01*
X199425329Y-97440400D01*
X199425331Y-97440402D01*
X199531873Y-97511590D01*
X199650256Y-97560626D01*
X199650260Y-97560626D01*
X199650261Y-97560627D01*
X199775928Y-97585625D01*
X199775931Y-97585625D01*
X203540193Y-97585625D01*
X203607232Y-97605310D01*
X203652987Y-97658114D01*
X203662931Y-97727272D01*
X203633906Y-97790828D01*
X203627874Y-97797306D01*
X202314722Y-99110456D01*
X202314720Y-99110458D01*
X202293099Y-99142819D01*
X202284472Y-99155731D01*
X202268074Y-99180271D01*
X202243534Y-99216998D01*
X202194499Y-99335380D01*
X202194497Y-99335386D01*
X202169500Y-99461053D01*
X202169500Y-104074316D01*
X202149815Y-104141355D01*
X202133181Y-104161997D01*
X201824727Y-104470450D01*
X201824726Y-104470451D01*
X201760141Y-104567112D01*
X201760140Y-104567113D01*
X201753537Y-104576994D01*
X201753535Y-104576998D01*
X201704499Y-104695380D01*
X201704497Y-104695386D01*
X201679500Y-104821053D01*
X201679500Y-105140189D01*
X201659815Y-105207228D01*
X201658603Y-105209079D01*
X201620608Y-105265942D01*
X201620602Y-105265953D01*
X201560264Y-105411623D01*
X201560261Y-105411635D01*
X201529500Y-105566278D01*
X201529500Y-105591225D01*
X201509815Y-105658264D01*
X201457011Y-105704019D01*
X201452952Y-105705786D01*
X201421881Y-105718655D01*
X201421863Y-105718665D01*
X201315332Y-105789846D01*
X201315325Y-105789852D01*
X201052181Y-106052997D01*
X200990858Y-106086482D01*
X200921166Y-106081498D01*
X200865233Y-106039626D01*
X200840816Y-105974162D01*
X200840500Y-105965316D01*
X200840500Y-105851053D01*
X200815502Y-105725386D01*
X200815501Y-105725385D01*
X200815501Y-105725381D01*
X200766465Y-105606998D01*
X200766464Y-105606996D01*
X200766457Y-105606984D01*
X200742163Y-105570627D01*
X200742161Y-105570625D01*
X200739260Y-105566283D01*
X200695277Y-105500456D01*
X200695275Y-105500454D01*
X200695273Y-105500451D01*
X193814673Y-98619851D01*
X193763228Y-98585477D01*
X193708127Y-98548660D01*
X193589744Y-98499624D01*
X193589738Y-98499622D01*
X193464071Y-98474625D01*
X193464069Y-98474625D01*
X181335931Y-98474625D01*
X181335929Y-98474625D01*
X181210261Y-98499622D01*
X181210255Y-98499624D01*
X181091874Y-98548659D01*
X180985326Y-98619851D01*
X179494724Y-100110453D01*
X179441674Y-100189850D01*
X179423535Y-100216996D01*
X179374499Y-100335380D01*
X179374497Y-100335386D01*
X179349500Y-100461053D01*
X179349500Y-101104316D01*
X179329815Y-101171355D01*
X179313181Y-101191997D01*
X177294727Y-103210450D01*
X177294726Y-103210451D01*
X177294723Y-103210456D01*
X177260790Y-103261242D01*
X177234891Y-103300003D01*
X177234889Y-103300006D01*
X177223536Y-103316995D01*
X177223533Y-103317000D01*
X177174499Y-103435380D01*
X177174497Y-103435386D01*
X177149500Y-103561053D01*
X177149500Y-106529487D01*
X177129815Y-106596526D01*
X177090598Y-106635024D01*
X177063815Y-106651545D01*
X176981342Y-106702414D01*
X176887681Y-106796076D01*
X176826358Y-106829561D01*
X176756666Y-106824577D01*
X176712319Y-106796076D01*
X176618657Y-106702414D01*
X176618656Y-106702413D01*
X176469334Y-106610311D01*
X176302797Y-106555126D01*
X176302795Y-106555125D01*
X176200010Y-106544625D01*
X175399998Y-106544625D01*
X175399980Y-106544626D01*
X175297203Y-106555125D01*
X175297200Y-106555126D01*
X175130668Y-106610310D01*
X175130663Y-106610312D01*
X174981342Y-106702414D01*
X174857289Y-106826467D01*
X174765187Y-106975788D01*
X174765185Y-106975793D01*
X174737349Y-107059795D01*
X174710001Y-107142328D01*
X174710001Y-107142329D01*
X174710000Y-107142329D01*
X174699500Y-107245108D01*
X174699500Y-108245126D01*
X174699501Y-108245144D01*
X174710000Y-108347921D01*
X174710001Y-108347924D01*
X174765185Y-108514456D01*
X174765187Y-108514461D01*
X174795026Y-108562837D01*
X174857288Y-108663781D01*
X174981344Y-108787837D01*
X175130666Y-108879939D01*
X175297203Y-108935124D01*
X175399991Y-108945625D01*
X176200008Y-108945624D01*
X176200016Y-108945623D01*
X176200019Y-108945623D01*
X176256302Y-108939873D01*
X176302797Y-108935124D01*
X176469334Y-108879939D01*
X176618656Y-108787837D01*
X176712319Y-108694174D01*
X176773642Y-108660689D01*
X176843334Y-108665673D01*
X176887681Y-108694174D01*
X176981344Y-108787837D01*
X177130666Y-108879939D01*
X177297203Y-108935124D01*
X177399991Y-108945625D01*
X178200008Y-108945624D01*
X178200016Y-108945623D01*
X178200019Y-108945623D01*
X178256302Y-108939873D01*
X178302797Y-108935124D01*
X178469334Y-108879939D01*
X178618656Y-108787837D01*
X178742712Y-108663781D01*
X178834814Y-108514459D01*
X178889999Y-108347922D01*
X178900500Y-108245134D01*
X178900499Y-107245117D01*
X178889999Y-107142328D01*
X178834814Y-106975791D01*
X178742712Y-106826469D01*
X178618656Y-106702413D01*
X178509402Y-106635025D01*
X178462679Y-106583078D01*
X178450500Y-106529487D01*
X178450500Y-103945933D01*
X178470185Y-103878894D01*
X178486819Y-103858252D01*
X180427819Y-101917252D01*
X180489142Y-101883767D01*
X180558834Y-101888751D01*
X180614767Y-101930623D01*
X180639184Y-101996087D01*
X180639500Y-102004933D01*
X180639500Y-102134678D01*
X180650008Y-102237524D01*
X180705228Y-102404169D01*
X180705230Y-102404174D01*
X180721524Y-102430590D01*
X180797393Y-102553593D01*
X180921532Y-102677732D01*
X181070953Y-102769896D01*
X181228029Y-102821945D01*
X181285474Y-102861717D01*
X181312297Y-102926233D01*
X181299982Y-102995009D01*
X181252439Y-103046209D01*
X181245323Y-103050134D01*
X181234597Y-103055599D01*
X181154974Y-103113449D01*
X181075354Y-103171297D01*
X181075352Y-103171299D01*
X181075351Y-103171299D01*
X180936174Y-103310476D01*
X180936174Y-103310477D01*
X180936172Y-103310479D01*
X180892836Y-103370126D01*
X180820476Y-103469719D01*
X180731117Y-103645095D01*
X180670290Y-103832298D01*
X180639500Y-104026702D01*
X180639500Y-104223547D01*
X180670290Y-104417951D01*
X180731117Y-104605154D01*
X180794587Y-104729720D01*
X180820476Y-104780530D01*
X180936172Y-104939771D01*
X181075354Y-105078953D01*
X181234595Y-105194649D01*
X181357992Y-105257522D01*
X181411213Y-105284640D01*
X181462009Y-105332614D01*
X181478804Y-105400435D01*
X181456267Y-105466570D01*
X181411213Y-105505610D01*
X181234594Y-105595601D01*
X181148782Y-105657948D01*
X181075354Y-105711297D01*
X181075352Y-105711299D01*
X181075351Y-105711299D01*
X180936174Y-105850476D01*
X180936174Y-105850477D01*
X180936172Y-105850479D01*
X180886485Y-105918866D01*
X180820476Y-106009719D01*
X180731117Y-106185095D01*
X180670290Y-106372298D01*
X180639500Y-106566702D01*
X180639500Y-106763547D01*
X180670290Y-106957951D01*
X180731117Y-107145154D01*
X180820476Y-107320530D01*
X180936172Y-107479771D01*
X181075354Y-107618953D01*
X181234595Y-107734649D01*
X181351014Y-107793967D01*
X181411213Y-107824640D01*
X181462009Y-107872614D01*
X181478804Y-107940435D01*
X181456267Y-108006570D01*
X181411213Y-108045610D01*
X181234594Y-108135601D01*
X181143741Y-108201610D01*
X181075354Y-108251297D01*
X181075352Y-108251299D01*
X181075351Y-108251299D01*
X180936174Y-108390476D01*
X180936174Y-108390477D01*
X180936172Y-108390479D01*
X180901078Y-108438782D01*
X180820476Y-108549719D01*
X180731117Y-108725095D01*
X180670290Y-108912298D01*
X180639500Y-109106702D01*
X180639500Y-109303547D01*
X180670290Y-109497951D01*
X180731117Y-109685154D01*
X180803635Y-109827478D01*
X180820476Y-109860530D01*
X180936172Y-110019771D01*
X181075354Y-110158953D01*
X181234595Y-110274649D01*
X181315015Y-110315625D01*
X181409970Y-110364007D01*
X181409972Y-110364007D01*
X181409975Y-110364009D01*
X181496116Y-110391998D01*
X181597173Y-110424834D01*
X181791578Y-110455625D01*
X181791583Y-110455625D01*
X181988422Y-110455625D01*
X182182826Y-110424834D01*
X182183814Y-110424513D01*
X182370025Y-110364009D01*
X182545405Y-110274649D01*
X182704646Y-110158953D01*
X182843828Y-110019771D01*
X182959524Y-109860530D01*
X183048884Y-109685150D01*
X183109709Y-109497951D01*
X183111028Y-109489625D01*
X183140500Y-109303547D01*
X183140500Y-109106702D01*
X183109709Y-108912298D01*
X183075081Y-108805727D01*
X183048884Y-108725100D01*
X183048882Y-108725097D01*
X183048882Y-108725095D01*
X182999795Y-108628757D01*
X182959524Y-108549720D01*
X182843828Y-108390479D01*
X182704646Y-108251297D01*
X182574927Y-108157050D01*
X182545403Y-108135599D01*
X182368787Y-108045610D01*
X182317990Y-107997636D01*
X182301195Y-107929815D01*
X182323732Y-107863680D01*
X182368787Y-107824640D01*
X182545403Y-107734650D01*
X182545402Y-107734650D01*
X182545405Y-107734649D01*
X182704646Y-107618953D01*
X182843828Y-107479771D01*
X182959524Y-107320530D01*
X183048884Y-107145150D01*
X183109709Y-106957951D01*
X183124541Y-106864304D01*
X183140500Y-106763547D01*
X183140500Y-106566702D01*
X183109709Y-106372298D01*
X183080640Y-106282835D01*
X183048884Y-106185100D01*
X183048882Y-106185097D01*
X183048882Y-106185095D01*
X182991346Y-106072174D01*
X182959524Y-106009720D01*
X182843828Y-105850479D01*
X182704646Y-105711297D01*
X182612880Y-105644625D01*
X182545403Y-105595599D01*
X182368787Y-105505610D01*
X182317990Y-105457636D01*
X182301195Y-105389815D01*
X182323732Y-105323680D01*
X182368787Y-105284640D01*
X182545403Y-105194650D01*
X182545402Y-105194650D01*
X182545405Y-105194649D01*
X182704646Y-105078953D01*
X182843828Y-104939771D01*
X182959524Y-104780530D01*
X183048884Y-104605150D01*
X183109709Y-104417951D01*
X183124760Y-104322921D01*
X183140500Y-104223547D01*
X183140500Y-104026702D01*
X183109709Y-103832298D01*
X183069796Y-103709461D01*
X183048884Y-103645100D01*
X183048882Y-103645097D01*
X183048882Y-103645095D01*
X182996822Y-103542922D01*
X182959524Y-103469720D01*
X182843828Y-103310479D01*
X182704646Y-103171297D01*
X182545405Y-103055601D01*
X182534678Y-103050135D01*
X182483883Y-103002162D01*
X182467088Y-102934341D01*
X182489625Y-102868206D01*
X182544340Y-102824754D01*
X182551965Y-102821946D01*
X182709047Y-102769896D01*
X182858468Y-102677732D01*
X182982607Y-102553593D01*
X182982610Y-102553587D01*
X182983039Y-102553159D01*
X183044362Y-102519674D01*
X183114054Y-102524658D01*
X183169988Y-102566529D01*
X183194405Y-102631993D01*
X183193194Y-102660237D01*
X183179500Y-102746701D01*
X183179500Y-102943547D01*
X183210290Y-103137951D01*
X183271117Y-103325154D01*
X183346409Y-103472922D01*
X183360476Y-103500530D01*
X183476172Y-103659771D01*
X183615354Y-103798953D01*
X183774595Y-103914649D01*
X183835994Y-103945933D01*
X183951213Y-104004640D01*
X184002009Y-104052614D01*
X184018804Y-104120435D01*
X183996267Y-104186570D01*
X183951213Y-104225610D01*
X183774594Y-104315601D01*
X183683741Y-104381610D01*
X183615354Y-104431297D01*
X183615352Y-104431299D01*
X183615351Y-104431299D01*
X183476174Y-104570476D01*
X183476174Y-104570477D01*
X183476172Y-104570479D01*
X183440958Y-104618947D01*
X183360476Y-104729719D01*
X183271117Y-104905095D01*
X183210290Y-105092298D01*
X183179500Y-105286702D01*
X183179500Y-105483547D01*
X183210290Y-105677951D01*
X183271117Y-105865154D01*
X183354490Y-106028781D01*
X183360476Y-106040530D01*
X183476172Y-106199771D01*
X183615354Y-106338953D01*
X183774595Y-106454649D01*
X183838940Y-106487434D01*
X183951213Y-106544640D01*
X184002009Y-106592614D01*
X184018804Y-106660435D01*
X183996267Y-106726570D01*
X183951213Y-106765610D01*
X183774594Y-106855601D01*
X183693356Y-106914625D01*
X183615354Y-106971297D01*
X183615352Y-106971299D01*
X183615351Y-106971299D01*
X183476174Y-107110476D01*
X183476174Y-107110477D01*
X183476172Y-107110479D01*
X183450982Y-107145150D01*
X183360476Y-107269719D01*
X183271117Y-107445095D01*
X183210290Y-107632298D01*
X183179500Y-107826702D01*
X183179500Y-108023547D01*
X183210290Y-108217951D01*
X183271117Y-108405154D01*
X183355570Y-108570901D01*
X183360476Y-108580530D01*
X183476172Y-108739771D01*
X183615354Y-108878953D01*
X183774595Y-108994649D01*
X183818093Y-109016812D01*
X183949970Y-109084007D01*
X183949972Y-109084007D01*
X183949975Y-109084009D01*
X184019835Y-109106708D01*
X184137173Y-109144834D01*
X184331578Y-109175625D01*
X184331583Y-109175625D01*
X184528422Y-109175625D01*
X184722826Y-109144834D01*
X184798216Y-109120338D01*
X184910025Y-109084009D01*
X185085405Y-108994649D01*
X185244646Y-108878953D01*
X185383828Y-108739771D01*
X185499524Y-108580530D01*
X185588884Y-108405150D01*
X185649709Y-108217951D01*
X185659356Y-108157042D01*
X185680500Y-108023547D01*
X185680500Y-107826702D01*
X185649709Y-107632298D01*
X185600753Y-107481629D01*
X185588884Y-107445100D01*
X185588882Y-107445097D01*
X185588882Y-107445095D01*
X185513960Y-107298053D01*
X185499524Y-107269720D01*
X185383828Y-107110479D01*
X185244646Y-106971297D01*
X185165025Y-106913449D01*
X185085403Y-106855599D01*
X184908787Y-106765610D01*
X184857990Y-106717636D01*
X184841195Y-106649815D01*
X184863732Y-106583680D01*
X184908787Y-106544640D01*
X185085403Y-106454650D01*
X185085402Y-106454650D01*
X185085405Y-106454649D01*
X185244646Y-106338953D01*
X185383828Y-106199771D01*
X185499524Y-106040530D01*
X185588884Y-105865150D01*
X185649709Y-105677951D01*
X185655737Y-105639890D01*
X185680500Y-105483547D01*
X185680500Y-105286702D01*
X185649709Y-105092298D01*
X185613172Y-104979851D01*
X185588884Y-104905100D01*
X185588882Y-104905097D01*
X185588882Y-104905095D01*
X185529793Y-104789126D01*
X185499524Y-104729720D01*
X185383828Y-104570479D01*
X185244646Y-104431297D01*
X185165025Y-104373449D01*
X185085403Y-104315599D01*
X184908787Y-104225610D01*
X184857990Y-104177636D01*
X184841195Y-104109815D01*
X184863732Y-104043680D01*
X184908787Y-104004640D01*
X185085403Y-103914650D01*
X185085402Y-103914650D01*
X185085405Y-103914649D01*
X185244646Y-103798953D01*
X185383828Y-103659771D01*
X185499524Y-103500530D01*
X185588884Y-103325150D01*
X185649709Y-103137951D01*
X185662752Y-103055599D01*
X185680500Y-102943547D01*
X185680500Y-102746702D01*
X185649709Y-102552298D01*
X185605401Y-102415933D01*
X185588884Y-102365100D01*
X185588882Y-102365097D01*
X185588882Y-102365095D01*
X185505415Y-102201282D01*
X185499524Y-102189720D01*
X185383828Y-102030479D01*
X185244646Y-101891297D01*
X185085405Y-101775601D01*
X185084322Y-101775049D01*
X184910029Y-101686242D01*
X184722826Y-101625415D01*
X184528422Y-101594625D01*
X184528417Y-101594625D01*
X184331583Y-101594625D01*
X184331578Y-101594625D01*
X184137173Y-101625415D01*
X183949970Y-101686242D01*
X183774594Y-101775601D01*
X183694256Y-101833971D01*
X183615354Y-101891297D01*
X183615352Y-101891299D01*
X183615351Y-101891299D01*
X183476173Y-102030477D01*
X183364818Y-102183743D01*
X183309487Y-102226408D01*
X183239874Y-102232387D01*
X183178079Y-102199781D01*
X183143722Y-102138942D01*
X183140500Y-102110857D01*
X183140500Y-101035584D01*
X183140499Y-101035571D01*
X183135372Y-100985388D01*
X183129992Y-100932726D01*
X183074771Y-100766078D01*
X182982607Y-100616657D01*
X182858468Y-100492518D01*
X182709047Y-100400354D01*
X182542399Y-100345133D01*
X182439553Y-100334625D01*
X182439546Y-100334625D01*
X181409807Y-100334625D01*
X181342768Y-100314940D01*
X181297013Y-100262136D01*
X181287069Y-100192978D01*
X181316094Y-100129422D01*
X181322126Y-100122944D01*
X181346445Y-100098626D01*
X181633127Y-99811944D01*
X181694450Y-99778459D01*
X181720808Y-99775625D01*
X193079192Y-99775625D01*
X193146231Y-99795310D01*
X193166873Y-99811944D01*
X198863804Y-105508875D01*
X198897289Y-105570198D01*
X198892305Y-105639890D01*
X198850433Y-105695823D01*
X198845014Y-105699658D01*
X198807838Y-105724498D01*
X198807834Y-105724501D01*
X196669375Y-107862959D01*
X196669372Y-107862963D01*
X196576297Y-108002258D01*
X196576296Y-108002261D01*
X196536223Y-108099007D01*
X196536223Y-108099008D01*
X196512184Y-108157042D01*
X196512182Y-108157050D01*
X196479500Y-108321353D01*
X196479500Y-109750625D01*
X196459815Y-109817664D01*
X196407011Y-109863419D01*
X196355500Y-109874625D01*
X193862229Y-109874625D01*
X193795190Y-109854940D01*
X193774548Y-109838306D01*
X193106071Y-109169828D01*
X193079191Y-109129600D01*
X193069394Y-109105946D01*
X193042889Y-109066278D01*
X192981789Y-108974835D01*
X192870292Y-108863338D01*
X192870288Y-108863335D01*
X192739185Y-108775734D01*
X192739172Y-108775727D01*
X192593501Y-108715389D01*
X192593489Y-108715386D01*
X192438845Y-108684625D01*
X192438842Y-108684625D01*
X192281158Y-108684625D01*
X192281155Y-108684625D01*
X192126510Y-108715386D01*
X192126498Y-108715389D01*
X191980827Y-108775727D01*
X191980814Y-108775734D01*
X191849711Y-108863335D01*
X191849707Y-108863338D01*
X191738213Y-108974832D01*
X191738210Y-108974836D01*
X191650609Y-109105939D01*
X191650602Y-109105952D01*
X191590264Y-109251623D01*
X191590261Y-109251635D01*
X191559500Y-109406278D01*
X191559500Y-109465317D01*
X191539815Y-109532356D01*
X191487011Y-109578111D01*
X191417853Y-109588055D01*
X191354297Y-109559030D01*
X191347819Y-109552998D01*
X191177015Y-109382194D01*
X191143530Y-109320871D01*
X191143093Y-109318777D01*
X191129737Y-109251628D01*
X191090250Y-109156297D01*
X191069397Y-109105952D01*
X191069390Y-109105939D01*
X190981789Y-108974836D01*
X190981786Y-108974832D01*
X190870292Y-108863338D01*
X190870288Y-108863335D01*
X190739185Y-108775734D01*
X190739172Y-108775727D01*
X190593501Y-108715389D01*
X190593489Y-108715386D01*
X190438845Y-108684625D01*
X190438842Y-108684625D01*
X190281158Y-108684625D01*
X190281155Y-108684625D01*
X190126510Y-108715386D01*
X190126498Y-108715389D01*
X189980827Y-108775727D01*
X189980814Y-108775734D01*
X189849711Y-108863335D01*
X189849707Y-108863338D01*
X189738213Y-108974832D01*
X189738210Y-108974836D01*
X189650609Y-109105939D01*
X189650602Y-109105952D01*
X189590264Y-109251623D01*
X189590261Y-109251635D01*
X189559500Y-109406278D01*
X189559500Y-109563971D01*
X189590261Y-109718614D01*
X189590264Y-109718626D01*
X189650602Y-109864297D01*
X189650609Y-109864310D01*
X189738210Y-109995413D01*
X189738213Y-109995417D01*
X189849707Y-110106911D01*
X189849711Y-110106914D01*
X189980814Y-110194515D01*
X189980827Y-110194522D01*
X190053248Y-110224519D01*
X190126503Y-110254862D01*
X190193580Y-110268204D01*
X190255490Y-110300588D01*
X190257069Y-110302140D01*
X192237873Y-112282944D01*
X192271358Y-112344267D01*
X192266374Y-112413959D01*
X192224502Y-112469892D01*
X192159038Y-112494309D01*
X192150192Y-112494625D01*
X191840808Y-112494625D01*
X191773769Y-112474940D01*
X191753127Y-112458306D01*
X189186819Y-109891998D01*
X189153334Y-109830675D01*
X189150500Y-109804317D01*
X189150500Y-107116278D01*
X189589500Y-107116278D01*
X189589500Y-107273971D01*
X189620261Y-107428614D01*
X189620264Y-107428626D01*
X189680602Y-107574297D01*
X189680609Y-107574310D01*
X189768210Y-107705413D01*
X189768213Y-107705417D01*
X189879707Y-107816911D01*
X189879711Y-107816914D01*
X190010814Y-107904515D01*
X190010827Y-107904522D01*
X190156498Y-107964860D01*
X190156503Y-107964862D01*
X190302783Y-107993959D01*
X190311153Y-107995624D01*
X190311156Y-107995625D01*
X190311158Y-107995625D01*
X190468844Y-107995625D01*
X190468845Y-107995624D01*
X190623497Y-107964862D01*
X190769179Y-107904519D01*
X190900289Y-107816914D01*
X191011789Y-107705414D01*
X191099394Y-107574304D01*
X191159737Y-107428622D01*
X191173079Y-107361542D01*
X191205462Y-107299633D01*
X191206956Y-107298112D01*
X192333126Y-106171944D01*
X192394449Y-106138459D01*
X192420807Y-106135625D01*
X193585065Y-106135625D01*
X193652104Y-106155310D01*
X193653909Y-106156491D01*
X193710821Y-106194519D01*
X193710823Y-106194520D01*
X193710827Y-106194522D01*
X193819227Y-106239422D01*
X193856503Y-106254862D01*
X193997132Y-106282835D01*
X194011153Y-106285624D01*
X194011156Y-106285625D01*
X194011158Y-106285625D01*
X194168844Y-106285625D01*
X194168845Y-106285624D01*
X194323497Y-106254862D01*
X194456497Y-106199772D01*
X194469172Y-106194522D01*
X194469172Y-106194521D01*
X194469179Y-106194519D01*
X194600289Y-106106914D01*
X194711789Y-105995414D01*
X194799394Y-105864304D01*
X194804882Y-105851056D01*
X194856937Y-105725381D01*
X194859737Y-105718622D01*
X194890500Y-105563967D01*
X194890500Y-105406283D01*
X194890500Y-105406280D01*
X194890499Y-105406278D01*
X194884402Y-105375625D01*
X194859737Y-105251628D01*
X194836136Y-105194649D01*
X194799397Y-105105952D01*
X194799390Y-105105939D01*
X194711789Y-104974836D01*
X194711786Y-104974832D01*
X194600292Y-104863338D01*
X194600288Y-104863335D01*
X194469185Y-104775734D01*
X194469172Y-104775727D01*
X194323501Y-104715389D01*
X194323489Y-104715386D01*
X194168845Y-104684625D01*
X194168842Y-104684625D01*
X194011158Y-104684625D01*
X194011155Y-104684625D01*
X193856510Y-104715386D01*
X193856498Y-104715389D01*
X193710827Y-104775727D01*
X193710820Y-104775731D01*
X193690780Y-104789122D01*
X193653955Y-104813727D01*
X193587279Y-104834605D01*
X193585065Y-104834625D01*
X192035929Y-104834625D01*
X191910657Y-104859544D01*
X191910256Y-104859623D01*
X191791875Y-104908658D01*
X191791866Y-104908663D01*
X191685331Y-104979848D01*
X191685327Y-104979851D01*
X190287069Y-106378109D01*
X190225746Y-106411594D01*
X190223580Y-106412045D01*
X190156508Y-106425386D01*
X190156498Y-106425389D01*
X190010827Y-106485727D01*
X190010814Y-106485734D01*
X189879711Y-106573335D01*
X189879707Y-106573338D01*
X189768213Y-106684832D01*
X189768210Y-106684836D01*
X189680609Y-106815939D01*
X189680602Y-106815952D01*
X189620264Y-106961623D01*
X189620261Y-106961635D01*
X189589500Y-107116278D01*
X189150500Y-107116278D01*
X189150500Y-105425093D01*
X189170185Y-105358054D01*
X189171398Y-105356202D01*
X189178994Y-105344834D01*
X189199394Y-105314304D01*
X189259737Y-105168622D01*
X189290500Y-105013967D01*
X189290500Y-104856283D01*
X189290500Y-104856280D01*
X189290499Y-104856278D01*
X189283492Y-104821053D01*
X189259737Y-104701628D01*
X189257471Y-104696158D01*
X189199397Y-104555952D01*
X189199390Y-104555939D01*
X189111789Y-104424836D01*
X189111786Y-104424832D01*
X189000292Y-104313338D01*
X189000288Y-104313335D01*
X188869185Y-104225734D01*
X188869172Y-104225727D01*
X188723501Y-104165389D01*
X188723489Y-104165386D01*
X188568845Y-104134625D01*
X188568842Y-104134625D01*
X188411158Y-104134625D01*
X188411155Y-104134625D01*
X188256510Y-104165386D01*
X188256498Y-104165389D01*
X188110827Y-104225727D01*
X188110814Y-104225734D01*
X187979711Y-104313335D01*
X187979707Y-104313338D01*
X187868213Y-104424832D01*
X187868210Y-104424836D01*
X187780609Y-104555939D01*
X187780602Y-104555952D01*
X187720264Y-104701623D01*
X187720261Y-104701635D01*
X187689500Y-104856278D01*
X187689500Y-105013971D01*
X187720261Y-105168614D01*
X187720264Y-105168626D01*
X187780602Y-105314297D01*
X187780609Y-105314309D01*
X187828602Y-105386135D01*
X187849480Y-105452812D01*
X187849500Y-105455026D01*
X187849500Y-110189194D01*
X187849500Y-110189196D01*
X187849499Y-110189196D01*
X187873369Y-110309191D01*
X187874498Y-110314866D01*
X187874499Y-110314870D01*
X187923533Y-110433250D01*
X187994726Y-110539798D01*
X191105328Y-113650400D01*
X191190752Y-113707478D01*
X191190751Y-113707478D01*
X191211871Y-113721589D01*
X191211872Y-113721589D01*
X191211873Y-113721590D01*
X191330256Y-113770626D01*
X191330260Y-113770626D01*
X191330261Y-113770627D01*
X191455928Y-113795625D01*
X191455931Y-113795625D01*
X195965065Y-113795625D01*
X196032104Y-113815310D01*
X196033909Y-113816491D01*
X196090821Y-113854519D01*
X196090823Y-113854520D01*
X196090827Y-113854522D01*
X196214577Y-113905780D01*
X196236503Y-113914862D01*
X196335853Y-113934624D01*
X196391153Y-113945624D01*
X196391156Y-113945625D01*
X196391158Y-113945625D01*
X196548844Y-113945625D01*
X196548845Y-113945624D01*
X196703497Y-113914862D01*
X196849179Y-113854519D01*
X196980289Y-113766914D01*
X197091789Y-113655414D01*
X197179394Y-113524304D01*
X197239737Y-113378622D01*
X197270500Y-113223967D01*
X197270500Y-113066283D01*
X197270500Y-113066280D01*
X197270499Y-113066278D01*
X197253214Y-112979381D01*
X197239737Y-112911628D01*
X197210591Y-112841263D01*
X197179397Y-112765952D01*
X197179390Y-112765939D01*
X197091789Y-112634836D01*
X197091786Y-112634832D01*
X196980292Y-112523338D01*
X196980288Y-112523335D01*
X196849177Y-112435729D01*
X196846047Y-112434056D01*
X196844715Y-112432747D01*
X196844114Y-112432346D01*
X196844190Y-112432232D01*
X196796203Y-112385094D01*
X196780500Y-112324698D01*
X196780500Y-112186280D01*
X196780499Y-112186278D01*
X196773555Y-112151367D01*
X196749737Y-112031628D01*
X196741451Y-112011623D01*
X196689397Y-111885952D01*
X196689390Y-111885939D01*
X196601789Y-111754836D01*
X196601786Y-111754832D01*
X196490292Y-111643338D01*
X196490288Y-111643335D01*
X196429514Y-111602727D01*
X196384709Y-111549115D01*
X196376002Y-111479790D01*
X196406156Y-111416762D01*
X196465600Y-111380043D01*
X196498405Y-111375625D01*
X197555270Y-111375625D01*
X197622309Y-111395310D01*
X197642951Y-111411944D01*
X198753181Y-112522174D01*
X198786666Y-112583497D01*
X198789500Y-112609855D01*
X198789500Y-113110126D01*
X198789501Y-113110144D01*
X198800000Y-113212921D01*
X198800001Y-113212924D01*
X198847567Y-113356467D01*
X198855186Y-113379459D01*
X198947288Y-113528781D01*
X199071344Y-113652837D01*
X199220666Y-113744939D01*
X199387203Y-113800124D01*
X199489991Y-113810625D01*
X200265008Y-113810624D01*
X200265500Y-113810624D01*
X200332539Y-113830308D01*
X200378294Y-113883112D01*
X200389500Y-113934624D01*
X200389500Y-115160322D01*
X200369815Y-115227361D01*
X200368602Y-115229213D01*
X200290609Y-115345936D01*
X200290602Y-115345949D01*
X200230264Y-115491620D01*
X200230261Y-115491632D01*
X200199500Y-115646275D01*
X200199500Y-115803968D01*
X200230261Y-115958611D01*
X200230264Y-115958623D01*
X200279575Y-116077671D01*
X200287044Y-116147140D01*
X200282665Y-116164292D01*
X200281264Y-116168498D01*
X200230263Y-116291628D01*
X200215406Y-116366313D01*
X200212953Y-116373682D01*
X200197273Y-116396260D01*
X200184533Y-116420616D01*
X200182983Y-116422194D01*
X199161871Y-117443306D01*
X199100548Y-117476791D01*
X199074190Y-117479625D01*
X198789999Y-117479625D01*
X198789980Y-117479626D01*
X198687203Y-117490125D01*
X198687200Y-117490126D01*
X198520668Y-117545310D01*
X198520663Y-117545312D01*
X198371342Y-117637414D01*
X198247289Y-117761467D01*
X198155187Y-117910788D01*
X198155185Y-117910793D01*
X198150453Y-117925073D01*
X198100001Y-118077328D01*
X198100001Y-118077329D01*
X198100000Y-118077329D01*
X198089500Y-118180108D01*
X198089500Y-118180121D01*
X198089501Y-119225500D01*
X198069817Y-119292539D01*
X198017013Y-119338294D01*
X197965501Y-119349500D01*
X193546054Y-119349500D01*
X193420386Y-119374497D01*
X193420380Y-119374499D01*
X193301999Y-119423534D01*
X193195451Y-119494726D01*
X190017068Y-122673109D01*
X189955745Y-122706594D01*
X189953579Y-122707045D01*
X189886508Y-122720386D01*
X189886498Y-122720389D01*
X189740827Y-122780727D01*
X189740814Y-122780734D01*
X189609711Y-122868335D01*
X189609707Y-122868338D01*
X189498213Y-122979832D01*
X189498210Y-122979836D01*
X189410609Y-123110939D01*
X189410602Y-123110952D01*
X189350264Y-123256623D01*
X189350261Y-123256635D01*
X189319500Y-123411278D01*
X189319500Y-123568971D01*
X189332919Y-123636433D01*
X189326692Y-123706025D01*
X189283829Y-123761202D01*
X189217939Y-123784446D01*
X189211302Y-123784624D01*
X188324602Y-123784624D01*
X188277150Y-123775185D01*
X188253501Y-123765389D01*
X188253489Y-123765386D01*
X188098845Y-123734625D01*
X188098842Y-123734625D01*
X187941158Y-123734625D01*
X187941155Y-123734625D01*
X187786510Y-123765386D01*
X187786498Y-123765389D01*
X187640827Y-123825727D01*
X187640814Y-123825734D01*
X187509711Y-123913335D01*
X187509703Y-123913341D01*
X187506608Y-123916437D01*
X187445283Y-123949918D01*
X187375592Y-123944929D01*
X187331252Y-123916431D01*
X185434674Y-122019852D01*
X185434673Y-122019851D01*
X185434669Y-122019848D01*
X185328127Y-121948660D01*
X185209744Y-121899624D01*
X185209738Y-121899622D01*
X185084071Y-121874625D01*
X185084069Y-121874625D01*
X183040163Y-121874625D01*
X182973124Y-121854940D01*
X182927369Y-121802136D01*
X182922457Y-121789629D01*
X182914222Y-121764778D01*
X182894771Y-121706078D01*
X182802607Y-121556657D01*
X182678468Y-121432518D01*
X182529047Y-121340354D01*
X182362399Y-121285133D01*
X182259553Y-121274625D01*
X182259546Y-121274625D01*
X181529808Y-121274625D01*
X181462769Y-121254940D01*
X181417014Y-121202136D01*
X181407070Y-121132978D01*
X181436095Y-121069422D01*
X181442127Y-121062944D01*
X185563127Y-116941944D01*
X185624450Y-116908459D01*
X185650808Y-116905625D01*
X187725065Y-116905625D01*
X187792104Y-116925310D01*
X187793909Y-116926491D01*
X187850821Y-116964519D01*
X187850823Y-116964520D01*
X187850827Y-116964522D01*
X187925348Y-116995389D01*
X187996503Y-117024862D01*
X188151153Y-117055624D01*
X188151156Y-117055625D01*
X188151158Y-117055625D01*
X188308844Y-117055625D01*
X188308845Y-117055624D01*
X188463497Y-117024862D01*
X188584583Y-116974707D01*
X188609172Y-116964522D01*
X188609172Y-116964521D01*
X188609179Y-116964519D01*
X188740289Y-116876914D01*
X188851789Y-116765414D01*
X188939394Y-116634304D01*
X188999737Y-116488622D01*
X189030500Y-116333967D01*
X189030500Y-116176283D01*
X189030500Y-116176280D01*
X189030499Y-116176278D01*
X189024703Y-116147140D01*
X188999737Y-116021628D01*
X188958337Y-115921679D01*
X188939397Y-115875952D01*
X188939390Y-115875939D01*
X188851789Y-115744836D01*
X188851786Y-115744832D01*
X188740292Y-115633338D01*
X188740288Y-115633335D01*
X188609185Y-115545734D01*
X188609172Y-115545727D01*
X188463501Y-115485389D01*
X188463489Y-115485386D01*
X188308845Y-115454625D01*
X188308842Y-115454625D01*
X188151158Y-115454625D01*
X188151155Y-115454625D01*
X187996510Y-115485386D01*
X187996498Y-115485389D01*
X187850827Y-115545727D01*
X187850820Y-115545731D01*
X187821928Y-115565036D01*
X187793955Y-115583727D01*
X187727279Y-115604605D01*
X187725065Y-115604625D01*
X185265929Y-115604625D01*
X185140261Y-115629622D01*
X185140255Y-115629624D01*
X185021874Y-115678659D01*
X184915326Y-115749851D01*
X178784724Y-121880453D01*
X178725253Y-121969460D01*
X178713535Y-121986996D01*
X178664499Y-122105380D01*
X178664497Y-122105386D01*
X178639500Y-122231053D01*
X178639500Y-122231056D01*
X178639500Y-125249194D01*
X178639500Y-125249196D01*
X178639499Y-125249196D01*
X178661133Y-125357948D01*
X178664497Y-125374863D01*
X178664500Y-125374872D01*
X178713532Y-125493248D01*
X178784726Y-125599798D01*
X178784727Y-125599799D01*
X180446563Y-127261634D01*
X180480048Y-127322957D01*
X180481355Y-127368713D01*
X180459500Y-127506702D01*
X180459500Y-127703547D01*
X180490290Y-127897951D01*
X180551117Y-128085154D01*
X180614587Y-128209720D01*
X180640476Y-128260530D01*
X180756172Y-128419771D01*
X180895354Y-128558953D01*
X181054595Y-128674649D01*
X181177992Y-128737522D01*
X181231213Y-128764640D01*
X181282009Y-128812614D01*
X181298804Y-128880435D01*
X181276267Y-128946570D01*
X181231213Y-128985610D01*
X181054594Y-129075601D01*
X180963741Y-129141610D01*
X180895354Y-129191297D01*
X180895352Y-129191299D01*
X180895351Y-129191299D01*
X180756174Y-129330476D01*
X180756174Y-129330477D01*
X180756172Y-129330479D01*
X180745513Y-129345150D01*
X180640476Y-129489719D01*
X180551117Y-129665095D01*
X180490290Y-129852298D01*
X180459500Y-130046702D01*
X180459500Y-130243547D01*
X180490290Y-130437951D01*
X180551117Y-130625154D01*
X180599013Y-130719154D01*
X180640476Y-130800530D01*
X180756172Y-130959771D01*
X180895354Y-131098953D01*
X181054595Y-131214649D01*
X181137455Y-131256868D01*
X181229970Y-131304007D01*
X181229972Y-131304007D01*
X181229975Y-131304009D01*
X181330317Y-131336612D01*
X181417173Y-131364834D01*
X181611578Y-131395625D01*
X181611583Y-131395625D01*
X181808422Y-131395625D01*
X182002826Y-131364834D01*
X182190025Y-131304009D01*
X182365405Y-131214649D01*
X182524646Y-131098953D01*
X182663828Y-130959771D01*
X182779524Y-130800530D01*
X182868884Y-130625150D01*
X182929709Y-130437951D01*
X182936556Y-130394719D01*
X182960500Y-130243547D01*
X182960500Y-130046702D01*
X182929709Y-129852298D01*
X182901487Y-129765442D01*
X182868884Y-129665100D01*
X182868882Y-129665097D01*
X182868882Y-129665095D01*
X182779523Y-129489719D01*
X182663828Y-129330479D01*
X182524646Y-129191297D01*
X182379202Y-129085625D01*
X182365403Y-129075599D01*
X182188787Y-128985610D01*
X182137990Y-128937636D01*
X182121195Y-128869815D01*
X182143732Y-128803680D01*
X182188787Y-128764640D01*
X182365403Y-128674650D01*
X182365402Y-128674650D01*
X182365405Y-128674649D01*
X182524646Y-128558953D01*
X182663828Y-128419771D01*
X182779524Y-128260530D01*
X182868884Y-128085150D01*
X182929709Y-127897951D01*
X182960500Y-127703547D01*
X182960500Y-127506702D01*
X182929709Y-127312298D01*
X182901487Y-127225442D01*
X182868884Y-127125100D01*
X182868882Y-127125097D01*
X182868882Y-127125095D01*
X182779523Y-126949719D01*
X182663828Y-126790479D01*
X182524646Y-126651297D01*
X182373329Y-126541358D01*
X182365403Y-126535599D01*
X182188787Y-126445610D01*
X182137990Y-126397636D01*
X182121195Y-126329815D01*
X182143732Y-126263680D01*
X182188787Y-126224640D01*
X182365403Y-126134650D01*
X182365402Y-126134650D01*
X182365405Y-126134649D01*
X182524646Y-126018953D01*
X182663828Y-125879771D01*
X182779524Y-125720530D01*
X182868884Y-125545150D01*
X182929709Y-125357951D01*
X182929708Y-125357951D01*
X182929710Y-125357948D01*
X182960500Y-125163547D01*
X182960500Y-124966702D01*
X182929709Y-124772298D01*
X182891273Y-124654007D01*
X182868884Y-124585100D01*
X182868882Y-124585097D01*
X182868882Y-124585095D01*
X182799514Y-124448953D01*
X182779524Y-124409720D01*
X182663828Y-124250479D01*
X182524646Y-124111297D01*
X182365405Y-123995601D01*
X182354678Y-123990135D01*
X182303883Y-123942162D01*
X182287088Y-123874341D01*
X182309625Y-123808206D01*
X182364340Y-123764754D01*
X182371965Y-123761946D01*
X182529047Y-123709896D01*
X182678468Y-123617732D01*
X182802607Y-123493593D01*
X182802610Y-123493587D01*
X182803039Y-123493159D01*
X182864362Y-123459674D01*
X182934054Y-123464658D01*
X182989988Y-123506529D01*
X183014405Y-123571993D01*
X183013194Y-123600237D01*
X182999500Y-123686701D01*
X182999500Y-123883547D01*
X183030290Y-124077951D01*
X183091117Y-124265154D01*
X183180476Y-124440530D01*
X183296172Y-124599771D01*
X183435354Y-124738953D01*
X183594595Y-124854649D01*
X183714374Y-124915679D01*
X183771213Y-124944640D01*
X183822009Y-124992614D01*
X183838804Y-125060435D01*
X183816267Y-125126570D01*
X183771213Y-125165610D01*
X183594594Y-125255601D01*
X183561120Y-125279922D01*
X183435354Y-125371297D01*
X183435352Y-125371299D01*
X183435351Y-125371299D01*
X183296174Y-125510476D01*
X183296174Y-125510477D01*
X183296172Y-125510479D01*
X183270982Y-125545150D01*
X183180476Y-125669719D01*
X183091117Y-125845095D01*
X183030290Y-126032298D01*
X182999500Y-126226702D01*
X182999500Y-126423547D01*
X183030290Y-126617951D01*
X183091117Y-126805154D01*
X183180476Y-126980530D01*
X183296172Y-127139771D01*
X183435354Y-127278953D01*
X183594595Y-127394649D01*
X183717992Y-127457522D01*
X183771213Y-127484640D01*
X183822009Y-127532614D01*
X183838804Y-127600435D01*
X183816267Y-127666570D01*
X183771213Y-127705610D01*
X183594594Y-127795601D01*
X183503741Y-127861610D01*
X183435354Y-127911297D01*
X183435352Y-127911299D01*
X183435351Y-127911299D01*
X183296174Y-128050476D01*
X183296174Y-128050477D01*
X183296172Y-128050479D01*
X183270982Y-128085150D01*
X183180476Y-128209719D01*
X183091117Y-128385095D01*
X183030290Y-128572298D01*
X182999500Y-128766702D01*
X182999500Y-128963547D01*
X183030290Y-129157951D01*
X183091117Y-129345154D01*
X183180476Y-129520530D01*
X183296172Y-129679771D01*
X183435354Y-129818953D01*
X183594595Y-129934649D01*
X183677455Y-129976868D01*
X183769970Y-130024007D01*
X183769972Y-130024007D01*
X183769975Y-130024009D01*
X183839835Y-130046708D01*
X183957173Y-130084834D01*
X184151578Y-130115625D01*
X184151583Y-130115625D01*
X184348422Y-130115625D01*
X184542826Y-130084834D01*
X184730025Y-130024009D01*
X184905405Y-129934649D01*
X185064646Y-129818953D01*
X185203828Y-129679771D01*
X185319524Y-129520530D01*
X185408884Y-129345150D01*
X185469709Y-129157951D01*
X185481164Y-129085625D01*
X185500500Y-128963547D01*
X185500500Y-128766702D01*
X185469709Y-128572298D01*
X185420150Y-128419773D01*
X185408884Y-128385100D01*
X185408882Y-128385097D01*
X185408882Y-128385095D01*
X185319523Y-128209719D01*
X185203828Y-128050479D01*
X185064646Y-127911297D01*
X184985025Y-127853449D01*
X184905403Y-127795599D01*
X184728787Y-127705610D01*
X184677990Y-127657636D01*
X184661195Y-127589815D01*
X184683732Y-127523680D01*
X184728787Y-127484640D01*
X184905403Y-127394650D01*
X184905402Y-127394650D01*
X184905405Y-127394649D01*
X185064646Y-127278953D01*
X185203828Y-127139771D01*
X185319524Y-126980530D01*
X185408884Y-126805150D01*
X185469709Y-126617951D01*
X185495868Y-126452790D01*
X185500500Y-126423547D01*
X185500500Y-126226702D01*
X185469709Y-126032298D01*
X185420150Y-125879773D01*
X185408884Y-125845100D01*
X185408882Y-125845097D01*
X185408882Y-125845095D01*
X185319523Y-125669719D01*
X185203828Y-125510479D01*
X185064646Y-125371297D01*
X184908783Y-125258055D01*
X184905403Y-125255599D01*
X184728787Y-125165610D01*
X184677990Y-125117636D01*
X184661195Y-125049815D01*
X184683732Y-124983680D01*
X184728787Y-124944640D01*
X184905403Y-124854650D01*
X184905402Y-124854650D01*
X184905405Y-124854649D01*
X185064646Y-124738953D01*
X185203828Y-124599771D01*
X185319524Y-124440530D01*
X185408884Y-124265150D01*
X185452100Y-124132144D01*
X185491538Y-124074470D01*
X185555897Y-124047272D01*
X185624743Y-124059187D01*
X185657712Y-124082783D01*
X187305325Y-125730397D01*
X187305331Y-125730402D01*
X187411874Y-125801591D01*
X187481221Y-125830314D01*
X187530256Y-125850626D01*
X187530259Y-125850626D01*
X187530260Y-125850627D01*
X187655928Y-125875625D01*
X187655931Y-125875625D01*
X193974071Y-125875625D01*
X194058615Y-125858807D01*
X194099744Y-125850626D01*
X194218127Y-125801590D01*
X194239499Y-125787310D01*
X194324669Y-125730402D01*
X197273127Y-122781944D01*
X197334450Y-122748459D01*
X197360808Y-122745625D01*
X200016070Y-122745625D01*
X200083109Y-122765310D01*
X200128864Y-122818114D01*
X200138808Y-122887272D01*
X200126555Y-122925920D01*
X200081117Y-123015095D01*
X200020290Y-123202298D01*
X199989500Y-123396702D01*
X199989500Y-123593547D01*
X200020290Y-123787951D01*
X200081117Y-123975154D01*
X200133495Y-124077951D01*
X200170476Y-124150530D01*
X200286172Y-124309771D01*
X200425354Y-124448953D01*
X200584595Y-124564649D01*
X200644443Y-124595143D01*
X200759970Y-124654007D01*
X200759972Y-124654007D01*
X200759975Y-124654009D01*
X200860317Y-124686612D01*
X200947173Y-124714834D01*
X201141578Y-124745625D01*
X201141583Y-124745625D01*
X201338422Y-124745625D01*
X201532826Y-124714834D01*
X201584875Y-124697922D01*
X201720025Y-124654009D01*
X201895405Y-124564649D01*
X202054646Y-124448953D01*
X202193828Y-124309771D01*
X202309524Y-124150530D01*
X202398884Y-123975150D01*
X202459709Y-123787951D01*
X202462444Y-123770685D01*
X202490500Y-123593547D01*
X202490500Y-123396702D01*
X204869500Y-123396702D01*
X204869500Y-123593547D01*
X204900290Y-123787951D01*
X204961117Y-123975154D01*
X205013495Y-124077951D01*
X205050476Y-124150530D01*
X205166172Y-124309771D01*
X205305354Y-124448953D01*
X205464595Y-124564649D01*
X205524443Y-124595143D01*
X205639970Y-124654007D01*
X205639972Y-124654007D01*
X205639975Y-124654009D01*
X205740317Y-124686612D01*
X205827173Y-124714834D01*
X206021578Y-124745625D01*
X206021583Y-124745625D01*
X206218422Y-124745625D01*
X206412826Y-124714834D01*
X206464875Y-124697922D01*
X206600025Y-124654009D01*
X206775405Y-124564649D01*
X206934646Y-124448953D01*
X207073828Y-124309771D01*
X207189524Y-124150530D01*
X207278884Y-123975150D01*
X207339709Y-123787951D01*
X207342444Y-123770685D01*
X207370500Y-123593547D01*
X207370500Y-123396702D01*
X207339709Y-123202298D01*
X207298240Y-123074671D01*
X207278884Y-123015100D01*
X207278882Y-123015097D01*
X207278882Y-123015095D01*
X207213753Y-122887272D01*
X207189524Y-122839720D01*
X207073828Y-122680479D01*
X206934646Y-122541297D01*
X206775405Y-122425601D01*
X206726385Y-122400624D01*
X206600029Y-122336242D01*
X206412826Y-122275415D01*
X206218422Y-122244625D01*
X206218417Y-122244625D01*
X206021583Y-122244625D01*
X206021578Y-122244625D01*
X205827173Y-122275415D01*
X205639970Y-122336242D01*
X205464594Y-122425601D01*
X205379962Y-122487091D01*
X205305354Y-122541297D01*
X205305352Y-122541299D01*
X205305351Y-122541299D01*
X205166174Y-122680476D01*
X205166174Y-122680477D01*
X205166172Y-122680479D01*
X205137178Y-122720386D01*
X205050476Y-122839719D01*
X204961117Y-123015095D01*
X204900290Y-123202298D01*
X204869500Y-123396702D01*
X202490500Y-123396702D01*
X202459709Y-123202298D01*
X202418240Y-123074671D01*
X202398884Y-123015100D01*
X202398882Y-123015097D01*
X202398882Y-123015095D01*
X202333753Y-122887272D01*
X202309524Y-122839720D01*
X202193828Y-122680479D01*
X202054646Y-122541297D01*
X201895405Y-122425601D01*
X201846385Y-122400624D01*
X201720029Y-122336242D01*
X201532827Y-122275416D01*
X201413509Y-122256517D01*
X201350375Y-122226587D01*
X201313444Y-122167275D01*
X201314442Y-122097413D01*
X201345224Y-122046367D01*
X205358898Y-118032692D01*
X205420219Y-117999209D01*
X205422284Y-117998778D01*
X205489464Y-117985416D01*
X205618069Y-117932146D01*
X205635139Y-117925076D01*
X205635139Y-117925075D01*
X205635146Y-117925073D01*
X205766256Y-117837468D01*
X205877756Y-117725968D01*
X205965361Y-117594858D01*
X206025704Y-117449176D01*
X206056467Y-117294521D01*
X206056467Y-117136837D01*
X206056467Y-117136834D01*
X206026142Y-116984383D01*
X206026141Y-116984381D01*
X206025704Y-116982182D01*
X206022608Y-116974707D01*
X206019117Y-116966278D01*
X206359500Y-116966278D01*
X206359500Y-117123971D01*
X206390261Y-117278614D01*
X206390264Y-117278626D01*
X206450602Y-117424297D01*
X206450609Y-117424310D01*
X206538210Y-117555413D01*
X206538213Y-117555417D01*
X206649707Y-117666911D01*
X206649711Y-117666914D01*
X206780814Y-117754515D01*
X206780827Y-117754522D01*
X206868230Y-117790724D01*
X206926503Y-117814862D01*
X206993580Y-117828204D01*
X207055488Y-117860586D01*
X207057012Y-117862083D01*
X207115331Y-117920402D01*
X207123148Y-117925625D01*
X207205125Y-117980400D01*
X207205126Y-117980400D01*
X207205127Y-117980401D01*
X207221873Y-117991590D01*
X207340256Y-118040626D01*
X207340260Y-118040626D01*
X207340261Y-118040627D01*
X207465928Y-118065625D01*
X207465931Y-118065625D01*
X208945162Y-118065625D01*
X209012201Y-118085310D01*
X209057956Y-118138114D01*
X209059715Y-118142154D01*
X209060606Y-118144304D01*
X209060607Y-118144305D01*
X209060609Y-118144310D01*
X209148210Y-118275413D01*
X209148213Y-118275417D01*
X209259707Y-118386911D01*
X209259711Y-118386914D01*
X209390814Y-118474515D01*
X209390827Y-118474522D01*
X209480321Y-118511591D01*
X209536503Y-118534862D01*
X209666032Y-118560627D01*
X209691153Y-118565624D01*
X209691156Y-118565625D01*
X209691158Y-118565625D01*
X209848844Y-118565625D01*
X209848845Y-118565624D01*
X210003497Y-118534862D01*
X210149179Y-118474519D01*
X210280289Y-118386914D01*
X210391789Y-118275414D01*
X210479394Y-118144304D01*
X210480276Y-118142176D01*
X210522338Y-118040627D01*
X210539737Y-117998622D01*
X210570500Y-117843967D01*
X210570500Y-117686283D01*
X210570500Y-117686280D01*
X210570499Y-117686278D01*
X210560381Y-117635413D01*
X210539737Y-117531628D01*
X210528416Y-117504297D01*
X210479397Y-117385952D01*
X210479390Y-117385939D01*
X210391789Y-117254836D01*
X210391786Y-117254832D01*
X210280292Y-117143338D01*
X210280288Y-117143335D01*
X210149185Y-117055734D01*
X210149172Y-117055727D01*
X210003501Y-116995389D01*
X210003489Y-116995386D01*
X209936420Y-116982045D01*
X209874509Y-116949660D01*
X209872929Y-116948108D01*
X209834673Y-116909852D01*
X209834673Y-116909851D01*
X209832590Y-116908459D01*
X209728127Y-116838660D01*
X209722912Y-116836500D01*
X209609744Y-116789624D01*
X209609738Y-116789622D01*
X209484071Y-116764625D01*
X209484069Y-116764625D01*
X207993122Y-116764625D01*
X207926083Y-116744940D01*
X207880328Y-116692136D01*
X207878570Y-116688099D01*
X207869394Y-116665946D01*
X207869390Y-116665939D01*
X207781789Y-116534836D01*
X207781786Y-116534832D01*
X207670292Y-116423338D01*
X207670288Y-116423335D01*
X207539185Y-116335734D01*
X207539172Y-116335727D01*
X207393501Y-116275389D01*
X207393489Y-116275386D01*
X207238845Y-116244625D01*
X207238842Y-116244625D01*
X207081158Y-116244625D01*
X207081155Y-116244625D01*
X206926510Y-116275386D01*
X206926498Y-116275389D01*
X206780827Y-116335727D01*
X206780814Y-116335734D01*
X206649711Y-116423335D01*
X206649707Y-116423338D01*
X206538213Y-116534832D01*
X206538210Y-116534836D01*
X206450609Y-116665939D01*
X206450602Y-116665952D01*
X206390264Y-116811623D01*
X206390261Y-116811635D01*
X206359500Y-116966278D01*
X206019117Y-116966278D01*
X205965364Y-116836506D01*
X205965357Y-116836493D01*
X205877756Y-116705390D01*
X205877753Y-116705386D01*
X205766259Y-116593892D01*
X205766255Y-116593889D01*
X205635152Y-116506288D01*
X205635139Y-116506281D01*
X205489468Y-116445943D01*
X205489456Y-116445940D01*
X205334812Y-116415179D01*
X205334809Y-116415179D01*
X205177125Y-116415179D01*
X205177122Y-116415179D01*
X205022477Y-116445940D01*
X205022465Y-116445943D01*
X204876794Y-116506281D01*
X204876781Y-116506288D01*
X204745678Y-116593889D01*
X204745674Y-116593892D01*
X204634180Y-116705386D01*
X204634177Y-116705390D01*
X204546576Y-116836493D01*
X204546569Y-116836506D01*
X204486231Y-116982177D01*
X204486228Y-116982187D01*
X204472887Y-117049258D01*
X204440502Y-117111169D01*
X204438951Y-117112747D01*
X204265016Y-117286682D01*
X204203693Y-117320167D01*
X204134001Y-117315183D01*
X204108444Y-117302103D01*
X203979185Y-117215734D01*
X203979172Y-117215727D01*
X203833501Y-117155389D01*
X203833489Y-117155386D01*
X203678845Y-117124625D01*
X203678842Y-117124625D01*
X203521158Y-117124625D01*
X203521155Y-117124625D01*
X203366510Y-117155386D01*
X203366498Y-117155389D01*
X203220827Y-117215727D01*
X203220815Y-117215734D01*
X203148990Y-117263727D01*
X203082313Y-117284605D01*
X203080099Y-117284625D01*
X202280808Y-117284625D01*
X202213769Y-117264940D01*
X202193127Y-117248306D01*
X201805604Y-116860783D01*
X201772119Y-116799460D01*
X201771668Y-116748914D01*
X201800500Y-116603967D01*
X201800500Y-116446283D01*
X201800500Y-116446280D01*
X201800499Y-116446278D01*
X201795936Y-116423338D01*
X201769737Y-116291628D01*
X201720423Y-116172574D01*
X201712955Y-116103106D01*
X201720424Y-116077671D01*
X201769737Y-115958619D01*
X201800500Y-115803964D01*
X201800500Y-115646280D01*
X201800500Y-115646277D01*
X201800499Y-115646275D01*
X201780499Y-115545731D01*
X201769737Y-115491625D01*
X201709394Y-115345943D01*
X201709390Y-115345937D01*
X201706521Y-115340569D01*
X201708452Y-115339536D01*
X201690520Y-115282259D01*
X201690500Y-115280051D01*
X201690500Y-114252798D01*
X201710185Y-114185759D01*
X201762989Y-114140004D01*
X201814500Y-114128798D01*
X201902017Y-114128798D01*
X201902018Y-114128797D01*
X202056670Y-114098035D01*
X202202352Y-114037692D01*
X202333462Y-113950087D01*
X202444962Y-113838587D01*
X202532567Y-113707477D01*
X202592910Y-113561795D01*
X202623673Y-113407140D01*
X202623673Y-113249456D01*
X202623673Y-113249453D01*
X202623672Y-113249451D01*
X202592910Y-113094801D01*
X202581096Y-113066280D01*
X202532570Y-112949125D01*
X202532563Y-112949112D01*
X202481398Y-112872538D01*
X202460520Y-112805860D01*
X202460500Y-112803647D01*
X202460500Y-112423628D01*
X202480185Y-112356589D01*
X202532989Y-112310834D01*
X202560306Y-112302011D01*
X202573846Y-112299318D01*
X202719528Y-112238975D01*
X202850638Y-112151370D01*
X202962138Y-112039870D01*
X203049743Y-111908760D01*
X203110086Y-111763078D01*
X203140849Y-111608423D01*
X203140849Y-111450739D01*
X203140849Y-111450736D01*
X203140848Y-111450734D01*
X203136806Y-111430416D01*
X203110086Y-111296084D01*
X203073632Y-111208076D01*
X203049939Y-111150874D01*
X203040500Y-111103422D01*
X203040500Y-110731053D01*
X203015502Y-110605386D01*
X203015501Y-110605385D01*
X203015501Y-110605381D01*
X202966465Y-110486998D01*
X202954427Y-110468982D01*
X202895277Y-110380456D01*
X202895275Y-110380454D01*
X202895273Y-110380451D01*
X202862128Y-110347306D01*
X202828643Y-110285983D01*
X202833627Y-110216291D01*
X202875499Y-110160358D01*
X202940963Y-110135941D01*
X202949809Y-110135625D01*
X204369192Y-110135625D01*
X204436231Y-110155310D01*
X204456873Y-110171944D01*
X204645949Y-110361020D01*
X204661369Y-110379809D01*
X204674722Y-110399793D01*
X204674727Y-110399799D01*
X205055328Y-110780400D01*
X205155187Y-110847123D01*
X205161872Y-110851590D01*
X205241069Y-110884394D01*
X205280256Y-110900626D01*
X205283260Y-110901223D01*
X205295059Y-110904179D01*
X205296899Y-110904737D01*
X205296904Y-110904739D01*
X205296908Y-110904739D01*
X205296909Y-110904740D01*
X205422576Y-110929738D01*
X205422579Y-110929738D01*
X206089195Y-110929738D01*
X206097893Y-110928007D01*
X206122085Y-110925625D01*
X206694071Y-110925625D01*
X206801882Y-110904179D01*
X206819744Y-110900626D01*
X206938127Y-110851590D01*
X206944813Y-110847123D01*
X206993092Y-110814864D01*
X207044669Y-110780402D01*
X207422319Y-110402752D01*
X207483642Y-110369267D01*
X207553333Y-110374251D01*
X207597681Y-110402752D01*
X210815324Y-113620396D01*
X210815327Y-113620399D01*
X210893046Y-113672329D01*
X210893045Y-113672329D01*
X210914689Y-113686790D01*
X210921873Y-113691590D01*
X211040256Y-113740626D01*
X211040260Y-113740626D01*
X211040261Y-113740627D01*
X211165928Y-113765625D01*
X211165931Y-113765625D01*
X211661377Y-113765625D01*
X211728416Y-113785310D01*
X211736863Y-113791249D01*
X211768220Y-113815310D01*
X211810386Y-113847665D01*
X211810388Y-113847665D01*
X211810390Y-113847667D01*
X211877755Y-113875570D01*
X211950688Y-113905780D01*
X212063446Y-113920625D01*
X212063453Y-113920625D01*
X213476547Y-113920625D01*
X213476554Y-113920625D01*
X213589312Y-113905780D01*
X213662246Y-113875569D01*
X213731712Y-113868100D01*
X213794192Y-113899374D01*
X213797378Y-113902449D01*
X213953181Y-114058252D01*
X213986666Y-114119575D01*
X213989500Y-114145933D01*
X213989500Y-114429627D01*
X213989501Y-114680625D01*
X213969817Y-114747664D01*
X213917013Y-114793419D01*
X213865501Y-114804625D01*
X212686228Y-114804625D01*
X212521925Y-114837307D01*
X212521917Y-114837309D01*
X212517539Y-114839122D01*
X212514971Y-114840186D01*
X212467520Y-114849625D01*
X212063438Y-114849625D01*
X211950688Y-114864470D01*
X211950684Y-114864471D01*
X211810390Y-114922582D01*
X211810389Y-114922582D01*
X211689907Y-115015032D01*
X211597457Y-115135514D01*
X211597457Y-115135515D01*
X211539346Y-115275809D01*
X211539345Y-115275813D01*
X211524500Y-115388563D01*
X211524500Y-115921686D01*
X211539345Y-116034436D01*
X211539346Y-116034440D01*
X211597457Y-116174734D01*
X211597457Y-116174735D01*
X211597459Y-116174738D01*
X211597460Y-116174739D01*
X211689907Y-116295218D01*
X211810386Y-116387665D01*
X211810389Y-116387666D01*
X211810390Y-116387667D01*
X211831136Y-116396260D01*
X211950688Y-116445780D01*
X212063446Y-116460625D01*
X212467520Y-116460625D01*
X212514971Y-116470063D01*
X212521918Y-116472941D01*
X212645044Y-116497432D01*
X212686228Y-116505624D01*
X212686232Y-116505625D01*
X212686233Y-116505625D01*
X215793768Y-116505625D01*
X215793769Y-116505624D01*
X215958082Y-116472941D01*
X216012498Y-116450401D01*
X216015895Y-116448993D01*
X216085362Y-116441528D01*
X216147840Y-116472806D01*
X216183490Y-116532897D01*
X216180993Y-116602722D01*
X216166442Y-116632448D01*
X216090609Y-116745939D01*
X216090602Y-116745952D01*
X216030264Y-116891623D01*
X216030261Y-116891635D01*
X215999500Y-117046278D01*
X215999500Y-117203971D01*
X216030261Y-117358614D01*
X216030264Y-117358626D01*
X216090602Y-117504297D01*
X216090609Y-117504310D01*
X216178210Y-117635413D01*
X216178213Y-117635417D01*
X216289707Y-117746911D01*
X216289711Y-117746914D01*
X216420814Y-117834515D01*
X216420827Y-117834522D01*
X216539707Y-117883763D01*
X216566503Y-117894862D01*
X216718363Y-117925069D01*
X216721153Y-117925624D01*
X216721156Y-117925625D01*
X216721158Y-117925625D01*
X216878844Y-117925625D01*
X216957602Y-117909958D01*
X216982429Y-117905020D01*
X217052021Y-117911247D01*
X217107198Y-117954110D01*
X217109722Y-117957745D01*
X217128208Y-117985411D01*
X217128213Y-117985417D01*
X217239707Y-118096911D01*
X217239711Y-118096914D01*
X217370814Y-118184515D01*
X217370827Y-118184522D01*
X217458230Y-118220724D01*
X217516503Y-118244862D01*
X217583580Y-118258204D01*
X217645488Y-118290586D01*
X217647069Y-118292140D01*
X217685326Y-118330397D01*
X217685328Y-118330400D01*
X217775465Y-118390627D01*
X217775464Y-118390627D01*
X217791871Y-118401589D01*
X217791872Y-118401589D01*
X217791873Y-118401590D01*
X217910256Y-118450626D01*
X217910260Y-118450626D01*
X217910261Y-118450627D01*
X218035928Y-118475625D01*
X218035931Y-118475625D01*
X224730192Y-118475625D01*
X224797231Y-118495310D01*
X224842986Y-118548114D01*
X224852930Y-118617272D01*
X224823905Y-118680828D01*
X224817873Y-118687306D01*
X223566873Y-119938306D01*
X223505550Y-119971791D01*
X223479192Y-119974625D01*
X216204935Y-119974625D01*
X216137896Y-119954940D01*
X216136090Y-119953758D01*
X216079179Y-119915731D01*
X216079172Y-119915727D01*
X215933501Y-119855389D01*
X215933489Y-119855386D01*
X215778845Y-119824625D01*
X215778842Y-119824625D01*
X215621158Y-119824625D01*
X215621155Y-119824625D01*
X215466510Y-119855386D01*
X215466498Y-119855389D01*
X215320827Y-119915727D01*
X215320814Y-119915734D01*
X215189711Y-120003335D01*
X215189707Y-120003338D01*
X215078213Y-120114832D01*
X215078210Y-120114836D01*
X214990609Y-120245939D01*
X214990602Y-120245952D01*
X214930264Y-120391623D01*
X214930261Y-120391635D01*
X214899500Y-120546278D01*
X214899500Y-120703971D01*
X214930261Y-120858614D01*
X214930264Y-120858626D01*
X214990602Y-121004297D01*
X214990609Y-121004310D01*
X215078210Y-121135413D01*
X215078213Y-121135417D01*
X215189707Y-121246911D01*
X215189711Y-121246914D01*
X215320814Y-121334515D01*
X215320827Y-121334522D01*
X215466498Y-121394860D01*
X215466503Y-121394862D01*
X215621153Y-121425624D01*
X215621156Y-121425625D01*
X215621158Y-121425625D01*
X215778844Y-121425625D01*
X215778845Y-121425624D01*
X215933497Y-121394862D01*
X216065092Y-121340354D01*
X216079172Y-121334522D01*
X216079172Y-121334521D01*
X216079179Y-121334519D01*
X216136044Y-121296522D01*
X216202721Y-121275645D01*
X216204935Y-121275625D01*
X223864071Y-121275625D01*
X223948615Y-121258807D01*
X223989744Y-121250626D01*
X224108127Y-121201590D01*
X224117995Y-121194996D01*
X224124589Y-121190591D01*
X224184506Y-121150555D01*
X224214669Y-121130402D01*
X234305277Y-111039794D01*
X234376466Y-110933251D01*
X234408493Y-110855929D01*
X234425501Y-110814869D01*
X234432357Y-110780402D01*
X234450500Y-110689196D01*
X234450500Y-110172668D01*
X234470185Y-110105629D01*
X234522989Y-110059874D01*
X234592147Y-110049930D01*
X234637575Y-110067339D01*
X234637946Y-110066646D01*
X234643327Y-110069522D01*
X234733601Y-110106914D01*
X234789003Y-110129862D01*
X234916938Y-110155310D01*
X234943653Y-110160624D01*
X234943656Y-110160625D01*
X234943658Y-110160625D01*
X235101344Y-110160625D01*
X235101345Y-110160624D01*
X235255997Y-110129862D01*
X235401679Y-110069519D01*
X235532789Y-109981914D01*
X235644289Y-109870414D01*
X235731894Y-109739304D01*
X235792237Y-109593622D01*
X235804436Y-109532295D01*
X235836820Y-109470384D01*
X235897536Y-109435810D01*
X235967306Y-109439549D01*
X236013734Y-109468805D01*
X238250681Y-111705752D01*
X238284166Y-111767075D01*
X238287000Y-111793433D01*
X238287000Y-112040625D01*
X238267315Y-112107664D01*
X238214511Y-112153419D01*
X238168860Y-112164486D01*
X238165922Y-112164625D01*
X238061158Y-112164625D01*
X238028459Y-112171129D01*
X238019203Y-112171567D01*
X237993891Y-112165417D01*
X237967940Y-112163095D01*
X237960482Y-112157301D01*
X237951309Y-112155073D01*
X237933338Y-112136214D01*
X237912764Y-112120231D01*
X237908270Y-112109907D01*
X237903109Y-112104491D01*
X237900887Y-112092946D01*
X237891726Y-112071898D01*
X237879738Y-112011633D01*
X237879737Y-112011632D01*
X237879737Y-112011628D01*
X237845640Y-111929309D01*
X237819397Y-111865952D01*
X237819390Y-111865939D01*
X237731789Y-111734836D01*
X237731786Y-111734832D01*
X237620292Y-111623338D01*
X237620288Y-111623335D01*
X237489185Y-111535734D01*
X237489172Y-111535727D01*
X237343501Y-111475389D01*
X237343489Y-111475386D01*
X237188845Y-111444625D01*
X237188842Y-111444625D01*
X237031158Y-111444625D01*
X237031155Y-111444625D01*
X236876510Y-111475386D01*
X236876498Y-111475389D01*
X236730827Y-111535727D01*
X236730814Y-111535734D01*
X236599711Y-111623335D01*
X236599707Y-111623338D01*
X236488213Y-111734832D01*
X236488210Y-111734836D01*
X236400609Y-111865939D01*
X236400602Y-111865952D01*
X236340264Y-112011623D01*
X236340261Y-112011635D01*
X236309500Y-112166278D01*
X236309500Y-112323971D01*
X236340261Y-112478614D01*
X236340264Y-112478626D01*
X236400602Y-112624297D01*
X236400604Y-112624301D01*
X236400606Y-112624304D01*
X236408602Y-112636272D01*
X236429480Y-112702946D01*
X236429500Y-112705161D01*
X236429500Y-114634316D01*
X236409815Y-114701355D01*
X236393181Y-114721997D01*
X232802549Y-118312628D01*
X232741226Y-118346113D01*
X232671534Y-118341129D01*
X232658574Y-118335432D01*
X232569219Y-118289904D01*
X232374536Y-118226648D01*
X232239746Y-118205299D01*
X232172352Y-118194625D01*
X231967648Y-118194625D01*
X231943329Y-118198476D01*
X231765465Y-118226647D01*
X231570776Y-118289906D01*
X231388386Y-118382840D01*
X231222786Y-118503153D01*
X231078028Y-118647911D01*
X230957715Y-118813511D01*
X230864781Y-118995901D01*
X230801522Y-119190590D01*
X230769500Y-119392773D01*
X230769500Y-119597476D01*
X230801522Y-119799659D01*
X230864781Y-119994348D01*
X230957715Y-120176738D01*
X231078028Y-120342338D01*
X231143134Y-120407444D01*
X231176619Y-120468767D01*
X231171635Y-120538459D01*
X231143134Y-120582806D01*
X231078032Y-120647907D01*
X231078028Y-120647911D01*
X230957715Y-120813511D01*
X230864781Y-120995901D01*
X230801522Y-121190590D01*
X230769500Y-121392773D01*
X230769500Y-121597476D01*
X230801522Y-121799659D01*
X230864781Y-121994348D01*
X230957715Y-122176738D01*
X231078028Y-122342338D01*
X231222784Y-122487094D01*
X231294301Y-122539053D01*
X231336968Y-122594383D01*
X231342947Y-122663996D01*
X231310342Y-122725791D01*
X231260427Y-122757076D01*
X231250671Y-122760309D01*
X231250663Y-122760312D01*
X231101342Y-122852414D01*
X230977289Y-122976467D01*
X230885187Y-123125788D01*
X230885185Y-123125793D01*
X230868043Y-123177524D01*
X230830001Y-123292328D01*
X230830001Y-123292329D01*
X230830000Y-123292329D01*
X230819500Y-123395108D01*
X230819500Y-124595126D01*
X230819501Y-124595143D01*
X230830000Y-124697921D01*
X230830001Y-124697924D01*
X230854647Y-124772299D01*
X230885186Y-124864459D01*
X230977288Y-125013781D01*
X231101344Y-125137837D01*
X231160596Y-125174383D01*
X231207321Y-125226329D01*
X231219500Y-125279922D01*
X231219500Y-130631473D01*
X231199815Y-130698512D01*
X231183181Y-130719154D01*
X230239375Y-131662959D01*
X230239372Y-131662963D01*
X230146297Y-131802258D01*
X230146296Y-131802261D01*
X230082184Y-131957042D01*
X230082181Y-131957051D01*
X230049500Y-132121353D01*
X230049500Y-132288896D01*
X230082181Y-132453198D01*
X230082184Y-132453207D01*
X230146296Y-132607988D01*
X230146297Y-132607991D01*
X230239372Y-132747286D01*
X230239375Y-132747290D01*
X230357834Y-132865749D01*
X230357838Y-132865752D01*
X230497133Y-132958827D01*
X230497135Y-132958827D01*
X230497137Y-132958829D01*
X230651919Y-133022941D01*
X230651921Y-133022941D01*
X230651926Y-133022943D01*
X230816228Y-133055624D01*
X230816232Y-133055625D01*
X230816233Y-133055625D01*
X230983768Y-133055625D01*
X230983769Y-133055624D01*
X231038538Y-133044730D01*
X231148073Y-133022943D01*
X231148076Y-133022941D01*
X231148081Y-133022941D01*
X231302863Y-132958829D01*
X231442162Y-132865752D01*
X232730627Y-131577287D01*
X232823704Y-131437988D01*
X232887816Y-131283206D01*
X232891036Y-131267022D01*
X232920499Y-131118896D01*
X232920500Y-131118893D01*
X232920500Y-125279922D01*
X232940185Y-125212883D01*
X232979403Y-125174383D01*
X233038656Y-125137837D01*
X233162712Y-125013781D01*
X233254814Y-124864459D01*
X233309999Y-124697922D01*
X233320500Y-124595134D01*
X233320499Y-123395117D01*
X233309999Y-123292328D01*
X233254814Y-123125791D01*
X233162712Y-122976469D01*
X233038656Y-122852413D01*
X232889334Y-122760311D01*
X232879573Y-122757076D01*
X232822130Y-122717302D01*
X232795310Y-122652785D01*
X232807627Y-122584010D01*
X232845696Y-122539054D01*
X232917219Y-122487091D01*
X233061966Y-122342344D01*
X233061968Y-122342340D01*
X233061971Y-122342338D01*
X233134263Y-122242835D01*
X233182287Y-122176735D01*
X233275220Y-121994344D01*
X233338477Y-121799659D01*
X233370500Y-121597477D01*
X233370500Y-121392773D01*
X233353451Y-121285133D01*
X233342345Y-121215011D01*
X233351300Y-121145718D01*
X233377134Y-121107935D01*
X238075321Y-116409749D01*
X238136642Y-116376266D01*
X238206334Y-116381250D01*
X238262267Y-116423122D01*
X238286684Y-116488586D01*
X238287000Y-116497432D01*
X238287000Y-119942197D01*
X238267315Y-120009236D01*
X238228098Y-120047734D01*
X238168555Y-120084461D01*
X238131342Y-120107414D01*
X238007289Y-120231467D01*
X237915187Y-120380788D01*
X237915185Y-120380793D01*
X237887349Y-120464795D01*
X237860001Y-120547328D01*
X237860001Y-120547329D01*
X237860000Y-120547329D01*
X237849500Y-120650108D01*
X237849500Y-121700126D01*
X237849501Y-121700144D01*
X237860000Y-121802921D01*
X237860001Y-121802924D01*
X237908294Y-121948660D01*
X237915186Y-121969459D01*
X238007288Y-122118781D01*
X238131344Y-122242837D01*
X238280666Y-122334939D01*
X238447203Y-122390124D01*
X238549991Y-122400625D01*
X238908848Y-122400624D01*
X238975887Y-122420308D01*
X238996529Y-122436943D01*
X240833181Y-124273594D01*
X240866666Y-124334917D01*
X240869500Y-124361275D01*
X240869500Y-126428599D01*
X240867117Y-126452790D01*
X240849500Y-126541354D01*
X240849500Y-128318896D01*
X240882182Y-128483199D01*
X240882184Y-128483207D01*
X240946295Y-128637985D01*
X241039373Y-128777287D01*
X241157837Y-128895751D01*
X241220523Y-128937636D01*
X241297137Y-128988828D01*
X241451918Y-129052941D01*
X241565839Y-129075601D01*
X241616228Y-129085624D01*
X241616232Y-129085625D01*
X241616233Y-129085625D01*
X241783768Y-129085625D01*
X241783769Y-129085624D01*
X241948082Y-129052941D01*
X242102863Y-128988828D01*
X242242162Y-128895751D01*
X242360626Y-128777287D01*
X242453703Y-128637988D01*
X242517816Y-128483207D01*
X242550500Y-128318892D01*
X242550500Y-126801650D01*
X242552883Y-126777458D01*
X242570500Y-126688892D01*
X242570500Y-123873858D01*
X242537816Y-123709543D01*
X242499786Y-123617732D01*
X242473704Y-123554762D01*
X242473702Y-123554759D01*
X242473700Y-123554754D01*
X242420307Y-123474849D01*
X242380626Y-123415463D01*
X242380622Y-123415459D01*
X242380620Y-123415456D01*
X240061818Y-121096654D01*
X240028333Y-121035331D01*
X240025499Y-121008973D01*
X240025499Y-120650123D01*
X240025498Y-120650106D01*
X240014999Y-120547328D01*
X240014998Y-120547325D01*
X240000363Y-120503159D01*
X239959814Y-120380791D01*
X239867712Y-120231469D01*
X239743656Y-120107413D01*
X239646902Y-120047735D01*
X239600179Y-119995788D01*
X239588000Y-119942197D01*
X239588000Y-111408553D01*
X239563002Y-111282886D01*
X239563001Y-111282885D01*
X239563001Y-111282881D01*
X239513965Y-111164498D01*
X239504862Y-111150874D01*
X239503739Y-111149193D01*
X239442775Y-111057953D01*
X239442772Y-111057950D01*
X238418693Y-110033872D01*
X238385208Y-109972549D01*
X238390192Y-109902857D01*
X238418694Y-109858509D01*
X238471786Y-109805417D01*
X238471789Y-109805414D01*
X238559394Y-109674304D01*
X238619737Y-109528622D01*
X238650500Y-109373967D01*
X238650500Y-109369354D01*
X238657346Y-109328723D01*
X238658542Y-109325272D01*
X238675121Y-109285249D01*
X238677084Y-109275381D01*
X238696932Y-109175601D01*
X238700120Y-109159576D01*
X238700120Y-107636278D01*
X241359500Y-107636278D01*
X241359500Y-107793971D01*
X241390261Y-107948614D01*
X241390264Y-107948626D01*
X241450602Y-108094297D01*
X241450609Y-108094310D01*
X241538210Y-108225413D01*
X241538213Y-108225417D01*
X241649707Y-108336911D01*
X241649711Y-108336914D01*
X241780814Y-108424515D01*
X241780827Y-108424522D01*
X241841389Y-108449607D01*
X241926503Y-108484862D01*
X241993580Y-108498204D01*
X242055490Y-108530588D01*
X242057069Y-108532140D01*
X242387801Y-108862872D01*
X242421286Y-108924195D01*
X242424120Y-108950553D01*
X242424120Y-111238936D01*
X242404435Y-111305975D01*
X242387801Y-111326617D01*
X242302474Y-111411944D01*
X242222938Y-111491480D01*
X242161615Y-111524964D01*
X242159449Y-111525415D01*
X242092378Y-111538756D01*
X242092368Y-111538759D01*
X241946697Y-111599097D01*
X241946684Y-111599104D01*
X241815581Y-111686705D01*
X241815577Y-111686708D01*
X241704083Y-111798202D01*
X241704080Y-111798206D01*
X241616479Y-111929309D01*
X241616472Y-111929322D01*
X241556134Y-112074993D01*
X241556131Y-112075005D01*
X241525370Y-112229648D01*
X241525370Y-112387341D01*
X241556131Y-112541984D01*
X241556134Y-112541996D01*
X241616472Y-112687667D01*
X241616479Y-112687680D01*
X241704080Y-112818783D01*
X241704083Y-112818787D01*
X241815577Y-112930281D01*
X241815581Y-112930284D01*
X241946684Y-113017885D01*
X241946697Y-113017892D01*
X242063513Y-113066278D01*
X242092373Y-113078232D01*
X242247023Y-113108994D01*
X242247026Y-113108995D01*
X242247028Y-113108995D01*
X242404714Y-113108995D01*
X242404715Y-113108994D01*
X242559367Y-113078232D01*
X242705049Y-113017889D01*
X242836159Y-112930284D01*
X242947659Y-112818784D01*
X243035264Y-112687674D01*
X243095607Y-112541992D01*
X243108949Y-112474911D01*
X243141333Y-112413004D01*
X243142774Y-112411535D01*
X243579896Y-111974415D01*
X243623765Y-111908760D01*
X243651084Y-111867874D01*
X243651883Y-111865946D01*
X243700121Y-111749489D01*
X243712610Y-111686705D01*
X243725120Y-111623816D01*
X243725120Y-108565673D01*
X243700122Y-108440006D01*
X243700121Y-108440005D01*
X243700121Y-108440001D01*
X243651085Y-108321618D01*
X243651084Y-108321617D01*
X243651080Y-108321609D01*
X243650911Y-108321357D01*
X243650860Y-108321282D01*
X243649456Y-108319181D01*
X243579897Y-108215076D01*
X243579895Y-108215074D01*
X243579893Y-108215071D01*
X243579892Y-108215070D01*
X242977014Y-107612193D01*
X242943529Y-107550870D01*
X242943105Y-107548839D01*
X242929737Y-107481628D01*
X242893569Y-107394310D01*
X242869397Y-107335952D01*
X242869390Y-107335939D01*
X242781789Y-107204836D01*
X242781786Y-107204832D01*
X242670292Y-107093338D01*
X242670288Y-107093335D01*
X242539185Y-107005734D01*
X242539172Y-107005727D01*
X242393501Y-106945389D01*
X242393489Y-106945386D01*
X242238845Y-106914625D01*
X242238842Y-106914625D01*
X242081158Y-106914625D01*
X242081155Y-106914625D01*
X241926510Y-106945386D01*
X241926498Y-106945389D01*
X241780827Y-107005727D01*
X241780814Y-107005734D01*
X241649711Y-107093335D01*
X241649707Y-107093338D01*
X241538213Y-107204832D01*
X241538210Y-107204836D01*
X241450609Y-107335939D01*
X241450602Y-107335952D01*
X241390264Y-107481623D01*
X241390261Y-107481635D01*
X241359500Y-107636278D01*
X238700120Y-107636278D01*
X238700120Y-104246312D01*
X238719805Y-104179273D01*
X238736434Y-104158636D01*
X240022931Y-102872138D01*
X240084252Y-102838655D01*
X240086317Y-102838224D01*
X240153497Y-102824862D01*
X240299179Y-102764519D01*
X240430289Y-102676914D01*
X240541789Y-102565414D01*
X240596773Y-102483125D01*
X240632779Y-102429239D01*
X240634801Y-102430590D01*
X240676246Y-102388385D01*
X240744381Y-102372913D01*
X240810065Y-102396733D01*
X240851221Y-102449220D01*
X240890602Y-102544297D01*
X240890609Y-102544310D01*
X240978210Y-102675413D01*
X240978213Y-102675417D01*
X241089707Y-102786911D01*
X241089711Y-102786914D01*
X241220814Y-102874515D01*
X241220827Y-102874522D01*
X241365245Y-102934341D01*
X241366503Y-102934862D01*
X241521153Y-102965624D01*
X241521156Y-102965625D01*
X241521158Y-102965625D01*
X241678844Y-102965625D01*
X241678845Y-102965624D01*
X241833497Y-102934862D01*
X241979179Y-102874519D01*
X242110289Y-102786914D01*
X242221789Y-102675414D01*
X242309394Y-102544304D01*
X242317004Y-102525933D01*
X242327921Y-102499575D01*
X242369737Y-102398622D01*
X242400500Y-102243967D01*
X242400500Y-102086283D01*
X242400500Y-102086280D01*
X242400499Y-102086278D01*
X242393672Y-102051959D01*
X242369737Y-101931628D01*
X242353153Y-101891590D01*
X242309397Y-101785952D01*
X242309390Y-101785939D01*
X242221789Y-101654836D01*
X242221787Y-101654833D01*
X242202757Y-101635804D01*
X242184164Y-101612013D01*
X242179406Y-101604100D01*
X242176465Y-101596998D01*
X242164856Y-101579624D01*
X242105277Y-101490456D01*
X242105275Y-101490454D01*
X242105273Y-101490451D01*
X241424673Y-100809851D01*
X241411081Y-100800769D01*
X241318127Y-100738660D01*
X241317236Y-100738291D01*
X241199744Y-100689624D01*
X241199738Y-100689622D01*
X241074071Y-100664625D01*
X241074069Y-100664625D01*
X238441569Y-100664625D01*
X238374530Y-100644940D01*
X238353888Y-100628306D01*
X238239369Y-100513787D01*
X238205884Y-100452464D01*
X238210868Y-100382772D01*
X238223946Y-100357219D01*
X238277858Y-100276534D01*
X238299389Y-100244312D01*
X238299390Y-100244309D01*
X238299394Y-100244304D01*
X238359737Y-100098622D01*
X238390500Y-99943967D01*
X238390500Y-99786283D01*
X238390500Y-99786280D01*
X238390499Y-99786278D01*
X238359738Y-99631635D01*
X238359737Y-99631628D01*
X238359735Y-99631623D01*
X238299397Y-99485952D01*
X238299390Y-99485939D01*
X238211789Y-99354836D01*
X238211786Y-99354832D01*
X238100292Y-99243338D01*
X238100288Y-99243335D01*
X237969181Y-99155732D01*
X237969172Y-99155727D01*
X237823501Y-99095389D01*
X237823489Y-99095386D01*
X237756420Y-99082045D01*
X237694509Y-99049660D01*
X237692930Y-99048109D01*
X233063659Y-94418838D01*
X241349500Y-94418838D01*
X241349500Y-94631411D01*
X241382753Y-94841364D01*
X241448444Y-95043539D01*
X241544951Y-95232945D01*
X241669890Y-95404911D01*
X241820213Y-95555234D01*
X241992179Y-95680173D01*
X241992181Y-95680174D01*
X241992184Y-95680176D01*
X242181588Y-95776682D01*
X242383757Y-95842371D01*
X242593713Y-95875625D01*
X242593714Y-95875625D01*
X242806286Y-95875625D01*
X242806287Y-95875625D01*
X243016243Y-95842371D01*
X243218412Y-95776682D01*
X243407816Y-95680176D01*
X243494138Y-95617460D01*
X243579786Y-95555234D01*
X243579788Y-95555231D01*
X243579792Y-95555229D01*
X243730104Y-95404917D01*
X243730106Y-95404913D01*
X243730109Y-95404911D01*
X243855048Y-95232945D01*
X243855047Y-95232945D01*
X243855051Y-95232941D01*
X243951557Y-95043537D01*
X244017246Y-94841368D01*
X244050500Y-94631412D01*
X244050500Y-94418838D01*
X244017246Y-94208882D01*
X243951557Y-94006713D01*
X243855051Y-93817309D01*
X243855049Y-93817306D01*
X243855048Y-93817304D01*
X243730109Y-93645338D01*
X243579786Y-93495015D01*
X243407820Y-93370076D01*
X243218414Y-93273569D01*
X243218413Y-93273568D01*
X243218412Y-93273568D01*
X243016243Y-93207879D01*
X243016241Y-93207878D01*
X243016240Y-93207878D01*
X242854957Y-93182333D01*
X242806287Y-93174625D01*
X242593713Y-93174625D01*
X242545042Y-93182333D01*
X242383760Y-93207878D01*
X242181585Y-93273569D01*
X241992179Y-93370076D01*
X241820213Y-93495015D01*
X241669890Y-93645338D01*
X241544951Y-93817304D01*
X241448444Y-94006710D01*
X241382753Y-94208885D01*
X241349500Y-94418838D01*
X233063659Y-94418838D01*
X230882127Y-92237306D01*
X230848642Y-92175983D01*
X230853626Y-92106291D01*
X230895498Y-92050358D01*
X230960962Y-92025941D01*
X230969808Y-92025625D01*
X242634108Y-92025625D01*
X242696249Y-92025625D01*
X242703736Y-92025851D01*
X242993796Y-92043396D01*
X243008657Y-92045200D01*
X243290797Y-92096905D01*
X243305334Y-92100488D01*
X243579182Y-92185823D01*
X243593163Y-92191125D01*
X243854734Y-92308849D01*
X243867987Y-92315805D01*
X244113458Y-92464196D01*
X244125776Y-92472698D01*
X244351573Y-92649599D01*
X244362781Y-92659529D01*
X244565595Y-92862343D01*
X244575525Y-92873551D01*
X244752422Y-93099342D01*
X244760928Y-93111666D01*
X244909319Y-93357137D01*
X244916277Y-93370394D01*
X245031875Y-93627241D01*
X245033994Y-93631948D01*
X245039304Y-93645950D01*
X245124635Y-93919789D01*
X245128219Y-93934327D01*
X245179923Y-94216465D01*
X245181728Y-94231330D01*
X245199274Y-94521388D01*
X245199500Y-94528875D01*
X245199500Y-138521374D01*
X245199274Y-138528861D01*
X245181728Y-138818919D01*
X245179923Y-138833784D01*
X245128219Y-139115922D01*
X245124635Y-139130460D01*
X245039304Y-139404299D01*
X245033994Y-139418301D01*
X244916277Y-139679855D01*
X244909319Y-139693112D01*
X244760928Y-139938583D01*
X244752422Y-139950907D01*
X244575525Y-140176698D01*
X244565595Y-140187906D01*
X244362781Y-140390720D01*
X244351573Y-140400650D01*
X244125782Y-140577547D01*
X244113458Y-140586053D01*
X243867987Y-140734444D01*
X243854730Y-140741402D01*
X243593176Y-140859119D01*
X243579174Y-140864429D01*
X243305335Y-140949760D01*
X243290797Y-140953344D01*
X243008659Y-141005048D01*
X242993794Y-141006853D01*
X242703736Y-141024399D01*
X242696249Y-141024625D01*
X168703751Y-141024625D01*
X168696264Y-141024399D01*
X168406205Y-141006853D01*
X168391340Y-141005048D01*
X168109202Y-140953344D01*
X168094664Y-140949760D01*
X167820825Y-140864429D01*
X167806827Y-140859120D01*
X167654096Y-140790381D01*
X167545269Y-140741402D01*
X167532012Y-140734444D01*
X167286541Y-140586053D01*
X167274217Y-140577547D01*
X167048426Y-140400650D01*
X167037218Y-140390720D01*
X166834404Y-140187906D01*
X166824474Y-140176698D01*
X166647573Y-139950901D01*
X166639071Y-139938583D01*
X166490680Y-139693112D01*
X166483722Y-139679855D01*
X166366000Y-139418288D01*
X166360698Y-139404307D01*
X166275363Y-139130459D01*
X166271780Y-139115922D01*
X166220076Y-138833784D01*
X166218271Y-138818919D01*
X166200726Y-138528861D01*
X166200500Y-138521374D01*
X166200500Y-138418838D01*
X167349500Y-138418838D01*
X167349500Y-138631411D01*
X167382753Y-138841364D01*
X167448444Y-139043539D01*
X167544951Y-139232945D01*
X167669890Y-139404911D01*
X167820213Y-139555234D01*
X167992179Y-139680173D01*
X167992181Y-139680174D01*
X167992184Y-139680176D01*
X168181588Y-139776682D01*
X168383757Y-139842371D01*
X168593713Y-139875625D01*
X168593714Y-139875625D01*
X168806286Y-139875625D01*
X168806287Y-139875625D01*
X169016243Y-139842371D01*
X169218412Y-139776682D01*
X169407816Y-139680176D01*
X169429789Y-139664211D01*
X169579786Y-139555234D01*
X169579788Y-139555231D01*
X169579792Y-139555229D01*
X169730104Y-139404917D01*
X169730106Y-139404913D01*
X169730109Y-139404911D01*
X169855048Y-139232945D01*
X169855047Y-139232945D01*
X169855051Y-139232941D01*
X169951557Y-139043537D01*
X170017246Y-138841368D01*
X170050500Y-138631412D01*
X170050500Y-138418838D01*
X241349500Y-138418838D01*
X241349500Y-138631411D01*
X241382753Y-138841364D01*
X241448444Y-139043539D01*
X241544951Y-139232945D01*
X241669890Y-139404911D01*
X241820213Y-139555234D01*
X241992179Y-139680173D01*
X241992181Y-139680174D01*
X241992184Y-139680176D01*
X242181588Y-139776682D01*
X242383757Y-139842371D01*
X242593713Y-139875625D01*
X242593714Y-139875625D01*
X242806286Y-139875625D01*
X242806287Y-139875625D01*
X243016243Y-139842371D01*
X243218412Y-139776682D01*
X243407816Y-139680176D01*
X243429789Y-139664211D01*
X243579786Y-139555234D01*
X243579788Y-139555231D01*
X243579792Y-139555229D01*
X243730104Y-139404917D01*
X243730106Y-139404913D01*
X243730109Y-139404911D01*
X243855048Y-139232945D01*
X243855047Y-139232945D01*
X243855051Y-139232941D01*
X243951557Y-139043537D01*
X244017246Y-138841368D01*
X244050500Y-138631412D01*
X244050500Y-138418838D01*
X244017246Y-138208882D01*
X243951557Y-138006713D01*
X243855051Y-137817309D01*
X243855049Y-137817306D01*
X243855048Y-137817304D01*
X243730109Y-137645338D01*
X243579786Y-137495015D01*
X243407820Y-137370076D01*
X243218414Y-137273569D01*
X243218413Y-137273568D01*
X243218412Y-137273568D01*
X243016243Y-137207879D01*
X243016241Y-137207878D01*
X243016240Y-137207878D01*
X242854957Y-137182333D01*
X242806287Y-137174625D01*
X242593713Y-137174625D01*
X242545042Y-137182333D01*
X242383760Y-137207878D01*
X242181585Y-137273569D01*
X241992179Y-137370076D01*
X241820213Y-137495015D01*
X241669890Y-137645338D01*
X241544951Y-137817304D01*
X241448444Y-138006710D01*
X241382753Y-138208885D01*
X241349500Y-138418838D01*
X170050500Y-138418838D01*
X170017246Y-138208882D01*
X169951557Y-138006713D01*
X169855051Y-137817309D01*
X169855049Y-137817306D01*
X169855048Y-137817304D01*
X169730109Y-137645338D01*
X169579786Y-137495015D01*
X169407820Y-137370076D01*
X169218414Y-137273569D01*
X169218413Y-137273568D01*
X169218412Y-137273568D01*
X169016243Y-137207879D01*
X169016241Y-137207878D01*
X169016240Y-137207878D01*
X168854957Y-137182333D01*
X168806287Y-137174625D01*
X168593713Y-137174625D01*
X168545042Y-137182333D01*
X168383760Y-137207878D01*
X168181585Y-137273569D01*
X167992179Y-137370076D01*
X167820213Y-137495015D01*
X167669890Y-137645338D01*
X167544951Y-137817304D01*
X167448444Y-138006710D01*
X167382753Y-138208885D01*
X167349500Y-138418838D01*
X166200500Y-138418838D01*
X166200500Y-130951702D01*
X169199500Y-130951702D01*
X169199500Y-131148547D01*
X169230290Y-131342951D01*
X169291117Y-131530154D01*
X169358785Y-131662959D01*
X169380476Y-131705530D01*
X169496172Y-131864771D01*
X169635354Y-132003953D01*
X169794595Y-132119649D01*
X169917992Y-132182522D01*
X169971213Y-132209640D01*
X170022009Y-132257614D01*
X170038804Y-132325435D01*
X170016267Y-132391570D01*
X169971213Y-132430610D01*
X169794594Y-132520601D01*
X169703741Y-132586610D01*
X169635354Y-132636297D01*
X169635352Y-132636299D01*
X169635351Y-132636299D01*
X169496174Y-132775476D01*
X169496174Y-132775477D01*
X169496172Y-132775479D01*
X169476144Y-132803045D01*
X169380476Y-132934719D01*
X169291117Y-133110095D01*
X169230290Y-133297298D01*
X169199500Y-133491702D01*
X169199500Y-133688547D01*
X169230290Y-133882951D01*
X169291117Y-134070154D01*
X169379130Y-134242888D01*
X169380476Y-134245530D01*
X169496172Y-134404771D01*
X169635354Y-134543953D01*
X169794595Y-134659649D01*
X169877455Y-134701868D01*
X169969970Y-134749007D01*
X169969972Y-134749007D01*
X169969975Y-134749009D01*
X170070317Y-134781612D01*
X170157173Y-134809834D01*
X170351578Y-134840625D01*
X170351583Y-134840625D01*
X170548422Y-134840625D01*
X170742826Y-134809834D01*
X170930025Y-134749009D01*
X171105405Y-134659649D01*
X171264646Y-134543953D01*
X171403828Y-134404771D01*
X171519524Y-134245530D01*
X171608884Y-134070150D01*
X171669709Y-133882951D01*
X171694831Y-133724337D01*
X171700500Y-133688547D01*
X171700500Y-133491702D01*
X171669709Y-133297298D01*
X171608882Y-133110095D01*
X171531808Y-132958829D01*
X171519524Y-132934720D01*
X171403828Y-132775479D01*
X171264646Y-132636297D01*
X171185025Y-132578449D01*
X171155765Y-132557190D01*
X173474500Y-132557190D01*
X173474500Y-132803059D01*
X173495009Y-132958828D01*
X173506591Y-133046802D01*
X173523552Y-133110100D01*
X173570222Y-133284277D01*
X173570225Y-133284287D01*
X173575615Y-133297299D01*
X173664306Y-133511417D01*
X173787233Y-133724333D01*
X173787235Y-133724336D01*
X173787236Y-133724337D01*
X173936897Y-133919379D01*
X173936903Y-133919386D01*
X174110738Y-134093221D01*
X174110744Y-134093226D01*
X174305792Y-134242892D01*
X174518708Y-134365819D01*
X174745847Y-134459903D01*
X174983323Y-134523534D01*
X175227073Y-134555625D01*
X175227080Y-134555625D01*
X175472920Y-134555625D01*
X175472927Y-134555625D01*
X175716677Y-134523534D01*
X175954153Y-134459903D01*
X176181292Y-134365819D01*
X176394208Y-134242892D01*
X176589256Y-134093226D01*
X176763101Y-133919381D01*
X176912767Y-133724333D01*
X177035694Y-133511417D01*
X177129778Y-133284278D01*
X177193409Y-133046802D01*
X177225500Y-132803052D01*
X177225500Y-132557198D01*
X177193409Y-132313448D01*
X177129778Y-132075972D01*
X177035694Y-131848833D01*
X176912767Y-131635917D01*
X176763101Y-131440869D01*
X176763096Y-131440863D01*
X176589261Y-131267028D01*
X176589254Y-131267022D01*
X176394212Y-131117361D01*
X176394211Y-131117360D01*
X176394208Y-131117358D01*
X176181292Y-130994431D01*
X176181285Y-130994428D01*
X175954162Y-130900350D01*
X175954155Y-130900348D01*
X175954153Y-130900347D01*
X175716677Y-130836716D01*
X175675939Y-130831352D01*
X175472934Y-130804625D01*
X175472927Y-130804625D01*
X175227073Y-130804625D01*
X175227065Y-130804625D01*
X174995059Y-130835170D01*
X174983323Y-130836716D01*
X174745847Y-130900347D01*
X174745837Y-130900350D01*
X174518714Y-130994428D01*
X174518705Y-130994432D01*
X174305787Y-131117361D01*
X174110745Y-131267022D01*
X174110738Y-131267028D01*
X173936903Y-131440863D01*
X173936897Y-131440870D01*
X173787236Y-131635912D01*
X173664307Y-131848830D01*
X173664303Y-131848839D01*
X173570225Y-132075962D01*
X173570222Y-132075972D01*
X173523946Y-132248680D01*
X173506592Y-132313445D01*
X173506590Y-132313456D01*
X173474500Y-132557190D01*
X171155765Y-132557190D01*
X171105403Y-132520599D01*
X170928787Y-132430610D01*
X170877990Y-132382636D01*
X170861195Y-132314815D01*
X170883732Y-132248680D01*
X170928787Y-132209640D01*
X171105403Y-132119650D01*
X171105402Y-132119650D01*
X171105405Y-132119649D01*
X171264646Y-132003953D01*
X171403828Y-131864771D01*
X171519524Y-131705530D01*
X171608884Y-131530150D01*
X171669709Y-131342951D01*
X171675877Y-131304007D01*
X171700500Y-131148547D01*
X171700500Y-130951702D01*
X171669709Y-130757298D01*
X171608882Y-130570095D01*
X171519523Y-130394719D01*
X171403828Y-130235479D01*
X171264646Y-130096297D01*
X171105405Y-129980601D01*
X170930029Y-129891242D01*
X170742826Y-129830415D01*
X170548422Y-129799625D01*
X170548417Y-129799625D01*
X170351583Y-129799625D01*
X170351578Y-129799625D01*
X170157173Y-129830415D01*
X169969970Y-129891242D01*
X169794594Y-129980601D01*
X169734852Y-130024007D01*
X169635354Y-130096297D01*
X169635352Y-130096299D01*
X169635351Y-130096299D01*
X169496174Y-130235476D01*
X169496174Y-130235477D01*
X169496172Y-130235479D01*
X169446485Y-130303866D01*
X169380476Y-130394719D01*
X169291117Y-130570095D01*
X169230290Y-130757298D01*
X169199500Y-130951702D01*
X166200500Y-130951702D01*
X166200500Y-120241702D01*
X169199500Y-120241702D01*
X169199500Y-120438547D01*
X169230290Y-120632951D01*
X169291117Y-120820154D01*
X169380476Y-120995530D01*
X169496172Y-121154771D01*
X169635354Y-121293953D01*
X169794595Y-121409649D01*
X169857678Y-121441791D01*
X169969970Y-121499007D01*
X169969972Y-121499007D01*
X169969975Y-121499009D01*
X170070317Y-121531612D01*
X170157173Y-121559834D01*
X170351578Y-121590625D01*
X170351583Y-121590625D01*
X170548422Y-121590625D01*
X170742826Y-121559834D01*
X170752610Y-121556655D01*
X170930025Y-121499009D01*
X171105405Y-121409649D01*
X171264646Y-121293953D01*
X171403828Y-121154771D01*
X171423867Y-121127190D01*
X173474500Y-121127190D01*
X173474500Y-121373059D01*
X173499091Y-121559834D01*
X173506591Y-121616802D01*
X173556462Y-121802924D01*
X173570222Y-121854277D01*
X173570225Y-121854287D01*
X173638805Y-122019852D01*
X173664306Y-122081417D01*
X173787233Y-122294333D01*
X173787235Y-122294336D01*
X173787236Y-122294337D01*
X173936897Y-122489379D01*
X173936903Y-122489386D01*
X174110738Y-122663221D01*
X174110745Y-122663227D01*
X174225335Y-122751155D01*
X174305792Y-122812892D01*
X174518708Y-122935819D01*
X174745847Y-123029903D01*
X174983323Y-123093534D01*
X175227073Y-123125625D01*
X175227080Y-123125625D01*
X175472920Y-123125625D01*
X175472927Y-123125625D01*
X175716677Y-123093534D01*
X175954153Y-123029903D01*
X176181292Y-122935819D01*
X176394208Y-122812892D01*
X176589256Y-122663226D01*
X176763101Y-122489381D01*
X176912767Y-122294333D01*
X177035694Y-122081417D01*
X177129778Y-121854278D01*
X177193409Y-121616802D01*
X177225500Y-121373052D01*
X177225500Y-121127198D01*
X177193409Y-120883448D01*
X177129778Y-120645972D01*
X177035694Y-120418833D01*
X176912767Y-120205917D01*
X176791054Y-120047298D01*
X176763102Y-120010870D01*
X176763096Y-120010863D01*
X176589261Y-119837028D01*
X176589254Y-119837022D01*
X176394212Y-119687361D01*
X176394211Y-119687360D01*
X176394208Y-119687358D01*
X176181292Y-119564431D01*
X176181285Y-119564428D01*
X175954162Y-119470350D01*
X175954155Y-119470348D01*
X175954153Y-119470347D01*
X175716677Y-119406716D01*
X175675939Y-119401352D01*
X175472934Y-119374625D01*
X175472927Y-119374625D01*
X175227073Y-119374625D01*
X175227065Y-119374625D01*
X174995059Y-119405170D01*
X174983323Y-119406716D01*
X174833129Y-119446960D01*
X174745847Y-119470347D01*
X174745837Y-119470350D01*
X174518714Y-119564428D01*
X174518705Y-119564432D01*
X174305787Y-119687361D01*
X174110745Y-119837022D01*
X174110738Y-119837028D01*
X173936903Y-120010863D01*
X173936897Y-120010870D01*
X173787236Y-120205912D01*
X173664307Y-120418830D01*
X173664303Y-120418839D01*
X173570225Y-120645962D01*
X173570222Y-120645972D01*
X173512290Y-120862181D01*
X173506592Y-120883445D01*
X173506590Y-120883456D01*
X173474500Y-121127190D01*
X171423867Y-121127190D01*
X171519524Y-120995530D01*
X171608884Y-120820150D01*
X171669709Y-120632951D01*
X171683270Y-120547329D01*
X171700500Y-120438547D01*
X171700500Y-120241702D01*
X171669709Y-120047298D01*
X171608882Y-119860095D01*
X171561743Y-119767580D01*
X171519524Y-119684720D01*
X171403828Y-119525479D01*
X171264646Y-119386297D01*
X171105405Y-119270601D01*
X171025982Y-119230133D01*
X170930029Y-119181242D01*
X170742826Y-119120415D01*
X170548422Y-119089625D01*
X170548417Y-119089625D01*
X170351583Y-119089625D01*
X170351578Y-119089625D01*
X170157173Y-119120415D01*
X169969970Y-119181242D01*
X169794594Y-119270601D01*
X169734183Y-119314493D01*
X169635354Y-119386297D01*
X169635352Y-119386299D01*
X169635351Y-119386299D01*
X169496174Y-119525476D01*
X169496174Y-119525477D01*
X169496172Y-119525479D01*
X169467874Y-119564428D01*
X169380476Y-119684719D01*
X169291117Y-119860095D01*
X169230290Y-120047298D01*
X169199500Y-120241702D01*
X166200500Y-120241702D01*
X166200500Y-110011702D01*
X169379500Y-110011702D01*
X169379500Y-110208547D01*
X169410290Y-110402951D01*
X169471117Y-110590154D01*
X169542909Y-110731053D01*
X169560476Y-110765530D01*
X169676172Y-110924771D01*
X169815354Y-111063953D01*
X169974595Y-111179649D01*
X170090953Y-111238936D01*
X170151213Y-111269640D01*
X170202009Y-111317614D01*
X170218804Y-111385435D01*
X170196267Y-111451570D01*
X170151213Y-111490610D01*
X169974594Y-111580601D01*
X169888248Y-111643336D01*
X169815354Y-111696297D01*
X169815352Y-111696299D01*
X169815351Y-111696299D01*
X169676174Y-111835476D01*
X169676174Y-111835477D01*
X169676172Y-111835479D01*
X169639501Y-111885952D01*
X169560476Y-111994719D01*
X169471117Y-112170095D01*
X169410290Y-112357298D01*
X169379500Y-112551702D01*
X169379500Y-112748547D01*
X169410290Y-112942951D01*
X169471117Y-113130154D01*
X169531905Y-113249456D01*
X169560476Y-113305530D01*
X169676172Y-113464771D01*
X169815354Y-113603953D01*
X169974595Y-113719649D01*
X170015763Y-113740625D01*
X170149970Y-113809007D01*
X170149972Y-113809007D01*
X170149975Y-113809009D01*
X170250317Y-113841612D01*
X170337173Y-113869834D01*
X170531578Y-113900625D01*
X170531583Y-113900625D01*
X170728422Y-113900625D01*
X170922826Y-113869834D01*
X170969960Y-113854519D01*
X171110025Y-113809009D01*
X171285405Y-113719649D01*
X171444646Y-113603953D01*
X171583828Y-113464771D01*
X171699524Y-113305530D01*
X171788884Y-113130150D01*
X171849709Y-112942951D01*
X171854671Y-112911623D01*
X171880500Y-112748547D01*
X171880500Y-112551702D01*
X171849709Y-112357298D01*
X171794141Y-112186280D01*
X171788884Y-112170100D01*
X171788882Y-112170097D01*
X171788882Y-112170095D01*
X171738848Y-112071898D01*
X171699524Y-111994720D01*
X171583828Y-111835479D01*
X171444646Y-111696297D01*
X171344227Y-111623338D01*
X171335765Y-111617190D01*
X173654500Y-111617190D01*
X173654500Y-111863059D01*
X173674060Y-112011623D01*
X173686591Y-112106802D01*
X173722007Y-112238978D01*
X173750219Y-112344267D01*
X173750225Y-112344287D01*
X173823909Y-112522174D01*
X173844306Y-112571417D01*
X173967233Y-112784333D01*
X173967235Y-112784336D01*
X173967236Y-112784337D01*
X174116897Y-112979379D01*
X174116903Y-112979386D01*
X174290738Y-113153221D01*
X174290745Y-113153227D01*
X174405335Y-113241155D01*
X174485792Y-113302892D01*
X174698708Y-113425819D01*
X174874384Y-113498586D01*
X174908242Y-113512611D01*
X174925847Y-113519903D01*
X175163323Y-113583534D01*
X175407073Y-113615625D01*
X175407080Y-113615625D01*
X175652920Y-113615625D01*
X175652927Y-113615625D01*
X175896677Y-113583534D01*
X176134153Y-113519903D01*
X176361292Y-113425819D01*
X176574208Y-113302892D01*
X176769256Y-113153226D01*
X176943101Y-112979381D01*
X177092767Y-112784333D01*
X177215694Y-112571417D01*
X177309778Y-112344278D01*
X177373409Y-112106802D01*
X177405500Y-111863052D01*
X177405500Y-111617198D01*
X177373409Y-111373448D01*
X177309778Y-111135972D01*
X177215694Y-110908833D01*
X177092767Y-110695917D01*
X176975572Y-110543186D01*
X176943102Y-110500870D01*
X176943096Y-110500863D01*
X176769261Y-110327028D01*
X176769254Y-110327022D01*
X176574212Y-110177361D01*
X176574211Y-110177360D01*
X176574208Y-110177358D01*
X176361292Y-110054431D01*
X176350426Y-110049930D01*
X176134162Y-109960350D01*
X176134155Y-109960348D01*
X176134153Y-109960347D01*
X175896677Y-109896716D01*
X175855939Y-109891352D01*
X175652934Y-109864625D01*
X175652927Y-109864625D01*
X175407073Y-109864625D01*
X175407065Y-109864625D01*
X175175059Y-109895170D01*
X175163323Y-109896716D01*
X174980791Y-109945625D01*
X174925847Y-109960347D01*
X174925837Y-109960350D01*
X174698714Y-110054428D01*
X174698705Y-110054432D01*
X174485787Y-110177361D01*
X174290745Y-110327022D01*
X174290738Y-110327028D01*
X174116903Y-110500863D01*
X174116897Y-110500870D01*
X173967236Y-110695912D01*
X173844307Y-110908830D01*
X173844303Y-110908839D01*
X173750225Y-111135962D01*
X173750222Y-111135972D01*
X173703946Y-111308680D01*
X173686592Y-111373445D01*
X173686590Y-111373456D01*
X173654500Y-111617190D01*
X171335765Y-111617190D01*
X171285403Y-111580599D01*
X171108787Y-111490610D01*
X171057990Y-111442636D01*
X171041195Y-111374815D01*
X171063732Y-111308680D01*
X171108787Y-111269640D01*
X171285403Y-111179650D01*
X171285402Y-111179650D01*
X171285405Y-111179649D01*
X171444646Y-111063953D01*
X171583828Y-110924771D01*
X171699524Y-110765530D01*
X171788884Y-110590150D01*
X171849709Y-110402951D01*
X171859118Y-110343547D01*
X171880500Y-110208547D01*
X171880500Y-110011702D01*
X171849709Y-109817298D01*
X171803247Y-109674304D01*
X171788884Y-109630100D01*
X171788882Y-109630097D01*
X171788882Y-109630095D01*
X171717309Y-109489625D01*
X171699524Y-109454720D01*
X171583828Y-109295479D01*
X171444646Y-109156297D01*
X171285405Y-109040601D01*
X171110029Y-108951242D01*
X170922826Y-108890415D01*
X170728422Y-108859625D01*
X170728417Y-108859625D01*
X170531583Y-108859625D01*
X170531578Y-108859625D01*
X170337173Y-108890415D01*
X170149970Y-108951242D01*
X169974594Y-109040601D01*
X169914852Y-109084007D01*
X169815354Y-109156297D01*
X169815352Y-109156299D01*
X169815351Y-109156299D01*
X169676174Y-109295476D01*
X169676174Y-109295477D01*
X169676172Y-109295479D01*
X169638501Y-109347328D01*
X169560476Y-109454719D01*
X169471117Y-109630095D01*
X169410290Y-109817298D01*
X169379500Y-110011702D01*
X166200500Y-110011702D01*
X166200500Y-99301702D01*
X169379500Y-99301702D01*
X169379500Y-99498547D01*
X169410290Y-99692951D01*
X169471117Y-99880154D01*
X169524913Y-99985734D01*
X169560476Y-100055530D01*
X169676172Y-100214771D01*
X169815354Y-100353953D01*
X169974595Y-100469649D01*
X170046855Y-100506467D01*
X170149970Y-100559007D01*
X170149972Y-100559007D01*
X170149975Y-100559009D01*
X170242176Y-100588967D01*
X170337173Y-100619834D01*
X170531578Y-100650625D01*
X170531583Y-100650625D01*
X170728422Y-100650625D01*
X170922826Y-100619834D01*
X170933770Y-100616278D01*
X171110025Y-100559009D01*
X171285405Y-100469649D01*
X171444646Y-100353953D01*
X171583828Y-100214771D01*
X171603867Y-100187190D01*
X173654500Y-100187190D01*
X173654500Y-100433059D01*
X173679091Y-100619834D01*
X173686591Y-100676802D01*
X173725613Y-100822434D01*
X173750222Y-100914277D01*
X173750225Y-100914287D01*
X173844303Y-101141410D01*
X173844307Y-101141419D01*
X173861591Y-101171355D01*
X173967233Y-101354333D01*
X173967235Y-101354336D01*
X173967236Y-101354337D01*
X174116897Y-101549379D01*
X174116903Y-101549386D01*
X174290738Y-101723221D01*
X174290745Y-101723227D01*
X174338989Y-101760246D01*
X174485792Y-101872892D01*
X174698708Y-101995819D01*
X174831427Y-102050793D01*
X174917107Y-102086283D01*
X174925847Y-102089903D01*
X175163323Y-102153534D01*
X175407073Y-102185625D01*
X175407080Y-102185625D01*
X175652920Y-102185625D01*
X175652927Y-102185625D01*
X175896677Y-102153534D01*
X176134153Y-102089903D01*
X176361292Y-101995819D01*
X176574208Y-101872892D01*
X176769256Y-101723226D01*
X176943101Y-101549381D01*
X177092767Y-101354333D01*
X177215694Y-101141417D01*
X177309778Y-100914278D01*
X177373409Y-100676802D01*
X177405500Y-100433052D01*
X177405500Y-100187198D01*
X177373409Y-99943448D01*
X177309778Y-99705972D01*
X177215694Y-99478833D01*
X177092767Y-99265917D01*
X176943101Y-99070869D01*
X176943096Y-99070863D01*
X176769261Y-98897028D01*
X176769254Y-98897022D01*
X176574212Y-98747361D01*
X176574211Y-98747360D01*
X176574208Y-98747358D01*
X176361292Y-98624431D01*
X176350228Y-98619848D01*
X176134162Y-98530350D01*
X176134155Y-98530348D01*
X176134153Y-98530347D01*
X175896677Y-98466716D01*
X175855939Y-98461352D01*
X175652934Y-98434625D01*
X175652927Y-98434625D01*
X175407073Y-98434625D01*
X175407065Y-98434625D01*
X175175059Y-98465170D01*
X175163323Y-98466716D01*
X174925847Y-98530347D01*
X174925837Y-98530350D01*
X174698714Y-98624428D01*
X174698705Y-98624432D01*
X174485787Y-98747361D01*
X174290745Y-98897022D01*
X174290738Y-98897028D01*
X174116903Y-99070863D01*
X174116897Y-99070870D01*
X173967236Y-99265912D01*
X173844307Y-99478830D01*
X173844303Y-99478839D01*
X173750225Y-99705962D01*
X173750222Y-99705972D01*
X173703551Y-99880154D01*
X173686592Y-99943445D01*
X173686590Y-99943456D01*
X173654500Y-100187190D01*
X171603867Y-100187190D01*
X171699524Y-100055530D01*
X171788884Y-99880150D01*
X171849709Y-99692951D01*
X171880500Y-99498547D01*
X171880500Y-99301702D01*
X171849709Y-99107298D01*
X171788882Y-98920095D01*
X171741743Y-98827580D01*
X171699524Y-98744720D01*
X171583828Y-98585479D01*
X171444646Y-98446297D01*
X171285405Y-98330601D01*
X171110029Y-98241242D01*
X170922826Y-98180415D01*
X170728422Y-98149625D01*
X170728417Y-98149625D01*
X170531583Y-98149625D01*
X170531578Y-98149625D01*
X170337173Y-98180415D01*
X170149970Y-98241242D01*
X169974594Y-98330601D01*
X169883741Y-98396610D01*
X169815354Y-98446297D01*
X169815352Y-98446299D01*
X169815351Y-98446299D01*
X169676174Y-98585476D01*
X169676174Y-98585477D01*
X169676172Y-98585479D01*
X169626485Y-98653866D01*
X169560476Y-98744719D01*
X169471117Y-98920095D01*
X169410290Y-99107298D01*
X169379500Y-99301702D01*
X166200500Y-99301702D01*
X166200500Y-94528875D01*
X166200726Y-94521388D01*
X166206929Y-94418838D01*
X167349500Y-94418838D01*
X167349500Y-94631411D01*
X167382753Y-94841364D01*
X167448444Y-95043539D01*
X167544951Y-95232945D01*
X167669890Y-95404911D01*
X167820213Y-95555234D01*
X167992179Y-95680173D01*
X167992181Y-95680174D01*
X167992184Y-95680176D01*
X168181588Y-95776682D01*
X168383757Y-95842371D01*
X168593713Y-95875625D01*
X168593714Y-95875625D01*
X168806286Y-95875625D01*
X168806287Y-95875625D01*
X169016243Y-95842371D01*
X169218412Y-95776682D01*
X169407816Y-95680176D01*
X169494138Y-95617460D01*
X169579786Y-95555234D01*
X169579788Y-95555231D01*
X169579792Y-95555229D01*
X169730104Y-95404917D01*
X169730106Y-95404913D01*
X169730109Y-95404911D01*
X169855048Y-95232945D01*
X169855047Y-95232945D01*
X169855051Y-95232941D01*
X169951557Y-95043537D01*
X170017246Y-94841368D01*
X170050500Y-94631412D01*
X170050500Y-94418838D01*
X170017246Y-94208882D01*
X169951557Y-94006713D01*
X169855051Y-93817309D01*
X169855049Y-93817306D01*
X169855048Y-93817304D01*
X169730109Y-93645338D01*
X169579786Y-93495015D01*
X169407820Y-93370076D01*
X169218414Y-93273569D01*
X169218413Y-93273568D01*
X169218412Y-93273568D01*
X169016243Y-93207879D01*
X169016241Y-93207878D01*
X169016240Y-93207878D01*
X168854957Y-93182333D01*
X168806287Y-93174625D01*
X168593713Y-93174625D01*
X168545042Y-93182333D01*
X168383760Y-93207878D01*
X168181585Y-93273569D01*
X167992179Y-93370076D01*
X167820213Y-93495015D01*
X167669890Y-93645338D01*
X167544951Y-93817304D01*
X167448444Y-94006710D01*
X167382753Y-94208885D01*
X167349500Y-94418838D01*
X166206929Y-94418838D01*
X166207677Y-94406479D01*
X166218271Y-94231330D01*
X166220076Y-94216465D01*
X166222348Y-94204070D01*
X166271780Y-93934323D01*
X166275364Y-93919789D01*
X166290529Y-93871123D01*
X166360699Y-93645937D01*
X166365997Y-93631967D01*
X166483727Y-93370383D01*
X166490680Y-93357137D01*
X166580909Y-93207879D01*
X166639075Y-93111659D01*
X166647567Y-93099355D01*
X166824481Y-92873542D01*
X166834396Y-92862351D01*
X167037226Y-92659521D01*
X167048417Y-92649606D01*
X167274230Y-92472692D01*
X167286534Y-92464200D01*
X167532012Y-92315805D01*
X167545258Y-92308852D01*
X167806842Y-92191122D01*
X167820812Y-92185824D01*
X168094668Y-92100487D01*
X168109198Y-92096905D01*
X168391344Y-92045200D01*
X168406201Y-92043396D01*
X168696264Y-92025851D01*
X168703751Y-92025625D01*
X168765892Y-92025625D01*
X201250192Y-92025625D01*
X201317231Y-92045310D01*
G37*
%TD.AperFunction*%
%TA.AperFunction,Conductor*%
G36*
X233486992Y-97605310D02*
G01*
X233507634Y-97621944D01*
X237706085Y-101820396D01*
X237706088Y-101820399D01*
X237706091Y-101820401D01*
X237773409Y-101865381D01*
X237812634Y-101891590D01*
X237931017Y-101940626D01*
X237931021Y-101940626D01*
X237931022Y-101940627D01*
X238056689Y-101965625D01*
X238056692Y-101965625D01*
X238790192Y-101965625D01*
X238857231Y-101985310D01*
X238902986Y-102038114D01*
X238912930Y-102107272D01*
X238883905Y-102170828D01*
X238877873Y-102177306D01*
X237544347Y-103510830D01*
X237544346Y-103510831D01*
X237544343Y-103510836D01*
X237478867Y-103608829D01*
X237475059Y-103614528D01*
X237473156Y-103617376D01*
X237473154Y-103617378D01*
X237424119Y-103735760D01*
X237424117Y-103735766D01*
X237399120Y-103861433D01*
X237399120Y-108567360D01*
X237379435Y-108634399D01*
X237359906Y-108657844D01*
X237352474Y-108664807D01*
X237339711Y-108673336D01*
X237285211Y-108727835D01*
X237283719Y-108729234D01*
X237254236Y-108744110D01*
X237225290Y-108759916D01*
X237223207Y-108759767D01*
X237221341Y-108760709D01*
X237188492Y-108757283D01*
X237155598Y-108754931D01*
X237153597Y-108753645D01*
X237151848Y-108753463D01*
X237145882Y-108748687D01*
X237111252Y-108726431D01*
X234984674Y-106599852D01*
X234984673Y-106599851D01*
X234973842Y-106592614D01*
X234878127Y-106528660D01*
X234759744Y-106479624D01*
X234759738Y-106479622D01*
X234634071Y-106454625D01*
X234634069Y-106454625D01*
X232630808Y-106454625D01*
X232563769Y-106434940D01*
X232543127Y-106418306D01*
X231321305Y-105196484D01*
X231287820Y-105135161D01*
X231287383Y-105133067D01*
X231274027Y-105065918D01*
X231236298Y-104974832D01*
X231213687Y-104920242D01*
X231213680Y-104920229D01*
X231126079Y-104789126D01*
X231126076Y-104789122D01*
X231014582Y-104677628D01*
X231014578Y-104677625D01*
X230883475Y-104590024D01*
X230883462Y-104590017D01*
X230737791Y-104529679D01*
X230737779Y-104529676D01*
X230583135Y-104498915D01*
X230583132Y-104498915D01*
X230425448Y-104498915D01*
X230425445Y-104498915D01*
X230270800Y-104529676D01*
X230270788Y-104529679D01*
X230125118Y-104590017D01*
X230125104Y-104590025D01*
X230117497Y-104595108D01*
X230050819Y-104615984D01*
X229983439Y-104597498D01*
X229960928Y-104579685D01*
X229928657Y-104547414D01*
X229928656Y-104547413D01*
X229803880Y-104470451D01*
X229779336Y-104455312D01*
X229779331Y-104455310D01*
X229769336Y-104451998D01*
X229612797Y-104400126D01*
X229612795Y-104400125D01*
X229510010Y-104389625D01*
X228709998Y-104389625D01*
X228709980Y-104389626D01*
X228607203Y-104400125D01*
X228607200Y-104400126D01*
X228440668Y-104455310D01*
X228440663Y-104455312D01*
X228291342Y-104547414D01*
X228167289Y-104671467D01*
X228075187Y-104820788D01*
X228075185Y-104820793D01*
X228062318Y-104859623D01*
X228020001Y-104987328D01*
X228020001Y-104987329D01*
X228020000Y-104987329D01*
X228009500Y-105090108D01*
X228009500Y-105740126D01*
X228009501Y-105740144D01*
X228020000Y-105842921D01*
X228020001Y-105842924D01*
X228075185Y-106009456D01*
X228075187Y-106009461D01*
X228087104Y-106028781D01*
X228167288Y-106158781D01*
X228291344Y-106282837D01*
X228440666Y-106374939D01*
X228607203Y-106430124D01*
X228709991Y-106440625D01*
X229244191Y-106440624D01*
X229311230Y-106460308D01*
X229331872Y-106476943D01*
X229442984Y-106588055D01*
X229476469Y-106649378D01*
X229476920Y-106651545D01*
X229490261Y-106718614D01*
X229490264Y-106718626D01*
X229550602Y-106864297D01*
X229550609Y-106864310D01*
X229638210Y-106995413D01*
X229638213Y-106995417D01*
X229749707Y-107106911D01*
X229749711Y-107106914D01*
X229880814Y-107194515D01*
X229880827Y-107194522D01*
X230011419Y-107248614D01*
X230026503Y-107254862D01*
X230181153Y-107285624D01*
X230181156Y-107285625D01*
X230181158Y-107285625D01*
X230338844Y-107285625D01*
X230338845Y-107285624D01*
X230493497Y-107254862D01*
X230639179Y-107194519D01*
X230770289Y-107106914D01*
X230881789Y-106995414D01*
X230957484Y-106882129D01*
X231011096Y-106837323D01*
X231080421Y-106828616D01*
X231143448Y-106858770D01*
X231148267Y-106863338D01*
X231895325Y-107610397D01*
X231895332Y-107610403D01*
X232001863Y-107681584D01*
X232001865Y-107681585D01*
X232001874Y-107681591D01*
X232014455Y-107686802D01*
X232047282Y-107700400D01*
X232047287Y-107700401D01*
X232047289Y-107700402D01*
X232120256Y-107730626D01*
X232120260Y-107730626D01*
X232120261Y-107730627D01*
X232245928Y-107755625D01*
X232245931Y-107755625D01*
X234249192Y-107755625D01*
X234316231Y-107775310D01*
X234336873Y-107791944D01*
X234407873Y-107862944D01*
X234441358Y-107924267D01*
X234436374Y-107993959D01*
X234394502Y-108049892D01*
X234329038Y-108074309D01*
X234320192Y-108074625D01*
X232228822Y-108074625D01*
X232106243Y-108099008D01*
X232103158Y-108099621D01*
X232103145Y-108099625D01*
X231984769Y-108148657D01*
X231878219Y-108219851D01*
X231878218Y-108219852D01*
X226297180Y-113800892D01*
X226235857Y-113834377D01*
X226166165Y-113829393D01*
X226110232Y-113787521D01*
X226085815Y-113722057D01*
X226085499Y-113713211D01*
X226085499Y-113452623D01*
X226085498Y-113452606D01*
X226074999Y-113349828D01*
X226074998Y-113349825D01*
X226059446Y-113302892D01*
X226019814Y-113183291D01*
X225927712Y-113033969D01*
X225803656Y-112909913D01*
X225692356Y-112841263D01*
X225654336Y-112817812D01*
X225654335Y-112817811D01*
X225654334Y-112817811D01*
X225595493Y-112798313D01*
X225538051Y-112758541D01*
X225511228Y-112694025D01*
X225510500Y-112680608D01*
X225510500Y-111619625D01*
X225530185Y-111552586D01*
X225582989Y-111506831D01*
X225634500Y-111495625D01*
X225798422Y-111495625D01*
X225992826Y-111464834D01*
X226033648Y-111451570D01*
X226180025Y-111404009D01*
X226355405Y-111314649D01*
X226514646Y-111198953D01*
X226653828Y-111059771D01*
X226769524Y-110900530D01*
X226858884Y-110725150D01*
X226919709Y-110537951D01*
X226925697Y-110500144D01*
X226950500Y-110343547D01*
X226950500Y-110146702D01*
X226919709Y-109952298D01*
X226887348Y-109852702D01*
X226858884Y-109765100D01*
X226858882Y-109765097D01*
X226858882Y-109765095D01*
X226802998Y-109655417D01*
X226769524Y-109589720D01*
X226653828Y-109430479D01*
X226514646Y-109291297D01*
X226355405Y-109175601D01*
X226323950Y-109159574D01*
X226180029Y-109086242D01*
X225992826Y-109025415D01*
X225798422Y-108994625D01*
X225798417Y-108994625D01*
X225601583Y-108994625D01*
X225601578Y-108994625D01*
X225407173Y-109025415D01*
X225219970Y-109086242D01*
X225044594Y-109175601D01*
X224978020Y-109223971D01*
X224885354Y-109291297D01*
X224885352Y-109291299D01*
X224885351Y-109291299D01*
X224746174Y-109430476D01*
X224746174Y-109430477D01*
X224746172Y-109430479D01*
X224717179Y-109470384D01*
X224630476Y-109589719D01*
X224541117Y-109765095D01*
X224480290Y-109952298D01*
X224449500Y-110146702D01*
X224449500Y-110343547D01*
X224471355Y-110481535D01*
X224462400Y-110550829D01*
X224436564Y-110588613D01*
X224354726Y-110670452D01*
X224354722Y-110670456D01*
X224292447Y-110763658D01*
X224292448Y-110763659D01*
X224283533Y-110777000D01*
X224234499Y-110895380D01*
X224234497Y-110895386D01*
X224209500Y-111021053D01*
X224209500Y-112680608D01*
X224189815Y-112747647D01*
X224137011Y-112793402D01*
X224124510Y-112798311D01*
X224065666Y-112817811D01*
X224065663Y-112817812D01*
X223916342Y-112909914D01*
X223792289Y-113033967D01*
X223700187Y-113183288D01*
X223700185Y-113183293D01*
X223686706Y-113223971D01*
X223645001Y-113349828D01*
X223645001Y-113349829D01*
X223645000Y-113349829D01*
X223634500Y-113452608D01*
X223634500Y-114227626D01*
X223634501Y-114227644D01*
X223645000Y-114330421D01*
X223645001Y-114330424D01*
X223664234Y-114388464D01*
X223700186Y-114496959D01*
X223792288Y-114646281D01*
X223916344Y-114770337D01*
X224065666Y-114862439D01*
X224232203Y-114917624D01*
X224334991Y-114928125D01*
X225385008Y-114928124D01*
X225385016Y-114928123D01*
X225385019Y-114928123D01*
X225441302Y-114922373D01*
X225487797Y-114917624D01*
X225654334Y-114862439D01*
X225756852Y-114799205D01*
X225824243Y-114780766D01*
X225890906Y-114801688D01*
X225935676Y-114855330D01*
X225945947Y-114904745D01*
X225945947Y-116000764D01*
X225926262Y-116067803D01*
X225909628Y-116088445D01*
X225359767Y-116638306D01*
X225298444Y-116671791D01*
X225272086Y-116674625D01*
X220139940Y-116674625D01*
X220072901Y-116654940D01*
X220027146Y-116602136D01*
X220017202Y-116532978D01*
X220036838Y-116481734D01*
X220126200Y-116347994D01*
X220126200Y-116347993D01*
X220126204Y-116347988D01*
X220190316Y-116193207D01*
X220193683Y-116176283D01*
X220215260Y-116067803D01*
X220223000Y-116028892D01*
X220223000Y-115861359D01*
X220222708Y-115859894D01*
X220190318Y-115697051D01*
X220190315Y-115697042D01*
X220163928Y-115633338D01*
X220126204Y-115542262D01*
X220126202Y-115542260D01*
X220126202Y-115542258D01*
X220033127Y-115402963D01*
X220033124Y-115402959D01*
X218244665Y-113614500D01*
X218244661Y-113614497D01*
X218172414Y-113566223D01*
X218127609Y-113512611D01*
X218125855Y-113508023D01*
X218124815Y-113505794D01*
X218124814Y-113505793D01*
X218124814Y-113505791D01*
X218032712Y-113356469D01*
X218009049Y-113332806D01*
X217975564Y-113271483D01*
X217980548Y-113201791D01*
X218009049Y-113157444D01*
X218013272Y-113153221D01*
X218042712Y-113123781D01*
X218134814Y-112974459D01*
X218189999Y-112807922D01*
X218200500Y-112705134D01*
X218200499Y-111705117D01*
X218189999Y-111602328D01*
X218134814Y-111435791D01*
X218042712Y-111286469D01*
X217980211Y-111223968D01*
X217946726Y-111162645D01*
X217951710Y-111092953D01*
X217983045Y-111049940D01*
X217981049Y-111047944D01*
X218024368Y-111004625D01*
X218110212Y-110918781D01*
X218202314Y-110769459D01*
X218257499Y-110602922D01*
X218268000Y-110500134D01*
X218267999Y-109450117D01*
X218267794Y-109448114D01*
X218257499Y-109347328D01*
X218257498Y-109347325D01*
X218248732Y-109320871D01*
X218202314Y-109180791D01*
X218110212Y-109031469D01*
X218066819Y-108988076D01*
X218033334Y-108926753D01*
X218030500Y-108900395D01*
X218030500Y-108656992D01*
X218050185Y-108589953D01*
X218069386Y-108568781D01*
X218068549Y-108567944D01*
X218132107Y-108504386D01*
X218197712Y-108438781D01*
X218289814Y-108289459D01*
X218344999Y-108122922D01*
X218355500Y-108020134D01*
X218355499Y-106970117D01*
X218354631Y-106961623D01*
X218344999Y-106867328D01*
X218344998Y-106867325D01*
X218332171Y-106828616D01*
X218289814Y-106700791D01*
X218197712Y-106551469D01*
X218154319Y-106508076D01*
X218120834Y-106446753D01*
X218118000Y-106420395D01*
X218118000Y-106159855D01*
X218137685Y-106092816D01*
X218154319Y-106072174D01*
X218173496Y-106052997D01*
X218197712Y-106028781D01*
X218289814Y-105879459D01*
X218344999Y-105712922D01*
X218355500Y-105610134D01*
X218355499Y-104560117D01*
X218354514Y-104550479D01*
X218344999Y-104457328D01*
X218344998Y-104457325D01*
X218326044Y-104400125D01*
X218289814Y-104290791D01*
X218197712Y-104141469D01*
X218154319Y-104098076D01*
X218120834Y-104036753D01*
X218118000Y-104010395D01*
X218118000Y-103909855D01*
X218137685Y-103842816D01*
X218154319Y-103822174D01*
X218161176Y-103815317D01*
X218187712Y-103788781D01*
X218279814Y-103639459D01*
X218334999Y-103472922D01*
X218345500Y-103370134D01*
X218345499Y-102320117D01*
X218338668Y-102253250D01*
X218334999Y-102217328D01*
X218334998Y-102217325D01*
X218329682Y-102201282D01*
X218279814Y-102050791D01*
X218231671Y-101972739D01*
X218213232Y-101905348D01*
X218234155Y-101838685D01*
X218287797Y-101793915D01*
X218357127Y-101785254D01*
X218420135Y-101815451D01*
X218424892Y-101819963D01*
X218933181Y-102328252D01*
X218966666Y-102389575D01*
X218969500Y-102415933D01*
X218969500Y-105549194D01*
X218969500Y-105549196D01*
X218969499Y-105549196D01*
X218991133Y-105657948D01*
X218994497Y-105674863D01*
X218994500Y-105674872D01*
X219043532Y-105793248D01*
X219114726Y-105899798D01*
X220815325Y-107600397D01*
X220815328Y-107600399D01*
X220815331Y-107600402D01*
X220914094Y-107666392D01*
X220921868Y-107671587D01*
X220921870Y-107671588D01*
X220921873Y-107671590D01*
X221040256Y-107720626D01*
X221040260Y-107720626D01*
X221040261Y-107720627D01*
X221165928Y-107745625D01*
X221165931Y-107745625D01*
X226779192Y-107745625D01*
X226846231Y-107765310D01*
X226866873Y-107781944D01*
X228332984Y-109248055D01*
X228366469Y-109309378D01*
X228366920Y-109311545D01*
X228380261Y-109378614D01*
X228380264Y-109378626D01*
X228440602Y-109524297D01*
X228440609Y-109524310D01*
X228528210Y-109655413D01*
X228528213Y-109655417D01*
X228639707Y-109766911D01*
X228639711Y-109766914D01*
X228770814Y-109854515D01*
X228770827Y-109854522D01*
X228887520Y-109902857D01*
X228916503Y-109914862D01*
X229071153Y-109945624D01*
X229071156Y-109945625D01*
X229071158Y-109945625D01*
X229228844Y-109945625D01*
X229228845Y-109945624D01*
X229383497Y-109914862D01*
X229519546Y-109858509D01*
X229529172Y-109854522D01*
X229529172Y-109854521D01*
X229529179Y-109854519D01*
X229660289Y-109766914D01*
X229771789Y-109655414D01*
X229859394Y-109524304D01*
X229919737Y-109378622D01*
X229950500Y-109223967D01*
X229950500Y-109066283D01*
X229950500Y-109066280D01*
X229950499Y-109066278D01*
X229942256Y-109024836D01*
X229919737Y-108911628D01*
X229915084Y-108900395D01*
X229859397Y-108765952D01*
X229859390Y-108765939D01*
X229771789Y-108634836D01*
X229771786Y-108634832D01*
X229660292Y-108523338D01*
X229660288Y-108523335D01*
X229529185Y-108435734D01*
X229529172Y-108435727D01*
X229383501Y-108375389D01*
X229383489Y-108375386D01*
X229316420Y-108362045D01*
X229254509Y-108329660D01*
X229252930Y-108328109D01*
X227514674Y-106589852D01*
X227514673Y-106589851D01*
X227514669Y-106589848D01*
X227408127Y-106518660D01*
X227289744Y-106469624D01*
X227286068Y-106468892D01*
X227286064Y-106468890D01*
X227286064Y-106468892D01*
X227164071Y-106444625D01*
X227164069Y-106444625D01*
X226688336Y-106444625D01*
X226621297Y-106424940D01*
X226575542Y-106372136D01*
X226565598Y-106302978D01*
X226594623Y-106239422D01*
X226600655Y-106232944D01*
X226653828Y-106179771D01*
X226769524Y-106020530D01*
X226858884Y-105845150D01*
X226919709Y-105657951D01*
X226919708Y-105657951D01*
X226919710Y-105657948D01*
X226950500Y-105463547D01*
X226950500Y-105266702D01*
X226919709Y-105072298D01*
X226870427Y-104920625D01*
X226858884Y-104885100D01*
X226858882Y-104885097D01*
X226858882Y-104885095D01*
X226805603Y-104780530D01*
X226769524Y-104709720D01*
X226653828Y-104550479D01*
X226514646Y-104411297D01*
X226355405Y-104295601D01*
X226345959Y-104290788D01*
X226180029Y-104206242D01*
X225992826Y-104145415D01*
X225798422Y-104114625D01*
X225798417Y-104114625D01*
X225601583Y-104114625D01*
X225601578Y-104114625D01*
X225463588Y-104136480D01*
X225394294Y-104127525D01*
X225356509Y-104101688D01*
X224582172Y-103327350D01*
X224582171Y-103327349D01*
X224566679Y-103316998D01*
X224563469Y-103314853D01*
X224518665Y-103261242D01*
X224514658Y-103250765D01*
X224489814Y-103175791D01*
X224397712Y-103026469D01*
X224273656Y-102902413D01*
X224165375Y-102835625D01*
X224124336Y-102810312D01*
X224124331Y-102810310D01*
X224122862Y-102809823D01*
X223957797Y-102755126D01*
X223957795Y-102755125D01*
X223855010Y-102744625D01*
X222804998Y-102744625D01*
X222804980Y-102744626D01*
X222702203Y-102755125D01*
X222702200Y-102755126D01*
X222535668Y-102810310D01*
X222535663Y-102810312D01*
X222386342Y-102902414D01*
X222262289Y-103026467D01*
X222170187Y-103175788D01*
X222170186Y-103175791D01*
X222115001Y-103342328D01*
X222115001Y-103342329D01*
X222115000Y-103342329D01*
X222104500Y-103445108D01*
X222104500Y-104220126D01*
X222104501Y-104220144D01*
X222115000Y-104322921D01*
X222115001Y-104322924D01*
X222158870Y-104455310D01*
X222170186Y-104489459D01*
X222262288Y-104638781D01*
X222386344Y-104762837D01*
X222535666Y-104854939D01*
X222702203Y-104910124D01*
X222804991Y-104920625D01*
X223855008Y-104920624D01*
X223855016Y-104920623D01*
X223855019Y-104920623D01*
X223911302Y-104914873D01*
X223957797Y-104910124D01*
X224124334Y-104854939D01*
X224130896Y-104850890D01*
X224198285Y-104832449D01*
X224264950Y-104853368D01*
X224283676Y-104868747D01*
X224436563Y-105021634D01*
X224470048Y-105082957D01*
X224471355Y-105128713D01*
X224449500Y-105266702D01*
X224449500Y-105463547D01*
X224480290Y-105657948D01*
X224541117Y-105845154D01*
X224624968Y-106009720D01*
X224630476Y-106020530D01*
X224746172Y-106179771D01*
X224746174Y-106179773D01*
X224799345Y-106232944D01*
X224832830Y-106294267D01*
X224827846Y-106363959D01*
X224785974Y-106419892D01*
X224720510Y-106444309D01*
X224711664Y-106444625D01*
X221550808Y-106444625D01*
X221483769Y-106424940D01*
X221463127Y-106408306D01*
X220306819Y-105251998D01*
X220273334Y-105190675D01*
X220270500Y-105164317D01*
X220270500Y-102031053D01*
X220245502Y-101905386D01*
X220245501Y-101905385D01*
X220245501Y-101905381D01*
X220199330Y-101793915D01*
X220196465Y-101786997D01*
X220178593Y-101760251D01*
X220178590Y-101760246D01*
X220169827Y-101747131D01*
X220164449Y-101739082D01*
X220164447Y-101739078D01*
X220125278Y-101680457D01*
X220125272Y-101680450D01*
X220121100Y-101676278D01*
X227239500Y-101676278D01*
X227239500Y-101833971D01*
X227270261Y-101988614D01*
X227270264Y-101988626D01*
X227330602Y-102134297D01*
X227330609Y-102134310D01*
X227418210Y-102265413D01*
X227418213Y-102265417D01*
X227529707Y-102376911D01*
X227529711Y-102376914D01*
X227660814Y-102464515D01*
X227660827Y-102464522D01*
X227745454Y-102499575D01*
X227806503Y-102524862D01*
X227843434Y-102532208D01*
X227921385Y-102547714D01*
X227983296Y-102580099D01*
X228017870Y-102640814D01*
X228020552Y-102681934D01*
X228009500Y-102790108D01*
X228009500Y-103440126D01*
X228009501Y-103440144D01*
X228020000Y-103542921D01*
X228020001Y-103542924D01*
X228075184Y-103709454D01*
X228075186Y-103709459D01*
X228167288Y-103858781D01*
X228291344Y-103982837D01*
X228440666Y-104074939D01*
X228607203Y-104130124D01*
X228709991Y-104140625D01*
X229510008Y-104140624D01*
X229510016Y-104140623D01*
X229510019Y-104140623D01*
X229568735Y-104134625D01*
X229612797Y-104130124D01*
X229779334Y-104074939D01*
X229928656Y-103982837D01*
X230052712Y-103858781D01*
X230144814Y-103709459D01*
X230189689Y-103574032D01*
X230219712Y-103525357D01*
X231385277Y-102359794D01*
X231456465Y-102253252D01*
X231505501Y-102134869D01*
X231511536Y-102104528D01*
X231512412Y-102100127D01*
X231512412Y-102100126D01*
X231530500Y-102009196D01*
X231530500Y-101200060D01*
X231550185Y-101133021D01*
X231551366Y-101131215D01*
X231589394Y-101074304D01*
X231649737Y-100928622D01*
X231680500Y-100773967D01*
X231680500Y-100616283D01*
X231680500Y-100616280D01*
X231680499Y-100616278D01*
X231658656Y-100506467D01*
X231649737Y-100461628D01*
X231640622Y-100439622D01*
X231589397Y-100315952D01*
X231589390Y-100315939D01*
X231501789Y-100184836D01*
X231501786Y-100184832D01*
X231390292Y-100073338D01*
X231390288Y-100073335D01*
X231259185Y-99985734D01*
X231259172Y-99985727D01*
X231113501Y-99925389D01*
X231113489Y-99925386D01*
X230958845Y-99894625D01*
X230958842Y-99894625D01*
X230801158Y-99894625D01*
X230801155Y-99894625D01*
X230646510Y-99925386D01*
X230646498Y-99925389D01*
X230500827Y-99985727D01*
X230500814Y-99985734D01*
X230369711Y-100073335D01*
X230369707Y-100073338D01*
X230258213Y-100184832D01*
X230258210Y-100184836D01*
X230170609Y-100315939D01*
X230170602Y-100315952D01*
X230110264Y-100461623D01*
X230110261Y-100461635D01*
X230079500Y-100616278D01*
X230079500Y-100647608D01*
X230059815Y-100714647D01*
X230007011Y-100760402D01*
X229979692Y-100769225D01*
X229821128Y-100800766D01*
X229821118Y-100800769D01*
X229675447Y-100861107D01*
X229675434Y-100861114D01*
X229544331Y-100948715D01*
X229544327Y-100948718D01*
X229428523Y-101064523D01*
X229427464Y-101063464D01*
X229375838Y-101098626D01*
X229337737Y-101104625D01*
X228544935Y-101104625D01*
X228477896Y-101084940D01*
X228476090Y-101083758D01*
X228419179Y-101045731D01*
X228419172Y-101045727D01*
X228273501Y-100985389D01*
X228273489Y-100985386D01*
X228118845Y-100954625D01*
X228118842Y-100954625D01*
X227961158Y-100954625D01*
X227961155Y-100954625D01*
X227806510Y-100985386D01*
X227806498Y-100985389D01*
X227660827Y-101045727D01*
X227660814Y-101045734D01*
X227529711Y-101133335D01*
X227529707Y-101133338D01*
X227418213Y-101244832D01*
X227418210Y-101244836D01*
X227330609Y-101375939D01*
X227330602Y-101375952D01*
X227270264Y-101521623D01*
X227270261Y-101521635D01*
X227239500Y-101676278D01*
X220121100Y-101676278D01*
X219004673Y-100559851D01*
X219003410Y-100559007D01*
X218898127Y-100488660D01*
X218810742Y-100452464D01*
X218779744Y-100439624D01*
X218779738Y-100439622D01*
X218654071Y-100414625D01*
X218654069Y-100414625D01*
X213575931Y-100414625D01*
X213575929Y-100414625D01*
X213450261Y-100439622D01*
X213450255Y-100439624D01*
X213331874Y-100488659D01*
X213225326Y-100559851D01*
X212694727Y-101090450D01*
X212694721Y-101090457D01*
X212635787Y-101178659D01*
X212635788Y-101178660D01*
X212623534Y-101196999D01*
X212574499Y-101315380D01*
X212574497Y-101315386D01*
X212549500Y-101441053D01*
X212549500Y-102864317D01*
X212529815Y-102931356D01*
X212513181Y-102951998D01*
X211562181Y-103902998D01*
X211500858Y-103936483D01*
X211431166Y-103931499D01*
X211375233Y-103889627D01*
X211350816Y-103824163D01*
X211350500Y-103815317D01*
X211350500Y-102472141D01*
X211370185Y-102405102D01*
X211422989Y-102359347D01*
X211435488Y-102354438D01*
X211494334Y-102334939D01*
X211643656Y-102242837D01*
X211767712Y-102118781D01*
X211859814Y-101969459D01*
X211914999Y-101802922D01*
X211925500Y-101700134D01*
X211925499Y-100925117D01*
X211923426Y-100904828D01*
X211914999Y-100822328D01*
X211914998Y-100822325D01*
X211913784Y-100818660D01*
X211859814Y-100655791D01*
X211767712Y-100506469D01*
X211643656Y-100382413D01*
X211494334Y-100290311D01*
X211327797Y-100235126D01*
X211327795Y-100235125D01*
X211225010Y-100224625D01*
X210174998Y-100224625D01*
X210174980Y-100224626D01*
X210072203Y-100235125D01*
X210072200Y-100235126D01*
X209905668Y-100290310D01*
X209905659Y-100290314D01*
X209779596Y-100368071D01*
X209712204Y-100386511D01*
X209645541Y-100365588D01*
X209600771Y-100311946D01*
X209590500Y-100262532D01*
X209590500Y-99091053D01*
X209565502Y-98965386D01*
X209565501Y-98965385D01*
X209565501Y-98965381D01*
X209516465Y-98846998D01*
X209516464Y-98846997D01*
X209516461Y-98846991D01*
X209445277Y-98740457D01*
X209445276Y-98740456D01*
X209354669Y-98649849D01*
X208946061Y-98241241D01*
X208502127Y-97797306D01*
X208468642Y-97735983D01*
X208473626Y-97666291D01*
X208515498Y-97610358D01*
X208580962Y-97585941D01*
X208589808Y-97585625D01*
X233419953Y-97585625D01*
X233486992Y-97605310D01*
G37*
%TD.AperFunction*%
%TA.AperFunction,Conductor*%
G36*
X216035039Y-109385310D02*
G01*
X216080794Y-109438114D01*
X216092000Y-109489625D01*
X216092000Y-110500126D01*
X216092001Y-110500144D01*
X216102500Y-110602921D01*
X216102501Y-110602924D01*
X216157685Y-110769456D01*
X216157687Y-110769461D01*
X216173799Y-110795582D01*
X216243650Y-110908830D01*
X216249789Y-110918782D01*
X216301622Y-110970615D01*
X216335107Y-111031938D01*
X216333635Y-111052509D01*
X216333873Y-111053167D01*
X216333459Y-111054971D01*
X216330123Y-111101630D01*
X216318827Y-111118879D01*
X216318279Y-111121274D01*
X216313888Y-111126421D01*
X216300106Y-111147468D01*
X216290455Y-111156792D01*
X216281344Y-111162413D01*
X216186906Y-111256850D01*
X216186165Y-111257567D01*
X216156107Y-111273316D01*
X216126358Y-111289561D01*
X216125255Y-111289482D01*
X216124277Y-111289995D01*
X216090499Y-111286996D01*
X216056666Y-111284577D01*
X216055612Y-111283899D01*
X216054681Y-111283817D01*
X216050804Y-111280809D01*
X216012319Y-111256076D01*
X215918657Y-111162414D01*
X215918656Y-111162413D01*
X215823016Y-111103422D01*
X215769336Y-111070312D01*
X215769331Y-111070310D01*
X215732031Y-111057950D01*
X215602797Y-111015126D01*
X215602795Y-111015125D01*
X215500010Y-111004625D01*
X214699998Y-111004625D01*
X214699980Y-111004626D01*
X214597203Y-111015125D01*
X214597200Y-111015126D01*
X214430668Y-111070310D01*
X214430663Y-111070312D01*
X214281341Y-111162415D01*
X214275681Y-111166891D01*
X214273886Y-111164620D01*
X214224128Y-111191791D01*
X214197770Y-111194625D01*
X213878623Y-111194625D01*
X213811584Y-111174940D01*
X213803137Y-111169001D01*
X213729614Y-111112585D01*
X213729609Y-111112582D01*
X213589315Y-111054471D01*
X213589313Y-111054470D01*
X213589312Y-111054470D01*
X213574417Y-111052509D01*
X213476561Y-111039625D01*
X213476554Y-111039625D01*
X212063446Y-111039625D01*
X212063438Y-111039625D01*
X211950688Y-111054470D01*
X211950684Y-111054471D01*
X211810390Y-111112582D01*
X211810385Y-111112585D01*
X211736863Y-111169001D01*
X211671694Y-111194195D01*
X211661377Y-111194625D01*
X211485283Y-111194625D01*
X211418244Y-111174940D01*
X211397602Y-111158306D01*
X210766602Y-110527306D01*
X210733117Y-110465983D01*
X210738101Y-110396291D01*
X210779973Y-110340358D01*
X210842849Y-110316906D01*
X210842782Y-110316222D01*
X210845365Y-110315967D01*
X210845437Y-110315941D01*
X210845748Y-110315929D01*
X210848836Y-110315625D01*
X210848842Y-110315625D01*
X211003497Y-110284862D01*
X211149179Y-110224519D01*
X211206044Y-110186522D01*
X211272721Y-110165645D01*
X211274935Y-110165625D01*
X213204071Y-110165625D01*
X213288615Y-110148807D01*
X213329744Y-110140626D01*
X213448127Y-110091590D01*
X213455093Y-110086936D01*
X213455109Y-110086924D01*
X213455125Y-110086914D01*
X213554669Y-110020402D01*
X214173127Y-109401944D01*
X214234450Y-109368459D01*
X214260808Y-109365625D01*
X215968000Y-109365625D01*
X216035039Y-109385310D01*
G37*
%TD.AperFunction*%
%TA.AperFunction,Conductor*%
G36*
X216286782Y-101735310D02*
G01*
X216332537Y-101788114D01*
X216342481Y-101857272D01*
X216325282Y-101904721D01*
X216235189Y-102050784D01*
X216235185Y-102050793D01*
X216218229Y-102101964D01*
X216180001Y-102217328D01*
X216180001Y-102217329D01*
X216180000Y-102217329D01*
X216169500Y-102320108D01*
X216169500Y-103370126D01*
X216169501Y-103370144D01*
X216180000Y-103472921D01*
X216180001Y-103472924D01*
X216235185Y-103639456D01*
X216235187Y-103639461D01*
X216327289Y-103788782D01*
X216380681Y-103842174D01*
X216414166Y-103903497D01*
X216417000Y-103929855D01*
X216417000Y-104010395D01*
X216397315Y-104077434D01*
X216380681Y-104098076D01*
X216337289Y-104141467D01*
X216245187Y-104290788D01*
X216245185Y-104290793D01*
X216236965Y-104315599D01*
X216190001Y-104457328D01*
X216190001Y-104457329D01*
X216190000Y-104457329D01*
X216179500Y-104560108D01*
X216179500Y-105610126D01*
X216179501Y-105610144D01*
X216190000Y-105712921D01*
X216190001Y-105712924D01*
X216233078Y-105842921D01*
X216245186Y-105879459D01*
X216325371Y-106009461D01*
X216337289Y-106028782D01*
X216380681Y-106072174D01*
X216414166Y-106133497D01*
X216417000Y-106159855D01*
X216417000Y-106420395D01*
X216397315Y-106487434D01*
X216380681Y-106508076D01*
X216337289Y-106551467D01*
X216245187Y-106700788D01*
X216245185Y-106700793D01*
X216233142Y-106737138D01*
X216190001Y-106867328D01*
X216190001Y-106867329D01*
X216190000Y-106867329D01*
X216179500Y-106970108D01*
X216179500Y-106970116D01*
X216179500Y-107481635D01*
X216179501Y-107940625D01*
X216159817Y-108007664D01*
X216107013Y-108053419D01*
X216055501Y-108064625D01*
X213875929Y-108064625D01*
X213759627Y-108087760D01*
X213750256Y-108089624D01*
X213750255Y-108089624D01*
X213631874Y-108138659D01*
X213525326Y-108209851D01*
X213525325Y-108209852D01*
X212906873Y-108828306D01*
X212845550Y-108861791D01*
X212819192Y-108864625D01*
X211274935Y-108864625D01*
X211207896Y-108844940D01*
X211206090Y-108843758D01*
X211149179Y-108805731D01*
X211149172Y-108805727D01*
X211003501Y-108745389D01*
X211003489Y-108745386D01*
X210848845Y-108714625D01*
X210848842Y-108714625D01*
X210691158Y-108714625D01*
X210691155Y-108714625D01*
X210536510Y-108745386D01*
X210536498Y-108745389D01*
X210390827Y-108805727D01*
X210390814Y-108805734D01*
X210259711Y-108893335D01*
X210259707Y-108893338D01*
X210148213Y-109004832D01*
X210148210Y-109004836D01*
X210060609Y-109135939D01*
X210060602Y-109135952D01*
X210000264Y-109281623D01*
X210000261Y-109281635D01*
X209969500Y-109436278D01*
X209968903Y-109442343D01*
X209966201Y-109442076D01*
X209949815Y-109497881D01*
X209897011Y-109543636D01*
X209827853Y-109553580D01*
X209764297Y-109524555D01*
X209757819Y-109518523D01*
X209417015Y-109177719D01*
X209383530Y-109116396D01*
X209383093Y-109114302D01*
X209369737Y-109047153D01*
X209330009Y-108951241D01*
X209309397Y-108901477D01*
X209309390Y-108901464D01*
X209221789Y-108770361D01*
X209221786Y-108770357D01*
X209110292Y-108658863D01*
X209110288Y-108658860D01*
X208979185Y-108571259D01*
X208979166Y-108571249D01*
X208977121Y-108570402D01*
X208976215Y-108569672D01*
X208973809Y-108568386D01*
X208974053Y-108567929D01*
X208922722Y-108526556D01*
X208900664Y-108460259D01*
X208917950Y-108392562D01*
X208936900Y-108368169D01*
X213705276Y-103599795D01*
X213776465Y-103493252D01*
X213825501Y-103374869D01*
X213832512Y-103339624D01*
X213850500Y-103249196D01*
X213850500Y-101839625D01*
X213870185Y-101772586D01*
X213922989Y-101726831D01*
X213974500Y-101715625D01*
X216219743Y-101715625D01*
X216286782Y-101735310D01*
G37*
%TD.AperFunction*%
%TA.AperFunction,Conductor*%
G36*
X207346231Y-98485310D02*
G01*
X207366873Y-98501944D01*
X208253181Y-99388251D01*
X208286666Y-99449574D01*
X208289500Y-99475932D01*
X208289500Y-100662644D01*
X208269815Y-100729683D01*
X208217011Y-100775438D01*
X208147853Y-100785382D01*
X208118049Y-100777206D01*
X208099744Y-100769624D01*
X208099738Y-100769622D01*
X207974071Y-100744625D01*
X207974069Y-100744625D01*
X207532928Y-100744625D01*
X207465889Y-100724940D01*
X207427389Y-100685722D01*
X207367712Y-100588969D01*
X207243656Y-100464913D01*
X207138987Y-100400353D01*
X207094336Y-100372812D01*
X207094331Y-100372810D01*
X207092862Y-100372323D01*
X206927797Y-100317626D01*
X206927795Y-100317625D01*
X206825010Y-100307125D01*
X205774998Y-100307125D01*
X205774980Y-100307126D01*
X205672203Y-100317625D01*
X205672200Y-100317626D01*
X205505668Y-100372810D01*
X205505663Y-100372812D01*
X205356342Y-100464914D01*
X205232289Y-100588967D01*
X205140187Y-100738288D01*
X205140185Y-100738293D01*
X205121537Y-100794571D01*
X205085001Y-100904828D01*
X205085001Y-100904829D01*
X205085000Y-100904829D01*
X205074500Y-101007608D01*
X205074500Y-101462580D01*
X205054815Y-101529619D01*
X205002011Y-101575374D01*
X204932853Y-101585318D01*
X204869297Y-101556293D01*
X204835939Y-101510033D01*
X204809394Y-101445946D01*
X204809390Y-101445939D01*
X204721789Y-101314836D01*
X204721786Y-101314832D01*
X204610292Y-101203338D01*
X204610288Y-101203335D01*
X204479185Y-101115734D01*
X204479172Y-101115727D01*
X204333501Y-101055389D01*
X204333489Y-101055386D01*
X204178845Y-101024625D01*
X204178842Y-101024625D01*
X204021158Y-101024625D01*
X204021155Y-101024625D01*
X203866510Y-101055386D01*
X203866498Y-101055389D01*
X203720827Y-101115727D01*
X203720814Y-101115734D01*
X203663391Y-101154104D01*
X203596714Y-101174982D01*
X203529333Y-101156498D01*
X203482643Y-101104519D01*
X203470500Y-101051002D01*
X203470500Y-99845932D01*
X203490185Y-99778893D01*
X203506819Y-99758251D01*
X204763126Y-98501944D01*
X204824449Y-98468459D01*
X204850807Y-98465625D01*
X207279192Y-98465625D01*
X207346231Y-98485310D01*
G37*
%TD.AperFunction*%
%TA.AperFunction,Conductor*%
G36*
X229646231Y-92845310D02*
G01*
X229666873Y-92861944D01*
X232877873Y-96072944D01*
X232911358Y-96134267D01*
X232906374Y-96203959D01*
X232864502Y-96259892D01*
X232799038Y-96284309D01*
X232790192Y-96284625D01*
X200160808Y-96284625D01*
X200093769Y-96264940D01*
X200073127Y-96248306D01*
X199912127Y-96087306D01*
X199878642Y-96025983D01*
X199883626Y-95956291D01*
X199925498Y-95900358D01*
X199990962Y-95875941D01*
X199999808Y-95875625D01*
X200076286Y-95875625D01*
X200076287Y-95875625D01*
X200286243Y-95842371D01*
X200488412Y-95776682D01*
X200677816Y-95680176D01*
X200764138Y-95617460D01*
X200849786Y-95555234D01*
X200849788Y-95555231D01*
X200849792Y-95555229D01*
X201000104Y-95404917D01*
X201000106Y-95404913D01*
X201000109Y-95404911D01*
X201125048Y-95232945D01*
X201125047Y-95232945D01*
X201125051Y-95232941D01*
X201221557Y-95043537D01*
X201287246Y-94841368D01*
X201320500Y-94631412D01*
X201320500Y-94418838D01*
X201310097Y-94353156D01*
X201286484Y-94204070D01*
X201288123Y-94203810D01*
X201291257Y-94141251D01*
X201320655Y-94094414D01*
X202553127Y-92861944D01*
X202614450Y-92828459D01*
X202640808Y-92825625D01*
X229579192Y-92825625D01*
X229646231Y-92845310D01*
G37*
%TD.AperFunction*%
%TD*%
M02*
