%TF.GenerationSoftware,KiCad,Pcbnew,10.0.0*%
%TF.CreationDate,2026-08-10T11:42:10+05:30*%
%TF.ProjectId,USB to EtherCAT (Final proj -1),55534220-746f-4204-9574-686572434154,rev?*%
%TF.SameCoordinates,Original*%
%TF.FileFunction,Soldermask,Top*%
%TF.FilePolarity,Negative*%
%FSLAX46Y46*%
G04 Gerber Fmt 4.6, Leading zero omitted, Abs format (unit mm)*
G04 Created by KiCad (PCBNEW 10.0.0) date 2026-08-10 11:42:10*
%MOMM*%
%LPD*%
G01*
G04 APERTURE LIST*
G04 Aperture macros list*
%AMRoundRect*
0 Rectangle with rounded corners*
0 $1 Rounding radius*
0 $2 $3 $4 $5 $6 $7 $8 $9 X,Y pos of 4 corners*
0 Add a 4 corners polygon primitive as box body*
4,1,4,$2,$3,$4,$5,$6,$7,$8,$9,$2,$3,0*
0 Add four circle primitives for the rounded corners*
1,1,$1+$1,$2,$3*
1,1,$1+$1,$4,$5*
1,1,$1+$1,$6,$7*
1,1,$1+$1,$8,$9*
0 Add four rect primitives between the rounded corners*
20,1,$1+$1,$2,$3,$4,$5,0*
20,1,$1+$1,$4,$5,$6,$7,0*
20,1,$1+$1,$6,$7,$8,$9,0*
20,1,$1+$1,$8,$9,$2,$3,0*%
G04 Aperture macros list end*
%ADD10RoundRect,0.250000X-0.450000X0.350000X-0.450000X-0.350000X0.450000X-0.350000X0.450000X0.350000X0*%
%ADD11RoundRect,0.250000X-0.350000X-0.450000X0.350000X-0.450000X0.350000X0.450000X-0.350000X0.450000X0*%
%ADD12RoundRect,0.062500X0.117500X0.062500X-0.117500X0.062500X-0.117500X-0.062500X0.117500X-0.062500X0*%
%ADD13R,1.700000X1.700000*%
%ADD14C,1.700000*%
%ADD15C,3.250000*%
%ADD16RoundRect,0.250500X-0.499500X0.499500X-0.499500X-0.499500X0.499500X-0.499500X0.499500X0.499500X0*%
%ADD17C,1.500000*%
%ADD18C,2.500000*%
%ADD19RoundRect,0.250000X0.337500X0.475000X-0.337500X0.475000X-0.337500X-0.475000X0.337500X-0.475000X0*%
%ADD20RoundRect,0.375000X0.625000X0.375000X-0.625000X0.375000X-0.625000X-0.375000X0.625000X-0.375000X0*%
%ADD21RoundRect,0.500000X0.500000X1.400000X-0.500000X1.400000X-0.500000X-1.400000X0.500000X-1.400000X0*%
%ADD22RoundRect,0.102000X2.850000X-2.850000X2.850000X2.850000X-2.850000X2.850000X-2.850000X-2.850000X0*%
%ADD23RoundRect,0.060500X0.776500X-0.181500X0.776500X0.181500X-0.776500X0.181500X-0.776500X-0.181500X0*%
%ADD24RoundRect,0.060500X0.181500X-0.776500X0.181500X0.776500X-0.181500X0.776500X-0.181500X-0.776500X0*%
%ADD25RoundRect,0.250000X-0.800000X-0.450000X0.800000X-0.450000X0.800000X0.450000X-0.800000X0.450000X0*%
%ADD26RoundRect,0.250000X-0.275000X-0.350000X0.275000X-0.350000X0.275000X0.350000X-0.275000X0.350000X0*%
%ADD27RoundRect,0.250000X-0.350000X0.275000X-0.350000X-0.275000X0.350000X-0.275000X0.350000X0.275000X0*%
%ADD28RoundRect,0.250000X-0.475000X0.337500X-0.475000X-0.337500X0.475000X-0.337500X0.475000X0.337500X0*%
%ADD29RoundRect,0.250000X0.450000X-0.325000X0.450000X0.325000X-0.450000X0.325000X-0.450000X-0.325000X0*%
%ADD30RoundRect,0.250000X-0.337500X-0.475000X0.337500X-0.475000X0.337500X0.475000X-0.337500X0.475000X0*%
%ADD31RoundRect,0.250000X-0.450000X-0.350000X0.450000X-0.350000X0.450000X0.350000X-0.450000X0.350000X0*%
%ADD32R,5.600000X5.600000*%
%ADD33RoundRect,0.062500X-0.062500X-0.375000X0.062500X-0.375000X0.062500X0.375000X-0.062500X0.375000X0*%
%ADD34RoundRect,0.062500X-0.375000X-0.062500X0.375000X-0.062500X0.375000X0.062500X-0.375000X0.062500X0*%
%ADD35C,2.200000*%
%ADD36RoundRect,0.250000X0.475000X-0.337500X0.475000X0.337500X-0.475000X0.337500X-0.475000X-0.337500X0*%
%ADD37RoundRect,0.250000X0.500000X-0.550000X0.500000X0.550000X-0.500000X0.550000X-0.500000X-0.550000X0*%
%ADD38C,1.600000*%
%ADD39C,3.000000*%
%ADD40RoundRect,0.250000X0.350000X-0.275000X0.350000X0.275000X-0.350000X0.275000X-0.350000X-0.275000X0*%
%ADD41RoundRect,0.250000X0.450000X-0.350000X0.450000X0.350000X-0.450000X0.350000X-0.450000X-0.350000X0*%
%ADD42RoundRect,0.250000X-0.325000X-0.450000X0.325000X-0.450000X0.325000X0.450000X-0.325000X0.450000X0*%
G04 APERTURE END LIST*
D10*
%TO.C,R6*%
X240510000Y-107285125D03*
X240510000Y-105285125D03*
%TD*%
D11*
%TO.C,R15*%
X192120000Y-123490125D03*
X190120000Y-123490125D03*
%TD*%
%TO.C,R12*%
X192360000Y-109485125D03*
X190360000Y-109485125D03*
%TD*%
D12*
%TO.C,D2*%
X224670000Y-124975125D03*
X223830000Y-124975125D03*
%TD*%
D13*
%TO.C,J1*%
X194890000Y-94525125D03*
D14*
X197430000Y-94525125D03*
X199970000Y-94525125D03*
X202510000Y-94525125D03*
%TD*%
D15*
%TO.C,J2*%
X175530000Y-100310125D03*
X175530000Y-111740125D03*
D16*
X181890000Y-101585125D03*
D17*
X184430000Y-102845125D03*
X181890000Y-104125125D03*
X184430000Y-105385125D03*
X181890000Y-106665125D03*
X184430000Y-107925125D03*
X181890000Y-109205125D03*
X184430000Y-110465125D03*
X170630000Y-99400125D03*
X170630000Y-101940125D03*
X170630000Y-110110125D03*
X170630000Y-112650125D03*
D18*
X178580000Y-98280125D03*
X178580000Y-113770125D03*
%TD*%
D19*
%TO.C,C15*%
X237792500Y-110785125D03*
X239867500Y-110785125D03*
%TD*%
D11*
%TO.C,R10*%
X192360000Y-102775125D03*
X190360000Y-102775125D03*
%TD*%
D20*
%TO.C,U4*%
X226260000Y-132295125D03*
D21*
X219960000Y-134595125D03*
D20*
X226260000Y-134595125D03*
X226260000Y-136895125D03*
%TD*%
D22*
%TO.C,U1*%
X209500000Y-113435125D03*
D23*
X203830000Y-117185125D03*
X203830000Y-116685125D03*
X203830000Y-116185125D03*
X203830000Y-115685125D03*
X203830000Y-115185125D03*
X203830000Y-114685125D03*
X203830000Y-114185125D03*
X203830000Y-113685125D03*
X203830000Y-113185125D03*
X203830000Y-112685125D03*
X203830000Y-112185125D03*
X203830000Y-111685125D03*
X203830000Y-111185125D03*
X203830000Y-110685125D03*
X203830000Y-110185125D03*
X203830000Y-109685125D03*
D24*
X205750000Y-107765125D03*
X206250000Y-107765125D03*
X206750000Y-107765125D03*
X207250000Y-107765125D03*
X207750000Y-107765125D03*
X208250000Y-107765125D03*
X208750000Y-107765125D03*
X209250000Y-107765125D03*
X209750000Y-107765125D03*
X210250000Y-107765125D03*
X210750000Y-107765125D03*
X211250000Y-107765125D03*
X211750000Y-107765125D03*
X212250000Y-107765125D03*
X212750000Y-107765125D03*
X213250000Y-107765125D03*
D23*
X215170000Y-109685125D03*
X215170000Y-110185125D03*
X215170000Y-110685125D03*
X215170000Y-111185125D03*
X215170000Y-111685125D03*
X215170000Y-112185125D03*
X215170000Y-112685125D03*
X215170000Y-113185125D03*
X215170000Y-113685125D03*
X215170000Y-114185125D03*
X215170000Y-114685125D03*
X215170000Y-115185125D03*
X215170000Y-115685125D03*
X215170000Y-116185125D03*
X215170000Y-116685125D03*
X215170000Y-117185125D03*
D24*
X213250000Y-119105125D03*
X212750000Y-119105125D03*
X212250000Y-119105125D03*
X211750000Y-119105125D03*
X211250000Y-119105125D03*
X210750000Y-119105125D03*
X210250000Y-119105125D03*
X209750000Y-119105125D03*
X209250000Y-119105125D03*
X208750000Y-119105125D03*
X208250000Y-119105125D03*
X207750000Y-119105125D03*
X207250000Y-119105125D03*
X206750000Y-119105125D03*
X206250000Y-119105125D03*
X205750000Y-119105125D03*
%TD*%
D25*
%TO.C,SW1*%
X242140000Y-134835125D03*
X233040000Y-134835125D03*
X242140000Y-130335125D03*
X233040000Y-130335125D03*
%TD*%
D26*
%TO.C,FB4*%
X199760000Y-116615125D03*
X197460000Y-116615125D03*
%TD*%
D11*
%TO.C,R9*%
X192320000Y-100535125D03*
X190320000Y-100535125D03*
%TD*%
%TO.C,R17*%
X192090000Y-130040125D03*
X190090000Y-130040125D03*
%TD*%
D27*
%TO.C,FB2*%
X205780000Y-105565125D03*
X205780000Y-103265125D03*
%TD*%
D11*
%TO.C,R19*%
X172580000Y-116930125D03*
X170580000Y-116930125D03*
%TD*%
D28*
%TO.C,C29*%
X229640000Y-135935125D03*
X229640000Y-133860125D03*
%TD*%
D29*
%TO.C,D1*%
X200870000Y-103345125D03*
X200870000Y-105395125D03*
%TD*%
D30*
%TO.C,C2*%
X208097500Y-128315125D03*
X206022500Y-128315125D03*
%TD*%
D31*
%TO.C,Y4*%
X226100000Y-98435125D03*
X228300000Y-98435125D03*
X228300000Y-100135125D03*
X226100000Y-100135125D03*
%TD*%
D10*
%TO.C,R7*%
X244100000Y-107225125D03*
X244100000Y-105225125D03*
%TD*%
D11*
%TO.C,R3*%
X199800000Y-114665125D03*
X197800000Y-114665125D03*
%TD*%
D32*
%TO.C,U2*%
X235100000Y-104525125D03*
D33*
X232350000Y-101087625D03*
X232850000Y-101087625D03*
X233350000Y-101087625D03*
X233850000Y-101087625D03*
X234350000Y-101087625D03*
X234850000Y-101087625D03*
X235350000Y-101087625D03*
X235850000Y-101087625D03*
X236350000Y-101087625D03*
X236850000Y-101087625D03*
X237350000Y-101087625D03*
X237850000Y-101087625D03*
D34*
X238537500Y-101775125D03*
X238537500Y-102275125D03*
X238537500Y-102775125D03*
X238537500Y-103275125D03*
X238537500Y-103775125D03*
X238537500Y-104275125D03*
X238537500Y-104775125D03*
X238537500Y-105275125D03*
X238537500Y-105775125D03*
X238537500Y-106275125D03*
X238537500Y-106775125D03*
X238537500Y-107275125D03*
D33*
X237850000Y-107962625D03*
X237350000Y-107962625D03*
X236850000Y-107962625D03*
X236350000Y-107962625D03*
X235850000Y-107962625D03*
X235350000Y-107962625D03*
X234850000Y-107962625D03*
X234350000Y-107962625D03*
X233850000Y-107962625D03*
X233350000Y-107962625D03*
X232850000Y-107962625D03*
X232350000Y-107962625D03*
D34*
X231662500Y-107275125D03*
X231662500Y-106775125D03*
X231662500Y-106275125D03*
X231662500Y-105775125D03*
X231662500Y-105275125D03*
X231662500Y-104775125D03*
X231662500Y-104275125D03*
X231662500Y-103775125D03*
X231662500Y-103275125D03*
X231662500Y-102775125D03*
X231662500Y-102275125D03*
X231662500Y-101775125D03*
%TD*%
D28*
%TO.C,C8*%
X210940000Y-123692625D03*
X210940000Y-121617625D03*
%TD*%
D35*
%TO.C,H1*%
X242700000Y-94525125D03*
%TD*%
D28*
%TO.C,C17*%
X233590000Y-99212625D03*
X233590000Y-97137625D03*
%TD*%
D30*
%TO.C,C25*%
X197397500Y-104155125D03*
X195322500Y-104155125D03*
%TD*%
%TO.C,C26*%
X197397500Y-107165125D03*
X195322500Y-107165125D03*
%TD*%
D19*
%TO.C,C22*%
X226262500Y-94725125D03*
X228337500Y-94725125D03*
%TD*%
D17*
%TO.C,Y1*%
X206120000Y-123495125D03*
X201240000Y-123495125D03*
%TD*%
D35*
%TO.C,H2*%
X242700000Y-138525125D03*
%TD*%
D30*
%TO.C,C4*%
X221005000Y-108785125D03*
X218930000Y-108785125D03*
%TD*%
D36*
%TO.C,C6*%
X211960000Y-103237625D03*
X211960000Y-105312625D03*
%TD*%
D28*
%TO.C,C28*%
X226870000Y-126972625D03*
X226870000Y-124897625D03*
%TD*%
D10*
%TO.C,R2*%
X207810000Y-105455125D03*
X207810000Y-103455125D03*
%TD*%
D30*
%TO.C,C5*%
X221447500Y-115945125D03*
X219372500Y-115945125D03*
%TD*%
D19*
%TO.C,C23*%
X233502500Y-110835125D03*
X235577500Y-110835125D03*
%TD*%
D17*
%TO.C,Y3*%
X225700000Y-105365125D03*
X225700000Y-110245125D03*
%TD*%
D10*
%TO.C,R4*%
X236200000Y-99225125D03*
X236200000Y-97225125D03*
%TD*%
D19*
%TO.C,C21*%
X215162500Y-102825125D03*
X217237500Y-102825125D03*
%TD*%
%TO.C,C31*%
X215340000Y-132285125D03*
X217415000Y-132285125D03*
%TD*%
%TO.C,C30*%
X215440000Y-134625125D03*
X217515000Y-134625125D03*
%TD*%
D11*
%TO.C,R16*%
X192120000Y-125630125D03*
X190120000Y-125630125D03*
%TD*%
%TO.C,R18*%
X192110000Y-127860125D03*
X190110000Y-127860125D03*
%TD*%
D28*
%TO.C,C18*%
X231430000Y-99352625D03*
X231430000Y-97277625D03*
%TD*%
D11*
%TO.C,R13*%
X192390000Y-107195125D03*
X190390000Y-107195125D03*
%TD*%
D37*
%TO.C,J4*%
X232070000Y-123995125D03*
D38*
X232070000Y-121495125D03*
X232070000Y-119495125D03*
X232070000Y-116995125D03*
D39*
X234780000Y-127065125D03*
X234780000Y-113925125D03*
%TD*%
D40*
%TO.C,FB1*%
X209860000Y-103085125D03*
X209860000Y-105385125D03*
%TD*%
D35*
%TO.C,H4*%
X168700000Y-94525125D03*
%TD*%
D41*
%TO.C,R23*%
X209960000Y-135172625D03*
X209960000Y-137172625D03*
%TD*%
D28*
%TO.C,C16*%
X238950000Y-99272625D03*
X238950000Y-97197625D03*
%TD*%
D11*
%TO.C,R11*%
X192390000Y-104935125D03*
X190390000Y-104935125D03*
%TD*%
D15*
%TO.C,J3*%
X175350000Y-121250125D03*
X175350000Y-132680125D03*
D16*
X181710000Y-122525125D03*
D17*
X184250000Y-123785125D03*
X181710000Y-125065125D03*
X184250000Y-126325125D03*
X181710000Y-127605125D03*
X184250000Y-128865125D03*
X181710000Y-130145125D03*
X184250000Y-131405125D03*
X170450000Y-120340125D03*
X170450000Y-122880125D03*
X170450000Y-131050125D03*
X170450000Y-133590125D03*
D18*
X178400000Y-119220125D03*
X178400000Y-134710125D03*
%TD*%
D26*
%TO.C,FB3*%
X201040000Y-110785125D03*
X198740000Y-110785125D03*
%TD*%
D35*
%TO.C,H3*%
X168700000Y-138525125D03*
%TD*%
D28*
%TO.C,C27*%
X219330000Y-120192625D03*
X219330000Y-118117625D03*
%TD*%
D41*
%TO.C,R1*%
X203710000Y-103455125D03*
X203710000Y-105455125D03*
%TD*%
D28*
%TO.C,C7*%
X213750000Y-123712625D03*
X213750000Y-121637625D03*
%TD*%
D11*
%TO.C,R5*%
X225620000Y-129805125D03*
X223620000Y-129805125D03*
%TD*%
D42*
%TO.C,D3*%
X217432500Y-137005125D03*
X215382500Y-137005125D03*
%TD*%
D11*
%TO.C,R14*%
X192130000Y-121230125D03*
X190130000Y-121230125D03*
%TD*%
D30*
%TO.C,C1*%
X201137500Y-128315125D03*
X199062500Y-128315125D03*
%TD*%
M02*
